<?xml version="1.0" encoding="utf-8" standalone="no"?>
<!DOCTYPE svg PUBLIC "-//W3C//DTD SVG 1.1//EN"
  "http://www.w3.org/Graphics/SVG/1.1/DTD/svg11.dtd">
<svg xmlns:xlink="http://www.w3.org/1999/xlink" width="720pt" height="432pt" viewBox="0 0 720 432" xmlns="http://www.w3.org/2000/svg" version="1.1">
 <metadata>
  <rdf:RDF xmlns:dc="http://purl.org/dc/elements/1.1/" xmlns:cc="http://creativecommons.org/ns#" xmlns:rdf="http://www.w3.org/1999/02/22-rdf-syntax-ns#">
   <cc:Work>
    <dc:type rdf:resource="http://purl.org/dc/dcmitype/StillImage"/>
    <dc:date>2025-08-12T18:47:58.528553</dc:date>
    <dc:format>image/svg+xml</dc:format>
    <dc:creator>
     <cc:Agent>
      <dc:title>Matplotlib v3.10.3, https://matplotlib.org/</dc:title>
     </cc:Agent>
    </dc:creator>
   </cc:Work>
  </rdf:RDF>
 </metadata>
 <defs>
  <style type="text/css">*{stroke-linejoin: round; stroke-linecap: butt}</style>
 </defs>
 <g id="figure_1">
  <g id="patch_1">
   <path d="M 0 432 
L 720 432 
L 720 0 
L 0 0 
z
" style="fill: #ffffff"/>
  </g>
  <g id="axes_1">
   <g id="patch_2">
    <path d="M 90 384.48 
L 648 384.48 
L 648 51.84 
L 90 51.84 
z
" style="fill: #ffffff"/>
   </g>
   <g id="matplotlib.axis_1">
    <g id="xtick_1">
     <g id="line2d_1">
      <defs>
       <path id="m11b2def340" d="M 0 0 
L 0 3.5 
" style="stroke: #000000; stroke-width: 0.8"/>
      </defs>
      <g>
       <use xlink:href="#m11b2def340" x="130.40869" y="384.48" style="stroke: #000000; stroke-width: 0.8"/>
      </g>
     </g>
     <g id="text_1">
      <!-- 2 -->
      <g transform="translate(127.22744 399.078438) scale(0.1 -0.1)">
       <defs>
        <path id="DejaVuSans-32" d="M 1228 531 
L 3431 531 
L 3431 0 
L 469 0 
L 469 531 
Q 828 903 1448 1529 
Q 2069 2156 2228 2338 
Q 2531 2678 2651 2914 
Q 2772 3150 2772 3378 
Q 2772 3750 2511 3984 
Q 2250 4219 1831 4219 
Q 1534 4219 1204 4116 
Q 875 4013 500 3803 
L 500 4441 
Q 881 4594 1212 4672 
Q 1544 4750 1819 4750 
Q 2544 4750 2975 4387 
Q 3406 4025 3406 3419 
Q 3406 3131 3298 2873 
Q 3191 2616 2906 2266 
Q 2828 2175 2409 1742 
Q 1991 1309 1228 531 
z
" transform="scale(0.015625)"/>
       </defs>
       <use xlink:href="#DejaVuSans-32"/>
      </g>
     </g>
    </g>
    <g id="xtick_2">
     <g id="line2d_2">
      <g>
       <use xlink:href="#m11b2def340" x="220.025247" y="384.48" style="stroke: #000000; stroke-width: 0.8"/>
      </g>
     </g>
     <g id="text_2">
      <!-- 4 -->
      <g transform="translate(216.843997 399.078438) scale(0.1 -0.1)">
       <defs>
        <path id="DejaVuSans-34" d="M 2419 4116 
L 825 1625 
L 2419 1625 
L 2419 4116 
z
M 2253 4666 
L 3047 4666 
L 3047 1625 
L 3713 1625 
L 3713 1100 
L 3047 1100 
L 3047 0 
L 2419 0 
L 2419 1100 
L 313 1100 
L 313 1709 
L 2253 4666 
z
" transform="scale(0.015625)"/>
       </defs>
       <use xlink:href="#DejaVuSans-34"/>
      </g>
     </g>
    </g>
    <g id="xtick_3">
     <g id="line2d_3">
      <g>
       <use xlink:href="#m11b2def340" x="309.641804" y="384.48" style="stroke: #000000; stroke-width: 0.8"/>
      </g>
     </g>
     <g id="text_3">
      <!-- 6 -->
      <g transform="translate(306.460554 399.078438) scale(0.1 -0.1)">
       <defs>
        <path id="DejaVuSans-36" d="M 2113 2584 
Q 1688 2584 1439 2293 
Q 1191 2003 1191 1497 
Q 1191 994 1439 701 
Q 1688 409 2113 409 
Q 2538 409 2786 701 
Q 3034 994 3034 1497 
Q 3034 2003 2786 2293 
Q 2538 2584 2113 2584 
z
M 3366 4563 
L 3366 3988 
Q 3128 4100 2886 4159 
Q 2644 4219 2406 4219 
Q 1781 4219 1451 3797 
Q 1122 3375 1075 2522 
Q 1259 2794 1537 2939 
Q 1816 3084 2150 3084 
Q 2853 3084 3261 2657 
Q 3669 2231 3669 1497 
Q 3669 778 3244 343 
Q 2819 -91 2113 -91 
Q 1303 -91 875 529 
Q 447 1150 447 2328 
Q 447 3434 972 4092 
Q 1497 4750 2381 4750 
Q 2619 4750 2861 4703 
Q 3103 4656 3366 4563 
z
" transform="scale(0.015625)"/>
       </defs>
       <use xlink:href="#DejaVuSans-36"/>
      </g>
     </g>
    </g>
    <g id="xtick_4">
     <g id="line2d_4">
      <g>
       <use xlink:href="#m11b2def340" x="399.258361" y="384.48" style="stroke: #000000; stroke-width: 0.8"/>
      </g>
     </g>
     <g id="text_4">
      <!-- 8 -->
      <g transform="translate(396.077111 399.078438) scale(0.1 -0.1)">
       <defs>
        <path id="DejaVuSans-38" d="M 2034 2216 
Q 1584 2216 1326 1975 
Q 1069 1734 1069 1313 
Q 1069 891 1326 650 
Q 1584 409 2034 409 
Q 2484 409 2743 651 
Q 3003 894 3003 1313 
Q 3003 1734 2745 1975 
Q 2488 2216 2034 2216 
z
M 1403 2484 
Q 997 2584 770 2862 
Q 544 3141 544 3541 
Q 544 4100 942 4425 
Q 1341 4750 2034 4750 
Q 2731 4750 3128 4425 
Q 3525 4100 3525 3541 
Q 3525 3141 3298 2862 
Q 3072 2584 2669 2484 
Q 3125 2378 3379 2068 
Q 3634 1759 3634 1313 
Q 3634 634 3220 271 
Q 2806 -91 2034 -91 
Q 1263 -91 848 271 
Q 434 634 434 1313 
Q 434 1759 690 2068 
Q 947 2378 1403 2484 
z
M 1172 3481 
Q 1172 3119 1398 2916 
Q 1625 2713 2034 2713 
Q 2441 2713 2670 2916 
Q 2900 3119 2900 3481 
Q 2900 3844 2670 4047 
Q 2441 4250 2034 4250 
Q 1625 4250 1398 4047 
Q 1172 3844 1172 3481 
z
" transform="scale(0.015625)"/>
       </defs>
       <use xlink:href="#DejaVuSans-38"/>
      </g>
     </g>
    </g>
    <g id="xtick_5">
     <g id="line2d_5">
      <g>
       <use xlink:href="#m11b2def340" x="488.874918" y="384.48" style="stroke: #000000; stroke-width: 0.8"/>
      </g>
     </g>
     <g id="text_5">
      <!-- 10 -->
      <g transform="translate(482.512418 399.078438) scale(0.1 -0.1)">
       <defs>
        <path id="DejaVuSans-31" d="M 794 531 
L 1825 531 
L 1825 4091 
L 703 3866 
L 703 4441 
L 1819 4666 
L 2450 4666 
L 2450 531 
L 3481 531 
L 3481 0 
L 794 0 
L 794 531 
z
" transform="scale(0.015625)"/>
        <path id="DejaVuSans-30" d="M 2034 4250 
Q 1547 4250 1301 3770 
Q 1056 3291 1056 2328 
Q 1056 1369 1301 889 
Q 1547 409 2034 409 
Q 2525 409 2770 889 
Q 3016 1369 3016 2328 
Q 3016 3291 2770 3770 
Q 2525 4250 2034 4250 
z
M 2034 4750 
Q 2819 4750 3233 4129 
Q 3647 3509 3647 2328 
Q 3647 1150 3233 529 
Q 2819 -91 2034 -91 
Q 1250 -91 836 529 
Q 422 1150 422 2328 
Q 422 3509 836 4129 
Q 1250 4750 2034 4750 
z
" transform="scale(0.015625)"/>
       </defs>
       <use xlink:href="#DejaVuSans-31"/>
       <use xlink:href="#DejaVuSans-30" transform="translate(63.623047 0)"/>
      </g>
     </g>
    </g>
    <g id="xtick_6">
     <g id="line2d_6">
      <g>
       <use xlink:href="#m11b2def340" x="578.491475" y="384.48" style="stroke: #000000; stroke-width: 0.8"/>
      </g>
     </g>
     <g id="text_6">
      <!-- 12 -->
      <g transform="translate(572.128975 399.078438) scale(0.1 -0.1)">
       <use xlink:href="#DejaVuSans-31"/>
       <use xlink:href="#DejaVuSans-32" transform="translate(63.623047 0)"/>
      </g>
     </g>
    </g>
    <g id="text_7">
     <!-- x -->
     <g transform="translate(365.44875 414.27625) scale(0.12 -0.12)">
      <defs>
       <path id="DejaVuSans-78" d="M 3513 3500 
L 2247 1797 
L 3578 0 
L 2900 0 
L 1881 1375 
L 863 0 
L 184 0 
L 1544 1831 
L 300 3500 
L 978 3500 
L 1906 2253 
L 2834 3500 
L 3513 3500 
z
" transform="scale(0.015625)"/>
      </defs>
      <use xlink:href="#DejaVuSans-78"/>
     </g>
    </g>
   </g>
   <g id="matplotlib.axis_2">
    <g id="ytick_1">
     <g id="line2d_7">
      <defs>
       <path id="mf2b7fd9304" d="M 0 0 
L -3.5 0 
" style="stroke: #000000; stroke-width: 0.8"/>
      </defs>
      <g>
       <use xlink:href="#mf2b7fd9304" x="90" y="372.284229" style="stroke: #000000; stroke-width: 0.8"/>
      </g>
     </g>
     <g id="text_8">
      <!-- 0 -->
      <g transform="translate(76.6375 376.083447) scale(0.1 -0.1)">
       <use xlink:href="#DejaVuSans-30"/>
      </g>
     </g>
    </g>
    <g id="ytick_2">
     <g id="line2d_8">
      <g>
       <use xlink:href="#mf2b7fd9304" x="90" y="326.779671" style="stroke: #000000; stroke-width: 0.8"/>
      </g>
     </g>
     <g id="text_9">
      <!-- 5 -->
      <g transform="translate(76.6375 330.57889) scale(0.1 -0.1)">
       <defs>
        <path id="DejaVuSans-35" d="M 691 4666 
L 3169 4666 
L 3169 4134 
L 1269 4134 
L 1269 2991 
Q 1406 3038 1543 3061 
Q 1681 3084 1819 3084 
Q 2600 3084 3056 2656 
Q 3513 2228 3513 1497 
Q 3513 744 3044 326 
Q 2575 -91 1722 -91 
Q 1428 -91 1123 -41 
Q 819 9 494 109 
L 494 744 
Q 775 591 1075 516 
Q 1375 441 1709 441 
Q 2250 441 2565 725 
Q 2881 1009 2881 1497 
Q 2881 1984 2565 2268 
Q 2250 2553 1709 2553 
Q 1456 2553 1204 2497 
Q 953 2441 691 2322 
L 691 4666 
z
" transform="scale(0.015625)"/>
       </defs>
       <use xlink:href="#DejaVuSans-35"/>
      </g>
     </g>
    </g>
    <g id="ytick_3">
     <g id="line2d_9">
      <g>
       <use xlink:href="#mf2b7fd9304" x="90" y="281.275113" style="stroke: #000000; stroke-width: 0.8"/>
      </g>
     </g>
     <g id="text_10">
      <!-- 10 -->
      <g transform="translate(70.275 285.074332) scale(0.1 -0.1)">
       <use xlink:href="#DejaVuSans-31"/>
       <use xlink:href="#DejaVuSans-30" transform="translate(63.623047 0)"/>
      </g>
     </g>
    </g>
    <g id="ytick_4">
     <g id="line2d_10">
      <g>
       <use xlink:href="#mf2b7fd9304" x="90" y="235.770555" style="stroke: #000000; stroke-width: 0.8"/>
      </g>
     </g>
     <g id="text_11">
      <!-- 15 -->
      <g transform="translate(70.275 239.569774) scale(0.1 -0.1)">
       <use xlink:href="#DejaVuSans-31"/>
       <use xlink:href="#DejaVuSans-35" transform="translate(63.623047 0)"/>
      </g>
     </g>
    </g>
    <g id="ytick_5">
     <g id="line2d_11">
      <g>
       <use xlink:href="#mf2b7fd9304" x="90" y="190.265998" style="stroke: #000000; stroke-width: 0.8"/>
      </g>
     </g>
     <g id="text_12">
      <!-- 20 -->
      <g transform="translate(70.275 194.065217) scale(0.1 -0.1)">
       <use xlink:href="#DejaVuSans-32"/>
       <use xlink:href="#DejaVuSans-30" transform="translate(63.623047 0)"/>
      </g>
     </g>
    </g>
    <g id="ytick_6">
     <g id="line2d_12">
      <g>
       <use xlink:href="#mf2b7fd9304" x="90" y="144.76144" style="stroke: #000000; stroke-width: 0.8"/>
      </g>
     </g>
     <g id="text_13">
      <!-- 25 -->
      <g transform="translate(70.275 148.560659) scale(0.1 -0.1)">
       <use xlink:href="#DejaVuSans-32"/>
       <use xlink:href="#DejaVuSans-35" transform="translate(63.623047 0)"/>
      </g>
     </g>
    </g>
    <g id="ytick_7">
     <g id="line2d_13">
      <g>
       <use xlink:href="#mf2b7fd9304" x="90" y="99.256882" style="stroke: #000000; stroke-width: 0.8"/>
      </g>
     </g>
     <g id="text_14">
      <!-- 30 -->
      <g transform="translate(70.275 103.056101) scale(0.1 -0.1)">
       <defs>
        <path id="DejaVuSans-33" d="M 2597 2516 
Q 3050 2419 3304 2112 
Q 3559 1806 3559 1356 
Q 3559 666 3084 287 
Q 2609 -91 1734 -91 
Q 1441 -91 1130 -33 
Q 819 25 488 141 
L 488 750 
Q 750 597 1062 519 
Q 1375 441 1716 441 
Q 2309 441 2620 675 
Q 2931 909 2931 1356 
Q 2931 1769 2642 2001 
Q 2353 2234 1838 2234 
L 1294 2234 
L 1294 2753 
L 1863 2753 
Q 2328 2753 2575 2939 
Q 2822 3125 2822 3475 
Q 2822 3834 2567 4026 
Q 2313 4219 1838 4219 
Q 1578 4219 1281 4162 
Q 984 4106 628 3988 
L 628 4550 
Q 988 4650 1302 4700 
Q 1616 4750 1894 4750 
Q 2613 4750 3031 4423 
Q 3450 4097 3450 3541 
Q 3450 3153 3228 2886 
Q 3006 2619 2597 2516 
z
" transform="scale(0.015625)"/>
       </defs>
       <use xlink:href="#DejaVuSans-33"/>
       <use xlink:href="#DejaVuSans-30" transform="translate(63.623047 0)"/>
      </g>
     </g>
    </g>
    <g id="ytick_8">
     <g id="line2d_14">
      <g>
       <use xlink:href="#mf2b7fd9304" x="90" y="53.752325" style="stroke: #000000; stroke-width: 0.8"/>
      </g>
     </g>
     <g id="text_15">
      <!-- 35 -->
      <g transform="translate(70.275 57.551543) scale(0.1 -0.1)">
       <use xlink:href="#DejaVuSans-33"/>
       <use xlink:href="#DejaVuSans-35" transform="translate(63.623047 0)"/>
      </g>
     </g>
    </g>
    <g id="text_16">
     <!-- y -->
     <g transform="translate(63.779375 221.71125) rotate(-90) scale(0.12 -0.12)">
      <defs>
       <path id="DejaVuSans-79" d="M 2059 -325 
Q 1816 -950 1584 -1140 
Q 1353 -1331 966 -1331 
L 506 -1331 
L 506 -850 
L 844 -850 
Q 1081 -850 1212 -737 
Q 1344 -625 1503 -206 
L 1606 56 
L 191 3500 
L 800 3500 
L 1894 763 
L 2988 3500 
L 3597 3500 
L 2059 -325 
z
" transform="scale(0.015625)"/>
      </defs>
      <use xlink:href="#DejaVuSans-79"/>
     </g>
    </g>
   </g>
   <g id="line2d_15">
    <path d="M 115.363636 363.355257 
L 145.111047 365.61689 
L 158.756142 367.292077 
L 176.907161 364.733262 
L 180.333411 364.33096 
L 180.704232 366.172462 
L 182.328097 363.767991 
L 191.790249 364.474319 
L 200.379571 363.336439 
L 214.982381 362.072735 
L 231.486862 359.964193 
L 233.87296 359.070223 
L 245.875544 359.559008 
L 245.818735 356.030316 
L 256.664544 353.2536 
L 277.112453 353.316884 
L 279.229005 351.970266 
L 278.636847 346.45319 
L 289.459946 342.374638 
L 291.448022 339.725165 
L 294.354862 335.778375 
L 307.604079 332.661271 
L 317.565865 328.120373 
L 317.781465 325.019649 
L 328.092734 321.770843 
L 336.160365 314.640651 
L 341.73259 312.620286 
L 361.196264 308.897808 
L 370.985329 303.984017 
L 388.188342 301.290536 
L 390.932389 295.834101 
L 407.985374 289.853745 
L 426.002267 284.439343 
L 437.29227 280.391361 
L 440.456789 276.949969 
L 445.342116 273.480637 
L 459.736771 269.235463 
L 469.414012 264.867838 
L 485.619891 260.285908 
L 495.813073 259.181717 
L 511.586861 256.220828 
L 518.063536 254.310395 
L 525.771801 250.28578 
L 534.741095 246.08697 
L 540.58861 242.759833 
L 550.399816 237.640073 
L 553.132716 232.536581 
L 578.887707 230.705923 
L 583.109428 226.494219 
L 594.147118 223.214085 
L 597.938799 217.543242 
L 601.420428 213.921237 
L 606.063152 211.016608 
L 602.653967 205.427671 
L 586.14928 200.52882 
L 597.01013 197.281621 
L 595.789065 193.117989 
L 605.571637 190.185224 
L 600.315982 185.412889 
L 597.676134 181.541369 
L 596.502584 179.383368 
L 597.217542 177.920556 
L 577.736835 175.398797 
L 586.842243 171.129319 
L 580.719019 168.394403 
L 572.932785 166.189878 
L 576.031908 162.243864 
L 570.906787 158.853187 
L 578.765857 152.833512 
L 574.597487 149.471353 
L 568.994961 148.32172 
L 573.39496 145.036722 
L 571.513589 141.590645 
L 565.955565 138.739121 
L 569.526653 133.068439 
L 567.317742 132.12899 
L 562.873858 130.854944 
L 563.458107 129.264299 
L 572.804287 125.810281 
L 578.808258 126.688838 
L 571.188866 123.691852 
L 567.841203 120.695149 
L 577.951347 117.087731 
L 572.078158 111.314911 
L 571.35711 107.420791 
L 574.442847 105.093753 
L 585.233753 99.368084 
L 595.731874 95.83782 
L 593.177707 92.568213 
L 587.874281 89.811659 
L 585.577074 86.372956 
L 565.915957 83.298186 
L 565.765841 82.863799 
L 563.82233 79.012894 
L 565.582229 76.697607 
L 549.310362 74.929123 
L 546.347017 71.627941 
L 542.676061 70.778743 
L 533.799335 68.687022 
L 521.760253 67.300598 
" clip-path="url(#pd7c88b38d1)" style="fill: none; stroke-dasharray: 5.55,2.4; stroke-dashoffset: 0; stroke: #008000; stroke-width: 1.5"/>
   </g>
   <g id="line2d_16">
    <path d="M 144.772033 365.630395 
L 152.543052 365.478182 
L 160.383587 365.228756 
L 168.225956 364.878232 
L 176.064016 364.428312 
L 183.971397 363.862905 
L 192.007738 363.160782 
L 200.165615 362.311093 
L 208.374017 361.296006 
L 216.54439 360.104007 
L 224.58744 358.725029 
L 232.465452 357.146544 
L 240.204951 355.350482 
L 247.819285 353.325692 
L 255.333398 351.077614 
L 262.727363 348.604176 
L 270.019111 345.901105 
L 277.340832 342.987816 
L 284.813979 339.899168 
L 292.507495 336.65399 
L 300.50214 333.261211 
L 308.838341 329.73321 
L 317.516634 326.081855 
L 326.572965 322.321551 
L 336.052336 318.463711 
L 345.933674 314.527016 
L 356.175855 310.533234 
L 366.705773 306.48529 
L 377.411632 302.397819 
L 388.228999 298.293503 
L 399.107987 294.19554 
L 410.026611 290.138939 
L 420.914406 286.151654 
L 431.740853 282.243241 
L 442.548253 278.407636 
L 453.389372 274.634156 
L 464.245981 270.91411 
L 475.034415 267.239683 
L 485.671993 263.596138 
L 496.071789 259.95669 
L 506.178182 256.28556 
L 515.948897 252.562721 
L 525.37688 248.780616 
L 534.433273 244.947541 
L 543.06126 241.074323 
L 551.18317 237.171119 
L 558.686393 233.251227 
L 565.436626 229.318036 
L 571.279404 225.36696 
L 576.188035 221.408123 
L 580.172646 217.45731 
L 583.295727 213.534732 
L 585.643554 209.651036 
L 587.325541 205.819776 
L 588.480363 202.062381 
L 589.191637 198.388052 
L 589.411694 194.794478 
L 589.132315 191.278938 
L 588.376012 187.835395 
L 587.245698 184.45771 
L 585.841451 181.127016 
L 584.258094 177.81636 
L 582.611039 174.507486 
L 581.017376 171.19974 
L 579.484964 167.901337 
L 578.06843 164.616388 
L 576.800802 161.355012 
L 575.663698 158.138479 
L 574.65132 154.987738 
L 573.7508 151.917976 
L 573.009876 148.920466 
L 572.464544 145.980057 
L 572.11759 143.093963 
L 572.002106 140.258705 
L 572.142261 137.464394 
L 572.522228 134.691595 
L 573.136062 131.895849 
L 573.950074 129.038155 
L 574.873273 126.093075 
L 575.804022 123.044217 
L 576.708542 119.879327 
L 577.592057 116.618214 
L 578.386643 113.295028 
L 578.976422 109.952055 
L 579.2842 106.631706 
L 579.180003 103.360331 
L 578.494403 100.160523 
L 577.0797 97.060377 
L 574.897965 94.071602 
L 572.035435 91.19789 
L 568.611388 88.440389 
L 564.746129 85.799352 
L 560.550663 83.268299 
L 556.02641 80.838894 
L 551.181649 78.515875 
L 546.072841 76.29684 
L 540.806166 74.176868 
L 535.426963 72.151568 
L 529.988056 70.208872 
L 524.564306 68.342091 
" clip-path="url(#pd7c88b38d1)" style="fill: none; stroke: #0000ff; stroke-width: 1.5; stroke-linecap: square"/>
   </g>
   <g id="line2d_17">
    <defs>
     <path id="m3bb560f702" d="M 0 1.5 
C 0.397805 1.5 0.77937 1.341951 1.06066 1.06066 
C 1.341951 0.77937 1.5 0.397805 1.5 0 
C 1.5 -0.397805 1.341951 -0.77937 1.06066 -1.06066 
C 0.77937 -1.341951 0.397805 -1.5 0 -1.5 
C -0.397805 -1.5 -0.77937 -1.341951 -1.06066 -1.06066 
C -1.341951 -0.77937 -1.5 -0.397805 -1.5 0 
C -1.5 0.397805 -1.341951 0.77937 -1.06066 1.06066 
C -0.77937 1.341951 -0.397805 1.5 0 1.5 
z
" style="stroke: #ff0000"/>
    </defs>
    <g clip-path="url(#pd7c88b38d1)">
     <use xlink:href="#m3bb560f702" x="132.70709" y="360.920649" style="fill: #ff0000; stroke: #ff0000"/>
     <use xlink:href="#m3bb560f702" x="173.535199" y="367.300917" style="fill: #ff0000; stroke: #ff0000"/>
     <use xlink:href="#m3bb560f702" x="170.892198" y="368.657431" style="fill: #ff0000; stroke: #ff0000"/>
     <use xlink:href="#m3bb560f702" x="197.505615" y="357.725438" style="fill: #ff0000; stroke: #ff0000"/>
     <use xlink:href="#m3bb560f702" x="168.097715" y="362.916607" style="fill: #ff0000; stroke: #ff0000"/>
     <use xlink:href="#m3bb560f702" x="165.568713" y="369.36" style="fill: #ff0000; stroke: #ff0000"/>
     <use xlink:href="#m3bb560f702" x="172.994045" y="358.250009" style="fill: #ff0000; stroke: #ff0000"/>
     <use xlink:href="#m3bb560f702" x="199.239586" y="365.98635" style="fill: #ff0000; stroke: #ff0000"/>
     <use xlink:href="#m3bb560f702" x="204.776556" y="360.981392" style="fill: #ff0000; stroke: #ff0000"/>
     <use xlink:href="#m3bb560f702" x="230.752807" y="359.856493" style="fill: #ff0000; stroke: #ff0000"/>
     <use xlink:href="#m3bb560f702" x="248.717303" y="356.340112" style="fill: #ff0000; stroke: #ff0000"/>
     <use xlink:href="#m3bb560f702" x="218.100627" y="358.619164" style="fill: #ff0000; stroke: #ff0000"/>
     <use xlink:href="#m3bb560f702" x="253.766523" y="362.225634" style="fill: #ff0000; stroke: #ff0000"/>
     <use xlink:href="#m3bb560f702" x="225.332725" y="349.237367" style="fill: #ff0000; stroke: #ff0000"/>
     <use xlink:href="#m3bb560f702" x="264.408425" y="349.286211" style="fill: #ff0000; stroke: #ff0000"/>
     <use xlink:href="#m3bb560f702" x="305.708272" y="356.561362" style="fill: #ff0000; stroke: #ff0000"/>
     <use xlink:href="#m3bb560f702" x="260.399531" y="351.389419" style="fill: #ff0000; stroke: #ff0000"/>
     <use xlink:href="#m3bb560f702" x="256.742005" y="336.249985" style="fill: #ff0000; stroke: #ff0000"/>
     <use xlink:href="#m3bb560f702" x="298.056105" y="337.311969" style="fill: #ff0000; stroke: #ff0000"/>
     <use xlink:href="#m3bb560f702" x="277.867585" y="338.894428" style="fill: #ff0000; stroke: #ff0000"/>
     <use xlink:href="#m3bb560f702" x="285.319345" y="332.057986" style="fill: #ff0000; stroke: #ff0000"/>
     <use xlink:href="#m3bb560f702" x="324.373197" y="331.540406" style="fill: #ff0000; stroke: #ff0000"/>
     <use xlink:href="#m3bb560f702" x="323.673527" y="323.865245" style="fill: #ff0000; stroke: #ff0000"/>
     <use xlink:href="#m3bb560f702" x="299.99682" y="324.888373" style="fill: #ff0000; stroke: #ff0000"/>
     <use xlink:href="#m3bb560f702" x="337.084352" y="321.316215" style="fill: #ff0000; stroke: #ff0000"/>
     <use xlink:href="#m3bb560f702" x="338.309735" y="305.181991" style="fill: #ff0000; stroke: #ff0000"/>
     <use xlink:href="#m3bb560f702" x="337.660973" y="316.794982" style="fill: #ff0000; stroke: #ff0000"/>
     <use xlink:href="#m3bb560f702" x="390.360765" y="308.349922" style="fill: #ff0000; stroke: #ff0000"/>
     <use xlink:href="#m3bb560f702" x="372.344944" y="300.744361" style="fill: #ff0000; stroke: #ff0000"/>
     <use xlink:href="#m3bb560f702" x="406.663228" y="303.821491" style="fill: #ff0000; stroke: #ff0000"/>
     <use xlink:href="#m3bb560f702" x="372.29054" y="291.449201" style="fill: #ff0000; stroke: #ff0000"/>
     <use xlink:href="#m3bb560f702" x="426.139779" y="285.017809" style="fill: #ff0000; stroke: #ff0000"/>
     <use xlink:href="#m3bb560f702" x="443.202362" y="281.783758" style="fill: #ff0000; stroke: #ff0000"/>
     <use xlink:href="#m3bb560f702" x="435.700842" y="281.404593" style="fill: #ff0000; stroke: #ff0000"/>
     <use xlink:href="#m3bb560f702" x="420.123011" y="279.204164" style="fill: #ff0000; stroke: #ff0000"/>
     <use xlink:href="#m3bb560f702" x="432.634012" y="275.270675" style="fill: #ff0000; stroke: #ff0000"/>
     <use xlink:href="#m3bb560f702" x="471.540607" y="268.892398" style="fill: #ff0000; stroke: #ff0000"/>
     <use xlink:href="#m3bb560f702" x="468.085034" y="264.298767" style="fill: #ff0000; stroke: #ff0000"/>
     <use xlink:href="#m3bb560f702" x="499.811402" y="259.315751" style="fill: #ff0000; stroke: #ff0000"/>
     <use xlink:href="#m3bb560f702" x="493.416748" y="266.525555" style="fill: #ff0000; stroke: #ff0000"/>
     <use xlink:href="#m3bb560f702" x="522.680224" y="257.918522" style="fill: #ff0000; stroke: #ff0000"/>
     <use xlink:href="#m3bb560f702" x="505.427353" y="258.167193" style="fill: #ff0000; stroke: #ff0000"/>
     <use xlink:href="#m3bb560f702" x="518.254391" y="248.510429" style="fill: #ff0000; stroke: #ff0000"/>
     <use xlink:href="#m3bb560f702" x="531.505902" y="244.21783" style="fill: #ff0000; stroke: #ff0000"/>
     <use xlink:href="#m3bb560f702" x="530.616732" y="243.262166" style="fill: #ff0000; stroke: #ff0000"/>
     <use xlink:href="#m3bb560f702" x="551.472038" y="233.856508" style="fill: #ff0000; stroke: #ff0000"/>
     <use xlink:href="#m3bb560f702" x="537.44293" y="229.46039" style="fill: #ff0000; stroke: #ff0000"/>
     <use xlink:href="#m3bb560f702" x="619.874649" y="235.836537" style="fill: #ff0000; stroke: #ff0000"/>
     <use xlink:href="#m3bb560f702" x="566.430472" y="225.142544" style="fill: #ff0000; stroke: #ff0000"/>
     <use xlink:href="#m3bb560f702" x="596.376707" y="224.282586" style="fill: #ff0000; stroke: #ff0000"/>
     <use xlink:href="#m3bb560f702" x="582.809008" y="212.825398" style="fill: #ff0000; stroke: #ff0000"/>
     <use xlink:href="#m3bb560f702" x="588.241089" y="214.834869" style="fill: #ff0000; stroke: #ff0000"/>
     <use xlink:href="#m3bb560f702" x="597.933621" y="213.448206" style="fill: #ff0000; stroke: #ff0000"/>
     <use xlink:href="#m3bb560f702" x="577.110682" y="201.144399" style="fill: #ff0000; stroke: #ff0000"/>
     <use xlink:href="#m3bb560f702" x="534.464138" y="198.618925" style="fill: #ff0000; stroke: #ff0000"/>
     <use xlink:href="#m3bb560f702" x="618.538357" y="199.576565" style="fill: #ff0000; stroke: #ff0000"/>
     <use xlink:href="#m3bb560f702" x="585.221848" y="192.861338" style="fill: #ff0000; stroke: #ff0000"/>
     <use xlink:href="#m3bb560f702" x="622.636364" y="192.855787" style="fill: #ff0000; stroke: #ff0000"/>
     <use xlink:href="#m3bb560f702" x="579.153263" y="183.304081" style="fill: #ff0000; stroke: #ff0000"/>
     <use xlink:href="#m3bb560f702" x="586.381332" y="181.914665" style="fill: #ff0000; stroke: #ff0000"/>
     <use xlink:href="#m3bb560f702" x="590.638793" y="183.702468" style="fill: #ff0000; stroke: #ff0000"/>
     <use xlink:href="#m3bb560f702" x="596.812562" y="183.10327" style="fill: #ff0000; stroke: #ff0000"/>
     <use xlink:href="#m3bb560f702" x="530.119661" y="177.185417" style="fill: #ff0000; stroke: #ff0000"/>
     <use xlink:href="#m3bb560f702" x="614.576557" y="168.507986" style="fill: #ff0000; stroke: #ff0000"/>
     <use xlink:href="#m3bb560f702" x="567.892701" y="169.829618" style="fill: #ff0000; stroke: #ff0000"/>
     <use xlink:href="#m3bb560f702" x="558.481791" y="168.613009" style="fill: #ff0000; stroke: #ff0000"/>
     <use xlink:href="#m3bb560f702" x="589.622949" y="160.161034" style="fill: #ff0000; stroke: #ff0000"/>
     <use xlink:href="#m3bb560f702" x="562.838339" y="158.439" style="fill: #ff0000; stroke: #ff0000"/>
     <use xlink:href="#m3bb560f702" x="602.52438" y="146.337354" style="fill: #ff0000; stroke: #ff0000"/>
     <use xlink:href="#m3bb560f702" x="565.993582" y="150.346336" style="fill: #ff0000; stroke: #ff0000"/>
     <use xlink:href="#m3bb560f702" x="558.555266" y="154.22208" style="fill: #ff0000; stroke: #ff0000"/>
     <use xlink:href="#m3bb560f702" x="588.220765" y="144.89384" style="fill: #ff0000; stroke: #ff0000"/>
     <use xlink:href="#m3bb560f702" x="569.010307" y="141.095908" style="fill: #ff0000; stroke: #ff0000"/>
     <use xlink:href="#m3bb560f702" x="555.287003" y="139.723918" style="fill: #ff0000; stroke: #ff0000"/>
     <use xlink:href="#m3bb560f702" x="582.119164" y="127.278573" style="fill: #ff0000; stroke: #ff0000"/>
     <use xlink:href="#m3bb560f702" x="564.150074" y="138.440491" style="fill: #ff0000; stroke: #ff0000"/>
     <use xlink:href="#m3bb560f702" x="555.033825" y="135.266588" style="fill: #ff0000; stroke: #ff0000"/>
     <use xlink:href="#m3bb560f702" x="568.777228" y="132.154302" style="fill: #ff0000; stroke: #ff0000"/>
     <use xlink:href="#m3bb560f702" x="597.696675" y="123.826365" style="fill: #ff0000; stroke: #ff0000"/>
     <use xlink:href="#m3bb560f702" x="591.472254" y="135.199665" style="fill: #ff0000; stroke: #ff0000"/>
     <use xlink:href="#m3bb560f702" x="549.716479" y="121.623408" style="fill: #ff0000; stroke: #ff0000"/>
     <use xlink:href="#m3bb560f702" x="560.1685" y="118.99326" style="fill: #ff0000; stroke: #ff0000"/>
     <use xlink:href="#m3bb560f702" x="603.144481" y="114.25704" style="fill: #ff0000; stroke: #ff0000"/>
     <use xlink:href="#m3bb560f702" x="555.393211" y="103.915129" style="fill: #ff0000; stroke: #ff0000"/>
     <use xlink:href="#m3bb560f702" x="569.686276" y="105.72856" style="fill: #ff0000; stroke: #ff0000"/>
     <use xlink:href="#m3bb560f702" x="581.980343" y="107.369858" style="fill: #ff0000; stroke: #ff0000"/>
     <use xlink:href="#m3bb560f702" x="609.477918" y="93.284392" style="fill: #ff0000; stroke: #ff0000"/>
     <use xlink:href="#m3bb560f702" x="615.001886" y="95.970367" style="fill: #ff0000; stroke: #ff0000"/>
     <use xlink:href="#m3bb560f702" x="578.479822" y="93.287588" style="fill: #ff0000; stroke: #ff0000"/>
     <use xlink:href="#m3bb560f702" x="569.339564" y="91.604985" style="fill: #ff0000; stroke: #ff0000"/>
     <use xlink:href="#m3bb560f702" x="577.359467" y="86.251945" style="fill: #ff0000; stroke: #ff0000"/>
     <use xlink:href="#m3bb560f702" x="518.498112" y="84.050652" style="fill: #ff0000; stroke: #ff0000"/>
     <use xlink:href="#m3bb560f702" x="572.416789" y="89.665053" style="fill: #ff0000; stroke: #ff0000"/>
     <use xlink:href="#m3bb560f702" x="565.09791" y="76.611997" style="fill: #ff0000; stroke: #ff0000"/>
     <use xlink:href="#m3bb560f702" x="575.302909" y="78.316736" style="fill: #ff0000; stroke: #ff0000"/>
     <use xlink:href="#m3bb560f702" x="515.093982" y="77.542059" style="fill: #ff0000; stroke: #ff0000"/>
     <use xlink:href="#m3bb560f702" x="549.342381" y="70.190179" style="fill: #ff0000; stroke: #ff0000"/>
     <use xlink:href="#m3bb560f702" x="543.484845" y="75.336108" style="fill: #ff0000; stroke: #ff0000"/>
     <use xlink:href="#m3bb560f702" x="522.27685" y="69.529116" style="fill: #ff0000; stroke: #ff0000"/>
     <use xlink:href="#m3bb560f702" x="504.872052" y="69.645031" style="fill: #ff0000; stroke: #ff0000"/>
    </g>
   </g>
   <g id="line2d_18">
    <path d="M 129.479917 367.538257 
L 140.061643 366.367353 
L 151.525249 365.280242 
L 163.165016 364.41169 
L 175.892387 363.628066 
L 189.060639 362.898271 
L 201.061846 361.787945 
L 210.683736 360.613935 
L 218.987996 359.330755 
L 226.777727 358.028206 
L 232.382656 356.927043 
L 237.610087 355.985134 
L 243.333757 355.235025 
L 249.322016 354.035602 
L 256.424342 352.501441 
L 263.517902 350.428444 
L 269.666308 347.988159 
L 276.037025 344.941651 
L 284.298186 341.50843 
L 293.42878 338.213522 
L 302.568652 334.511816 
L 311.455176 330.592551 
L 319.939351 326.754927 
L 329.478593 322.787952 
L 339.290096 318.297087 
L 349.467723 313.962241 
L 360.069937 309.765569 
L 371.164213 305.387458 
L 382.550757 300.823899 
L 392.655456 296.531399 
L 401.255887 292.664404 
L 408.848476 288.765128 
L 418.565435 284.765506 
L 429.429372 280.957964 
L 441.282517 277.338251 
L 454.051137 273.6963 
L 468.034212 269.948928 
L 480.247378 266.191984 
L 490.261442 262.395991 
L 500.339917 258.898974 
L 511.006214 255.298425 
L 521.683738 251.872256 
L 531.614294 248.271224 
L 538.471039 244.661045 
L 545.233385 241.48315 
L 553.948606 238.498758 
L 560.860932 234.971653 
L 568.257379 231.012982 
L 575.379784 226.826467 
L 581.446968 222.186101 
L 585.804476 217.729623 
L 589.185904 213.529401 
L 591.783318 209.394137 
L 592.898885 205.436665 
L 594.040603 201.377955 
L 594.599323 197.513453 
L 593.392493 193.574412 
L 592.065202 189.718479 
L 589.899538 186.126994 
L 586.732676 182.646962 
L 584.355738 179.183303 
L 582.399655 175.956218 
L 580.653636 172.532545 
L 577.651513 169.255297 
L 574.431065 166.364481 
L 571.894117 163.535169 
L 571.374334 160.429172 
L 569.763782 157.37662 
L 568.470204 154.162269 
L 568.908516 150.773866 
L 569.014539 147.774511 
L 569.813844 144.917924 
L 570.935512 141.980029 
L 572.821136 139.221597 
L 574.526308 136.475242 
L 575.744643 133.986369 
L 576.553099 131.657542 
L 574.953389 128.924716 
L 572.411496 126.083395 
L 572.146532 123.115388 
L 572.791293 120.031006 
L 574.922812 116.653261 
L 578.581774 113.191251 
L 581.811229 109.83722 
L 584.474269 106.528616 
L 586.967632 103.214932 
L 588.49101 99.711127 
L 587.559715 96.265492 
L 583.025551 92.787571 
L 577.957214 89.585329 
L 573.686788 86.690251 
L 571.465392 84.143182 
L 568.046421 81.55813 
L 564.90461 79.010107 
L 562.087159 76.661012 
L 558.822473 74.53925 
L 554.202949 72.216922 
L 548.403473 70.403247 
L 543.116206 68.716454 
L 536.371441 66.96 
" clip-path="url(#pd7c88b38d1)" style="fill: none; stroke: #000000; stroke-width: 1.5; stroke-linecap: square"/>
   </g>
   <g id="patch_3">
    <path d="M 90 384.48 
L 90 51.84 
" style="fill: none; stroke: #000000; stroke-width: 0.8; stroke-linejoin: miter; stroke-linecap: square"/>
   </g>
   <g id="patch_4">
    <path d="M 648 384.48 
L 648 51.84 
" style="fill: none; stroke: #000000; stroke-width: 0.8; stroke-linejoin: miter; stroke-linecap: square"/>
   </g>
   <g id="patch_5">
    <path d="M 90 384.48 
L 648 384.48 
" style="fill: none; stroke: #000000; stroke-width: 0.8; stroke-linejoin: miter; stroke-linecap: square"/>
   </g>
   <g id="patch_6">
    <path d="M 90 51.84 
L 648 51.84 
" style="fill: none; stroke: #000000; stroke-width: 0.8; stroke-linejoin: miter; stroke-linecap: square"/>
   </g>
   <g id="text_17">
    <!-- Constant velocity Model DPKF amd DPRTS -->
    <g transform="translate(221.564687 45.84) scale(0.14 -0.14)">
     <defs>
      <path id="DejaVuSans-43" d="M 4122 4306 
L 4122 3641 
Q 3803 3938 3442 4084 
Q 3081 4231 2675 4231 
Q 1875 4231 1450 3742 
Q 1025 3253 1025 2328 
Q 1025 1406 1450 917 
Q 1875 428 2675 428 
Q 3081 428 3442 575 
Q 3803 722 4122 1019 
L 4122 359 
Q 3791 134 3420 21 
Q 3050 -91 2638 -91 
Q 1578 -91 968 557 
Q 359 1206 359 2328 
Q 359 3453 968 4101 
Q 1578 4750 2638 4750 
Q 3056 4750 3426 4639 
Q 3797 4528 4122 4306 
z
" transform="scale(0.015625)"/>
      <path id="DejaVuSans-6f" d="M 1959 3097 
Q 1497 3097 1228 2736 
Q 959 2375 959 1747 
Q 959 1119 1226 758 
Q 1494 397 1959 397 
Q 2419 397 2687 759 
Q 2956 1122 2956 1747 
Q 2956 2369 2687 2733 
Q 2419 3097 1959 3097 
z
M 1959 3584 
Q 2709 3584 3137 3096 
Q 3566 2609 3566 1747 
Q 3566 888 3137 398 
Q 2709 -91 1959 -91 
Q 1206 -91 779 398 
Q 353 888 353 1747 
Q 353 2609 779 3096 
Q 1206 3584 1959 3584 
z
" transform="scale(0.015625)"/>
      <path id="DejaVuSans-6e" d="M 3513 2113 
L 3513 0 
L 2938 0 
L 2938 2094 
Q 2938 2591 2744 2837 
Q 2550 3084 2163 3084 
Q 1697 3084 1428 2787 
Q 1159 2491 1159 1978 
L 1159 0 
L 581 0 
L 581 3500 
L 1159 3500 
L 1159 2956 
Q 1366 3272 1645 3428 
Q 1925 3584 2291 3584 
Q 2894 3584 3203 3211 
Q 3513 2838 3513 2113 
z
" transform="scale(0.015625)"/>
      <path id="DejaVuSans-73" d="M 2834 3397 
L 2834 2853 
Q 2591 2978 2328 3040 
Q 2066 3103 1784 3103 
Q 1356 3103 1142 2972 
Q 928 2841 928 2578 
Q 928 2378 1081 2264 
Q 1234 2150 1697 2047 
L 1894 2003 
Q 2506 1872 2764 1633 
Q 3022 1394 3022 966 
Q 3022 478 2636 193 
Q 2250 -91 1575 -91 
Q 1294 -91 989 -36 
Q 684 19 347 128 
L 347 722 
Q 666 556 975 473 
Q 1284 391 1588 391 
Q 1994 391 2212 530 
Q 2431 669 2431 922 
Q 2431 1156 2273 1281 
Q 2116 1406 1581 1522 
L 1381 1569 
Q 847 1681 609 1914 
Q 372 2147 372 2553 
Q 372 3047 722 3315 
Q 1072 3584 1716 3584 
Q 2034 3584 2315 3537 
Q 2597 3491 2834 3397 
z
" transform="scale(0.015625)"/>
      <path id="DejaVuSans-74" d="M 1172 4494 
L 1172 3500 
L 2356 3500 
L 2356 3053 
L 1172 3053 
L 1172 1153 
Q 1172 725 1289 603 
Q 1406 481 1766 481 
L 2356 481 
L 2356 0 
L 1766 0 
Q 1100 0 847 248 
Q 594 497 594 1153 
L 594 3053 
L 172 3053 
L 172 3500 
L 594 3500 
L 594 4494 
L 1172 4494 
z
" transform="scale(0.015625)"/>
      <path id="DejaVuSans-61" d="M 2194 1759 
Q 1497 1759 1228 1600 
Q 959 1441 959 1056 
Q 959 750 1161 570 
Q 1363 391 1709 391 
Q 2188 391 2477 730 
Q 2766 1069 2766 1631 
L 2766 1759 
L 2194 1759 
z
M 3341 1997 
L 3341 0 
L 2766 0 
L 2766 531 
Q 2569 213 2275 61 
Q 1981 -91 1556 -91 
Q 1019 -91 701 211 
Q 384 513 384 1019 
Q 384 1609 779 1909 
Q 1175 2209 1959 2209 
L 2766 2209 
L 2766 2266 
Q 2766 2663 2505 2880 
Q 2244 3097 1772 3097 
Q 1472 3097 1187 3025 
Q 903 2953 641 2809 
L 641 3341 
Q 956 3463 1253 3523 
Q 1550 3584 1831 3584 
Q 2591 3584 2966 3190 
Q 3341 2797 3341 1997 
z
" transform="scale(0.015625)"/>
      <path id="DejaVuSans-20" transform="scale(0.015625)"/>
      <path id="DejaVuSans-76" d="M 191 3500 
L 800 3500 
L 1894 563 
L 2988 3500 
L 3597 3500 
L 2284 0 
L 1503 0 
L 191 3500 
z
" transform="scale(0.015625)"/>
      <path id="DejaVuSans-65" d="M 3597 1894 
L 3597 1613 
L 953 1613 
Q 991 1019 1311 708 
Q 1631 397 2203 397 
Q 2534 397 2845 478 
Q 3156 559 3463 722 
L 3463 178 
Q 3153 47 2828 -22 
Q 2503 -91 2169 -91 
Q 1331 -91 842 396 
Q 353 884 353 1716 
Q 353 2575 817 3079 
Q 1281 3584 2069 3584 
Q 2775 3584 3186 3129 
Q 3597 2675 3597 1894 
z
M 3022 2063 
Q 3016 2534 2758 2815 
Q 2500 3097 2075 3097 
Q 1594 3097 1305 2825 
Q 1016 2553 972 2059 
L 3022 2063 
z
" transform="scale(0.015625)"/>
      <path id="DejaVuSans-6c" d="M 603 4863 
L 1178 4863 
L 1178 0 
L 603 0 
L 603 4863 
z
" transform="scale(0.015625)"/>
      <path id="DejaVuSans-63" d="M 3122 3366 
L 3122 2828 
Q 2878 2963 2633 3030 
Q 2388 3097 2138 3097 
Q 1578 3097 1268 2742 
Q 959 2388 959 1747 
Q 959 1106 1268 751 
Q 1578 397 2138 397 
Q 2388 397 2633 464 
Q 2878 531 3122 666 
L 3122 134 
Q 2881 22 2623 -34 
Q 2366 -91 2075 -91 
Q 1284 -91 818 406 
Q 353 903 353 1747 
Q 353 2603 823 3093 
Q 1294 3584 2113 3584 
Q 2378 3584 2631 3529 
Q 2884 3475 3122 3366 
z
" transform="scale(0.015625)"/>
      <path id="DejaVuSans-69" d="M 603 3500 
L 1178 3500 
L 1178 0 
L 603 0 
L 603 3500 
z
M 603 4863 
L 1178 4863 
L 1178 4134 
L 603 4134 
L 603 4863 
z
" transform="scale(0.015625)"/>
      <path id="DejaVuSans-4d" d="M 628 4666 
L 1569 4666 
L 2759 1491 
L 3956 4666 
L 4897 4666 
L 4897 0 
L 4281 0 
L 4281 4097 
L 3078 897 
L 2444 897 
L 1241 4097 
L 1241 0 
L 628 0 
L 628 4666 
z
" transform="scale(0.015625)"/>
      <path id="DejaVuSans-64" d="M 2906 2969 
L 2906 4863 
L 3481 4863 
L 3481 0 
L 2906 0 
L 2906 525 
Q 2725 213 2448 61 
Q 2172 -91 1784 -91 
Q 1150 -91 751 415 
Q 353 922 353 1747 
Q 353 2572 751 3078 
Q 1150 3584 1784 3584 
Q 2172 3584 2448 3432 
Q 2725 3281 2906 2969 
z
M 947 1747 
Q 947 1113 1208 752 
Q 1469 391 1925 391 
Q 2381 391 2643 752 
Q 2906 1113 2906 1747 
Q 2906 2381 2643 2742 
Q 2381 3103 1925 3103 
Q 1469 3103 1208 2742 
Q 947 2381 947 1747 
z
" transform="scale(0.015625)"/>
      <path id="DejaVuSans-44" d="M 1259 4147 
L 1259 519 
L 2022 519 
Q 2988 519 3436 956 
Q 3884 1394 3884 2338 
Q 3884 3275 3436 3711 
Q 2988 4147 2022 4147 
L 1259 4147 
z
M 628 4666 
L 1925 4666 
Q 3281 4666 3915 4102 
Q 4550 3538 4550 2338 
Q 4550 1131 3912 565 
Q 3275 0 1925 0 
L 628 0 
L 628 4666 
z
" transform="scale(0.015625)"/>
      <path id="DejaVuSans-50" d="M 1259 4147 
L 1259 2394 
L 2053 2394 
Q 2494 2394 2734 2622 
Q 2975 2850 2975 3272 
Q 2975 3691 2734 3919 
Q 2494 4147 2053 4147 
L 1259 4147 
z
M 628 4666 
L 2053 4666 
Q 2838 4666 3239 4311 
Q 3641 3956 3641 3272 
Q 3641 2581 3239 2228 
Q 2838 1875 2053 1875 
L 1259 1875 
L 1259 0 
L 628 0 
L 628 4666 
z
" transform="scale(0.015625)"/>
      <path id="DejaVuSans-4b" d="M 628 4666 
L 1259 4666 
L 1259 2694 
L 3353 4666 
L 4166 4666 
L 1850 2491 
L 4331 0 
L 3500 0 
L 1259 2247 
L 1259 0 
L 628 0 
L 628 4666 
z
" transform="scale(0.015625)"/>
      <path id="DejaVuSans-46" d="M 628 4666 
L 3309 4666 
L 3309 4134 
L 1259 4134 
L 1259 2759 
L 3109 2759 
L 3109 2228 
L 1259 2228 
L 1259 0 
L 628 0 
L 628 4666 
z
" transform="scale(0.015625)"/>
      <path id="DejaVuSans-6d" d="M 3328 2828 
Q 3544 3216 3844 3400 
Q 4144 3584 4550 3584 
Q 5097 3584 5394 3201 
Q 5691 2819 5691 2113 
L 5691 0 
L 5113 0 
L 5113 2094 
Q 5113 2597 4934 2840 
Q 4756 3084 4391 3084 
Q 3944 3084 3684 2787 
Q 3425 2491 3425 1978 
L 3425 0 
L 2847 0 
L 2847 2094 
Q 2847 2600 2669 2842 
Q 2491 3084 2119 3084 
Q 1678 3084 1418 2786 
Q 1159 2488 1159 1978 
L 1159 0 
L 581 0 
L 581 3500 
L 1159 3500 
L 1159 2956 
Q 1356 3278 1631 3431 
Q 1906 3584 2284 3584 
Q 2666 3584 2933 3390 
Q 3200 3197 3328 2828 
z
" transform="scale(0.015625)"/>
      <path id="DejaVuSans-52" d="M 2841 2188 
Q 3044 2119 3236 1894 
Q 3428 1669 3622 1275 
L 4263 0 
L 3584 0 
L 2988 1197 
Q 2756 1666 2539 1819 
Q 2322 1972 1947 1972 
L 1259 1972 
L 1259 0 
L 628 0 
L 628 4666 
L 2053 4666 
Q 2853 4666 3247 4331 
Q 3641 3997 3641 3322 
Q 3641 2881 3436 2590 
Q 3231 2300 2841 2188 
z
M 1259 4147 
L 1259 2491 
L 2053 2491 
Q 2509 2491 2742 2702 
Q 2975 2913 2975 3322 
Q 2975 3731 2742 3939 
Q 2509 4147 2053 4147 
L 1259 4147 
z
" transform="scale(0.015625)"/>
      <path id="DejaVuSans-54" d="M -19 4666 
L 3928 4666 
L 3928 4134 
L 2272 4134 
L 2272 0 
L 1638 0 
L 1638 4134 
L -19 4134 
L -19 4666 
z
" transform="scale(0.015625)"/>
      <path id="DejaVuSans-53" d="M 3425 4513 
L 3425 3897 
Q 3066 4069 2747 4153 
Q 2428 4238 2131 4238 
Q 1616 4238 1336 4038 
Q 1056 3838 1056 3469 
Q 1056 3159 1242 3001 
Q 1428 2844 1947 2747 
L 2328 2669 
Q 3034 2534 3370 2195 
Q 3706 1856 3706 1288 
Q 3706 609 3251 259 
Q 2797 -91 1919 -91 
Q 1588 -91 1214 -16 
Q 841 59 441 206 
L 441 856 
Q 825 641 1194 531 
Q 1563 422 1919 422 
Q 2459 422 2753 634 
Q 3047 847 3047 1241 
Q 3047 1584 2836 1778 
Q 2625 1972 2144 2069 
L 1759 2144 
Q 1053 2284 737 2584 
Q 422 2884 422 3419 
Q 422 4038 858 4394 
Q 1294 4750 2059 4750 
Q 2388 4750 2728 4690 
Q 3069 4631 3425 4513 
z
" transform="scale(0.015625)"/>
     </defs>
     <use xlink:href="#DejaVuSans-43"/>
     <use xlink:href="#DejaVuSans-6f" transform="translate(69.824219 0)"/>
     <use xlink:href="#DejaVuSans-6e" transform="translate(131.005859 0)"/>
     <use xlink:href="#DejaVuSans-73" transform="translate(194.384766 0)"/>
     <use xlink:href="#DejaVuSans-74" transform="translate(246.484375 0)"/>
     <use xlink:href="#DejaVuSans-61" transform="translate(285.693359 0)"/>
     <use xlink:href="#DejaVuSans-6e" transform="translate(346.972656 0)"/>
     <use xlink:href="#DejaVuSans-74" transform="translate(410.351562 0)"/>
     <use xlink:href="#DejaVuSans-20" transform="translate(449.560547 0)"/>
     <use xlink:href="#DejaVuSans-76" transform="translate(481.347656 0)"/>
     <use xlink:href="#DejaVuSans-65" transform="translate(540.527344 0)"/>
     <use xlink:href="#DejaVuSans-6c" transform="translate(602.050781 0)"/>
     <use xlink:href="#DejaVuSans-6f" transform="translate(629.833984 0)"/>
     <use xlink:href="#DejaVuSans-63" transform="translate(691.015625 0)"/>
     <use xlink:href="#DejaVuSans-69" transform="translate(745.996094 0)"/>
     <use xlink:href="#DejaVuSans-74" transform="translate(773.779297 0)"/>
     <use xlink:href="#DejaVuSans-79" transform="translate(812.988281 0)"/>
     <use xlink:href="#DejaVuSans-20" transform="translate(872.167969 0)"/>
     <use xlink:href="#DejaVuSans-4d" transform="translate(903.955078 0)"/>
     <use xlink:href="#DejaVuSans-6f" transform="translate(990.234375 0)"/>
     <use xlink:href="#DejaVuSans-64" transform="translate(1051.416016 0)"/>
     <use xlink:href="#DejaVuSans-65" transform="translate(1114.892578 0)"/>
     <use xlink:href="#DejaVuSans-6c" transform="translate(1176.416016 0)"/>
     <use xlink:href="#DejaVuSans-20" transform="translate(1204.199219 0)"/>
     <use xlink:href="#DejaVuSans-44" transform="translate(1235.986328 0)"/>
     <use xlink:href="#DejaVuSans-50" transform="translate(1312.988281 0)"/>
     <use xlink:href="#DejaVuSans-4b" transform="translate(1373.291016 0)"/>
     <use xlink:href="#DejaVuSans-46" transform="translate(1438.867188 0)"/>
     <use xlink:href="#DejaVuSans-20" transform="translate(1496.386719 0)"/>
     <use xlink:href="#DejaVuSans-61" transform="translate(1528.173828 0)"/>
     <use xlink:href="#DejaVuSans-6d" transform="translate(1589.453125 0)"/>
     <use xlink:href="#DejaVuSans-64" transform="translate(1686.865234 0)"/>
     <use xlink:href="#DejaVuSans-20" transform="translate(1750.341797 0)"/>
     <use xlink:href="#DejaVuSans-44" transform="translate(1782.128906 0)"/>
     <use xlink:href="#DejaVuSans-50" transform="translate(1859.130859 0)"/>
     <use xlink:href="#DejaVuSans-52" transform="translate(1919.433594 0)"/>
     <use xlink:href="#DejaVuSans-54" transform="translate(1981.666016 0)"/>
     <use xlink:href="#DejaVuSans-53" transform="translate(2042.75 0)"/>
    </g>
   </g>
   <g id="legend_1">
    <g id="patch_7">
     <path d="M 97 118.5525 
L 193.351562 118.5525 
Q 195.351562 118.5525 195.351562 116.5525 
L 195.351562 58.84 
Q 195.351562 56.84 193.351562 56.84 
L 97 56.84 
Q 95 56.84 95 58.84 
L 95 116.5525 
Q 95 118.5525 97 118.5525 
z
" style="fill: #ffffff; opacity: 0.8; stroke: #cccccc; stroke-linejoin: miter"/>
    </g>
    <g id="line2d_19">
     <path d="M 99 64.938438 
L 109 64.938438 
L 119 64.938438 
" style="fill: none; stroke-dasharray: 5.55,2.4; stroke-dashoffset: 0; stroke: #008000; stroke-width: 1.5"/>
    </g>
    <g id="text_18">
     <!-- Filtered -->
     <g transform="translate(127 68.438438) scale(0.1 -0.1)">
      <defs>
       <path id="DejaVuSans-72" d="M 2631 2963 
Q 2534 3019 2420 3045 
Q 2306 3072 2169 3072 
Q 1681 3072 1420 2755 
Q 1159 2438 1159 1844 
L 1159 0 
L 581 0 
L 581 3500 
L 1159 3500 
L 1159 2956 
Q 1341 3275 1631 3429 
Q 1922 3584 2338 3584 
Q 2397 3584 2469 3576 
Q 2541 3569 2628 3553 
L 2631 2963 
z
" transform="scale(0.015625)"/>
      </defs>
      <use xlink:href="#DejaVuSans-46"/>
      <use xlink:href="#DejaVuSans-69" transform="translate(50.269531 0)"/>
      <use xlink:href="#DejaVuSans-6c" transform="translate(78.052734 0)"/>
      <use xlink:href="#DejaVuSans-74" transform="translate(105.835938 0)"/>
      <use xlink:href="#DejaVuSans-65" transform="translate(145.044922 0)"/>
      <use xlink:href="#DejaVuSans-72" transform="translate(206.568359 0)"/>
      <use xlink:href="#DejaVuSans-65" transform="translate(245.431641 0)"/>
      <use xlink:href="#DejaVuSans-64" transform="translate(306.955078 0)"/>
     </g>
    </g>
    <g id="line2d_20">
     <path d="M 99 79.616563 
L 109 79.616563 
L 119 79.616563 
" style="fill: none; stroke: #0000ff; stroke-width: 1.5; stroke-linecap: square"/>
    </g>
    <g id="text_19">
     <!-- Smoothed -->
     <g transform="translate(127 83.116563) scale(0.1 -0.1)">
      <defs>
       <path id="DejaVuSans-68" d="M 3513 2113 
L 3513 0 
L 2938 0 
L 2938 2094 
Q 2938 2591 2744 2837 
Q 2550 3084 2163 3084 
Q 1697 3084 1428 2787 
Q 1159 2491 1159 1978 
L 1159 0 
L 581 0 
L 581 4863 
L 1159 4863 
L 1159 2956 
Q 1366 3272 1645 3428 
Q 1925 3584 2291 3584 
Q 2894 3584 3203 3211 
Q 3513 2838 3513 2113 
z
" transform="scale(0.015625)"/>
      </defs>
      <use xlink:href="#DejaVuSans-53"/>
      <use xlink:href="#DejaVuSans-6d" transform="translate(63.476562 0)"/>
      <use xlink:href="#DejaVuSans-6f" transform="translate(160.888672 0)"/>
      <use xlink:href="#DejaVuSans-6f" transform="translate(222.070312 0)"/>
      <use xlink:href="#DejaVuSans-74" transform="translate(283.251953 0)"/>
      <use xlink:href="#DejaVuSans-68" transform="translate(322.460938 0)"/>
      <use xlink:href="#DejaVuSans-65" transform="translate(385.839844 0)"/>
      <use xlink:href="#DejaVuSans-64" transform="translate(447.363281 0)"/>
     </g>
    </g>
    <g id="line2d_21">
     <g>
      <use xlink:href="#m3bb560f702" x="109" y="94.294688" style="fill: #ff0000; stroke: #ff0000"/>
     </g>
    </g>
    <g id="text_20">
     <!-- observations -->
     <g transform="translate(127 97.794688) scale(0.1 -0.1)">
      <defs>
       <path id="DejaVuSans-62" d="M 3116 1747 
Q 3116 2381 2855 2742 
Q 2594 3103 2138 3103 
Q 1681 3103 1420 2742 
Q 1159 2381 1159 1747 
Q 1159 1113 1420 752 
Q 1681 391 2138 391 
Q 2594 391 2855 752 
Q 3116 1113 3116 1747 
z
M 1159 2969 
Q 1341 3281 1617 3432 
Q 1894 3584 2278 3584 
Q 2916 3584 3314 3078 
Q 3713 2572 3713 1747 
Q 3713 922 3314 415 
Q 2916 -91 2278 -91 
Q 1894 -91 1617 61 
Q 1341 213 1159 525 
L 1159 0 
L 581 0 
L 581 4863 
L 1159 4863 
L 1159 2969 
z
" transform="scale(0.015625)"/>
      </defs>
      <use xlink:href="#DejaVuSans-6f"/>
      <use xlink:href="#DejaVuSans-62" transform="translate(61.181641 0)"/>
      <use xlink:href="#DejaVuSans-73" transform="translate(124.658203 0)"/>
      <use xlink:href="#DejaVuSans-65" transform="translate(176.757812 0)"/>
      <use xlink:href="#DejaVuSans-72" transform="translate(238.28125 0)"/>
      <use xlink:href="#DejaVuSans-76" transform="translate(279.394531 0)"/>
      <use xlink:href="#DejaVuSans-61" transform="translate(338.574219 0)"/>
      <use xlink:href="#DejaVuSans-74" transform="translate(399.853516 0)"/>
      <use xlink:href="#DejaVuSans-69" transform="translate(439.0625 0)"/>
      <use xlink:href="#DejaVuSans-6f" transform="translate(466.845703 0)"/>
      <use xlink:href="#DejaVuSans-6e" transform="translate(528.027344 0)"/>
      <use xlink:href="#DejaVuSans-73" transform="translate(591.40625 0)"/>
     </g>
    </g>
    <g id="line2d_22">
     <path d="M 99 108.972813 
L 109 108.972813 
L 119 108.972813 
" style="fill: none; stroke: #000000; stroke-width: 1.5; stroke-linecap: square"/>
    </g>
    <g id="text_21">
     <!-- True State -->
     <g transform="translate(127 112.472813) scale(0.1 -0.1)">
      <defs>
       <path id="DejaVuSans-75" d="M 544 1381 
L 544 3500 
L 1119 3500 
L 1119 1403 
Q 1119 906 1312 657 
Q 1506 409 1894 409 
Q 2359 409 2629 706 
Q 2900 1003 2900 1516 
L 2900 3500 
L 3475 3500 
L 3475 0 
L 2900 0 
L 2900 538 
Q 2691 219 2414 64 
Q 2138 -91 1772 -91 
Q 1169 -91 856 284 
Q 544 659 544 1381 
z
M 1991 3584 
L 1991 3584 
z
" transform="scale(0.015625)"/>
      </defs>
      <use xlink:href="#DejaVuSans-54"/>
      <use xlink:href="#DejaVuSans-72" transform="translate(46.333984 0)"/>
      <use xlink:href="#DejaVuSans-75" transform="translate(87.447266 0)"/>
      <use xlink:href="#DejaVuSans-65" transform="translate(150.826172 0)"/>
      <use xlink:href="#DejaVuSans-20" transform="translate(212.349609 0)"/>
      <use xlink:href="#DejaVuSans-53" transform="translate(244.136719 0)"/>
      <use xlink:href="#DejaVuSans-74" transform="translate(307.613281 0)"/>
      <use xlink:href="#DejaVuSans-61" transform="translate(346.822266 0)"/>
      <use xlink:href="#DejaVuSans-74" transform="translate(408.101562 0)"/>
      <use xlink:href="#DejaVuSans-65" transform="translate(447.310547 0)"/>
     </g>
    </g>
   </g>
  </g>
 </g>
 <defs>
  <clipPath id="pd7c88b38d1">
   <rect x="90" y="51.84" width="558" height="332.64"/>
  </clipPath>
 </defs>
</svg>
