<?xml version="1.0" encoding="utf-8" standalone="no"?>
<!DOCTYPE svg PUBLIC "-//W3C//DTD SVG 1.1//EN"
  "http://www.w3.org/Graphics/SVG/1.1/DTD/svg11.dtd">
<svg xmlns:xlink="http://www.w3.org/1999/xlink" width="720pt" height="432pt" viewBox="0 0 720 432" xmlns="http://www.w3.org/2000/svg" version="1.1">
 <metadata>
  <rdf:RDF xmlns:dc="http://purl.org/dc/elements/1.1/" xmlns:cc="http://creativecommons.org/ns#" xmlns:rdf="http://www.w3.org/1999/02/22-rdf-syntax-ns#">
   <cc:Work>
    <dc:type rdf:resource="http://purl.org/dc/dcmitype/StillImage"/>
    <dc:date>2025-07-29T15:18:36.786400</dc:date>
    <dc:format>image/svg+xml</dc:format>
    <dc:creator>
     <cc:Agent>
      <dc:title>Matplotlib v3.10.3, https://matplotlib.org/</dc:title>
     </cc:Agent>
    </dc:creator>
   </cc:Work>
  </rdf:RDF>
 </metadata>
 <defs>
  <style type="text/css">*{stroke-linejoin: round; stroke-linecap: butt}</style>
 </defs>
 <g id="figure_1">
  <g id="patch_1">
   <path d="M 0 432 
L 720 432 
L 720 0 
L 0 0 
z
" style="fill: #ffffff"/>
  </g>
  <g id="axes_1">
   <g id="patch_2">
    <path d="M 90 384.48 
L 648 384.48 
L 648 51.84 
L 90 51.84 
z
" style="fill: #ffffff"/>
   </g>
   <g id="matplotlib.axis_1">
    <g id="xtick_1">
     <g id="line2d_1">
      <path d="M 93.3083 384.48 
L 93.3083 51.84 
" clip-path="url(#pa444083702)" style="fill: none; stroke-dasharray: 1.85,0.8; stroke-dashoffset: 0; stroke: #b0b0b0; stroke-width: 0.5"/>
     </g>
     <g id="line2d_2">
      <defs>
       <path id="m8abf778e67" d="M 0 0 
L 0 3.5 
" style="stroke: #000000; stroke-width: 0.8"/>
      </defs>
      <g>
       <use xlink:href="#m8abf778e67" x="93.3083" y="384.48" style="stroke: #000000; stroke-width: 0.8"/>
      </g>
     </g>
     <g id="text_1">
      <!-- 0 -->
      <g transform="translate(90.12705 399.078438) scale(0.1 -0.1)">
       <defs>
        <path id="DejaVuSans-30" d="M 2034 4250 
Q 1547 4250 1301 3770 
Q 1056 3291 1056 2328 
Q 1056 1369 1301 889 
Q 1547 409 2034 409 
Q 2525 409 2770 889 
Q 3016 1369 3016 2328 
Q 3016 3291 2770 3770 
Q 2525 4250 2034 4250 
z
M 2034 4750 
Q 2819 4750 3233 4129 
Q 3647 3509 3647 2328 
Q 3647 1150 3233 529 
Q 2819 -91 2034 -91 
Q 1250 -91 836 529 
Q 422 1150 422 2328 
Q 422 3509 836 4129 
Q 1250 4750 2034 4750 
z
" transform="scale(0.015625)"/>
       </defs>
       <use xlink:href="#DejaVuSans-30"/>
      </g>
     </g>
    </g>
    <g id="xtick_2">
     <g id="line2d_3">
      <path d="M 203.58498 384.48 
L 203.58498 51.84 
" clip-path="url(#pa444083702)" style="fill: none; stroke-dasharray: 1.85,0.8; stroke-dashoffset: 0; stroke: #b0b0b0; stroke-width: 0.5"/>
     </g>
     <g id="line2d_4">
      <g>
       <use xlink:href="#m8abf778e67" x="203.58498" y="384.48" style="stroke: #000000; stroke-width: 0.8"/>
      </g>
     </g>
     <g id="text_2">
      <!-- 10 -->
      <g transform="translate(197.22248 399.078438) scale(0.1 -0.1)">
       <defs>
        <path id="DejaVuSans-31" d="M 794 531 
L 1825 531 
L 1825 4091 
L 703 3866 
L 703 4441 
L 1819 4666 
L 2450 4666 
L 2450 531 
L 3481 531 
L 3481 0 
L 794 0 
L 794 531 
z
" transform="scale(0.015625)"/>
       </defs>
       <use xlink:href="#DejaVuSans-31"/>
       <use xlink:href="#DejaVuSans-30" transform="translate(63.623047 0)"/>
      </g>
     </g>
    </g>
    <g id="xtick_3">
     <g id="line2d_5">
      <path d="M 313.86166 384.48 
L 313.86166 51.84 
" clip-path="url(#pa444083702)" style="fill: none; stroke-dasharray: 1.85,0.8; stroke-dashoffset: 0; stroke: #b0b0b0; stroke-width: 0.5"/>
     </g>
     <g id="line2d_6">
      <g>
       <use xlink:href="#m8abf778e67" x="313.86166" y="384.48" style="stroke: #000000; stroke-width: 0.8"/>
      </g>
     </g>
     <g id="text_3">
      <!-- 20 -->
      <g transform="translate(307.49916 399.078438) scale(0.1 -0.1)">
       <defs>
        <path id="DejaVuSans-32" d="M 1228 531 
L 3431 531 
L 3431 0 
L 469 0 
L 469 531 
Q 828 903 1448 1529 
Q 2069 2156 2228 2338 
Q 2531 2678 2651 2914 
Q 2772 3150 2772 3378 
Q 2772 3750 2511 3984 
Q 2250 4219 1831 4219 
Q 1534 4219 1204 4116 
Q 875 4013 500 3803 
L 500 4441 
Q 881 4594 1212 4672 
Q 1544 4750 1819 4750 
Q 2544 4750 2975 4387 
Q 3406 4025 3406 3419 
Q 3406 3131 3298 2873 
Q 3191 2616 2906 2266 
Q 2828 2175 2409 1742 
Q 1991 1309 1228 531 
z
" transform="scale(0.015625)"/>
       </defs>
       <use xlink:href="#DejaVuSans-32"/>
       <use xlink:href="#DejaVuSans-30" transform="translate(63.623047 0)"/>
      </g>
     </g>
    </g>
    <g id="xtick_4">
     <g id="line2d_7">
      <path d="M 424.13834 384.48 
L 424.13834 51.84 
" clip-path="url(#pa444083702)" style="fill: none; stroke-dasharray: 1.85,0.8; stroke-dashoffset: 0; stroke: #b0b0b0; stroke-width: 0.5"/>
     </g>
     <g id="line2d_8">
      <g>
       <use xlink:href="#m8abf778e67" x="424.13834" y="384.48" style="stroke: #000000; stroke-width: 0.8"/>
      </g>
     </g>
     <g id="text_4">
      <!-- 30 -->
      <g transform="translate(417.77584 399.078438) scale(0.1 -0.1)">
       <defs>
        <path id="DejaVuSans-33" d="M 2597 2516 
Q 3050 2419 3304 2112 
Q 3559 1806 3559 1356 
Q 3559 666 3084 287 
Q 2609 -91 1734 -91 
Q 1441 -91 1130 -33 
Q 819 25 488 141 
L 488 750 
Q 750 597 1062 519 
Q 1375 441 1716 441 
Q 2309 441 2620 675 
Q 2931 909 2931 1356 
Q 2931 1769 2642 2001 
Q 2353 2234 1838 2234 
L 1294 2234 
L 1294 2753 
L 1863 2753 
Q 2328 2753 2575 2939 
Q 2822 3125 2822 3475 
Q 2822 3834 2567 4026 
Q 2313 4219 1838 4219 
Q 1578 4219 1281 4162 
Q 984 4106 628 3988 
L 628 4550 
Q 988 4650 1302 4700 
Q 1616 4750 1894 4750 
Q 2613 4750 3031 4423 
Q 3450 4097 3450 3541 
Q 3450 3153 3228 2886 
Q 3006 2619 2597 2516 
z
" transform="scale(0.015625)"/>
       </defs>
       <use xlink:href="#DejaVuSans-33"/>
       <use xlink:href="#DejaVuSans-30" transform="translate(63.623047 0)"/>
      </g>
     </g>
    </g>
    <g id="xtick_5">
     <g id="line2d_9">
      <path d="M 534.41502 384.48 
L 534.41502 51.84 
" clip-path="url(#pa444083702)" style="fill: none; stroke-dasharray: 1.85,0.8; stroke-dashoffset: 0; stroke: #b0b0b0; stroke-width: 0.5"/>
     </g>
     <g id="line2d_10">
      <g>
       <use xlink:href="#m8abf778e67" x="534.41502" y="384.48" style="stroke: #000000; stroke-width: 0.8"/>
      </g>
     </g>
     <g id="text_5">
      <!-- 40 -->
      <g transform="translate(528.05252 399.078438) scale(0.1 -0.1)">
       <defs>
        <path id="DejaVuSans-34" d="M 2419 4116 
L 825 1625 
L 2419 1625 
L 2419 4116 
z
M 2253 4666 
L 3047 4666 
L 3047 1625 
L 3713 1625 
L 3713 1100 
L 3047 1100 
L 3047 0 
L 2419 0 
L 2419 1100 
L 313 1100 
L 313 1709 
L 2253 4666 
z
" transform="scale(0.015625)"/>
       </defs>
       <use xlink:href="#DejaVuSans-34"/>
       <use xlink:href="#DejaVuSans-30" transform="translate(63.623047 0)"/>
      </g>
     </g>
    </g>
    <g id="xtick_6">
     <g id="line2d_11">
      <path d="M 644.6917 384.48 
L 644.6917 51.84 
" clip-path="url(#pa444083702)" style="fill: none; stroke-dasharray: 1.85,0.8; stroke-dashoffset: 0; stroke: #b0b0b0; stroke-width: 0.5"/>
     </g>
     <g id="line2d_12">
      <g>
       <use xlink:href="#m8abf778e67" x="644.6917" y="384.48" style="stroke: #000000; stroke-width: 0.8"/>
      </g>
     </g>
     <g id="text_6">
      <!-- 50 -->
      <g transform="translate(638.3292 399.078438) scale(0.1 -0.1)">
       <defs>
        <path id="DejaVuSans-35" d="M 691 4666 
L 3169 4666 
L 3169 4134 
L 1269 4134 
L 1269 2991 
Q 1406 3038 1543 3061 
Q 1681 3084 1819 3084 
Q 2600 3084 3056 2656 
Q 3513 2228 3513 1497 
Q 3513 744 3044 326 
Q 2575 -91 1722 -91 
Q 1428 -91 1123 -41 
Q 819 9 494 109 
L 494 744 
Q 775 591 1075 516 
Q 1375 441 1709 441 
Q 2250 441 2565 725 
Q 2881 1009 2881 1497 
Q 2881 1984 2565 2268 
Q 2250 2553 1709 2553 
Q 1456 2553 1204 2497 
Q 953 2441 691 2322 
L 691 4666 
z
" transform="scale(0.015625)"/>
       </defs>
       <use xlink:href="#DejaVuSans-35"/>
       <use xlink:href="#DejaVuSans-30" transform="translate(63.623047 0)"/>
      </g>
     </g>
    </g>
    <g id="text_7">
     <!-- MPI size -->
     <g transform="translate(348.9125 412.756563) scale(0.1 -0.1)">
      <defs>
       <path id="DejaVuSans-4d" d="M 628 4666 
L 1569 4666 
L 2759 1491 
L 3956 4666 
L 4897 4666 
L 4897 0 
L 4281 0 
L 4281 4097 
L 3078 897 
L 2444 897 
L 1241 4097 
L 1241 0 
L 628 0 
L 628 4666 
z
" transform="scale(0.015625)"/>
       <path id="DejaVuSans-50" d="M 1259 4147 
L 1259 2394 
L 2053 2394 
Q 2494 2394 2734 2622 
Q 2975 2850 2975 3272 
Q 2975 3691 2734 3919 
Q 2494 4147 2053 4147 
L 1259 4147 
z
M 628 4666 
L 2053 4666 
Q 2838 4666 3239 4311 
Q 3641 3956 3641 3272 
Q 3641 2581 3239 2228 
Q 2838 1875 2053 1875 
L 1259 1875 
L 1259 0 
L 628 0 
L 628 4666 
z
" transform="scale(0.015625)"/>
       <path id="DejaVuSans-49" d="M 628 4666 
L 1259 4666 
L 1259 0 
L 628 0 
L 628 4666 
z
" transform="scale(0.015625)"/>
       <path id="DejaVuSans-20" transform="scale(0.015625)"/>
       <path id="DejaVuSans-73" d="M 2834 3397 
L 2834 2853 
Q 2591 2978 2328 3040 
Q 2066 3103 1784 3103 
Q 1356 3103 1142 2972 
Q 928 2841 928 2578 
Q 928 2378 1081 2264 
Q 1234 2150 1697 2047 
L 1894 2003 
Q 2506 1872 2764 1633 
Q 3022 1394 3022 966 
Q 3022 478 2636 193 
Q 2250 -91 1575 -91 
Q 1294 -91 989 -36 
Q 684 19 347 128 
L 347 722 
Q 666 556 975 473 
Q 1284 391 1588 391 
Q 1994 391 2212 530 
Q 2431 669 2431 922 
Q 2431 1156 2273 1281 
Q 2116 1406 1581 1522 
L 1381 1569 
Q 847 1681 609 1914 
Q 372 2147 372 2553 
Q 372 3047 722 3315 
Q 1072 3584 1716 3584 
Q 2034 3584 2315 3537 
Q 2597 3491 2834 3397 
z
" transform="scale(0.015625)"/>
       <path id="DejaVuSans-69" d="M 603 3500 
L 1178 3500 
L 1178 0 
L 603 0 
L 603 3500 
z
M 603 4863 
L 1178 4863 
L 1178 4134 
L 603 4134 
L 603 4863 
z
" transform="scale(0.015625)"/>
       <path id="DejaVuSans-7a" d="M 353 3500 
L 3084 3500 
L 3084 2975 
L 922 459 
L 3084 459 
L 3084 0 
L 275 0 
L 275 525 
L 2438 3041 
L 353 3041 
L 353 3500 
z
" transform="scale(0.015625)"/>
       <path id="DejaVuSans-65" d="M 3597 1894 
L 3597 1613 
L 953 1613 
Q 991 1019 1311 708 
Q 1631 397 2203 397 
Q 2534 397 2845 478 
Q 3156 559 3463 722 
L 3463 178 
Q 3153 47 2828 -22 
Q 2503 -91 2169 -91 
Q 1331 -91 842 396 
Q 353 884 353 1716 
Q 353 2575 817 3079 
Q 1281 3584 2069 3584 
Q 2775 3584 3186 3129 
Q 3597 2675 3597 1894 
z
M 3022 2063 
Q 3016 2534 2758 2815 
Q 2500 3097 2075 3097 
Q 1594 3097 1305 2825 
Q 1016 2553 972 2059 
L 3022 2063 
z
" transform="scale(0.015625)"/>
      </defs>
      <use xlink:href="#DejaVuSans-4d"/>
      <use xlink:href="#DejaVuSans-50" transform="translate(86.279297 0)"/>
      <use xlink:href="#DejaVuSans-49" transform="translate(146.582031 0)"/>
      <use xlink:href="#DejaVuSans-20" transform="translate(176.074219 0)"/>
      <use xlink:href="#DejaVuSans-73" transform="translate(207.861328 0)"/>
      <use xlink:href="#DejaVuSans-69" transform="translate(259.960938 0)"/>
      <use xlink:href="#DejaVuSans-7a" transform="translate(287.744141 0)"/>
      <use xlink:href="#DejaVuSans-65" transform="translate(340.234375 0)"/>
     </g>
    </g>
   </g>
   <g id="matplotlib.axis_2">
    <g id="ytick_1">
     <g id="line2d_13">
      <path d="M 90 369.36 
L 648 369.36 
" clip-path="url(#pa444083702)" style="fill: none; stroke-dasharray: 1.85,0.8; stroke-dashoffset: 0; stroke: #b0b0b0; stroke-width: 0.5"/>
     </g>
     <g id="line2d_14">
      <defs>
       <path id="m5cc2444b60" d="M 0 0 
L -3.5 0 
" style="stroke: #000000; stroke-width: 0.8"/>
      </defs>
      <g>
       <use xlink:href="#m5cc2444b60" x="90" y="369.36" style="stroke: #000000; stroke-width: 0.8"/>
      </g>
     </g>
     <g id="text_8">
      <!-- 0.000 -->
      <g transform="translate(54.371875 373.159219) scale(0.1 -0.1)">
       <defs>
        <path id="DejaVuSans-2e" d="M 684 794 
L 1344 794 
L 1344 0 
L 684 0 
L 684 794 
z
" transform="scale(0.015625)"/>
       </defs>
       <use xlink:href="#DejaVuSans-30"/>
       <use xlink:href="#DejaVuSans-2e" transform="translate(63.623047 0)"/>
       <use xlink:href="#DejaVuSans-30" transform="translate(95.410156 0)"/>
       <use xlink:href="#DejaVuSans-30" transform="translate(159.033203 0)"/>
       <use xlink:href="#DejaVuSans-30" transform="translate(222.65625 0)"/>
      </g>
     </g>
    </g>
    <g id="ytick_2">
     <g id="line2d_15">
      <path d="M 90 329.400078 
L 648 329.400078 
" clip-path="url(#pa444083702)" style="fill: none; stroke-dasharray: 1.85,0.8; stroke-dashoffset: 0; stroke: #b0b0b0; stroke-width: 0.5"/>
     </g>
     <g id="line2d_16">
      <g>
       <use xlink:href="#m5cc2444b60" x="90" y="329.400078" style="stroke: #000000; stroke-width: 0.8"/>
      </g>
     </g>
     <g id="text_9">
      <!-- 0.025 -->
      <g transform="translate(54.371875 333.199297) scale(0.1 -0.1)">
       <use xlink:href="#DejaVuSans-30"/>
       <use xlink:href="#DejaVuSans-2e" transform="translate(63.623047 0)"/>
       <use xlink:href="#DejaVuSans-30" transform="translate(95.410156 0)"/>
       <use xlink:href="#DejaVuSans-32" transform="translate(159.033203 0)"/>
       <use xlink:href="#DejaVuSans-35" transform="translate(222.65625 0)"/>
      </g>
     </g>
    </g>
    <g id="ytick_3">
     <g id="line2d_17">
      <path d="M 90 289.440156 
L 648 289.440156 
" clip-path="url(#pa444083702)" style="fill: none; stroke-dasharray: 1.85,0.8; stroke-dashoffset: 0; stroke: #b0b0b0; stroke-width: 0.5"/>
     </g>
     <g id="line2d_18">
      <g>
       <use xlink:href="#m5cc2444b60" x="90" y="289.440156" style="stroke: #000000; stroke-width: 0.8"/>
      </g>
     </g>
     <g id="text_10">
      <!-- 0.050 -->
      <g transform="translate(54.371875 293.239375) scale(0.1 -0.1)">
       <use xlink:href="#DejaVuSans-30"/>
       <use xlink:href="#DejaVuSans-2e" transform="translate(63.623047 0)"/>
       <use xlink:href="#DejaVuSans-30" transform="translate(95.410156 0)"/>
       <use xlink:href="#DejaVuSans-35" transform="translate(159.033203 0)"/>
       <use xlink:href="#DejaVuSans-30" transform="translate(222.65625 0)"/>
      </g>
     </g>
    </g>
    <g id="ytick_4">
     <g id="line2d_19">
      <path d="M 90 249.480234 
L 648 249.480234 
" clip-path="url(#pa444083702)" style="fill: none; stroke-dasharray: 1.85,0.8; stroke-dashoffset: 0; stroke: #b0b0b0; stroke-width: 0.5"/>
     </g>
     <g id="line2d_20">
      <g>
       <use xlink:href="#m5cc2444b60" x="90" y="249.480234" style="stroke: #000000; stroke-width: 0.8"/>
      </g>
     </g>
     <g id="text_11">
      <!-- 0.075 -->
      <g transform="translate(54.371875 253.279453) scale(0.1 -0.1)">
       <defs>
        <path id="DejaVuSans-37" d="M 525 4666 
L 3525 4666 
L 3525 4397 
L 1831 0 
L 1172 0 
L 2766 4134 
L 525 4134 
L 525 4666 
z
" transform="scale(0.015625)"/>
       </defs>
       <use xlink:href="#DejaVuSans-30"/>
       <use xlink:href="#DejaVuSans-2e" transform="translate(63.623047 0)"/>
       <use xlink:href="#DejaVuSans-30" transform="translate(95.410156 0)"/>
       <use xlink:href="#DejaVuSans-37" transform="translate(159.033203 0)"/>
       <use xlink:href="#DejaVuSans-35" transform="translate(222.65625 0)"/>
      </g>
     </g>
    </g>
    <g id="ytick_5">
     <g id="line2d_21">
      <path d="M 90 209.520313 
L 648 209.520313 
" clip-path="url(#pa444083702)" style="fill: none; stroke-dasharray: 1.85,0.8; stroke-dashoffset: 0; stroke: #b0b0b0; stroke-width: 0.5"/>
     </g>
     <g id="line2d_22">
      <g>
       <use xlink:href="#m5cc2444b60" x="90" y="209.520313" style="stroke: #000000; stroke-width: 0.8"/>
      </g>
     </g>
     <g id="text_12">
      <!-- 0.100 -->
      <g transform="translate(54.371875 213.319531) scale(0.1 -0.1)">
       <use xlink:href="#DejaVuSans-30"/>
       <use xlink:href="#DejaVuSans-2e" transform="translate(63.623047 0)"/>
       <use xlink:href="#DejaVuSans-31" transform="translate(95.410156 0)"/>
       <use xlink:href="#DejaVuSans-30" transform="translate(159.033203 0)"/>
       <use xlink:href="#DejaVuSans-30" transform="translate(222.65625 0)"/>
      </g>
     </g>
    </g>
    <g id="ytick_6">
     <g id="line2d_23">
      <path d="M 90 169.560391 
L 648 169.560391 
" clip-path="url(#pa444083702)" style="fill: none; stroke-dasharray: 1.85,0.8; stroke-dashoffset: 0; stroke: #b0b0b0; stroke-width: 0.5"/>
     </g>
     <g id="line2d_24">
      <g>
       <use xlink:href="#m5cc2444b60" x="90" y="169.560391" style="stroke: #000000; stroke-width: 0.8"/>
      </g>
     </g>
     <g id="text_13">
      <!-- 0.125 -->
      <g transform="translate(54.371875 173.35961) scale(0.1 -0.1)">
       <use xlink:href="#DejaVuSans-30"/>
       <use xlink:href="#DejaVuSans-2e" transform="translate(63.623047 0)"/>
       <use xlink:href="#DejaVuSans-31" transform="translate(95.410156 0)"/>
       <use xlink:href="#DejaVuSans-32" transform="translate(159.033203 0)"/>
       <use xlink:href="#DejaVuSans-35" transform="translate(222.65625 0)"/>
      </g>
     </g>
    </g>
    <g id="ytick_7">
     <g id="line2d_25">
      <path d="M 90 129.600469 
L 648 129.600469 
" clip-path="url(#pa444083702)" style="fill: none; stroke-dasharray: 1.85,0.8; stroke-dashoffset: 0; stroke: #b0b0b0; stroke-width: 0.5"/>
     </g>
     <g id="line2d_26">
      <g>
       <use xlink:href="#m5cc2444b60" x="90" y="129.600469" style="stroke: #000000; stroke-width: 0.8"/>
      </g>
     </g>
     <g id="text_14">
      <!-- 0.150 -->
      <g transform="translate(54.371875 133.399688) scale(0.1 -0.1)">
       <use xlink:href="#DejaVuSans-30"/>
       <use xlink:href="#DejaVuSans-2e" transform="translate(63.623047 0)"/>
       <use xlink:href="#DejaVuSans-31" transform="translate(95.410156 0)"/>
       <use xlink:href="#DejaVuSans-35" transform="translate(159.033203 0)"/>
       <use xlink:href="#DejaVuSans-30" transform="translate(222.65625 0)"/>
      </g>
     </g>
    </g>
    <g id="ytick_8">
     <g id="line2d_27">
      <path d="M 90 89.640547 
L 648 89.640547 
" clip-path="url(#pa444083702)" style="fill: none; stroke-dasharray: 1.85,0.8; stroke-dashoffset: 0; stroke: #b0b0b0; stroke-width: 0.5"/>
     </g>
     <g id="line2d_28">
      <g>
       <use xlink:href="#m5cc2444b60" x="90" y="89.640547" style="stroke: #000000; stroke-width: 0.8"/>
      </g>
     </g>
     <g id="text_15">
      <!-- 0.175 -->
      <g transform="translate(54.371875 93.439766) scale(0.1 -0.1)">
       <use xlink:href="#DejaVuSans-30"/>
       <use xlink:href="#DejaVuSans-2e" transform="translate(63.623047 0)"/>
       <use xlink:href="#DejaVuSans-31" transform="translate(95.410156 0)"/>
       <use xlink:href="#DejaVuSans-37" transform="translate(159.033203 0)"/>
       <use xlink:href="#DejaVuSans-35" transform="translate(222.65625 0)"/>
      </g>
     </g>
    </g>
    <g id="text_16">
     <!-- Time (s) -->
     <g transform="translate(48.292187 238.488906) rotate(-90) scale(0.1 -0.1)">
      <defs>
       <path id="DejaVuSans-54" d="M -19 4666 
L 3928 4666 
L 3928 4134 
L 2272 4134 
L 2272 0 
L 1638 0 
L 1638 4134 
L -19 4134 
L -19 4666 
z
" transform="scale(0.015625)"/>
       <path id="DejaVuSans-6d" d="M 3328 2828 
Q 3544 3216 3844 3400 
Q 4144 3584 4550 3584 
Q 5097 3584 5394 3201 
Q 5691 2819 5691 2113 
L 5691 0 
L 5113 0 
L 5113 2094 
Q 5113 2597 4934 2840 
Q 4756 3084 4391 3084 
Q 3944 3084 3684 2787 
Q 3425 2491 3425 1978 
L 3425 0 
L 2847 0 
L 2847 2094 
Q 2847 2600 2669 2842 
Q 2491 3084 2119 3084 
Q 1678 3084 1418 2786 
Q 1159 2488 1159 1978 
L 1159 0 
L 581 0 
L 581 3500 
L 1159 3500 
L 1159 2956 
Q 1356 3278 1631 3431 
Q 1906 3584 2284 3584 
Q 2666 3584 2933 3390 
Q 3200 3197 3328 2828 
z
" transform="scale(0.015625)"/>
       <path id="DejaVuSans-28" d="M 1984 4856 
Q 1566 4138 1362 3434 
Q 1159 2731 1159 2009 
Q 1159 1288 1364 580 
Q 1569 -128 1984 -844 
L 1484 -844 
Q 1016 -109 783 600 
Q 550 1309 550 2009 
Q 550 2706 781 3412 
Q 1013 4119 1484 4856 
L 1984 4856 
z
" transform="scale(0.015625)"/>
       <path id="DejaVuSans-29" d="M 513 4856 
L 1013 4856 
Q 1481 4119 1714 3412 
Q 1947 2706 1947 2009 
Q 1947 1309 1714 600 
Q 1481 -109 1013 -844 
L 513 -844 
Q 928 -128 1133 580 
Q 1338 1288 1338 2009 
Q 1338 2731 1133 3434 
Q 928 4138 513 4856 
z
" transform="scale(0.015625)"/>
      </defs>
      <use xlink:href="#DejaVuSans-54"/>
      <use xlink:href="#DejaVuSans-69" transform="translate(57.958984 0)"/>
      <use xlink:href="#DejaVuSans-6d" transform="translate(85.742188 0)"/>
      <use xlink:href="#DejaVuSans-65" transform="translate(183.154297 0)"/>
      <use xlink:href="#DejaVuSans-20" transform="translate(244.677734 0)"/>
      <use xlink:href="#DejaVuSans-28" transform="translate(276.464844 0)"/>
      <use xlink:href="#DejaVuSans-73" transform="translate(315.478516 0)"/>
      <use xlink:href="#DejaVuSans-29" transform="translate(367.578125 0)"/>
     </g>
    </g>
   </g>
   <g id="line2d_29">
    <path d="M 115.363636 234.092499 
L 137.418972 315.691777 
L 159.474308 314.322321 
L 181.529644 308.172833 
L 203.58498 307.768194 
L 225.640316 303.581229 
L 247.695652 298.50052 
L 269.750988 291.782881 
L 291.806324 284.670778 
L 313.86166 284.691392 
L 335.916996 283.112929 
L 357.972332 282.510231 
L 380.027668 282.554593 
L 402.083004 275.632582 
L 424.13834 275.179767 
L 446.193676 266.892622 
L 468.249012 264.378226 
L 490.304348 259.910455 
L 512.359684 258.126095 
L 534.41502 257.318692 
L 556.470356 249.553503 
L 578.525692 251.47233 
L 600.581028 249.787742 
L 622.636364 243.629112 
" clip-path="url(#pa444083702)" style="fill: none; stroke: #1f77b4; stroke-width: 1.5; stroke-linecap: square"/>
    <defs>
     <path id="m5c7eb06d3b" d="M 0 3 
C 0.795609 3 1.55874 2.683901 2.12132 2.12132 
C 2.683901 1.55874 3 0.795609 3 0 
C 3 -0.795609 2.683901 -1.55874 2.12132 -2.12132 
C 1.55874 -2.683901 0.795609 -3 0 -3 
C -0.795609 -3 -1.55874 -2.683901 -2.12132 -2.12132 
C -2.683901 -1.55874 -3 -0.795609 -3 0 
C -3 0.795609 -2.683901 1.55874 -2.12132 2.12132 
C -1.55874 2.683901 -0.795609 3 0 3 
z
" style="stroke: #1f77b4"/>
    </defs>
    <g clip-path="url(#pa444083702)">
     <use xlink:href="#m5c7eb06d3b" x="115.363636" y="234.092499" style="fill: #1f77b4; stroke: #1f77b4"/>
     <use xlink:href="#m5c7eb06d3b" x="137.418972" y="315.691777" style="fill: #1f77b4; stroke: #1f77b4"/>
     <use xlink:href="#m5c7eb06d3b" x="159.474308" y="314.322321" style="fill: #1f77b4; stroke: #1f77b4"/>
     <use xlink:href="#m5c7eb06d3b" x="181.529644" y="308.172833" style="fill: #1f77b4; stroke: #1f77b4"/>
     <use xlink:href="#m5c7eb06d3b" x="203.58498" y="307.768194" style="fill: #1f77b4; stroke: #1f77b4"/>
     <use xlink:href="#m5c7eb06d3b" x="225.640316" y="303.581229" style="fill: #1f77b4; stroke: #1f77b4"/>
     <use xlink:href="#m5c7eb06d3b" x="247.695652" y="298.50052" style="fill: #1f77b4; stroke: #1f77b4"/>
     <use xlink:href="#m5c7eb06d3b" x="269.750988" y="291.782881" style="fill: #1f77b4; stroke: #1f77b4"/>
     <use xlink:href="#m5c7eb06d3b" x="291.806324" y="284.670778" style="fill: #1f77b4; stroke: #1f77b4"/>
     <use xlink:href="#m5c7eb06d3b" x="313.86166" y="284.691392" style="fill: #1f77b4; stroke: #1f77b4"/>
     <use xlink:href="#m5c7eb06d3b" x="335.916996" y="283.112929" style="fill: #1f77b4; stroke: #1f77b4"/>
     <use xlink:href="#m5c7eb06d3b" x="357.972332" y="282.510231" style="fill: #1f77b4; stroke: #1f77b4"/>
     <use xlink:href="#m5c7eb06d3b" x="380.027668" y="282.554593" style="fill: #1f77b4; stroke: #1f77b4"/>
     <use xlink:href="#m5c7eb06d3b" x="402.083004" y="275.632582" style="fill: #1f77b4; stroke: #1f77b4"/>
     <use xlink:href="#m5c7eb06d3b" x="424.13834" y="275.179767" style="fill: #1f77b4; stroke: #1f77b4"/>
     <use xlink:href="#m5c7eb06d3b" x="446.193676" y="266.892622" style="fill: #1f77b4; stroke: #1f77b4"/>
     <use xlink:href="#m5c7eb06d3b" x="468.249012" y="264.378226" style="fill: #1f77b4; stroke: #1f77b4"/>
     <use xlink:href="#m5c7eb06d3b" x="490.304348" y="259.910455" style="fill: #1f77b4; stroke: #1f77b4"/>
     <use xlink:href="#m5c7eb06d3b" x="512.359684" y="258.126095" style="fill: #1f77b4; stroke: #1f77b4"/>
     <use xlink:href="#m5c7eb06d3b" x="534.41502" y="257.318692" style="fill: #1f77b4; stroke: #1f77b4"/>
     <use xlink:href="#m5c7eb06d3b" x="556.470356" y="249.553503" style="fill: #1f77b4; stroke: #1f77b4"/>
     <use xlink:href="#m5c7eb06d3b" x="578.525692" y="251.47233" style="fill: #1f77b4; stroke: #1f77b4"/>
     <use xlink:href="#m5c7eb06d3b" x="600.581028" y="249.787742" style="fill: #1f77b4; stroke: #1f77b4"/>
     <use xlink:href="#m5c7eb06d3b" x="622.636364" y="243.629112" style="fill: #1f77b4; stroke: #1f77b4"/>
    </g>
   </g>
   <g id="line2d_30">
    <path d="M 115.363636 369.36 
L 137.418972 369.36 
L 159.474308 369.36 
L 181.529644 369.36 
L 203.58498 316.375425 
L 225.640316 314.351707 
L 247.695652 311.321889 
L 269.750988 309.451 
L 291.806324 310.851199 
L 313.86166 303.648803 
L 335.916996 302.735835 
L 357.972332 302.674834 
L 380.027668 296.710556 
L 402.083004 294.994398 
L 424.13834 295.001334 
L 446.193676 294.317324 
L 468.249012 294.527284 
L 490.304348 289.340144 
L 512.359684 289.265872 
L 534.41502 287.288225 
L 556.470356 285.198748 
L 578.525692 277.603299 
L 600.581028 273.245904 
L 622.636364 279.501339 
" clip-path="url(#pa444083702)" style="fill: none; stroke: #ff7f0e; stroke-width: 1.5; stroke-linecap: square"/>
    <defs>
     <path id="md72945a4ed" d="M 0 3 
C 0.795609 3 1.55874 2.683901 2.12132 2.12132 
C 2.683901 1.55874 3 0.795609 3 0 
C 3 -0.795609 2.683901 -1.55874 2.12132 -2.12132 
C 1.55874 -2.683901 0.795609 -3 0 -3 
C -0.795609 -3 -1.55874 -2.683901 -2.12132 -2.12132 
C -2.683901 -1.55874 -3 -0.795609 -3 0 
C -3 0.795609 -2.683901 1.55874 -2.12132 2.12132 
C -1.55874 2.683901 -0.795609 3 0 3 
z
" style="stroke: #ff7f0e"/>
    </defs>
    <g clip-path="url(#pa444083702)">
     <use xlink:href="#md72945a4ed" x="115.363636" y="369.36" style="fill: #ff7f0e; stroke: #ff7f0e"/>
     <use xlink:href="#md72945a4ed" x="137.418972" y="369.36" style="fill: #ff7f0e; stroke: #ff7f0e"/>
     <use xlink:href="#md72945a4ed" x="159.474308" y="369.36" style="fill: #ff7f0e; stroke: #ff7f0e"/>
     <use xlink:href="#md72945a4ed" x="181.529644" y="369.36" style="fill: #ff7f0e; stroke: #ff7f0e"/>
     <use xlink:href="#md72945a4ed" x="203.58498" y="316.375425" style="fill: #ff7f0e; stroke: #ff7f0e"/>
     <use xlink:href="#md72945a4ed" x="225.640316" y="314.351707" style="fill: #ff7f0e; stroke: #ff7f0e"/>
     <use xlink:href="#md72945a4ed" x="247.695652" y="311.321889" style="fill: #ff7f0e; stroke: #ff7f0e"/>
     <use xlink:href="#md72945a4ed" x="269.750988" y="309.451" style="fill: #ff7f0e; stroke: #ff7f0e"/>
     <use xlink:href="#md72945a4ed" x="291.806324" y="310.851199" style="fill: #ff7f0e; stroke: #ff7f0e"/>
     <use xlink:href="#md72945a4ed" x="313.86166" y="303.648803" style="fill: #ff7f0e; stroke: #ff7f0e"/>
     <use xlink:href="#md72945a4ed" x="335.916996" y="302.735835" style="fill: #ff7f0e; stroke: #ff7f0e"/>
     <use xlink:href="#md72945a4ed" x="357.972332" y="302.674834" style="fill: #ff7f0e; stroke: #ff7f0e"/>
     <use xlink:href="#md72945a4ed" x="380.027668" y="296.710556" style="fill: #ff7f0e; stroke: #ff7f0e"/>
     <use xlink:href="#md72945a4ed" x="402.083004" y="294.994398" style="fill: #ff7f0e; stroke: #ff7f0e"/>
     <use xlink:href="#md72945a4ed" x="424.13834" y="295.001334" style="fill: #ff7f0e; stroke: #ff7f0e"/>
     <use xlink:href="#md72945a4ed" x="446.193676" y="294.317324" style="fill: #ff7f0e; stroke: #ff7f0e"/>
     <use xlink:href="#md72945a4ed" x="468.249012" y="294.527284" style="fill: #ff7f0e; stroke: #ff7f0e"/>
     <use xlink:href="#md72945a4ed" x="490.304348" y="289.340144" style="fill: #ff7f0e; stroke: #ff7f0e"/>
     <use xlink:href="#md72945a4ed" x="512.359684" y="289.265872" style="fill: #ff7f0e; stroke: #ff7f0e"/>
     <use xlink:href="#md72945a4ed" x="534.41502" y="287.288225" style="fill: #ff7f0e; stroke: #ff7f0e"/>
     <use xlink:href="#md72945a4ed" x="556.470356" y="285.198748" style="fill: #ff7f0e; stroke: #ff7f0e"/>
     <use xlink:href="#md72945a4ed" x="578.525692" y="277.603299" style="fill: #ff7f0e; stroke: #ff7f0e"/>
     <use xlink:href="#md72945a4ed" x="600.581028" y="273.245904" style="fill: #ff7f0e; stroke: #ff7f0e"/>
     <use xlink:href="#md72945a4ed" x="622.636364" y="279.501339" style="fill: #ff7f0e; stroke: #ff7f0e"/>
    </g>
   </g>
   <g id="line2d_31">
    <path d="M 115.363636 235.577799 
L 137.418972 320.633611 
L 159.474308 321.622825 
L 181.529644 319.832911 
L 203.58498 316.861583 
L 225.640316 313.302077 
L 247.695652 315.006417 
L 269.750988 311.116418 
L 291.806324 307.234574 
L 313.86166 301.879194 
L 335.916996 300.74567 
L 357.972332 298.135013 
L 380.027668 296.985219 
L 402.083004 292.993437 
L 424.13834 289.035294 
L 446.193676 290.728349 
L 468.249012 289.466546 
L 490.304348 287.375226 
L 512.359684 287.698003 
L 534.41502 285.528216 
L 556.470356 280.745562 
L 578.525692 278.793799 
L 600.581028 281.177975 
L 622.636364 274.351568 
" clip-path="url(#pa444083702)" style="fill: none; stroke: #2ca02c; stroke-width: 1.5; stroke-linecap: square"/>
    <defs>
     <path id="m72264e58c9" d="M 0 3 
C 0.795609 3 1.55874 2.683901 2.12132 2.12132 
C 2.683901 1.55874 3 0.795609 3 0 
C 3 -0.795609 2.683901 -1.55874 2.12132 -2.12132 
C 1.55874 -2.683901 0.795609 -3 0 -3 
C -0.795609 -3 -1.55874 -2.683901 -2.12132 -2.12132 
C -2.683901 -1.55874 -3 -0.795609 -3 0 
C -3 0.795609 -2.683901 1.55874 -2.12132 2.12132 
C -1.55874 2.683901 -0.795609 3 0 3 
z
" style="stroke: #2ca02c"/>
    </defs>
    <g clip-path="url(#pa444083702)">
     <use xlink:href="#m72264e58c9" x="115.363636" y="235.577799" style="fill: #2ca02c; stroke: #2ca02c"/>
     <use xlink:href="#m72264e58c9" x="137.418972" y="320.633611" style="fill: #2ca02c; stroke: #2ca02c"/>
     <use xlink:href="#m72264e58c9" x="159.474308" y="321.622825" style="fill: #2ca02c; stroke: #2ca02c"/>
     <use xlink:href="#m72264e58c9" x="181.529644" y="319.832911" style="fill: #2ca02c; stroke: #2ca02c"/>
     <use xlink:href="#m72264e58c9" x="203.58498" y="316.861583" style="fill: #2ca02c; stroke: #2ca02c"/>
     <use xlink:href="#m72264e58c9" x="225.640316" y="313.302077" style="fill: #2ca02c; stroke: #2ca02c"/>
     <use xlink:href="#m72264e58c9" x="247.695652" y="315.006417" style="fill: #2ca02c; stroke: #2ca02c"/>
     <use xlink:href="#m72264e58c9" x="269.750988" y="311.116418" style="fill: #2ca02c; stroke: #2ca02c"/>
     <use xlink:href="#m72264e58c9" x="291.806324" y="307.234574" style="fill: #2ca02c; stroke: #2ca02c"/>
     <use xlink:href="#m72264e58c9" x="313.86166" y="301.879194" style="fill: #2ca02c; stroke: #2ca02c"/>
     <use xlink:href="#m72264e58c9" x="335.916996" y="300.74567" style="fill: #2ca02c; stroke: #2ca02c"/>
     <use xlink:href="#m72264e58c9" x="357.972332" y="298.135013" style="fill: #2ca02c; stroke: #2ca02c"/>
     <use xlink:href="#m72264e58c9" x="380.027668" y="296.985219" style="fill: #2ca02c; stroke: #2ca02c"/>
     <use xlink:href="#m72264e58c9" x="402.083004" y="292.993437" style="fill: #2ca02c; stroke: #2ca02c"/>
     <use xlink:href="#m72264e58c9" x="424.13834" y="289.035294" style="fill: #2ca02c; stroke: #2ca02c"/>
     <use xlink:href="#m72264e58c9" x="446.193676" y="290.728349" style="fill: #2ca02c; stroke: #2ca02c"/>
     <use xlink:href="#m72264e58c9" x="468.249012" y="289.466546" style="fill: #2ca02c; stroke: #2ca02c"/>
     <use xlink:href="#m72264e58c9" x="490.304348" y="287.375226" style="fill: #2ca02c; stroke: #2ca02c"/>
     <use xlink:href="#m72264e58c9" x="512.359684" y="287.698003" style="fill: #2ca02c; stroke: #2ca02c"/>
     <use xlink:href="#m72264e58c9" x="534.41502" y="285.528216" style="fill: #2ca02c; stroke: #2ca02c"/>
     <use xlink:href="#m72264e58c9" x="556.470356" y="280.745562" style="fill: #2ca02c; stroke: #2ca02c"/>
     <use xlink:href="#m72264e58c9" x="578.525692" y="278.793799" style="fill: #2ca02c; stroke: #2ca02c"/>
     <use xlink:href="#m72264e58c9" x="600.581028" y="281.177975" style="fill: #2ca02c; stroke: #2ca02c"/>
     <use xlink:href="#m72264e58c9" x="622.636364" y="274.351568" style="fill: #2ca02c; stroke: #2ca02c"/>
    </g>
   </g>
   <g id="line2d_32">
    <path d="M 115.363636 228.815379 
L 137.418972 319.132716 
L 159.474308 322.45305 
L 181.529644 321.841104 
L 203.58498 314.10048 
L 225.640316 316.814919 
L 247.695652 317.66854 
L 269.750988 311.113856 
L 291.806324 307.180701 
L 313.86166 304.658285 
L 335.916996 302.306424 
L 357.972332 299.042894 
L 380.027668 300.552935 
L 402.083004 297.472009 
L 424.13834 302.194598 
L 446.193676 300.341041 
L 468.249012 295.612617 
L 490.304348 292.023901 
L 512.359684 292.196796 
L 534.41502 291.330895 
L 556.470356 288.292651 
L 578.525692 284.883628 
L 600.581028 285.09822 
L 622.636364 286.95647 
" clip-path="url(#pa444083702)" style="fill: none; stroke: #d62728; stroke-width: 1.5; stroke-linecap: square"/>
    <defs>
     <path id="m62a7ab0544" d="M 0 3 
C 0.795609 3 1.55874 2.683901 2.12132 2.12132 
C 2.683901 1.55874 3 0.795609 3 0 
C 3 -0.795609 2.683901 -1.55874 2.12132 -2.12132 
C 1.55874 -2.683901 0.795609 -3 0 -3 
C -0.795609 -3 -1.55874 -2.683901 -2.12132 -2.12132 
C -2.683901 -1.55874 -3 -0.795609 -3 0 
C -3 0.795609 -2.683901 1.55874 -2.12132 2.12132 
C -1.55874 2.683901 -0.795609 3 0 3 
z
" style="stroke: #d62728"/>
    </defs>
    <g clip-path="url(#pa444083702)">
     <use xlink:href="#m62a7ab0544" x="115.363636" y="228.815379" style="fill: #d62728; stroke: #d62728"/>
     <use xlink:href="#m62a7ab0544" x="137.418972" y="319.132716" style="fill: #d62728; stroke: #d62728"/>
     <use xlink:href="#m62a7ab0544" x="159.474308" y="322.45305" style="fill: #d62728; stroke: #d62728"/>
     <use xlink:href="#m62a7ab0544" x="181.529644" y="321.841104" style="fill: #d62728; stroke: #d62728"/>
     <use xlink:href="#m62a7ab0544" x="203.58498" y="314.10048" style="fill: #d62728; stroke: #d62728"/>
     <use xlink:href="#m62a7ab0544" x="225.640316" y="316.814919" style="fill: #d62728; stroke: #d62728"/>
     <use xlink:href="#m62a7ab0544" x="247.695652" y="317.66854" style="fill: #d62728; stroke: #d62728"/>
     <use xlink:href="#m62a7ab0544" x="269.750988" y="311.113856" style="fill: #d62728; stroke: #d62728"/>
     <use xlink:href="#m62a7ab0544" x="291.806324" y="307.180701" style="fill: #d62728; stroke: #d62728"/>
     <use xlink:href="#m62a7ab0544" x="313.86166" y="304.658285" style="fill: #d62728; stroke: #d62728"/>
     <use xlink:href="#m62a7ab0544" x="335.916996" y="302.306424" style="fill: #d62728; stroke: #d62728"/>
     <use xlink:href="#m62a7ab0544" x="357.972332" y="299.042894" style="fill: #d62728; stroke: #d62728"/>
     <use xlink:href="#m62a7ab0544" x="380.027668" y="300.552935" style="fill: #d62728; stroke: #d62728"/>
     <use xlink:href="#m62a7ab0544" x="402.083004" y="297.472009" style="fill: #d62728; stroke: #d62728"/>
     <use xlink:href="#m62a7ab0544" x="424.13834" y="302.194598" style="fill: #d62728; stroke: #d62728"/>
     <use xlink:href="#m62a7ab0544" x="446.193676" y="300.341041" style="fill: #d62728; stroke: #d62728"/>
     <use xlink:href="#m62a7ab0544" x="468.249012" y="295.612617" style="fill: #d62728; stroke: #d62728"/>
     <use xlink:href="#m62a7ab0544" x="490.304348" y="292.023901" style="fill: #d62728; stroke: #d62728"/>
     <use xlink:href="#m62a7ab0544" x="512.359684" y="292.196796" style="fill: #d62728; stroke: #d62728"/>
     <use xlink:href="#m62a7ab0544" x="534.41502" y="291.330895" style="fill: #d62728; stroke: #d62728"/>
     <use xlink:href="#m62a7ab0544" x="556.470356" y="288.292651" style="fill: #d62728; stroke: #d62728"/>
     <use xlink:href="#m62a7ab0544" x="578.525692" y="284.883628" style="fill: #d62728; stroke: #d62728"/>
     <use xlink:href="#m62a7ab0544" x="600.581028" y="285.09822" style="fill: #d62728; stroke: #d62728"/>
     <use xlink:href="#m62a7ab0544" x="622.636364" y="286.95647" style="fill: #d62728; stroke: #d62728"/>
    </g>
   </g>
   <g id="line2d_33">
    <path d="M 115.363636 233.638231 
L 137.418972 314.708718 
L 159.474308 319.993611 
L 181.529644 319.650033 
L 203.58498 318.125479 
L 225.640316 313.446748 
L 247.695652 306.141675 
L 269.750988 307.548932 
L 291.806324 300.666915 
L 313.86166 305.011097 
L 335.916996 304.185296 
L 357.972332 297.731642 
L 380.027668 294.25864 
L 402.083004 294.177856 
L 424.13834 295.646092 
L 446.193676 289.889272 
L 468.249012 286.335021 
L 490.304348 286.422684 
L 512.359684 288.257612 
L 534.41502 283.185758 
L 556.470356 272.869573 
L 578.525692 275.133043 
L 600.581028 277.100701 
L 622.636364 273.7057 
" clip-path="url(#pa444083702)" style="fill: none; stroke: #9467bd; stroke-width: 1.5; stroke-linecap: square"/>
    <defs>
     <path id="m4a7493fd15" d="M 0 3 
C 0.795609 3 1.55874 2.683901 2.12132 2.12132 
C 2.683901 1.55874 3 0.795609 3 0 
C 3 -0.795609 2.683901 -1.55874 2.12132 -2.12132 
C 1.55874 -2.683901 0.795609 -3 0 -3 
C -0.795609 -3 -1.55874 -2.683901 -2.12132 -2.12132 
C -2.683901 -1.55874 -3 -0.795609 -3 0 
C -3 0.795609 -2.683901 1.55874 -2.12132 2.12132 
C -1.55874 2.683901 -0.795609 3 0 3 
z
" style="stroke: #9467bd"/>
    </defs>
    <g clip-path="url(#pa444083702)">
     <use xlink:href="#m4a7493fd15" x="115.363636" y="233.638231" style="fill: #9467bd; stroke: #9467bd"/>
     <use xlink:href="#m4a7493fd15" x="137.418972" y="314.708718" style="fill: #9467bd; stroke: #9467bd"/>
     <use xlink:href="#m4a7493fd15" x="159.474308" y="319.993611" style="fill: #9467bd; stroke: #9467bd"/>
     <use xlink:href="#m4a7493fd15" x="181.529644" y="319.650033" style="fill: #9467bd; stroke: #9467bd"/>
     <use xlink:href="#m4a7493fd15" x="203.58498" y="318.125479" style="fill: #9467bd; stroke: #9467bd"/>
     <use xlink:href="#m4a7493fd15" x="225.640316" y="313.446748" style="fill: #9467bd; stroke: #9467bd"/>
     <use xlink:href="#m4a7493fd15" x="247.695652" y="306.141675" style="fill: #9467bd; stroke: #9467bd"/>
     <use xlink:href="#m4a7493fd15" x="269.750988" y="307.548932" style="fill: #9467bd; stroke: #9467bd"/>
     <use xlink:href="#m4a7493fd15" x="291.806324" y="300.666915" style="fill: #9467bd; stroke: #9467bd"/>
     <use xlink:href="#m4a7493fd15" x="313.86166" y="305.011097" style="fill: #9467bd; stroke: #9467bd"/>
     <use xlink:href="#m4a7493fd15" x="335.916996" y="304.185296" style="fill: #9467bd; stroke: #9467bd"/>
     <use xlink:href="#m4a7493fd15" x="357.972332" y="297.731642" style="fill: #9467bd; stroke: #9467bd"/>
     <use xlink:href="#m4a7493fd15" x="380.027668" y="294.25864" style="fill: #9467bd; stroke: #9467bd"/>
     <use xlink:href="#m4a7493fd15" x="402.083004" y="294.177856" style="fill: #9467bd; stroke: #9467bd"/>
     <use xlink:href="#m4a7493fd15" x="424.13834" y="295.646092" style="fill: #9467bd; stroke: #9467bd"/>
     <use xlink:href="#m4a7493fd15" x="446.193676" y="289.889272" style="fill: #9467bd; stroke: #9467bd"/>
     <use xlink:href="#m4a7493fd15" x="468.249012" y="286.335021" style="fill: #9467bd; stroke: #9467bd"/>
     <use xlink:href="#m4a7493fd15" x="490.304348" y="286.422684" style="fill: #9467bd; stroke: #9467bd"/>
     <use xlink:href="#m4a7493fd15" x="512.359684" y="288.257612" style="fill: #9467bd; stroke: #9467bd"/>
     <use xlink:href="#m4a7493fd15" x="534.41502" y="283.185758" style="fill: #9467bd; stroke: #9467bd"/>
     <use xlink:href="#m4a7493fd15" x="556.470356" y="272.869573" style="fill: #9467bd; stroke: #9467bd"/>
     <use xlink:href="#m4a7493fd15" x="578.525692" y="275.133043" style="fill: #9467bd; stroke: #9467bd"/>
     <use xlink:href="#m4a7493fd15" x="600.581028" y="277.100701" style="fill: #9467bd; stroke: #9467bd"/>
     <use xlink:href="#m4a7493fd15" x="622.636364" y="273.7057" style="fill: #9467bd; stroke: #9467bd"/>
    </g>
   </g>
   <g id="line2d_34">
    <path d="M 115.363636 234.490206 
L 137.418972 319.945136 
L 159.474308 321.29738 
L 181.529644 317.344546 
L 203.58498 311.489714 
L 225.640316 313.84566 
L 247.695652 310.175435 
L 269.750988 306.310066 
L 291.806324 301.65827 
L 313.86166 297.922746 
L 335.916996 296.916398 
L 357.972332 296.638074 
L 380.027668 294.371496 
L 402.083004 290.153486 
L 424.13834 278.538129 
L 446.193676 290.280943 
L 468.249012 277.719938 
L 490.304348 282.246852 
L 512.359684 284.719506 
L 534.41502 278.363182 
L 556.470356 276.425685 
L 578.525692 280.615224 
L 600.581028 278.565162 
L 622.636364 274.027216 
" clip-path="url(#pa444083702)" style="fill: none; stroke: #8c564b; stroke-width: 1.5; stroke-linecap: square"/>
    <defs>
     <path id="m2e720b8450" d="M 0 3 
C 0.795609 3 1.55874 2.683901 2.12132 2.12132 
C 2.683901 1.55874 3 0.795609 3 0 
C 3 -0.795609 2.683901 -1.55874 2.12132 -2.12132 
C 1.55874 -2.683901 0.795609 -3 0 -3 
C -0.795609 -3 -1.55874 -2.683901 -2.12132 -2.12132 
C -2.683901 -1.55874 -3 -0.795609 -3 0 
C -3 0.795609 -2.683901 1.55874 -2.12132 2.12132 
C -1.55874 2.683901 -0.795609 3 0 3 
z
" style="stroke: #8c564b"/>
    </defs>
    <g clip-path="url(#pa444083702)">
     <use xlink:href="#m2e720b8450" x="115.363636" y="234.490206" style="fill: #8c564b; stroke: #8c564b"/>
     <use xlink:href="#m2e720b8450" x="137.418972" y="319.945136" style="fill: #8c564b; stroke: #8c564b"/>
     <use xlink:href="#m2e720b8450" x="159.474308" y="321.29738" style="fill: #8c564b; stroke: #8c564b"/>
     <use xlink:href="#m2e720b8450" x="181.529644" y="317.344546" style="fill: #8c564b; stroke: #8c564b"/>
     <use xlink:href="#m2e720b8450" x="203.58498" y="311.489714" style="fill: #8c564b; stroke: #8c564b"/>
     <use xlink:href="#m2e720b8450" x="225.640316" y="313.84566" style="fill: #8c564b; stroke: #8c564b"/>
     <use xlink:href="#m2e720b8450" x="247.695652" y="310.175435" style="fill: #8c564b; stroke: #8c564b"/>
     <use xlink:href="#m2e720b8450" x="269.750988" y="306.310066" style="fill: #8c564b; stroke: #8c564b"/>
     <use xlink:href="#m2e720b8450" x="291.806324" y="301.65827" style="fill: #8c564b; stroke: #8c564b"/>
     <use xlink:href="#m2e720b8450" x="313.86166" y="297.922746" style="fill: #8c564b; stroke: #8c564b"/>
     <use xlink:href="#m2e720b8450" x="335.916996" y="296.916398" style="fill: #8c564b; stroke: #8c564b"/>
     <use xlink:href="#m2e720b8450" x="357.972332" y="296.638074" style="fill: #8c564b; stroke: #8c564b"/>
     <use xlink:href="#m2e720b8450" x="380.027668" y="294.371496" style="fill: #8c564b; stroke: #8c564b"/>
     <use xlink:href="#m2e720b8450" x="402.083004" y="290.153486" style="fill: #8c564b; stroke: #8c564b"/>
     <use xlink:href="#m2e720b8450" x="424.13834" y="278.538129" style="fill: #8c564b; stroke: #8c564b"/>
     <use xlink:href="#m2e720b8450" x="446.193676" y="290.280943" style="fill: #8c564b; stroke: #8c564b"/>
     <use xlink:href="#m2e720b8450" x="468.249012" y="277.719938" style="fill: #8c564b; stroke: #8c564b"/>
     <use xlink:href="#m2e720b8450" x="490.304348" y="282.246852" style="fill: #8c564b; stroke: #8c564b"/>
     <use xlink:href="#m2e720b8450" x="512.359684" y="284.719506" style="fill: #8c564b; stroke: #8c564b"/>
     <use xlink:href="#m2e720b8450" x="534.41502" y="278.363182" style="fill: #8c564b; stroke: #8c564b"/>
     <use xlink:href="#m2e720b8450" x="556.470356" y="276.425685" style="fill: #8c564b; stroke: #8c564b"/>
     <use xlink:href="#m2e720b8450" x="578.525692" y="280.615224" style="fill: #8c564b; stroke: #8c564b"/>
     <use xlink:href="#m2e720b8450" x="600.581028" y="278.565162" style="fill: #8c564b; stroke: #8c564b"/>
     <use xlink:href="#m2e720b8450" x="622.636364" y="274.027216" style="fill: #8c564b; stroke: #8c564b"/>
    </g>
   </g>
   <g id="line2d_35">
    <path d="M 115.363636 236.1948 
L 137.418972 320.499658 
L 159.474308 318.094941 
L 181.529644 311.827052 
L 203.58498 299.994439 
L 225.640316 295.082813 
L 247.695652 284.906482 
L 269.750988 276.095381 
L 291.806324 260.299872 
L 313.86166 257.296551 
L 335.916996 243.417311 
L 357.972332 223.921053 
L 380.027668 221.931538 
L 402.083004 206.327344 
L 424.13834 194.103789 
L 446.193676 183.119864 
L 468.249012 175.615269 
L 490.304348 161.657833 
L 512.359684 155.899284 
L 534.41502 138.198633 
L 556.470356 116.747835 
L 578.525692 105.046106 
L 600.581028 84.088934 
L 622.636364 66.96 
" clip-path="url(#pa444083702)" style="fill: none; stroke: #e377c2; stroke-width: 1.5; stroke-linecap: square"/>
    <defs>
     <path id="m14339de4d5" d="M 0 3 
C 0.795609 3 1.55874 2.683901 2.12132 2.12132 
C 2.683901 1.55874 3 0.795609 3 0 
C 3 -0.795609 2.683901 -1.55874 2.12132 -2.12132 
C 1.55874 -2.683901 0.795609 -3 0 -3 
C -0.795609 -3 -1.55874 -2.683901 -2.12132 -2.12132 
C -2.683901 -1.55874 -3 -0.795609 -3 0 
C -3 0.795609 -2.683901 1.55874 -2.12132 2.12132 
C -1.55874 2.683901 -0.795609 3 0 3 
z
" style="stroke: #e377c2"/>
    </defs>
    <g clip-path="url(#pa444083702)">
     <use xlink:href="#m14339de4d5" x="115.363636" y="236.1948" style="fill: #e377c2; stroke: #e377c2"/>
     <use xlink:href="#m14339de4d5" x="137.418972" y="320.499658" style="fill: #e377c2; stroke: #e377c2"/>
     <use xlink:href="#m14339de4d5" x="159.474308" y="318.094941" style="fill: #e377c2; stroke: #e377c2"/>
     <use xlink:href="#m14339de4d5" x="181.529644" y="311.827052" style="fill: #e377c2; stroke: #e377c2"/>
     <use xlink:href="#m14339de4d5" x="203.58498" y="299.994439" style="fill: #e377c2; stroke: #e377c2"/>
     <use xlink:href="#m14339de4d5" x="225.640316" y="295.082813" style="fill: #e377c2; stroke: #e377c2"/>
     <use xlink:href="#m14339de4d5" x="247.695652" y="284.906482" style="fill: #e377c2; stroke: #e377c2"/>
     <use xlink:href="#m14339de4d5" x="269.750988" y="276.095381" style="fill: #e377c2; stroke: #e377c2"/>
     <use xlink:href="#m14339de4d5" x="291.806324" y="260.299872" style="fill: #e377c2; stroke: #e377c2"/>
     <use xlink:href="#m14339de4d5" x="313.86166" y="257.296551" style="fill: #e377c2; stroke: #e377c2"/>
     <use xlink:href="#m14339de4d5" x="335.916996" y="243.417311" style="fill: #e377c2; stroke: #e377c2"/>
     <use xlink:href="#m14339de4d5" x="357.972332" y="223.921053" style="fill: #e377c2; stroke: #e377c2"/>
     <use xlink:href="#m14339de4d5" x="380.027668" y="221.931538" style="fill: #e377c2; stroke: #e377c2"/>
     <use xlink:href="#m14339de4d5" x="402.083004" y="206.327344" style="fill: #e377c2; stroke: #e377c2"/>
     <use xlink:href="#m14339de4d5" x="424.13834" y="194.103789" style="fill: #e377c2; stroke: #e377c2"/>
     <use xlink:href="#m14339de4d5" x="446.193676" y="183.119864" style="fill: #e377c2; stroke: #e377c2"/>
     <use xlink:href="#m14339de4d5" x="468.249012" y="175.615269" style="fill: #e377c2; stroke: #e377c2"/>
     <use xlink:href="#m14339de4d5" x="490.304348" y="161.657833" style="fill: #e377c2; stroke: #e377c2"/>
     <use xlink:href="#m14339de4d5" x="512.359684" y="155.899284" style="fill: #e377c2; stroke: #e377c2"/>
     <use xlink:href="#m14339de4d5" x="534.41502" y="138.198633" style="fill: #e377c2; stroke: #e377c2"/>
     <use xlink:href="#m14339de4d5" x="556.470356" y="116.747835" style="fill: #e377c2; stroke: #e377c2"/>
     <use xlink:href="#m14339de4d5" x="578.525692" y="105.046106" style="fill: #e377c2; stroke: #e377c2"/>
     <use xlink:href="#m14339de4d5" x="600.581028" y="84.088934" style="fill: #e377c2; stroke: #e377c2"/>
     <use xlink:href="#m14339de4d5" x="622.636364" y="66.96" style="fill: #e377c2; stroke: #e377c2"/>
    </g>
   </g>
   <g id="patch_3">
    <path d="M 90 384.48 
L 90 51.84 
" style="fill: none; stroke: #000000; stroke-width: 0.8; stroke-linejoin: miter; stroke-linecap: square"/>
   </g>
   <g id="patch_4">
    <path d="M 648 384.48 
L 648 51.84 
" style="fill: none; stroke: #000000; stroke-width: 0.8; stroke-linejoin: miter; stroke-linecap: square"/>
   </g>
   <g id="patch_5">
    <path d="M 90 384.48 
L 648 384.48 
" style="fill: none; stroke: #000000; stroke-width: 0.8; stroke-linejoin: miter; stroke-linecap: square"/>
   </g>
   <g id="patch_6">
    <path d="M 90 51.84 
L 648 51.84 
" style="fill: none; stroke: #000000; stroke-width: 0.8; stroke-linejoin: miter; stroke-linecap: square"/>
   </g>
   <g id="text_17">
    <!-- Case 1: Varying MPI size -->
    <g transform="translate(296.039062 45.84) scale(0.12 -0.12)">
     <defs>
      <path id="DejaVuSans-43" d="M 4122 4306 
L 4122 3641 
Q 3803 3938 3442 4084 
Q 3081 4231 2675 4231 
Q 1875 4231 1450 3742 
Q 1025 3253 1025 2328 
Q 1025 1406 1450 917 
Q 1875 428 2675 428 
Q 3081 428 3442 575 
Q 3803 722 4122 1019 
L 4122 359 
Q 3791 134 3420 21 
Q 3050 -91 2638 -91 
Q 1578 -91 968 557 
Q 359 1206 359 2328 
Q 359 3453 968 4101 
Q 1578 4750 2638 4750 
Q 3056 4750 3426 4639 
Q 3797 4528 4122 4306 
z
" transform="scale(0.015625)"/>
      <path id="DejaVuSans-61" d="M 2194 1759 
Q 1497 1759 1228 1600 
Q 959 1441 959 1056 
Q 959 750 1161 570 
Q 1363 391 1709 391 
Q 2188 391 2477 730 
Q 2766 1069 2766 1631 
L 2766 1759 
L 2194 1759 
z
M 3341 1997 
L 3341 0 
L 2766 0 
L 2766 531 
Q 2569 213 2275 61 
Q 1981 -91 1556 -91 
Q 1019 -91 701 211 
Q 384 513 384 1019 
Q 384 1609 779 1909 
Q 1175 2209 1959 2209 
L 2766 2209 
L 2766 2266 
Q 2766 2663 2505 2880 
Q 2244 3097 1772 3097 
Q 1472 3097 1187 3025 
Q 903 2953 641 2809 
L 641 3341 
Q 956 3463 1253 3523 
Q 1550 3584 1831 3584 
Q 2591 3584 2966 3190 
Q 3341 2797 3341 1997 
z
" transform="scale(0.015625)"/>
      <path id="DejaVuSans-3a" d="M 750 794 
L 1409 794 
L 1409 0 
L 750 0 
L 750 794 
z
M 750 3309 
L 1409 3309 
L 1409 2516 
L 750 2516 
L 750 3309 
z
" transform="scale(0.015625)"/>
      <path id="DejaVuSans-56" d="M 1831 0 
L 50 4666 
L 709 4666 
L 2188 738 
L 3669 4666 
L 4325 4666 
L 2547 0 
L 1831 0 
z
" transform="scale(0.015625)"/>
      <path id="DejaVuSans-72" d="M 2631 2963 
Q 2534 3019 2420 3045 
Q 2306 3072 2169 3072 
Q 1681 3072 1420 2755 
Q 1159 2438 1159 1844 
L 1159 0 
L 581 0 
L 581 3500 
L 1159 3500 
L 1159 2956 
Q 1341 3275 1631 3429 
Q 1922 3584 2338 3584 
Q 2397 3584 2469 3576 
Q 2541 3569 2628 3553 
L 2631 2963 
z
" transform="scale(0.015625)"/>
      <path id="DejaVuSans-79" d="M 2059 -325 
Q 1816 -950 1584 -1140 
Q 1353 -1331 966 -1331 
L 506 -1331 
L 506 -850 
L 844 -850 
Q 1081 -850 1212 -737 
Q 1344 -625 1503 -206 
L 1606 56 
L 191 3500 
L 800 3500 
L 1894 763 
L 2988 3500 
L 3597 3500 
L 2059 -325 
z
" transform="scale(0.015625)"/>
      <path id="DejaVuSans-6e" d="M 3513 2113 
L 3513 0 
L 2938 0 
L 2938 2094 
Q 2938 2591 2744 2837 
Q 2550 3084 2163 3084 
Q 1697 3084 1428 2787 
Q 1159 2491 1159 1978 
L 1159 0 
L 581 0 
L 581 3500 
L 1159 3500 
L 1159 2956 
Q 1366 3272 1645 3428 
Q 1925 3584 2291 3584 
Q 2894 3584 3203 3211 
Q 3513 2838 3513 2113 
z
" transform="scale(0.015625)"/>
      <path id="DejaVuSans-67" d="M 2906 1791 
Q 2906 2416 2648 2759 
Q 2391 3103 1925 3103 
Q 1463 3103 1205 2759 
Q 947 2416 947 1791 
Q 947 1169 1205 825 
Q 1463 481 1925 481 
Q 2391 481 2648 825 
Q 2906 1169 2906 1791 
z
M 3481 434 
Q 3481 -459 3084 -895 
Q 2688 -1331 1869 -1331 
Q 1566 -1331 1297 -1286 
Q 1028 -1241 775 -1147 
L 775 -588 
Q 1028 -725 1275 -790 
Q 1522 -856 1778 -856 
Q 2344 -856 2625 -561 
Q 2906 -266 2906 331 
L 2906 616 
Q 2728 306 2450 153 
Q 2172 0 1784 0 
Q 1141 0 747 490 
Q 353 981 353 1791 
Q 353 2603 747 3093 
Q 1141 3584 1784 3584 
Q 2172 3584 2450 3431 
Q 2728 3278 2906 2969 
L 2906 3500 
L 3481 3500 
L 3481 434 
z
" transform="scale(0.015625)"/>
     </defs>
     <use xlink:href="#DejaVuSans-43"/>
     <use xlink:href="#DejaVuSans-61" transform="translate(69.824219 0)"/>
     <use xlink:href="#DejaVuSans-73" transform="translate(131.103516 0)"/>
     <use xlink:href="#DejaVuSans-65" transform="translate(183.203125 0)"/>
     <use xlink:href="#DejaVuSans-20" transform="translate(244.726562 0)"/>
     <use xlink:href="#DejaVuSans-31" transform="translate(276.513672 0)"/>
     <use xlink:href="#DejaVuSans-3a" transform="translate(340.136719 0)"/>
     <use xlink:href="#DejaVuSans-20" transform="translate(373.828125 0)"/>
     <use xlink:href="#DejaVuSans-56" transform="translate(405.615234 0)"/>
     <use xlink:href="#DejaVuSans-61" transform="translate(466.273438 0)"/>
     <use xlink:href="#DejaVuSans-72" transform="translate(527.552734 0)"/>
     <use xlink:href="#DejaVuSans-79" transform="translate(568.666016 0)"/>
     <use xlink:href="#DejaVuSans-69" transform="translate(627.845703 0)"/>
     <use xlink:href="#DejaVuSans-6e" transform="translate(655.628906 0)"/>
     <use xlink:href="#DejaVuSans-67" transform="translate(719.007812 0)"/>
     <use xlink:href="#DejaVuSans-20" transform="translate(782.484375 0)"/>
     <use xlink:href="#DejaVuSans-4d" transform="translate(814.271484 0)"/>
     <use xlink:href="#DejaVuSans-50" transform="translate(900.550781 0)"/>
     <use xlink:href="#DejaVuSans-49" transform="translate(960.853516 0)"/>
     <use xlink:href="#DejaVuSans-20" transform="translate(990.345703 0)"/>
     <use xlink:href="#DejaVuSans-73" transform="translate(1022.132812 0)"/>
     <use xlink:href="#DejaVuSans-69" transform="translate(1074.232422 0)"/>
     <use xlink:href="#DejaVuSans-7a" transform="translate(1102.015625 0)"/>
     <use xlink:href="#DejaVuSans-65" transform="translate(1154.505859 0)"/>
    </g>
   </g>
   <g id="legend_1">
    <g id="patch_7">
     <path d="M 97 164.53375 
L 348.7375 164.53375 
Q 350.7375 164.53375 350.7375 162.53375 
L 350.7375 58.84 
Q 350.7375 56.84 348.7375 56.84 
L 97 56.84 
Q 95 56.84 95 58.84 
L 95 162.53375 
Q 95 164.53375 97 164.53375 
z
" style="fill: #ffffff; opacity: 0.8; stroke: #cccccc; stroke-linejoin: miter"/>
    </g>
    <g id="line2d_36">
     <path d="M 99 64.938437 
L 109 64.938437 
L 119 64.938437 
" style="fill: none; stroke: #1f77b4; stroke-width: 1.5; stroke-linecap: square"/>
     <g>
      <use xlink:href="#m5c7eb06d3b" x="109" y="64.938437" style="fill: #1f77b4; stroke: #1f77b4"/>
     </g>
    </g>
    <g id="text_18">
     <!-- excluive_pipelined_binary_tree_scan -->
     <g transform="translate(127 68.438437) scale(0.1 -0.1)">
      <defs>
       <path id="DejaVuSans-78" d="M 3513 3500 
L 2247 1797 
L 3578 0 
L 2900 0 
L 1881 1375 
L 863 0 
L 184 0 
L 1544 1831 
L 300 3500 
L 978 3500 
L 1906 2253 
L 2834 3500 
L 3513 3500 
z
" transform="scale(0.015625)"/>
       <path id="DejaVuSans-63" d="M 3122 3366 
L 3122 2828 
Q 2878 2963 2633 3030 
Q 2388 3097 2138 3097 
Q 1578 3097 1268 2742 
Q 959 2388 959 1747 
Q 959 1106 1268 751 
Q 1578 397 2138 397 
Q 2388 397 2633 464 
Q 2878 531 3122 666 
L 3122 134 
Q 2881 22 2623 -34 
Q 2366 -91 2075 -91 
Q 1284 -91 818 406 
Q 353 903 353 1747 
Q 353 2603 823 3093 
Q 1294 3584 2113 3584 
Q 2378 3584 2631 3529 
Q 2884 3475 3122 3366 
z
" transform="scale(0.015625)"/>
       <path id="DejaVuSans-6c" d="M 603 4863 
L 1178 4863 
L 1178 0 
L 603 0 
L 603 4863 
z
" transform="scale(0.015625)"/>
       <path id="DejaVuSans-75" d="M 544 1381 
L 544 3500 
L 1119 3500 
L 1119 1403 
Q 1119 906 1312 657 
Q 1506 409 1894 409 
Q 2359 409 2629 706 
Q 2900 1003 2900 1516 
L 2900 3500 
L 3475 3500 
L 3475 0 
L 2900 0 
L 2900 538 
Q 2691 219 2414 64 
Q 2138 -91 1772 -91 
Q 1169 -91 856 284 
Q 544 659 544 1381 
z
M 1991 3584 
L 1991 3584 
z
" transform="scale(0.015625)"/>
       <path id="DejaVuSans-76" d="M 191 3500 
L 800 3500 
L 1894 563 
L 2988 3500 
L 3597 3500 
L 2284 0 
L 1503 0 
L 191 3500 
z
" transform="scale(0.015625)"/>
       <path id="DejaVuSans-5f" d="M 3263 -1063 
L 3263 -1509 
L -63 -1509 
L -63 -1063 
L 3263 -1063 
z
" transform="scale(0.015625)"/>
       <path id="DejaVuSans-70" d="M 1159 525 
L 1159 -1331 
L 581 -1331 
L 581 3500 
L 1159 3500 
L 1159 2969 
Q 1341 3281 1617 3432 
Q 1894 3584 2278 3584 
Q 2916 3584 3314 3078 
Q 3713 2572 3713 1747 
Q 3713 922 3314 415 
Q 2916 -91 2278 -91 
Q 1894 -91 1617 61 
Q 1341 213 1159 525 
z
M 3116 1747 
Q 3116 2381 2855 2742 
Q 2594 3103 2138 3103 
Q 1681 3103 1420 2742 
Q 1159 2381 1159 1747 
Q 1159 1113 1420 752 
Q 1681 391 2138 391 
Q 2594 391 2855 752 
Q 3116 1113 3116 1747 
z
" transform="scale(0.015625)"/>
       <path id="DejaVuSans-64" d="M 2906 2969 
L 2906 4863 
L 3481 4863 
L 3481 0 
L 2906 0 
L 2906 525 
Q 2725 213 2448 61 
Q 2172 -91 1784 -91 
Q 1150 -91 751 415 
Q 353 922 353 1747 
Q 353 2572 751 3078 
Q 1150 3584 1784 3584 
Q 2172 3584 2448 3432 
Q 2725 3281 2906 2969 
z
M 947 1747 
Q 947 1113 1208 752 
Q 1469 391 1925 391 
Q 2381 391 2643 752 
Q 2906 1113 2906 1747 
Q 2906 2381 2643 2742 
Q 2381 3103 1925 3103 
Q 1469 3103 1208 2742 
Q 947 2381 947 1747 
z
" transform="scale(0.015625)"/>
       <path id="DejaVuSans-62" d="M 3116 1747 
Q 3116 2381 2855 2742 
Q 2594 3103 2138 3103 
Q 1681 3103 1420 2742 
Q 1159 2381 1159 1747 
Q 1159 1113 1420 752 
Q 1681 391 2138 391 
Q 2594 391 2855 752 
Q 3116 1113 3116 1747 
z
M 1159 2969 
Q 1341 3281 1617 3432 
Q 1894 3584 2278 3584 
Q 2916 3584 3314 3078 
Q 3713 2572 3713 1747 
Q 3713 922 3314 415 
Q 2916 -91 2278 -91 
Q 1894 -91 1617 61 
Q 1341 213 1159 525 
L 1159 0 
L 581 0 
L 581 4863 
L 1159 4863 
L 1159 2969 
z
" transform="scale(0.015625)"/>
       <path id="DejaVuSans-74" d="M 1172 4494 
L 1172 3500 
L 2356 3500 
L 2356 3053 
L 1172 3053 
L 1172 1153 
Q 1172 725 1289 603 
Q 1406 481 1766 481 
L 2356 481 
L 2356 0 
L 1766 0 
Q 1100 0 847 248 
Q 594 497 594 1153 
L 594 3053 
L 172 3053 
L 172 3500 
L 594 3500 
L 594 4494 
L 1172 4494 
z
" transform="scale(0.015625)"/>
      </defs>
      <use xlink:href="#DejaVuSans-65"/>
      <use xlink:href="#DejaVuSans-78" transform="translate(59.773438 0)"/>
      <use xlink:href="#DejaVuSans-63" transform="translate(117.203125 0)"/>
      <use xlink:href="#DejaVuSans-6c" transform="translate(172.183594 0)"/>
      <use xlink:href="#DejaVuSans-75" transform="translate(199.966797 0)"/>
      <use xlink:href="#DejaVuSans-69" transform="translate(263.345703 0)"/>
      <use xlink:href="#DejaVuSans-76" transform="translate(291.128906 0)"/>
      <use xlink:href="#DejaVuSans-65" transform="translate(350.308594 0)"/>
      <use xlink:href="#DejaVuSans-5f" transform="translate(411.832031 0)"/>
      <use xlink:href="#DejaVuSans-70" transform="translate(461.832031 0)"/>
      <use xlink:href="#DejaVuSans-69" transform="translate(525.308594 0)"/>
      <use xlink:href="#DejaVuSans-70" transform="translate(553.091797 0)"/>
      <use xlink:href="#DejaVuSans-65" transform="translate(616.568359 0)"/>
      <use xlink:href="#DejaVuSans-6c" transform="translate(678.091797 0)"/>
      <use xlink:href="#DejaVuSans-69" transform="translate(705.875 0)"/>
      <use xlink:href="#DejaVuSans-6e" transform="translate(733.658203 0)"/>
      <use xlink:href="#DejaVuSans-65" transform="translate(797.037109 0)"/>
      <use xlink:href="#DejaVuSans-64" transform="translate(858.560547 0)"/>
      <use xlink:href="#DejaVuSans-5f" transform="translate(922.037109 0)"/>
      <use xlink:href="#DejaVuSans-62" transform="translate(972.037109 0)"/>
      <use xlink:href="#DejaVuSans-69" transform="translate(1035.513672 0)"/>
      <use xlink:href="#DejaVuSans-6e" transform="translate(1063.296875 0)"/>
      <use xlink:href="#DejaVuSans-61" transform="translate(1126.675781 0)"/>
      <use xlink:href="#DejaVuSans-72" transform="translate(1187.955078 0)"/>
      <use xlink:href="#DejaVuSans-79" transform="translate(1229.068359 0)"/>
      <use xlink:href="#DejaVuSans-5f" transform="translate(1288.248047 0)"/>
      <use xlink:href="#DejaVuSans-74" transform="translate(1338.248047 0)"/>
      <use xlink:href="#DejaVuSans-72" transform="translate(1377.457031 0)"/>
      <use xlink:href="#DejaVuSans-65" transform="translate(1416.320312 0)"/>
      <use xlink:href="#DejaVuSans-65" transform="translate(1477.84375 0)"/>
      <use xlink:href="#DejaVuSans-5f" transform="translate(1539.367188 0)"/>
      <use xlink:href="#DejaVuSans-73" transform="translate(1589.367188 0)"/>
      <use xlink:href="#DejaVuSans-63" transform="translate(1641.466797 0)"/>
      <use xlink:href="#DejaVuSans-61" transform="translate(1696.447266 0)"/>
      <use xlink:href="#DejaVuSans-6e" transform="translate(1757.726562 0)"/>
     </g>
    </g>
    <g id="line2d_37">
     <path d="M 99 79.894687 
L 109 79.894687 
L 119 79.894687 
" style="fill: none; stroke: #ff7f0e; stroke-width: 1.5; stroke-linecap: square"/>
     <g>
      <use xlink:href="#md72945a4ed" x="109" y="79.894687" style="fill: #ff7f0e; stroke: #ff7f0e"/>
     </g>
    </g>
    <g id="text_19">
     <!-- exclusive_LLN -->
     <g transform="translate(127 83.394687) scale(0.1 -0.1)">
      <defs>
       <path id="DejaVuSans-4c" d="M 628 4666 
L 1259 4666 
L 1259 531 
L 3531 531 
L 3531 0 
L 628 0 
L 628 4666 
z
" transform="scale(0.015625)"/>
       <path id="DejaVuSans-4e" d="M 628 4666 
L 1478 4666 
L 3547 763 
L 3547 4666 
L 4159 4666 
L 4159 0 
L 3309 0 
L 1241 3903 
L 1241 0 
L 628 0 
L 628 4666 
z
" transform="scale(0.015625)"/>
      </defs>
      <use xlink:href="#DejaVuSans-65"/>
      <use xlink:href="#DejaVuSans-78" transform="translate(59.773438 0)"/>
      <use xlink:href="#DejaVuSans-63" transform="translate(117.203125 0)"/>
      <use xlink:href="#DejaVuSans-6c" transform="translate(172.183594 0)"/>
      <use xlink:href="#DejaVuSans-75" transform="translate(199.966797 0)"/>
      <use xlink:href="#DejaVuSans-73" transform="translate(263.345703 0)"/>
      <use xlink:href="#DejaVuSans-69" transform="translate(315.445312 0)"/>
      <use xlink:href="#DejaVuSans-76" transform="translate(343.228516 0)"/>
      <use xlink:href="#DejaVuSans-65" transform="translate(402.408203 0)"/>
      <use xlink:href="#DejaVuSans-5f" transform="translate(463.931641 0)"/>
      <use xlink:href="#DejaVuSans-4c" transform="translate(513.931641 0)"/>
      <use xlink:href="#DejaVuSans-4c" transform="translate(569.644531 0)"/>
      <use xlink:href="#DejaVuSans-4e" transform="translate(625.357422 0)"/>
     </g>
    </g>
    <g id="line2d_38">
     <path d="M 99 94.850937 
L 109 94.850937 
L 119 94.850937 
" style="fill: none; stroke: #2ca02c; stroke-width: 1.5; stroke-linecap: square"/>
     <g>
      <use xlink:href="#m72264e58c9" x="109" y="94.850937" style="fill: #2ca02c; stroke: #2ca02c"/>
     </g>
    </g>
    <g id="text_20">
     <!-- MPI_exscan -->
     <g transform="translate(127 98.350937) scale(0.1 -0.1)">
      <use xlink:href="#DejaVuSans-4d"/>
      <use xlink:href="#DejaVuSans-50" transform="translate(86.279297 0)"/>
      <use xlink:href="#DejaVuSans-49" transform="translate(146.582031 0)"/>
      <use xlink:href="#DejaVuSans-5f" transform="translate(176.074219 0)"/>
      <use xlink:href="#DejaVuSans-65" transform="translate(226.074219 0)"/>
      <use xlink:href="#DejaVuSans-78" transform="translate(285.847656 0)"/>
      <use xlink:href="#DejaVuSans-73" transform="translate(345.027344 0)"/>
      <use xlink:href="#DejaVuSans-63" transform="translate(397.126953 0)"/>
      <use xlink:href="#DejaVuSans-61" transform="translate(452.107422 0)"/>
      <use xlink:href="#DejaVuSans-6e" transform="translate(513.386719 0)"/>
     </g>
    </g>
    <g id="line2d_39">
     <path d="M 99 109.807187 
L 109 109.807187 
L 119 109.807187 
" style="fill: none; stroke: #d62728; stroke-width: 1.5; stroke-linecap: square"/>
     <g>
      <use xlink:href="#m62a7ab0544" x="109" y="109.807187" style="fill: #d62728; stroke: #d62728"/>
     </g>
    </g>
    <g id="text_21">
     <!-- exclusive_simultaneous_binomial_tree_scan -->
     <g transform="translate(127 113.307187) scale(0.1 -0.1)">
      <defs>
       <path id="DejaVuSans-6f" d="M 1959 3097 
Q 1497 3097 1228 2736 
Q 959 2375 959 1747 
Q 959 1119 1226 758 
Q 1494 397 1959 397 
Q 2419 397 2687 759 
Q 2956 1122 2956 1747 
Q 2956 2369 2687 2733 
Q 2419 3097 1959 3097 
z
M 1959 3584 
Q 2709 3584 3137 3096 
Q 3566 2609 3566 1747 
Q 3566 888 3137 398 
Q 2709 -91 1959 -91 
Q 1206 -91 779 398 
Q 353 888 353 1747 
Q 353 2609 779 3096 
Q 1206 3584 1959 3584 
z
" transform="scale(0.015625)"/>
      </defs>
      <use xlink:href="#DejaVuSans-65"/>
      <use xlink:href="#DejaVuSans-78" transform="translate(59.773438 0)"/>
      <use xlink:href="#DejaVuSans-63" transform="translate(117.203125 0)"/>
      <use xlink:href="#DejaVuSans-6c" transform="translate(172.183594 0)"/>
      <use xlink:href="#DejaVuSans-75" transform="translate(199.966797 0)"/>
      <use xlink:href="#DejaVuSans-73" transform="translate(263.345703 0)"/>
      <use xlink:href="#DejaVuSans-69" transform="translate(315.445312 0)"/>
      <use xlink:href="#DejaVuSans-76" transform="translate(343.228516 0)"/>
      <use xlink:href="#DejaVuSans-65" transform="translate(402.408203 0)"/>
      <use xlink:href="#DejaVuSans-5f" transform="translate(463.931641 0)"/>
      <use xlink:href="#DejaVuSans-73" transform="translate(513.931641 0)"/>
      <use xlink:href="#DejaVuSans-69" transform="translate(566.03125 0)"/>
      <use xlink:href="#DejaVuSans-6d" transform="translate(593.814453 0)"/>
      <use xlink:href="#DejaVuSans-75" transform="translate(691.226562 0)"/>
      <use xlink:href="#DejaVuSans-6c" transform="translate(754.605469 0)"/>
      <use xlink:href="#DejaVuSans-74" transform="translate(782.388672 0)"/>
      <use xlink:href="#DejaVuSans-61" transform="translate(821.597656 0)"/>
      <use xlink:href="#DejaVuSans-6e" transform="translate(882.876953 0)"/>
      <use xlink:href="#DejaVuSans-65" transform="translate(946.255859 0)"/>
      <use xlink:href="#DejaVuSans-6f" transform="translate(1007.779297 0)"/>
      <use xlink:href="#DejaVuSans-75" transform="translate(1068.960938 0)"/>
      <use xlink:href="#DejaVuSans-73" transform="translate(1132.339844 0)"/>
      <use xlink:href="#DejaVuSans-5f" transform="translate(1184.439453 0)"/>
      <use xlink:href="#DejaVuSans-62" transform="translate(1234.439453 0)"/>
      <use xlink:href="#DejaVuSans-69" transform="translate(1297.916016 0)"/>
      <use xlink:href="#DejaVuSans-6e" transform="translate(1325.699219 0)"/>
      <use xlink:href="#DejaVuSans-6f" transform="translate(1389.078125 0)"/>
      <use xlink:href="#DejaVuSans-6d" transform="translate(1450.259766 0)"/>
      <use xlink:href="#DejaVuSans-69" transform="translate(1547.671875 0)"/>
      <use xlink:href="#DejaVuSans-61" transform="translate(1575.455078 0)"/>
      <use xlink:href="#DejaVuSans-6c" transform="translate(1636.734375 0)"/>
      <use xlink:href="#DejaVuSans-5f" transform="translate(1664.517578 0)"/>
      <use xlink:href="#DejaVuSans-74" transform="translate(1714.517578 0)"/>
      <use xlink:href="#DejaVuSans-72" transform="translate(1753.726562 0)"/>
      <use xlink:href="#DejaVuSans-65" transform="translate(1792.589844 0)"/>
      <use xlink:href="#DejaVuSans-65" transform="translate(1854.113281 0)"/>
      <use xlink:href="#DejaVuSans-5f" transform="translate(1915.636719 0)"/>
      <use xlink:href="#DejaVuSans-73" transform="translate(1965.636719 0)"/>
      <use xlink:href="#DejaVuSans-63" transform="translate(2017.736328 0)"/>
      <use xlink:href="#DejaVuSans-61" transform="translate(2072.716797 0)"/>
      <use xlink:href="#DejaVuSans-6e" transform="translate(2133.996094 0)"/>
     </g>
    </g>
    <g id="line2d_40">
     <path d="M 99 124.763437 
L 109 124.763437 
L 119 124.763437 
" style="fill: none; stroke: #9467bd; stroke-width: 1.5; stroke-linecap: square"/>
     <g>
      <use xlink:href="#m4a7493fd15" x="109" y="124.763437" style="fill: #9467bd; stroke: #9467bd"/>
     </g>
    </g>
    <g id="text_22">
     <!-- binomial_tree_exclusive_scan -->
     <g transform="translate(127 128.263437) scale(0.1 -0.1)">
      <use xlink:href="#DejaVuSans-62"/>
      <use xlink:href="#DejaVuSans-69" transform="translate(63.476562 0)"/>
      <use xlink:href="#DejaVuSans-6e" transform="translate(91.259766 0)"/>
      <use xlink:href="#DejaVuSans-6f" transform="translate(154.638672 0)"/>
      <use xlink:href="#DejaVuSans-6d" transform="translate(215.820312 0)"/>
      <use xlink:href="#DejaVuSans-69" transform="translate(313.232422 0)"/>
      <use xlink:href="#DejaVuSans-61" transform="translate(341.015625 0)"/>
      <use xlink:href="#DejaVuSans-6c" transform="translate(402.294922 0)"/>
      <use xlink:href="#DejaVuSans-5f" transform="translate(430.078125 0)"/>
      <use xlink:href="#DejaVuSans-74" transform="translate(480.078125 0)"/>
      <use xlink:href="#DejaVuSans-72" transform="translate(519.287109 0)"/>
      <use xlink:href="#DejaVuSans-65" transform="translate(558.150391 0)"/>
      <use xlink:href="#DejaVuSans-65" transform="translate(619.673828 0)"/>
      <use xlink:href="#DejaVuSans-5f" transform="translate(681.197266 0)"/>
      <use xlink:href="#DejaVuSans-65" transform="translate(731.197266 0)"/>
      <use xlink:href="#DejaVuSans-78" transform="translate(790.970703 0)"/>
      <use xlink:href="#DejaVuSans-63" transform="translate(848.400391 0)"/>
      <use xlink:href="#DejaVuSans-6c" transform="translate(903.380859 0)"/>
      <use xlink:href="#DejaVuSans-75" transform="translate(931.164062 0)"/>
      <use xlink:href="#DejaVuSans-73" transform="translate(994.542969 0)"/>
      <use xlink:href="#DejaVuSans-69" transform="translate(1046.642578 0)"/>
      <use xlink:href="#DejaVuSans-76" transform="translate(1074.425781 0)"/>
      <use xlink:href="#DejaVuSans-65" transform="translate(1133.605469 0)"/>
      <use xlink:href="#DejaVuSans-5f" transform="translate(1195.128906 0)"/>
      <use xlink:href="#DejaVuSans-73" transform="translate(1245.128906 0)"/>
      <use xlink:href="#DejaVuSans-63" transform="translate(1297.228516 0)"/>
      <use xlink:href="#DejaVuSans-61" transform="translate(1352.208984 0)"/>
      <use xlink:href="#DejaVuSans-6e" transform="translate(1413.488281 0)"/>
     </g>
    </g>
    <g id="line2d_41">
     <path d="M 99 139.719687 
L 109 139.719687 
L 119 139.719687 
" style="fill: none; stroke: #8c564b; stroke-width: 1.5; stroke-linecap: square"/>
     <g>
      <use xlink:href="#m2e720b8450" x="109" y="139.719687" style="fill: #8c564b; stroke: #8c564b"/>
     </g>
    </g>
    <g id="text_23">
     <!-- Hypercube_Scan_exclusive -->
     <g transform="translate(127 143.219687) scale(0.1 -0.1)">
      <defs>
       <path id="DejaVuSans-48" d="M 628 4666 
L 1259 4666 
L 1259 2753 
L 3553 2753 
L 3553 4666 
L 4184 4666 
L 4184 0 
L 3553 0 
L 3553 2222 
L 1259 2222 
L 1259 0 
L 628 0 
L 628 4666 
z
" transform="scale(0.015625)"/>
       <path id="DejaVuSans-53" d="M 3425 4513 
L 3425 3897 
Q 3066 4069 2747 4153 
Q 2428 4238 2131 4238 
Q 1616 4238 1336 4038 
Q 1056 3838 1056 3469 
Q 1056 3159 1242 3001 
Q 1428 2844 1947 2747 
L 2328 2669 
Q 3034 2534 3370 2195 
Q 3706 1856 3706 1288 
Q 3706 609 3251 259 
Q 2797 -91 1919 -91 
Q 1588 -91 1214 -16 
Q 841 59 441 206 
L 441 856 
Q 825 641 1194 531 
Q 1563 422 1919 422 
Q 2459 422 2753 634 
Q 3047 847 3047 1241 
Q 3047 1584 2836 1778 
Q 2625 1972 2144 2069 
L 1759 2144 
Q 1053 2284 737 2584 
Q 422 2884 422 3419 
Q 422 4038 858 4394 
Q 1294 4750 2059 4750 
Q 2388 4750 2728 4690 
Q 3069 4631 3425 4513 
z
" transform="scale(0.015625)"/>
      </defs>
      <use xlink:href="#DejaVuSans-48"/>
      <use xlink:href="#DejaVuSans-79" transform="translate(75.195312 0)"/>
      <use xlink:href="#DejaVuSans-70" transform="translate(134.375 0)"/>
      <use xlink:href="#DejaVuSans-65" transform="translate(197.851562 0)"/>
      <use xlink:href="#DejaVuSans-72" transform="translate(259.375 0)"/>
      <use xlink:href="#DejaVuSans-63" transform="translate(298.238281 0)"/>
      <use xlink:href="#DejaVuSans-75" transform="translate(353.21875 0)"/>
      <use xlink:href="#DejaVuSans-62" transform="translate(416.597656 0)"/>
      <use xlink:href="#DejaVuSans-65" transform="translate(480.074219 0)"/>
      <use xlink:href="#DejaVuSans-5f" transform="translate(541.597656 0)"/>
      <use xlink:href="#DejaVuSans-53" transform="translate(591.597656 0)"/>
      <use xlink:href="#DejaVuSans-63" transform="translate(655.074219 0)"/>
      <use xlink:href="#DejaVuSans-61" transform="translate(710.054688 0)"/>
      <use xlink:href="#DejaVuSans-6e" transform="translate(771.333984 0)"/>
      <use xlink:href="#DejaVuSans-5f" transform="translate(834.712891 0)"/>
      <use xlink:href="#DejaVuSans-65" transform="translate(884.712891 0)"/>
      <use xlink:href="#DejaVuSans-78" transform="translate(944.486328 0)"/>
      <use xlink:href="#DejaVuSans-63" transform="translate(1001.916016 0)"/>
      <use xlink:href="#DejaVuSans-6c" transform="translate(1056.896484 0)"/>
      <use xlink:href="#DejaVuSans-75" transform="translate(1084.679688 0)"/>
      <use xlink:href="#DejaVuSans-73" transform="translate(1148.058594 0)"/>
      <use xlink:href="#DejaVuSans-69" transform="translate(1200.158203 0)"/>
      <use xlink:href="#DejaVuSans-76" transform="translate(1227.941406 0)"/>
      <use xlink:href="#DejaVuSans-65" transform="translate(1287.121094 0)"/>
     </g>
    </g>
    <g id="line2d_42">
     <path d="M 99 154.675937 
L 109 154.675937 
L 119 154.675937 
" style="fill: none; stroke: #e377c2; stroke-width: 1.5; stroke-linecap: square"/>
     <g>
      <use xlink:href="#m14339de4d5" x="109" y="154.675937" style="fill: #e377c2; stroke: #e377c2"/>
     </g>
    </g>
    <g id="text_24">
     <!-- ex_linear_scan -->
     <g transform="translate(127 158.175937) scale(0.1 -0.1)">
      <use xlink:href="#DejaVuSans-65"/>
      <use xlink:href="#DejaVuSans-78" transform="translate(59.773438 0)"/>
      <use xlink:href="#DejaVuSans-5f" transform="translate(118.953125 0)"/>
      <use xlink:href="#DejaVuSans-6c" transform="translate(168.953125 0)"/>
      <use xlink:href="#DejaVuSans-69" transform="translate(196.736328 0)"/>
      <use xlink:href="#DejaVuSans-6e" transform="translate(224.519531 0)"/>
      <use xlink:href="#DejaVuSans-65" transform="translate(287.898438 0)"/>
      <use xlink:href="#DejaVuSans-61" transform="translate(349.421875 0)"/>
      <use xlink:href="#DejaVuSans-72" transform="translate(410.701172 0)"/>
      <use xlink:href="#DejaVuSans-5f" transform="translate(451.814453 0)"/>
      <use xlink:href="#DejaVuSans-73" transform="translate(501.814453 0)"/>
      <use xlink:href="#DejaVuSans-63" transform="translate(553.914062 0)"/>
      <use xlink:href="#DejaVuSans-61" transform="translate(608.894531 0)"/>
      <use xlink:href="#DejaVuSans-6e" transform="translate(670.173828 0)"/>
     </g>
    </g>
   </g>
  </g>
 </g>
 <defs>
  <clipPath id="pa444083702">
   <rect x="90" y="51.84" width="558" height="332.64"/>
  </clipPath>
 </defs>
</svg>
