<?xml version="1.0" encoding="utf-8" standalone="no"?>
<!DOCTYPE svg PUBLIC "-//W3C//DTD SVG 1.1//EN"
  "http://www.w3.org/Graphics/SVG/1.1/DTD/svg11.dtd">
<svg xmlns:xlink="http://www.w3.org/1999/xlink" width="720pt" height="432pt" viewBox="0 0 720 432" xmlns="http://www.w3.org/2000/svg" version="1.1">
 <metadata>
  <rdf:RDF xmlns:dc="http://purl.org/dc/elements/1.1/" xmlns:cc="http://creativecommons.org/ns#" xmlns:rdf="http://www.w3.org/1999/02/22-rdf-syntax-ns#">
   <cc:Work>
    <dc:type rdf:resource="http://purl.org/dc/dcmitype/StillImage"/>
    <dc:date>2025-07-29T11:16:40.666709</dc:date>
    <dc:format>image/svg+xml</dc:format>
    <dc:creator>
     <cc:Agent>
      <dc:title>Matplotlib v3.10.3, https://matplotlib.org/</dc:title>
     </cc:Agent>
    </dc:creator>
   </cc:Work>
  </rdf:RDF>
 </metadata>
 <defs>
  <style type="text/css">*{stroke-linejoin: round; stroke-linecap: butt}</style>
 </defs>
 <g id="figure_1">
  <g id="patch_1">
   <path d="M 0 432 
L 720 432 
L 720 0 
L 0 0 
z
" style="fill: #ffffff"/>
  </g>
  <g id="axes_1">
   <g id="patch_2">
    <path d="M 90 384.48 
L 648 384.48 
L 648 51.84 
L 90 51.84 
z
" style="fill: #ffffff"/>
   </g>
   <g id="matplotlib.axis_1">
    <g id="xtick_1">
     <g id="line2d_1">
      <path d="M 166.090909 384.48 
L 166.090909 51.84 
" clip-path="url(#p2010993b08)" style="fill: none; stroke-dasharray: 1.85,0.8; stroke-dashoffset: 0; stroke: #b0b0b0; stroke-width: 0.5"/>
     </g>
     <g id="line2d_2">
      <defs>
       <path id="m24e72a0a76" d="M 0 0 
L 0 3.5 
" style="stroke: #000000; stroke-width: 0.8"/>
      </defs>
      <g>
       <use xlink:href="#m24e72a0a76" x="166.090909" y="384.48" style="stroke: #000000; stroke-width: 0.8"/>
      </g>
     </g>
     <g id="text_1">
      <!-- 5 -->
      <g transform="translate(162.909659 399.078438) scale(0.1 -0.1)">
       <defs>
        <path id="DejaVuSans-35" d="M 691 4666 
L 3169 4666 
L 3169 4134 
L 1269 4134 
L 1269 2991 
Q 1406 3038 1543 3061 
Q 1681 3084 1819 3084 
Q 2600 3084 3056 2656 
Q 3513 2228 3513 1497 
Q 3513 744 3044 326 
Q 2575 -91 1722 -91 
Q 1428 -91 1123 -41 
Q 819 9 494 109 
L 494 744 
Q 775 591 1075 516 
Q 1375 441 1709 441 
Q 2250 441 2565 725 
Q 2881 1009 2881 1497 
Q 2881 1984 2565 2268 
Q 2250 2553 1709 2553 
Q 1456 2553 1204 2497 
Q 953 2441 691 2322 
L 691 4666 
z
" transform="scale(0.015625)"/>
       </defs>
       <use xlink:href="#DejaVuSans-35"/>
      </g>
     </g>
    </g>
    <g id="xtick_2">
     <g id="line2d_3">
      <path d="M 250.636364 384.48 
L 250.636364 51.84 
" clip-path="url(#p2010993b08)" style="fill: none; stroke-dasharray: 1.85,0.8; stroke-dashoffset: 0; stroke: #b0b0b0; stroke-width: 0.5"/>
     </g>
     <g id="line2d_4">
      <g>
       <use xlink:href="#m24e72a0a76" x="250.636364" y="384.48" style="stroke: #000000; stroke-width: 0.8"/>
      </g>
     </g>
     <g id="text_2">
      <!-- 10 -->
      <g transform="translate(244.273864 399.078438) scale(0.1 -0.1)">
       <defs>
        <path id="DejaVuSans-31" d="M 794 531 
L 1825 531 
L 1825 4091 
L 703 3866 
L 703 4441 
L 1819 4666 
L 2450 4666 
L 2450 531 
L 3481 531 
L 3481 0 
L 794 0 
L 794 531 
z
" transform="scale(0.015625)"/>
        <path id="DejaVuSans-30" d="M 2034 4250 
Q 1547 4250 1301 3770 
Q 1056 3291 1056 2328 
Q 1056 1369 1301 889 
Q 1547 409 2034 409 
Q 2525 409 2770 889 
Q 3016 1369 3016 2328 
Q 3016 3291 2770 3770 
Q 2525 4250 2034 4250 
z
M 2034 4750 
Q 2819 4750 3233 4129 
Q 3647 3509 3647 2328 
Q 3647 1150 3233 529 
Q 2819 -91 2034 -91 
Q 1250 -91 836 529 
Q 422 1150 422 2328 
Q 422 3509 836 4129 
Q 1250 4750 2034 4750 
z
" transform="scale(0.015625)"/>
       </defs>
       <use xlink:href="#DejaVuSans-31"/>
       <use xlink:href="#DejaVuSans-30" transform="translate(63.623047 0)"/>
      </g>
     </g>
    </g>
    <g id="xtick_3">
     <g id="line2d_5">
      <path d="M 335.181818 384.48 
L 335.181818 51.84 
" clip-path="url(#p2010993b08)" style="fill: none; stroke-dasharray: 1.85,0.8; stroke-dashoffset: 0; stroke: #b0b0b0; stroke-width: 0.5"/>
     </g>
     <g id="line2d_6">
      <g>
       <use xlink:href="#m24e72a0a76" x="335.181818" y="384.48" style="stroke: #000000; stroke-width: 0.8"/>
      </g>
     </g>
     <g id="text_3">
      <!-- 15 -->
      <g transform="translate(328.819318 399.078438) scale(0.1 -0.1)">
       <use xlink:href="#DejaVuSans-31"/>
       <use xlink:href="#DejaVuSans-35" transform="translate(63.623047 0)"/>
      </g>
     </g>
    </g>
    <g id="xtick_4">
     <g id="line2d_7">
      <path d="M 419.727273 384.48 
L 419.727273 51.84 
" clip-path="url(#p2010993b08)" style="fill: none; stroke-dasharray: 1.85,0.8; stroke-dashoffset: 0; stroke: #b0b0b0; stroke-width: 0.5"/>
     </g>
     <g id="line2d_8">
      <g>
       <use xlink:href="#m24e72a0a76" x="419.727273" y="384.48" style="stroke: #000000; stroke-width: 0.8"/>
      </g>
     </g>
     <g id="text_4">
      <!-- 20 -->
      <g transform="translate(413.364773 399.078438) scale(0.1 -0.1)">
       <defs>
        <path id="DejaVuSans-32" d="M 1228 531 
L 3431 531 
L 3431 0 
L 469 0 
L 469 531 
Q 828 903 1448 1529 
Q 2069 2156 2228 2338 
Q 2531 2678 2651 2914 
Q 2772 3150 2772 3378 
Q 2772 3750 2511 3984 
Q 2250 4219 1831 4219 
Q 1534 4219 1204 4116 
Q 875 4013 500 3803 
L 500 4441 
Q 881 4594 1212 4672 
Q 1544 4750 1819 4750 
Q 2544 4750 2975 4387 
Q 3406 4025 3406 3419 
Q 3406 3131 3298 2873 
Q 3191 2616 2906 2266 
Q 2828 2175 2409 1742 
Q 1991 1309 1228 531 
z
" transform="scale(0.015625)"/>
       </defs>
       <use xlink:href="#DejaVuSans-32"/>
       <use xlink:href="#DejaVuSans-30" transform="translate(63.623047 0)"/>
      </g>
     </g>
    </g>
    <g id="xtick_5">
     <g id="line2d_9">
      <path d="M 504.272727 384.48 
L 504.272727 51.84 
" clip-path="url(#p2010993b08)" style="fill: none; stroke-dasharray: 1.85,0.8; stroke-dashoffset: 0; stroke: #b0b0b0; stroke-width: 0.5"/>
     </g>
     <g id="line2d_10">
      <g>
       <use xlink:href="#m24e72a0a76" x="504.272727" y="384.48" style="stroke: #000000; stroke-width: 0.8"/>
      </g>
     </g>
     <g id="text_5">
      <!-- 25 -->
      <g transform="translate(497.910227 399.078438) scale(0.1 -0.1)">
       <use xlink:href="#DejaVuSans-32"/>
       <use xlink:href="#DejaVuSans-35" transform="translate(63.623047 0)"/>
      </g>
     </g>
    </g>
    <g id="xtick_6">
     <g id="line2d_11">
      <path d="M 588.818182 384.48 
L 588.818182 51.84 
" clip-path="url(#p2010993b08)" style="fill: none; stroke-dasharray: 1.85,0.8; stroke-dashoffset: 0; stroke: #b0b0b0; stroke-width: 0.5"/>
     </g>
     <g id="line2d_12">
      <g>
       <use xlink:href="#m24e72a0a76" x="588.818182" y="384.48" style="stroke: #000000; stroke-width: 0.8"/>
      </g>
     </g>
     <g id="text_6">
      <!-- 30 -->
      <g transform="translate(582.455682 399.078438) scale(0.1 -0.1)">
       <defs>
        <path id="DejaVuSans-33" d="M 2597 2516 
Q 3050 2419 3304 2112 
Q 3559 1806 3559 1356 
Q 3559 666 3084 287 
Q 2609 -91 1734 -91 
Q 1441 -91 1130 -33 
Q 819 25 488 141 
L 488 750 
Q 750 597 1062 519 
Q 1375 441 1716 441 
Q 2309 441 2620 675 
Q 2931 909 2931 1356 
Q 2931 1769 2642 2001 
Q 2353 2234 1838 2234 
L 1294 2234 
L 1294 2753 
L 1863 2753 
Q 2328 2753 2575 2939 
Q 2822 3125 2822 3475 
Q 2822 3834 2567 4026 
Q 2313 4219 1838 4219 
Q 1578 4219 1281 4162 
Q 984 4106 628 3988 
L 628 4550 
Q 988 4650 1302 4700 
Q 1616 4750 1894 4750 
Q 2613 4750 3031 4423 
Q 3450 4097 3450 3541 
Q 3450 3153 3228 2886 
Q 3006 2619 2597 2516 
z
" transform="scale(0.015625)"/>
       </defs>
       <use xlink:href="#DejaVuSans-33"/>
       <use xlink:href="#DejaVuSans-30" transform="translate(63.623047 0)"/>
      </g>
     </g>
    </g>
    <g id="text_7">
     <!-- MPI size -->
     <g transform="translate(348.9125 412.756563) scale(0.1 -0.1)">
      <defs>
       <path id="DejaVuSans-4d" d="M 628 4666 
L 1569 4666 
L 2759 1491 
L 3956 4666 
L 4897 4666 
L 4897 0 
L 4281 0 
L 4281 4097 
L 3078 897 
L 2444 897 
L 1241 4097 
L 1241 0 
L 628 0 
L 628 4666 
z
" transform="scale(0.015625)"/>
       <path id="DejaVuSans-50" d="M 1259 4147 
L 1259 2394 
L 2053 2394 
Q 2494 2394 2734 2622 
Q 2975 2850 2975 3272 
Q 2975 3691 2734 3919 
Q 2494 4147 2053 4147 
L 1259 4147 
z
M 628 4666 
L 2053 4666 
Q 2838 4666 3239 4311 
Q 3641 3956 3641 3272 
Q 3641 2581 3239 2228 
Q 2838 1875 2053 1875 
L 1259 1875 
L 1259 0 
L 628 0 
L 628 4666 
z
" transform="scale(0.015625)"/>
       <path id="DejaVuSans-49" d="M 628 4666 
L 1259 4666 
L 1259 0 
L 628 0 
L 628 4666 
z
" transform="scale(0.015625)"/>
       <path id="DejaVuSans-20" transform="scale(0.015625)"/>
       <path id="DejaVuSans-73" d="M 2834 3397 
L 2834 2853 
Q 2591 2978 2328 3040 
Q 2066 3103 1784 3103 
Q 1356 3103 1142 2972 
Q 928 2841 928 2578 
Q 928 2378 1081 2264 
Q 1234 2150 1697 2047 
L 1894 2003 
Q 2506 1872 2764 1633 
Q 3022 1394 3022 966 
Q 3022 478 2636 193 
Q 2250 -91 1575 -91 
Q 1294 -91 989 -36 
Q 684 19 347 128 
L 347 722 
Q 666 556 975 473 
Q 1284 391 1588 391 
Q 1994 391 2212 530 
Q 2431 669 2431 922 
Q 2431 1156 2273 1281 
Q 2116 1406 1581 1522 
L 1381 1569 
Q 847 1681 609 1914 
Q 372 2147 372 2553 
Q 372 3047 722 3315 
Q 1072 3584 1716 3584 
Q 2034 3584 2315 3537 
Q 2597 3491 2834 3397 
z
" transform="scale(0.015625)"/>
       <path id="DejaVuSans-69" d="M 603 3500 
L 1178 3500 
L 1178 0 
L 603 0 
L 603 3500 
z
M 603 4863 
L 1178 4863 
L 1178 4134 
L 603 4134 
L 603 4863 
z
" transform="scale(0.015625)"/>
       <path id="DejaVuSans-7a" d="M 353 3500 
L 3084 3500 
L 3084 2975 
L 922 459 
L 3084 459 
L 3084 0 
L 275 0 
L 275 525 
L 2438 3041 
L 353 3041 
L 353 3500 
z
" transform="scale(0.015625)"/>
       <path id="DejaVuSans-65" d="M 3597 1894 
L 3597 1613 
L 953 1613 
Q 991 1019 1311 708 
Q 1631 397 2203 397 
Q 2534 397 2845 478 
Q 3156 559 3463 722 
L 3463 178 
Q 3153 47 2828 -22 
Q 2503 -91 2169 -91 
Q 1331 -91 842 396 
Q 353 884 353 1716 
Q 353 2575 817 3079 
Q 1281 3584 2069 3584 
Q 2775 3584 3186 3129 
Q 3597 2675 3597 1894 
z
M 3022 2063 
Q 3016 2534 2758 2815 
Q 2500 3097 2075 3097 
Q 1594 3097 1305 2825 
Q 1016 2553 972 2059 
L 3022 2063 
z
" transform="scale(0.015625)"/>
      </defs>
      <use xlink:href="#DejaVuSans-4d"/>
      <use xlink:href="#DejaVuSans-50" transform="translate(86.279297 0)"/>
      <use xlink:href="#DejaVuSans-49" transform="translate(146.582031 0)"/>
      <use xlink:href="#DejaVuSans-20" transform="translate(176.074219 0)"/>
      <use xlink:href="#DejaVuSans-73" transform="translate(207.861328 0)"/>
      <use xlink:href="#DejaVuSans-69" transform="translate(259.960938 0)"/>
      <use xlink:href="#DejaVuSans-7a" transform="translate(287.744141 0)"/>
      <use xlink:href="#DejaVuSans-65" transform="translate(340.234375 0)"/>
     </g>
    </g>
   </g>
   <g id="matplotlib.axis_2">
    <g id="ytick_1">
     <g id="line2d_13">
      <path d="M 90 369.36 
L 648 369.36 
" clip-path="url(#p2010993b08)" style="fill: none; stroke-dasharray: 1.85,0.8; stroke-dashoffset: 0; stroke: #b0b0b0; stroke-width: 0.5"/>
     </g>
     <g id="line2d_14">
      <defs>
       <path id="m71a03a90ff" d="M 0 0 
L -3.5 0 
" style="stroke: #000000; stroke-width: 0.8"/>
      </defs>
      <g>
       <use xlink:href="#m71a03a90ff" x="90" y="369.36" style="stroke: #000000; stroke-width: 0.8"/>
      </g>
     </g>
     <g id="text_8">
      <!-- 0.0 -->
      <g transform="translate(67.096875 373.159219) scale(0.1 -0.1)">
       <defs>
        <path id="DejaVuSans-2e" d="M 684 794 
L 1344 794 
L 1344 0 
L 684 0 
L 684 794 
z
" transform="scale(0.015625)"/>
       </defs>
       <use xlink:href="#DejaVuSans-30"/>
       <use xlink:href="#DejaVuSans-2e" transform="translate(63.623047 0)"/>
       <use xlink:href="#DejaVuSans-30" transform="translate(95.410156 0)"/>
      </g>
     </g>
    </g>
    <g id="ytick_2">
     <g id="line2d_15">
      <path d="M 90 297.477388 
L 648 297.477388 
" clip-path="url(#p2010993b08)" style="fill: none; stroke-dasharray: 1.85,0.8; stroke-dashoffset: 0; stroke: #b0b0b0; stroke-width: 0.5"/>
     </g>
     <g id="line2d_16">
      <g>
       <use xlink:href="#m71a03a90ff" x="90" y="297.477388" style="stroke: #000000; stroke-width: 0.8"/>
      </g>
     </g>
     <g id="text_9">
      <!-- 0.2 -->
      <g transform="translate(67.096875 301.276607) scale(0.1 -0.1)">
       <use xlink:href="#DejaVuSans-30"/>
       <use xlink:href="#DejaVuSans-2e" transform="translate(63.623047 0)"/>
       <use xlink:href="#DejaVuSans-32" transform="translate(95.410156 0)"/>
      </g>
     </g>
    </g>
    <g id="ytick_3">
     <g id="line2d_17">
      <path d="M 90 225.594776 
L 648 225.594776 
" clip-path="url(#p2010993b08)" style="fill: none; stroke-dasharray: 1.85,0.8; stroke-dashoffset: 0; stroke: #b0b0b0; stroke-width: 0.5"/>
     </g>
     <g id="line2d_18">
      <g>
       <use xlink:href="#m71a03a90ff" x="90" y="225.594776" style="stroke: #000000; stroke-width: 0.8"/>
      </g>
     </g>
     <g id="text_10">
      <!-- 0.4 -->
      <g transform="translate(67.096875 229.393995) scale(0.1 -0.1)">
       <defs>
        <path id="DejaVuSans-34" d="M 2419 4116 
L 825 1625 
L 2419 1625 
L 2419 4116 
z
M 2253 4666 
L 3047 4666 
L 3047 1625 
L 3713 1625 
L 3713 1100 
L 3047 1100 
L 3047 0 
L 2419 0 
L 2419 1100 
L 313 1100 
L 313 1709 
L 2253 4666 
z
" transform="scale(0.015625)"/>
       </defs>
       <use xlink:href="#DejaVuSans-30"/>
       <use xlink:href="#DejaVuSans-2e" transform="translate(63.623047 0)"/>
       <use xlink:href="#DejaVuSans-34" transform="translate(95.410156 0)"/>
      </g>
     </g>
    </g>
    <g id="ytick_4">
     <g id="line2d_19">
      <path d="M 90 153.712164 
L 648 153.712164 
" clip-path="url(#p2010993b08)" style="fill: none; stroke-dasharray: 1.85,0.8; stroke-dashoffset: 0; stroke: #b0b0b0; stroke-width: 0.5"/>
     </g>
     <g id="line2d_20">
      <g>
       <use xlink:href="#m71a03a90ff" x="90" y="153.712164" style="stroke: #000000; stroke-width: 0.8"/>
      </g>
     </g>
     <g id="text_11">
      <!-- 0.6 -->
      <g transform="translate(67.096875 157.511383) scale(0.1 -0.1)">
       <defs>
        <path id="DejaVuSans-36" d="M 2113 2584 
Q 1688 2584 1439 2293 
Q 1191 2003 1191 1497 
Q 1191 994 1439 701 
Q 1688 409 2113 409 
Q 2538 409 2786 701 
Q 3034 994 3034 1497 
Q 3034 2003 2786 2293 
Q 2538 2584 2113 2584 
z
M 3366 4563 
L 3366 3988 
Q 3128 4100 2886 4159 
Q 2644 4219 2406 4219 
Q 1781 4219 1451 3797 
Q 1122 3375 1075 2522 
Q 1259 2794 1537 2939 
Q 1816 3084 2150 3084 
Q 2853 3084 3261 2657 
Q 3669 2231 3669 1497 
Q 3669 778 3244 343 
Q 2819 -91 2113 -91 
Q 1303 -91 875 529 
Q 447 1150 447 2328 
Q 447 3434 972 4092 
Q 1497 4750 2381 4750 
Q 2619 4750 2861 4703 
Q 3103 4656 3366 4563 
z
" transform="scale(0.015625)"/>
       </defs>
       <use xlink:href="#DejaVuSans-30"/>
       <use xlink:href="#DejaVuSans-2e" transform="translate(63.623047 0)"/>
       <use xlink:href="#DejaVuSans-36" transform="translate(95.410156 0)"/>
      </g>
     </g>
    </g>
    <g id="ytick_5">
     <g id="line2d_21">
      <path d="M 90 81.829552 
L 648 81.829552 
" clip-path="url(#p2010993b08)" style="fill: none; stroke-dasharray: 1.85,0.8; stroke-dashoffset: 0; stroke: #b0b0b0; stroke-width: 0.5"/>
     </g>
     <g id="line2d_22">
      <g>
       <use xlink:href="#m71a03a90ff" x="90" y="81.829552" style="stroke: #000000; stroke-width: 0.8"/>
      </g>
     </g>
     <g id="text_12">
      <!-- 0.8 -->
      <g transform="translate(67.096875 85.628771) scale(0.1 -0.1)">
       <defs>
        <path id="DejaVuSans-38" d="M 2034 2216 
Q 1584 2216 1326 1975 
Q 1069 1734 1069 1313 
Q 1069 891 1326 650 
Q 1584 409 2034 409 
Q 2484 409 2743 651 
Q 3003 894 3003 1313 
Q 3003 1734 2745 1975 
Q 2488 2216 2034 2216 
z
M 1403 2484 
Q 997 2584 770 2862 
Q 544 3141 544 3541 
Q 544 4100 942 4425 
Q 1341 4750 2034 4750 
Q 2731 4750 3128 4425 
Q 3525 4100 3525 3541 
Q 3525 3141 3298 2862 
Q 3072 2584 2669 2484 
Q 3125 2378 3379 2068 
Q 3634 1759 3634 1313 
Q 3634 634 3220 271 
Q 2806 -91 2034 -91 
Q 1263 -91 848 271 
Q 434 634 434 1313 
Q 434 1759 690 2068 
Q 947 2378 1403 2484 
z
M 1172 3481 
Q 1172 3119 1398 2916 
Q 1625 2713 2034 2713 
Q 2441 2713 2670 2916 
Q 2900 3119 2900 3481 
Q 2900 3844 2670 4047 
Q 2441 4250 2034 4250 
Q 1625 4250 1398 4047 
Q 1172 3844 1172 3481 
z
" transform="scale(0.015625)"/>
       </defs>
       <use xlink:href="#DejaVuSans-30"/>
       <use xlink:href="#DejaVuSans-2e" transform="translate(63.623047 0)"/>
       <use xlink:href="#DejaVuSans-38" transform="translate(95.410156 0)"/>
      </g>
     </g>
    </g>
    <g id="text_13">
     <!-- Time (s) -->
     <g transform="translate(61.017187 238.488906) rotate(-90) scale(0.1 -0.1)">
      <defs>
       <path id="DejaVuSans-54" d="M -19 4666 
L 3928 4666 
L 3928 4134 
L 2272 4134 
L 2272 0 
L 1638 0 
L 1638 4134 
L -19 4134 
L -19 4666 
z
" transform="scale(0.015625)"/>
       <path id="DejaVuSans-6d" d="M 3328 2828 
Q 3544 3216 3844 3400 
Q 4144 3584 4550 3584 
Q 5097 3584 5394 3201 
Q 5691 2819 5691 2113 
L 5691 0 
L 5113 0 
L 5113 2094 
Q 5113 2597 4934 2840 
Q 4756 3084 4391 3084 
Q 3944 3084 3684 2787 
Q 3425 2491 3425 1978 
L 3425 0 
L 2847 0 
L 2847 2094 
Q 2847 2600 2669 2842 
Q 2491 3084 2119 3084 
Q 1678 3084 1418 2786 
Q 1159 2488 1159 1978 
L 1159 0 
L 581 0 
L 581 3500 
L 1159 3500 
L 1159 2956 
Q 1356 3278 1631 3431 
Q 1906 3584 2284 3584 
Q 2666 3584 2933 3390 
Q 3200 3197 3328 2828 
z
" transform="scale(0.015625)"/>
       <path id="DejaVuSans-28" d="M 1984 4856 
Q 1566 4138 1362 3434 
Q 1159 2731 1159 2009 
Q 1159 1288 1364 580 
Q 1569 -128 1984 -844 
L 1484 -844 
Q 1016 -109 783 600 
Q 550 1309 550 2009 
Q 550 2706 781 3412 
Q 1013 4119 1484 4856 
L 1984 4856 
z
" transform="scale(0.015625)"/>
       <path id="DejaVuSans-29" d="M 513 4856 
L 1013 4856 
Q 1481 4119 1714 3412 
Q 1947 2706 1947 2009 
Q 1947 1309 1714 600 
Q 1481 -109 1013 -844 
L 513 -844 
Q 928 -128 1133 580 
Q 1338 1288 1338 2009 
Q 1338 2731 1133 3434 
Q 928 4138 513 4856 
z
" transform="scale(0.015625)"/>
      </defs>
      <use xlink:href="#DejaVuSans-54"/>
      <use xlink:href="#DejaVuSans-69" transform="translate(57.958984 0)"/>
      <use xlink:href="#DejaVuSans-6d" transform="translate(85.742188 0)"/>
      <use xlink:href="#DejaVuSans-65" transform="translate(183.154297 0)"/>
      <use xlink:href="#DejaVuSans-20" transform="translate(244.677734 0)"/>
      <use xlink:href="#DejaVuSans-28" transform="translate(276.464844 0)"/>
      <use xlink:href="#DejaVuSans-73" transform="translate(315.478516 0)"/>
      <use xlink:href="#DejaVuSans-29" transform="translate(367.578125 0)"/>
     </g>
    </g>
   </g>
   <g id="line2d_23">
    <path d="M 115.363636 331.700093 
L 149.181818 310.951883 
L 183 290.160958 
L 216.818182 268.779503 
L 250.636364 260.049846 
L 284.454545 244.777734 
L 318.272727 238.691195 
L 352.090909 222.630114 
L 385.909091 191.77702 
L 419.727273 184.947296 
L 453.545455 182.035421 
L 487.363636 172.770405 
L 521.181818 158.797408 
L 555 130.572165 
L 588.818182 123.547346 
L 622.636364 123.729921 
" clip-path="url(#p2010993b08)" style="fill: none; stroke: #1f77b4; stroke-width: 1.5; stroke-linecap: square"/>
    <defs>
     <path id="m6a4eacbe0c" d="M 0 3 
C 0.795609 3 1.55874 2.683901 2.12132 2.12132 
C 2.683901 1.55874 3 0.795609 3 0 
C 3 -0.795609 2.683901 -1.55874 2.12132 -2.12132 
C 1.55874 -2.683901 0.795609 -3 0 -3 
C -0.795609 -3 -1.55874 -2.683901 -2.12132 -2.12132 
C -2.683901 -1.55874 -3 -0.795609 -3 0 
C -3 0.795609 -2.683901 1.55874 -2.12132 2.12132 
C -1.55874 2.683901 -0.795609 3 0 3 
z
" style="stroke: #1f77b4"/>
    </defs>
    <g clip-path="url(#p2010993b08)">
     <use xlink:href="#m6a4eacbe0c" x="115.363636" y="331.700093" style="fill: #1f77b4; stroke: #1f77b4"/>
     <use xlink:href="#m6a4eacbe0c" x="149.181818" y="310.951883" style="fill: #1f77b4; stroke: #1f77b4"/>
     <use xlink:href="#m6a4eacbe0c" x="183" y="290.160958" style="fill: #1f77b4; stroke: #1f77b4"/>
     <use xlink:href="#m6a4eacbe0c" x="216.818182" y="268.779503" style="fill: #1f77b4; stroke: #1f77b4"/>
     <use xlink:href="#m6a4eacbe0c" x="250.636364" y="260.049846" style="fill: #1f77b4; stroke: #1f77b4"/>
     <use xlink:href="#m6a4eacbe0c" x="284.454545" y="244.777734" style="fill: #1f77b4; stroke: #1f77b4"/>
     <use xlink:href="#m6a4eacbe0c" x="318.272727" y="238.691195" style="fill: #1f77b4; stroke: #1f77b4"/>
     <use xlink:href="#m6a4eacbe0c" x="352.090909" y="222.630114" style="fill: #1f77b4; stroke: #1f77b4"/>
     <use xlink:href="#m6a4eacbe0c" x="385.909091" y="191.77702" style="fill: #1f77b4; stroke: #1f77b4"/>
     <use xlink:href="#m6a4eacbe0c" x="419.727273" y="184.947296" style="fill: #1f77b4; stroke: #1f77b4"/>
     <use xlink:href="#m6a4eacbe0c" x="453.545455" y="182.035421" style="fill: #1f77b4; stroke: #1f77b4"/>
     <use xlink:href="#m6a4eacbe0c" x="487.363636" y="172.770405" style="fill: #1f77b4; stroke: #1f77b4"/>
     <use xlink:href="#m6a4eacbe0c" x="521.181818" y="158.797408" style="fill: #1f77b4; stroke: #1f77b4"/>
     <use xlink:href="#m6a4eacbe0c" x="555" y="130.572165" style="fill: #1f77b4; stroke: #1f77b4"/>
     <use xlink:href="#m6a4eacbe0c" x="588.818182" y="123.547346" style="fill: #1f77b4; stroke: #1f77b4"/>
     <use xlink:href="#m6a4eacbe0c" x="622.636364" y="123.729921" style="fill: #1f77b4; stroke: #1f77b4"/>
    </g>
   </g>
   <g id="line2d_24">
    <path d="M 115.363636 369.36 
L 149.181818 369.36 
L 183 369.36 
L 216.818182 369.36 
L 250.636364 274.964126 
L 284.454545 259.441777 
L 318.272727 250.804262 
L 352.090909 232.641206 
L 385.909091 200.399485 
L 419.727273 188.387907 
L 453.545455 185.196237 
L 487.363636 172.664103 
L 521.181818 154.224055 
L 555 127.97975 
L 588.818182 134.851003 
L 622.636364 119.197742 
" clip-path="url(#p2010993b08)" style="fill: none; stroke: #ff7f0e; stroke-width: 1.5; stroke-linecap: square"/>
    <defs>
     <path id="ma6eeacfa5c" d="M 0 3 
C 0.795609 3 1.55874 2.683901 2.12132 2.12132 
C 2.683901 1.55874 3 0.795609 3 0 
C 3 -0.795609 2.683901 -1.55874 2.12132 -2.12132 
C 1.55874 -2.683901 0.795609 -3 0 -3 
C -0.795609 -3 -1.55874 -2.683901 -2.12132 -2.12132 
C -2.683901 -1.55874 -3 -0.795609 -3 0 
C -3 0.795609 -2.683901 1.55874 -2.12132 2.12132 
C -1.55874 2.683901 -0.795609 3 0 3 
z
" style="stroke: #ff7f0e"/>
    </defs>
    <g clip-path="url(#p2010993b08)">
     <use xlink:href="#ma6eeacfa5c" x="115.363636" y="369.36" style="fill: #ff7f0e; stroke: #ff7f0e"/>
     <use xlink:href="#ma6eeacfa5c" x="149.181818" y="369.36" style="fill: #ff7f0e; stroke: #ff7f0e"/>
     <use xlink:href="#ma6eeacfa5c" x="183" y="369.36" style="fill: #ff7f0e; stroke: #ff7f0e"/>
     <use xlink:href="#ma6eeacfa5c" x="216.818182" y="369.36" style="fill: #ff7f0e; stroke: #ff7f0e"/>
     <use xlink:href="#ma6eeacfa5c" x="250.636364" y="274.964126" style="fill: #ff7f0e; stroke: #ff7f0e"/>
     <use xlink:href="#ma6eeacfa5c" x="284.454545" y="259.441777" style="fill: #ff7f0e; stroke: #ff7f0e"/>
     <use xlink:href="#ma6eeacfa5c" x="318.272727" y="250.804262" style="fill: #ff7f0e; stroke: #ff7f0e"/>
     <use xlink:href="#ma6eeacfa5c" x="352.090909" y="232.641206" style="fill: #ff7f0e; stroke: #ff7f0e"/>
     <use xlink:href="#ma6eeacfa5c" x="385.909091" y="200.399485" style="fill: #ff7f0e; stroke: #ff7f0e"/>
     <use xlink:href="#ma6eeacfa5c" x="419.727273" y="188.387907" style="fill: #ff7f0e; stroke: #ff7f0e"/>
     <use xlink:href="#ma6eeacfa5c" x="453.545455" y="185.196237" style="fill: #ff7f0e; stroke: #ff7f0e"/>
     <use xlink:href="#ma6eeacfa5c" x="487.363636" y="172.664103" style="fill: #ff7f0e; stroke: #ff7f0e"/>
     <use xlink:href="#ma6eeacfa5c" x="521.181818" y="154.224055" style="fill: #ff7f0e; stroke: #ff7f0e"/>
     <use xlink:href="#ma6eeacfa5c" x="555" y="127.97975" style="fill: #ff7f0e; stroke: #ff7f0e"/>
     <use xlink:href="#ma6eeacfa5c" x="588.818182" y="134.851003" style="fill: #ff7f0e; stroke: #ff7f0e"/>
     <use xlink:href="#ma6eeacfa5c" x="622.636364" y="119.197742" style="fill: #ff7f0e; stroke: #ff7f0e"/>
    </g>
   </g>
   <g id="line2d_25">
    <path d="M 115.363636 339.002379 
L 149.181818 312.108769 
L 183 295.741987 
L 216.818182 277.194731 
L 250.636364 261.568798 
L 284.454545 248.655331 
L 318.272727 236.054817 
L 352.090909 213.302726 
L 385.909091 176.750621 
L 419.727273 159.749782 
L 453.545455 166.461095 
L 487.363636 142.524822 
L 521.181818 121.923029 
L 555 102.894852 
L 588.818182 90.748382 
L 622.636364 66.96 
" clip-path="url(#p2010993b08)" style="fill: none; stroke: #2ca02c; stroke-width: 1.5; stroke-linecap: square"/>
    <defs>
     <path id="mfe197a8c4a" d="M 0 3 
C 0.795609 3 1.55874 2.683901 2.12132 2.12132 
C 2.683901 1.55874 3 0.795609 3 0 
C 3 -0.795609 2.683901 -1.55874 2.12132 -2.12132 
C 1.55874 -2.683901 0.795609 -3 0 -3 
C -0.795609 -3 -1.55874 -2.683901 -2.12132 -2.12132 
C -2.683901 -1.55874 -3 -0.795609 -3 0 
C -3 0.795609 -2.683901 1.55874 -2.12132 2.12132 
C -1.55874 2.683901 -0.795609 3 0 3 
z
" style="stroke: #2ca02c"/>
    </defs>
    <g clip-path="url(#p2010993b08)">
     <use xlink:href="#mfe197a8c4a" x="115.363636" y="339.002379" style="fill: #2ca02c; stroke: #2ca02c"/>
     <use xlink:href="#mfe197a8c4a" x="149.181818" y="312.108769" style="fill: #2ca02c; stroke: #2ca02c"/>
     <use xlink:href="#mfe197a8c4a" x="183" y="295.741987" style="fill: #2ca02c; stroke: #2ca02c"/>
     <use xlink:href="#mfe197a8c4a" x="216.818182" y="277.194731" style="fill: #2ca02c; stroke: #2ca02c"/>
     <use xlink:href="#mfe197a8c4a" x="250.636364" y="261.568798" style="fill: #2ca02c; stroke: #2ca02c"/>
     <use xlink:href="#mfe197a8c4a" x="284.454545" y="248.655331" style="fill: #2ca02c; stroke: #2ca02c"/>
     <use xlink:href="#mfe197a8c4a" x="318.272727" y="236.054817" style="fill: #2ca02c; stroke: #2ca02c"/>
     <use xlink:href="#mfe197a8c4a" x="352.090909" y="213.302726" style="fill: #2ca02c; stroke: #2ca02c"/>
     <use xlink:href="#mfe197a8c4a" x="385.909091" y="176.750621" style="fill: #2ca02c; stroke: #2ca02c"/>
     <use xlink:href="#mfe197a8c4a" x="419.727273" y="159.749782" style="fill: #2ca02c; stroke: #2ca02c"/>
     <use xlink:href="#mfe197a8c4a" x="453.545455" y="166.461095" style="fill: #2ca02c; stroke: #2ca02c"/>
     <use xlink:href="#mfe197a8c4a" x="487.363636" y="142.524822" style="fill: #2ca02c; stroke: #2ca02c"/>
     <use xlink:href="#mfe197a8c4a" x="521.181818" y="121.923029" style="fill: #2ca02c; stroke: #2ca02c"/>
     <use xlink:href="#mfe197a8c4a" x="555" y="102.894852" style="fill: #2ca02c; stroke: #2ca02c"/>
     <use xlink:href="#mfe197a8c4a" x="588.818182" y="90.748382" style="fill: #2ca02c; stroke: #2ca02c"/>
     <use xlink:href="#mfe197a8c4a" x="622.636364" y="66.96" style="fill: #2ca02c; stroke: #2ca02c"/>
    </g>
   </g>
   <g id="line2d_26">
    <path d="M 115.363636 339.135942 
L 149.181818 316.206694 
L 183 295.516782 
L 216.818182 284.039114 
L 250.636364 266.037553 
L 284.454545 255.412384 
L 318.272727 243.605559 
L 352.090909 226.006286 
L 385.909091 186.707195 
L 419.727273 176.495733 
L 453.545455 178.052385 
L 487.363636 161.083391 
L 521.181818 141.257862 
L 555 126.967843 
L 588.818182 114.841007 
L 622.636364 91.431076 
" clip-path="url(#p2010993b08)" style="fill: none; stroke: #d62728; stroke-width: 1.5; stroke-linecap: square"/>
    <defs>
     <path id="m8cd1dcea5d" d="M 0 3 
C 0.795609 3 1.55874 2.683901 2.12132 2.12132 
C 2.683901 1.55874 3 0.795609 3 0 
C 3 -0.795609 2.683901 -1.55874 2.12132 -2.12132 
C 1.55874 -2.683901 0.795609 -3 0 -3 
C -0.795609 -3 -1.55874 -2.683901 -2.12132 -2.12132 
C -2.683901 -1.55874 -3 -0.795609 -3 0 
C -3 0.795609 -2.683901 1.55874 -2.12132 2.12132 
C -1.55874 2.683901 -0.795609 3 0 3 
z
" style="stroke: #d62728"/>
    </defs>
    <g clip-path="url(#p2010993b08)">
     <use xlink:href="#m8cd1dcea5d" x="115.363636" y="339.135942" style="fill: #d62728; stroke: #d62728"/>
     <use xlink:href="#m8cd1dcea5d" x="149.181818" y="316.206694" style="fill: #d62728; stroke: #d62728"/>
     <use xlink:href="#m8cd1dcea5d" x="183" y="295.516782" style="fill: #d62728; stroke: #d62728"/>
     <use xlink:href="#m8cd1dcea5d" x="216.818182" y="284.039114" style="fill: #d62728; stroke: #d62728"/>
     <use xlink:href="#m8cd1dcea5d" x="250.636364" y="266.037553" style="fill: #d62728; stroke: #d62728"/>
     <use xlink:href="#m8cd1dcea5d" x="284.454545" y="255.412384" style="fill: #d62728; stroke: #d62728"/>
     <use xlink:href="#m8cd1dcea5d" x="318.272727" y="243.605559" style="fill: #d62728; stroke: #d62728"/>
     <use xlink:href="#m8cd1dcea5d" x="352.090909" y="226.006286" style="fill: #d62728; stroke: #d62728"/>
     <use xlink:href="#m8cd1dcea5d" x="385.909091" y="186.707195" style="fill: #d62728; stroke: #d62728"/>
     <use xlink:href="#m8cd1dcea5d" x="419.727273" y="176.495733" style="fill: #d62728; stroke: #d62728"/>
     <use xlink:href="#m8cd1dcea5d" x="453.545455" y="178.052385" style="fill: #d62728; stroke: #d62728"/>
     <use xlink:href="#m8cd1dcea5d" x="487.363636" y="161.083391" style="fill: #d62728; stroke: #d62728"/>
     <use xlink:href="#m8cd1dcea5d" x="521.181818" y="141.257862" style="fill: #d62728; stroke: #d62728"/>
     <use xlink:href="#m8cd1dcea5d" x="555" y="126.967843" style="fill: #d62728; stroke: #d62728"/>
     <use xlink:href="#m8cd1dcea5d" x="588.818182" y="114.841007" style="fill: #d62728; stroke: #d62728"/>
     <use xlink:href="#m8cd1dcea5d" x="622.636364" y="91.431076" style="fill: #d62728; stroke: #d62728"/>
    </g>
   </g>
   <g id="line2d_27">
    <path d="M 115.363636 339.45485 
L 149.181818 316.503786 
L 183 298.969716 
L 216.818182 279.700846 
L 250.636364 275.894749 
L 284.454545 262.511904 
L 318.272727 250.823864 
L 352.090909 234.046442 
L 385.909091 203.203444 
L 419.727273 194.380508 
L 453.545455 197.881323 
L 487.363636 178.876011 
L 521.181818 164.227895 
L 555 158.258973 
L 588.818182 148.570029 
L 622.636364 130.935564 
" clip-path="url(#p2010993b08)" style="fill: none; stroke: #9467bd; stroke-width: 1.5; stroke-linecap: square"/>
    <defs>
     <path id="mcfe9a20f22" d="M 0 3 
C 0.795609 3 1.55874 2.683901 2.12132 2.12132 
C 2.683901 1.55874 3 0.795609 3 0 
C 3 -0.795609 2.683901 -1.55874 2.12132 -2.12132 
C 1.55874 -2.683901 0.795609 -3 0 -3 
C -0.795609 -3 -1.55874 -2.683901 -2.12132 -2.12132 
C -2.683901 -1.55874 -3 -0.795609 -3 0 
C -3 0.795609 -2.683901 1.55874 -2.12132 2.12132 
C -1.55874 2.683901 -0.795609 3 0 3 
z
" style="stroke: #9467bd"/>
    </defs>
    <g clip-path="url(#p2010993b08)">
     <use xlink:href="#mcfe9a20f22" x="115.363636" y="339.45485" style="fill: #9467bd; stroke: #9467bd"/>
     <use xlink:href="#mcfe9a20f22" x="149.181818" y="316.503786" style="fill: #9467bd; stroke: #9467bd"/>
     <use xlink:href="#mcfe9a20f22" x="183" y="298.969716" style="fill: #9467bd; stroke: #9467bd"/>
     <use xlink:href="#mcfe9a20f22" x="216.818182" y="279.700846" style="fill: #9467bd; stroke: #9467bd"/>
     <use xlink:href="#mcfe9a20f22" x="250.636364" y="275.894749" style="fill: #9467bd; stroke: #9467bd"/>
     <use xlink:href="#mcfe9a20f22" x="284.454545" y="262.511904" style="fill: #9467bd; stroke: #9467bd"/>
     <use xlink:href="#mcfe9a20f22" x="318.272727" y="250.823864" style="fill: #9467bd; stroke: #9467bd"/>
     <use xlink:href="#mcfe9a20f22" x="352.090909" y="234.046442" style="fill: #9467bd; stroke: #9467bd"/>
     <use xlink:href="#mcfe9a20f22" x="385.909091" y="203.203444" style="fill: #9467bd; stroke: #9467bd"/>
     <use xlink:href="#mcfe9a20f22" x="419.727273" y="194.380508" style="fill: #9467bd; stroke: #9467bd"/>
     <use xlink:href="#mcfe9a20f22" x="453.545455" y="197.881323" style="fill: #9467bd; stroke: #9467bd"/>
     <use xlink:href="#mcfe9a20f22" x="487.363636" y="178.876011" style="fill: #9467bd; stroke: #9467bd"/>
     <use xlink:href="#mcfe9a20f22" x="521.181818" y="164.227895" style="fill: #9467bd; stroke: #9467bd"/>
     <use xlink:href="#mcfe9a20f22" x="555" y="158.258973" style="fill: #9467bd; stroke: #9467bd"/>
     <use xlink:href="#mcfe9a20f22" x="588.818182" y="148.570029" style="fill: #9467bd; stroke: #9467bd"/>
     <use xlink:href="#mcfe9a20f22" x="622.636364" y="130.935564" style="fill: #9467bd; stroke: #9467bd"/>
    </g>
   </g>
   <g id="line2d_28">
    <path d="M 115.363636 339.622328 
L 149.181818 314.345284 
L 183 298.414834 
L 216.818182 279.282509 
L 250.636364 266.158176 
L 284.454545 250.943262 
L 318.272727 238.598431 
L 352.090909 218.974765 
L 385.909091 193.130926 
L 419.727273 176.825856 
L 453.545455 173.03657 
L 487.363636 143.453803 
L 521.181818 132.425025 
L 555 115.771389 
L 588.818182 96.921583 
L 622.636364 75.842021 
" clip-path="url(#p2010993b08)" style="fill: none; stroke: #8c564b; stroke-width: 1.5; stroke-linecap: square"/>
    <defs>
     <path id="m5b437f32be" d="M 0 3 
C 0.795609 3 1.55874 2.683901 2.12132 2.12132 
C 2.683901 1.55874 3 0.795609 3 0 
C 3 -0.795609 2.683901 -1.55874 2.12132 -2.12132 
C 1.55874 -2.683901 0.795609 -3 0 -3 
C -0.795609 -3 -1.55874 -2.683901 -2.12132 -2.12132 
C -2.683901 -1.55874 -3 -0.795609 -3 0 
C -3 0.795609 -2.683901 1.55874 -2.12132 2.12132 
C -1.55874 2.683901 -0.795609 3 0 3 
z
" style="stroke: #8c564b"/>
    </defs>
    <g clip-path="url(#p2010993b08)">
     <use xlink:href="#m5b437f32be" x="115.363636" y="339.622328" style="fill: #8c564b; stroke: #8c564b"/>
     <use xlink:href="#m5b437f32be" x="149.181818" y="314.345284" style="fill: #8c564b; stroke: #8c564b"/>
     <use xlink:href="#m5b437f32be" x="183" y="298.414834" style="fill: #8c564b; stroke: #8c564b"/>
     <use xlink:href="#m5b437f32be" x="216.818182" y="279.282509" style="fill: #8c564b; stroke: #8c564b"/>
     <use xlink:href="#m5b437f32be" x="250.636364" y="266.158176" style="fill: #8c564b; stroke: #8c564b"/>
     <use xlink:href="#m5b437f32be" x="284.454545" y="250.943262" style="fill: #8c564b; stroke: #8c564b"/>
     <use xlink:href="#m5b437f32be" x="318.272727" y="238.598431" style="fill: #8c564b; stroke: #8c564b"/>
     <use xlink:href="#m5b437f32be" x="352.090909" y="218.974765" style="fill: #8c564b; stroke: #8c564b"/>
     <use xlink:href="#m5b437f32be" x="385.909091" y="193.130926" style="fill: #8c564b; stroke: #8c564b"/>
     <use xlink:href="#m5b437f32be" x="419.727273" y="176.825856" style="fill: #8c564b; stroke: #8c564b"/>
     <use xlink:href="#m5b437f32be" x="453.545455" y="173.03657" style="fill: #8c564b; stroke: #8c564b"/>
     <use xlink:href="#m5b437f32be" x="487.363636" y="143.453803" style="fill: #8c564b; stroke: #8c564b"/>
     <use xlink:href="#m5b437f32be" x="521.181818" y="132.425025" style="fill: #8c564b; stroke: #8c564b"/>
     <use xlink:href="#m5b437f32be" x="555" y="115.771389" style="fill: #8c564b; stroke: #8c564b"/>
     <use xlink:href="#m5b437f32be" x="588.818182" y="96.921583" style="fill: #8c564b; stroke: #8c564b"/>
     <use xlink:href="#m5b437f32be" x="622.636364" y="75.842021" style="fill: #8c564b; stroke: #8c564b"/>
    </g>
   </g>
   <g id="line2d_29">
    <path d="M 115.363636 341.015968 
L 149.181818 319.066656 
L 183 295.076876 
L 216.818182 280.638399 
L 250.636364 263.654597 
L 284.454545 257.015054 
L 318.272727 246.284494 
L 352.090909 224.352382 
L 385.909091 199.929584 
L 419.727273 194.081847 
L 453.545455 180.42759 
L 487.363636 152.562134 
L 521.181818 140.286831 
L 555 120.612847 
L 588.818182 103.113619 
L 622.636364 74.608159 
" clip-path="url(#p2010993b08)" style="fill: none; stroke: #e377c2; stroke-width: 1.5; stroke-linecap: square"/>
    <defs>
     <path id="mef6d294db1" d="M 0 3 
C 0.795609 3 1.55874 2.683901 2.12132 2.12132 
C 2.683901 1.55874 3 0.795609 3 0 
C 3 -0.795609 2.683901 -1.55874 2.12132 -2.12132 
C 1.55874 -2.683901 0.795609 -3 0 -3 
C -0.795609 -3 -1.55874 -2.683901 -2.12132 -2.12132 
C -2.683901 -1.55874 -3 -0.795609 -3 0 
C -3 0.795609 -2.683901 1.55874 -2.12132 2.12132 
C -1.55874 2.683901 -0.795609 3 0 3 
z
" style="stroke: #e377c2"/>
    </defs>
    <g clip-path="url(#p2010993b08)">
     <use xlink:href="#mef6d294db1" x="115.363636" y="341.015968" style="fill: #e377c2; stroke: #e377c2"/>
     <use xlink:href="#mef6d294db1" x="149.181818" y="319.066656" style="fill: #e377c2; stroke: #e377c2"/>
     <use xlink:href="#mef6d294db1" x="183" y="295.076876" style="fill: #e377c2; stroke: #e377c2"/>
     <use xlink:href="#mef6d294db1" x="216.818182" y="280.638399" style="fill: #e377c2; stroke: #e377c2"/>
     <use xlink:href="#mef6d294db1" x="250.636364" y="263.654597" style="fill: #e377c2; stroke: #e377c2"/>
     <use xlink:href="#mef6d294db1" x="284.454545" y="257.015054" style="fill: #e377c2; stroke: #e377c2"/>
     <use xlink:href="#mef6d294db1" x="318.272727" y="246.284494" style="fill: #e377c2; stroke: #e377c2"/>
     <use xlink:href="#mef6d294db1" x="352.090909" y="224.352382" style="fill: #e377c2; stroke: #e377c2"/>
     <use xlink:href="#mef6d294db1" x="385.909091" y="199.929584" style="fill: #e377c2; stroke: #e377c2"/>
     <use xlink:href="#mef6d294db1" x="419.727273" y="194.081847" style="fill: #e377c2; stroke: #e377c2"/>
     <use xlink:href="#mef6d294db1" x="453.545455" y="180.42759" style="fill: #e377c2; stroke: #e377c2"/>
     <use xlink:href="#mef6d294db1" x="487.363636" y="152.562134" style="fill: #e377c2; stroke: #e377c2"/>
     <use xlink:href="#mef6d294db1" x="521.181818" y="140.286831" style="fill: #e377c2; stroke: #e377c2"/>
     <use xlink:href="#mef6d294db1" x="555" y="120.612847" style="fill: #e377c2; stroke: #e377c2"/>
     <use xlink:href="#mef6d294db1" x="588.818182" y="103.113619" style="fill: #e377c2; stroke: #e377c2"/>
     <use xlink:href="#mef6d294db1" x="622.636364" y="74.608159" style="fill: #e377c2; stroke: #e377c2"/>
    </g>
   </g>
   <g id="patch_3">
    <path d="M 90 384.48 
L 90 51.84 
" style="fill: none; stroke: #000000; stroke-width: 0.8; stroke-linejoin: miter; stroke-linecap: square"/>
   </g>
   <g id="patch_4">
    <path d="M 648 384.48 
L 648 51.84 
" style="fill: none; stroke: #000000; stroke-width: 0.8; stroke-linejoin: miter; stroke-linecap: square"/>
   </g>
   <g id="patch_5">
    <path d="M 90 384.48 
L 648 384.48 
" style="fill: none; stroke: #000000; stroke-width: 0.8; stroke-linejoin: miter; stroke-linecap: square"/>
   </g>
   <g id="patch_6">
    <path d="M 90 51.84 
L 648 51.84 
" style="fill: none; stroke: #000000; stroke-width: 0.8; stroke-linejoin: miter; stroke-linecap: square"/>
   </g>
   <g id="text_14">
    <!-- Case 1: Varying MPI size -->
    <g transform="translate(296.039062 45.84) scale(0.12 -0.12)">
     <defs>
      <path id="DejaVuSans-43" d="M 4122 4306 
L 4122 3641 
Q 3803 3938 3442 4084 
Q 3081 4231 2675 4231 
Q 1875 4231 1450 3742 
Q 1025 3253 1025 2328 
Q 1025 1406 1450 917 
Q 1875 428 2675 428 
Q 3081 428 3442 575 
Q 3803 722 4122 1019 
L 4122 359 
Q 3791 134 3420 21 
Q 3050 -91 2638 -91 
Q 1578 -91 968 557 
Q 359 1206 359 2328 
Q 359 3453 968 4101 
Q 1578 4750 2638 4750 
Q 3056 4750 3426 4639 
Q 3797 4528 4122 4306 
z
" transform="scale(0.015625)"/>
      <path id="DejaVuSans-61" d="M 2194 1759 
Q 1497 1759 1228 1600 
Q 959 1441 959 1056 
Q 959 750 1161 570 
Q 1363 391 1709 391 
Q 2188 391 2477 730 
Q 2766 1069 2766 1631 
L 2766 1759 
L 2194 1759 
z
M 3341 1997 
L 3341 0 
L 2766 0 
L 2766 531 
Q 2569 213 2275 61 
Q 1981 -91 1556 -91 
Q 1019 -91 701 211 
Q 384 513 384 1019 
Q 384 1609 779 1909 
Q 1175 2209 1959 2209 
L 2766 2209 
L 2766 2266 
Q 2766 2663 2505 2880 
Q 2244 3097 1772 3097 
Q 1472 3097 1187 3025 
Q 903 2953 641 2809 
L 641 3341 
Q 956 3463 1253 3523 
Q 1550 3584 1831 3584 
Q 2591 3584 2966 3190 
Q 3341 2797 3341 1997 
z
" transform="scale(0.015625)"/>
      <path id="DejaVuSans-3a" d="M 750 794 
L 1409 794 
L 1409 0 
L 750 0 
L 750 794 
z
M 750 3309 
L 1409 3309 
L 1409 2516 
L 750 2516 
L 750 3309 
z
" transform="scale(0.015625)"/>
      <path id="DejaVuSans-56" d="M 1831 0 
L 50 4666 
L 709 4666 
L 2188 738 
L 3669 4666 
L 4325 4666 
L 2547 0 
L 1831 0 
z
" transform="scale(0.015625)"/>
      <path id="DejaVuSans-72" d="M 2631 2963 
Q 2534 3019 2420 3045 
Q 2306 3072 2169 3072 
Q 1681 3072 1420 2755 
Q 1159 2438 1159 1844 
L 1159 0 
L 581 0 
L 581 3500 
L 1159 3500 
L 1159 2956 
Q 1341 3275 1631 3429 
Q 1922 3584 2338 3584 
Q 2397 3584 2469 3576 
Q 2541 3569 2628 3553 
L 2631 2963 
z
" transform="scale(0.015625)"/>
      <path id="DejaVuSans-79" d="M 2059 -325 
Q 1816 -950 1584 -1140 
Q 1353 -1331 966 -1331 
L 506 -1331 
L 506 -850 
L 844 -850 
Q 1081 -850 1212 -737 
Q 1344 -625 1503 -206 
L 1606 56 
L 191 3500 
L 800 3500 
L 1894 763 
L 2988 3500 
L 3597 3500 
L 2059 -325 
z
" transform="scale(0.015625)"/>
      <path id="DejaVuSans-6e" d="M 3513 2113 
L 3513 0 
L 2938 0 
L 2938 2094 
Q 2938 2591 2744 2837 
Q 2550 3084 2163 3084 
Q 1697 3084 1428 2787 
Q 1159 2491 1159 1978 
L 1159 0 
L 581 0 
L 581 3500 
L 1159 3500 
L 1159 2956 
Q 1366 3272 1645 3428 
Q 1925 3584 2291 3584 
Q 2894 3584 3203 3211 
Q 3513 2838 3513 2113 
z
" transform="scale(0.015625)"/>
      <path id="DejaVuSans-67" d="M 2906 1791 
Q 2906 2416 2648 2759 
Q 2391 3103 1925 3103 
Q 1463 3103 1205 2759 
Q 947 2416 947 1791 
Q 947 1169 1205 825 
Q 1463 481 1925 481 
Q 2391 481 2648 825 
Q 2906 1169 2906 1791 
z
M 3481 434 
Q 3481 -459 3084 -895 
Q 2688 -1331 1869 -1331 
Q 1566 -1331 1297 -1286 
Q 1028 -1241 775 -1147 
L 775 -588 
Q 1028 -725 1275 -790 
Q 1522 -856 1778 -856 
Q 2344 -856 2625 -561 
Q 2906 -266 2906 331 
L 2906 616 
Q 2728 306 2450 153 
Q 2172 0 1784 0 
Q 1141 0 747 490 
Q 353 981 353 1791 
Q 353 2603 747 3093 
Q 1141 3584 1784 3584 
Q 2172 3584 2450 3431 
Q 2728 3278 2906 2969 
L 2906 3500 
L 3481 3500 
L 3481 434 
z
" transform="scale(0.015625)"/>
     </defs>
     <use xlink:href="#DejaVuSans-43"/>
     <use xlink:href="#DejaVuSans-61" transform="translate(69.824219 0)"/>
     <use xlink:href="#DejaVuSans-73" transform="translate(131.103516 0)"/>
     <use xlink:href="#DejaVuSans-65" transform="translate(183.203125 0)"/>
     <use xlink:href="#DejaVuSans-20" transform="translate(244.726562 0)"/>
     <use xlink:href="#DejaVuSans-31" transform="translate(276.513672 0)"/>
     <use xlink:href="#DejaVuSans-3a" transform="translate(340.136719 0)"/>
     <use xlink:href="#DejaVuSans-20" transform="translate(373.828125 0)"/>
     <use xlink:href="#DejaVuSans-56" transform="translate(405.615234 0)"/>
     <use xlink:href="#DejaVuSans-61" transform="translate(466.273438 0)"/>
     <use xlink:href="#DejaVuSans-72" transform="translate(527.552734 0)"/>
     <use xlink:href="#DejaVuSans-79" transform="translate(568.666016 0)"/>
     <use xlink:href="#DejaVuSans-69" transform="translate(627.845703 0)"/>
     <use xlink:href="#DejaVuSans-6e" transform="translate(655.628906 0)"/>
     <use xlink:href="#DejaVuSans-67" transform="translate(719.007812 0)"/>
     <use xlink:href="#DejaVuSans-20" transform="translate(782.484375 0)"/>
     <use xlink:href="#DejaVuSans-4d" transform="translate(814.271484 0)"/>
     <use xlink:href="#DejaVuSans-50" transform="translate(900.550781 0)"/>
     <use xlink:href="#DejaVuSans-49" transform="translate(960.853516 0)"/>
     <use xlink:href="#DejaVuSans-20" transform="translate(990.345703 0)"/>
     <use xlink:href="#DejaVuSans-73" transform="translate(1022.132812 0)"/>
     <use xlink:href="#DejaVuSans-69" transform="translate(1074.232422 0)"/>
     <use xlink:href="#DejaVuSans-7a" transform="translate(1102.015625 0)"/>
     <use xlink:href="#DejaVuSans-65" transform="translate(1154.505859 0)"/>
    </g>
   </g>
   <g id="legend_1">
    <g id="patch_7">
     <path d="M 97 164.53375 
L 348.7375 164.53375 
Q 350.7375 164.53375 350.7375 162.53375 
L 350.7375 58.84 
Q 350.7375 56.84 348.7375 56.84 
L 97 56.84 
Q 95 56.84 95 58.84 
L 95 162.53375 
Q 95 164.53375 97 164.53375 
z
" style="fill: #ffffff; opacity: 0.8; stroke: #cccccc; stroke-linejoin: miter"/>
    </g>
    <g id="line2d_30">
     <path d="M 99 64.938437 
L 109 64.938437 
L 119 64.938437 
" style="fill: none; stroke: #1f77b4; stroke-width: 1.5; stroke-linecap: square"/>
     <g>
      <use xlink:href="#m6a4eacbe0c" x="109" y="64.938437" style="fill: #1f77b4; stroke: #1f77b4"/>
     </g>
    </g>
    <g id="text_15">
     <!-- excluive_pipelined_binary_tree_scan -->
     <g transform="translate(127 68.438437) scale(0.1 -0.1)">
      <defs>
       <path id="DejaVuSans-78" d="M 3513 3500 
L 2247 1797 
L 3578 0 
L 2900 0 
L 1881 1375 
L 863 0 
L 184 0 
L 1544 1831 
L 300 3500 
L 978 3500 
L 1906 2253 
L 2834 3500 
L 3513 3500 
z
" transform="scale(0.015625)"/>
       <path id="DejaVuSans-63" d="M 3122 3366 
L 3122 2828 
Q 2878 2963 2633 3030 
Q 2388 3097 2138 3097 
Q 1578 3097 1268 2742 
Q 959 2388 959 1747 
Q 959 1106 1268 751 
Q 1578 397 2138 397 
Q 2388 397 2633 464 
Q 2878 531 3122 666 
L 3122 134 
Q 2881 22 2623 -34 
Q 2366 -91 2075 -91 
Q 1284 -91 818 406 
Q 353 903 353 1747 
Q 353 2603 823 3093 
Q 1294 3584 2113 3584 
Q 2378 3584 2631 3529 
Q 2884 3475 3122 3366 
z
" transform="scale(0.015625)"/>
       <path id="DejaVuSans-6c" d="M 603 4863 
L 1178 4863 
L 1178 0 
L 603 0 
L 603 4863 
z
" transform="scale(0.015625)"/>
       <path id="DejaVuSans-75" d="M 544 1381 
L 544 3500 
L 1119 3500 
L 1119 1403 
Q 1119 906 1312 657 
Q 1506 409 1894 409 
Q 2359 409 2629 706 
Q 2900 1003 2900 1516 
L 2900 3500 
L 3475 3500 
L 3475 0 
L 2900 0 
L 2900 538 
Q 2691 219 2414 64 
Q 2138 -91 1772 -91 
Q 1169 -91 856 284 
Q 544 659 544 1381 
z
M 1991 3584 
L 1991 3584 
z
" transform="scale(0.015625)"/>
       <path id="DejaVuSans-76" d="M 191 3500 
L 800 3500 
L 1894 563 
L 2988 3500 
L 3597 3500 
L 2284 0 
L 1503 0 
L 191 3500 
z
" transform="scale(0.015625)"/>
       <path id="DejaVuSans-5f" d="M 3263 -1063 
L 3263 -1509 
L -63 -1509 
L -63 -1063 
L 3263 -1063 
z
" transform="scale(0.015625)"/>
       <path id="DejaVuSans-70" d="M 1159 525 
L 1159 -1331 
L 581 -1331 
L 581 3500 
L 1159 3500 
L 1159 2969 
Q 1341 3281 1617 3432 
Q 1894 3584 2278 3584 
Q 2916 3584 3314 3078 
Q 3713 2572 3713 1747 
Q 3713 922 3314 415 
Q 2916 -91 2278 -91 
Q 1894 -91 1617 61 
Q 1341 213 1159 525 
z
M 3116 1747 
Q 3116 2381 2855 2742 
Q 2594 3103 2138 3103 
Q 1681 3103 1420 2742 
Q 1159 2381 1159 1747 
Q 1159 1113 1420 752 
Q 1681 391 2138 391 
Q 2594 391 2855 752 
Q 3116 1113 3116 1747 
z
" transform="scale(0.015625)"/>
       <path id="DejaVuSans-64" d="M 2906 2969 
L 2906 4863 
L 3481 4863 
L 3481 0 
L 2906 0 
L 2906 525 
Q 2725 213 2448 61 
Q 2172 -91 1784 -91 
Q 1150 -91 751 415 
Q 353 922 353 1747 
Q 353 2572 751 3078 
Q 1150 3584 1784 3584 
Q 2172 3584 2448 3432 
Q 2725 3281 2906 2969 
z
M 947 1747 
Q 947 1113 1208 752 
Q 1469 391 1925 391 
Q 2381 391 2643 752 
Q 2906 1113 2906 1747 
Q 2906 2381 2643 2742 
Q 2381 3103 1925 3103 
Q 1469 3103 1208 2742 
Q 947 2381 947 1747 
z
" transform="scale(0.015625)"/>
       <path id="DejaVuSans-62" d="M 3116 1747 
Q 3116 2381 2855 2742 
Q 2594 3103 2138 3103 
Q 1681 3103 1420 2742 
Q 1159 2381 1159 1747 
Q 1159 1113 1420 752 
Q 1681 391 2138 391 
Q 2594 391 2855 752 
Q 3116 1113 3116 1747 
z
M 1159 2969 
Q 1341 3281 1617 3432 
Q 1894 3584 2278 3584 
Q 2916 3584 3314 3078 
Q 3713 2572 3713 1747 
Q 3713 922 3314 415 
Q 2916 -91 2278 -91 
Q 1894 -91 1617 61 
Q 1341 213 1159 525 
L 1159 0 
L 581 0 
L 581 4863 
L 1159 4863 
L 1159 2969 
z
" transform="scale(0.015625)"/>
       <path id="DejaVuSans-74" d="M 1172 4494 
L 1172 3500 
L 2356 3500 
L 2356 3053 
L 1172 3053 
L 1172 1153 
Q 1172 725 1289 603 
Q 1406 481 1766 481 
L 2356 481 
L 2356 0 
L 1766 0 
Q 1100 0 847 248 
Q 594 497 594 1153 
L 594 3053 
L 172 3053 
L 172 3500 
L 594 3500 
L 594 4494 
L 1172 4494 
z
" transform="scale(0.015625)"/>
      </defs>
      <use xlink:href="#DejaVuSans-65"/>
      <use xlink:href="#DejaVuSans-78" transform="translate(59.773438 0)"/>
      <use xlink:href="#DejaVuSans-63" transform="translate(117.203125 0)"/>
      <use xlink:href="#DejaVuSans-6c" transform="translate(172.183594 0)"/>
      <use xlink:href="#DejaVuSans-75" transform="translate(199.966797 0)"/>
      <use xlink:href="#DejaVuSans-69" transform="translate(263.345703 0)"/>
      <use xlink:href="#DejaVuSans-76" transform="translate(291.128906 0)"/>
      <use xlink:href="#DejaVuSans-65" transform="translate(350.308594 0)"/>
      <use xlink:href="#DejaVuSans-5f" transform="translate(411.832031 0)"/>
      <use xlink:href="#DejaVuSans-70" transform="translate(461.832031 0)"/>
      <use xlink:href="#DejaVuSans-69" transform="translate(525.308594 0)"/>
      <use xlink:href="#DejaVuSans-70" transform="translate(553.091797 0)"/>
      <use xlink:href="#DejaVuSans-65" transform="translate(616.568359 0)"/>
      <use xlink:href="#DejaVuSans-6c" transform="translate(678.091797 0)"/>
      <use xlink:href="#DejaVuSans-69" transform="translate(705.875 0)"/>
      <use xlink:href="#DejaVuSans-6e" transform="translate(733.658203 0)"/>
      <use xlink:href="#DejaVuSans-65" transform="translate(797.037109 0)"/>
      <use xlink:href="#DejaVuSans-64" transform="translate(858.560547 0)"/>
      <use xlink:href="#DejaVuSans-5f" transform="translate(922.037109 0)"/>
      <use xlink:href="#DejaVuSans-62" transform="translate(972.037109 0)"/>
      <use xlink:href="#DejaVuSans-69" transform="translate(1035.513672 0)"/>
      <use xlink:href="#DejaVuSans-6e" transform="translate(1063.296875 0)"/>
      <use xlink:href="#DejaVuSans-61" transform="translate(1126.675781 0)"/>
      <use xlink:href="#DejaVuSans-72" transform="translate(1187.955078 0)"/>
      <use xlink:href="#DejaVuSans-79" transform="translate(1229.068359 0)"/>
      <use xlink:href="#DejaVuSans-5f" transform="translate(1288.248047 0)"/>
      <use xlink:href="#DejaVuSans-74" transform="translate(1338.248047 0)"/>
      <use xlink:href="#DejaVuSans-72" transform="translate(1377.457031 0)"/>
      <use xlink:href="#DejaVuSans-65" transform="translate(1416.320312 0)"/>
      <use xlink:href="#DejaVuSans-65" transform="translate(1477.84375 0)"/>
      <use xlink:href="#DejaVuSans-5f" transform="translate(1539.367188 0)"/>
      <use xlink:href="#DejaVuSans-73" transform="translate(1589.367188 0)"/>
      <use xlink:href="#DejaVuSans-63" transform="translate(1641.466797 0)"/>
      <use xlink:href="#DejaVuSans-61" transform="translate(1696.447266 0)"/>
      <use xlink:href="#DejaVuSans-6e" transform="translate(1757.726562 0)"/>
     </g>
    </g>
    <g id="line2d_31">
     <path d="M 99 79.894687 
L 109 79.894687 
L 119 79.894687 
" style="fill: none; stroke: #ff7f0e; stroke-width: 1.5; stroke-linecap: square"/>
     <g>
      <use xlink:href="#ma6eeacfa5c" x="109" y="79.894687" style="fill: #ff7f0e; stroke: #ff7f0e"/>
     </g>
    </g>
    <g id="text_16">
     <!-- exclusive_LLN -->
     <g transform="translate(127 83.394687) scale(0.1 -0.1)">
      <defs>
       <path id="DejaVuSans-4c" d="M 628 4666 
L 1259 4666 
L 1259 531 
L 3531 531 
L 3531 0 
L 628 0 
L 628 4666 
z
" transform="scale(0.015625)"/>
       <path id="DejaVuSans-4e" d="M 628 4666 
L 1478 4666 
L 3547 763 
L 3547 4666 
L 4159 4666 
L 4159 0 
L 3309 0 
L 1241 3903 
L 1241 0 
L 628 0 
L 628 4666 
z
" transform="scale(0.015625)"/>
      </defs>
      <use xlink:href="#DejaVuSans-65"/>
      <use xlink:href="#DejaVuSans-78" transform="translate(59.773438 0)"/>
      <use xlink:href="#DejaVuSans-63" transform="translate(117.203125 0)"/>
      <use xlink:href="#DejaVuSans-6c" transform="translate(172.183594 0)"/>
      <use xlink:href="#DejaVuSans-75" transform="translate(199.966797 0)"/>
      <use xlink:href="#DejaVuSans-73" transform="translate(263.345703 0)"/>
      <use xlink:href="#DejaVuSans-69" transform="translate(315.445312 0)"/>
      <use xlink:href="#DejaVuSans-76" transform="translate(343.228516 0)"/>
      <use xlink:href="#DejaVuSans-65" transform="translate(402.408203 0)"/>
      <use xlink:href="#DejaVuSans-5f" transform="translate(463.931641 0)"/>
      <use xlink:href="#DejaVuSans-4c" transform="translate(513.931641 0)"/>
      <use xlink:href="#DejaVuSans-4c" transform="translate(569.644531 0)"/>
      <use xlink:href="#DejaVuSans-4e" transform="translate(625.357422 0)"/>
     </g>
    </g>
    <g id="line2d_32">
     <path d="M 99 94.850937 
L 109 94.850937 
L 119 94.850937 
" style="fill: none; stroke: #2ca02c; stroke-width: 1.5; stroke-linecap: square"/>
     <g>
      <use xlink:href="#mfe197a8c4a" x="109" y="94.850937" style="fill: #2ca02c; stroke: #2ca02c"/>
     </g>
    </g>
    <g id="text_17">
     <!-- MPI_exscan -->
     <g transform="translate(127 98.350937) scale(0.1 -0.1)">
      <use xlink:href="#DejaVuSans-4d"/>
      <use xlink:href="#DejaVuSans-50" transform="translate(86.279297 0)"/>
      <use xlink:href="#DejaVuSans-49" transform="translate(146.582031 0)"/>
      <use xlink:href="#DejaVuSans-5f" transform="translate(176.074219 0)"/>
      <use xlink:href="#DejaVuSans-65" transform="translate(226.074219 0)"/>
      <use xlink:href="#DejaVuSans-78" transform="translate(285.847656 0)"/>
      <use xlink:href="#DejaVuSans-73" transform="translate(345.027344 0)"/>
      <use xlink:href="#DejaVuSans-63" transform="translate(397.126953 0)"/>
      <use xlink:href="#DejaVuSans-61" transform="translate(452.107422 0)"/>
      <use xlink:href="#DejaVuSans-6e" transform="translate(513.386719 0)"/>
     </g>
    </g>
    <g id="line2d_33">
     <path d="M 99 109.807187 
L 109 109.807187 
L 119 109.807187 
" style="fill: none; stroke: #d62728; stroke-width: 1.5; stroke-linecap: square"/>
     <g>
      <use xlink:href="#m8cd1dcea5d" x="109" y="109.807187" style="fill: #d62728; stroke: #d62728"/>
     </g>
    </g>
    <g id="text_18">
     <!-- exclusive_simultaneous_binomial_tree_scan -->
     <g transform="translate(127 113.307187) scale(0.1 -0.1)">
      <defs>
       <path id="DejaVuSans-6f" d="M 1959 3097 
Q 1497 3097 1228 2736 
Q 959 2375 959 1747 
Q 959 1119 1226 758 
Q 1494 397 1959 397 
Q 2419 397 2687 759 
Q 2956 1122 2956 1747 
Q 2956 2369 2687 2733 
Q 2419 3097 1959 3097 
z
M 1959 3584 
Q 2709 3584 3137 3096 
Q 3566 2609 3566 1747 
Q 3566 888 3137 398 
Q 2709 -91 1959 -91 
Q 1206 -91 779 398 
Q 353 888 353 1747 
Q 353 2609 779 3096 
Q 1206 3584 1959 3584 
z
" transform="scale(0.015625)"/>
      </defs>
      <use xlink:href="#DejaVuSans-65"/>
      <use xlink:href="#DejaVuSans-78" transform="translate(59.773438 0)"/>
      <use xlink:href="#DejaVuSans-63" transform="translate(117.203125 0)"/>
      <use xlink:href="#DejaVuSans-6c" transform="translate(172.183594 0)"/>
      <use xlink:href="#DejaVuSans-75" transform="translate(199.966797 0)"/>
      <use xlink:href="#DejaVuSans-73" transform="translate(263.345703 0)"/>
      <use xlink:href="#DejaVuSans-69" transform="translate(315.445312 0)"/>
      <use xlink:href="#DejaVuSans-76" transform="translate(343.228516 0)"/>
      <use xlink:href="#DejaVuSans-65" transform="translate(402.408203 0)"/>
      <use xlink:href="#DejaVuSans-5f" transform="translate(463.931641 0)"/>
      <use xlink:href="#DejaVuSans-73" transform="translate(513.931641 0)"/>
      <use xlink:href="#DejaVuSans-69" transform="translate(566.03125 0)"/>
      <use xlink:href="#DejaVuSans-6d" transform="translate(593.814453 0)"/>
      <use xlink:href="#DejaVuSans-75" transform="translate(691.226562 0)"/>
      <use xlink:href="#DejaVuSans-6c" transform="translate(754.605469 0)"/>
      <use xlink:href="#DejaVuSans-74" transform="translate(782.388672 0)"/>
      <use xlink:href="#DejaVuSans-61" transform="translate(821.597656 0)"/>
      <use xlink:href="#DejaVuSans-6e" transform="translate(882.876953 0)"/>
      <use xlink:href="#DejaVuSans-65" transform="translate(946.255859 0)"/>
      <use xlink:href="#DejaVuSans-6f" transform="translate(1007.779297 0)"/>
      <use xlink:href="#DejaVuSans-75" transform="translate(1068.960938 0)"/>
      <use xlink:href="#DejaVuSans-73" transform="translate(1132.339844 0)"/>
      <use xlink:href="#DejaVuSans-5f" transform="translate(1184.439453 0)"/>
      <use xlink:href="#DejaVuSans-62" transform="translate(1234.439453 0)"/>
      <use xlink:href="#DejaVuSans-69" transform="translate(1297.916016 0)"/>
      <use xlink:href="#DejaVuSans-6e" transform="translate(1325.699219 0)"/>
      <use xlink:href="#DejaVuSans-6f" transform="translate(1389.078125 0)"/>
      <use xlink:href="#DejaVuSans-6d" transform="translate(1450.259766 0)"/>
      <use xlink:href="#DejaVuSans-69" transform="translate(1547.671875 0)"/>
      <use xlink:href="#DejaVuSans-61" transform="translate(1575.455078 0)"/>
      <use xlink:href="#DejaVuSans-6c" transform="translate(1636.734375 0)"/>
      <use xlink:href="#DejaVuSans-5f" transform="translate(1664.517578 0)"/>
      <use xlink:href="#DejaVuSans-74" transform="translate(1714.517578 0)"/>
      <use xlink:href="#DejaVuSans-72" transform="translate(1753.726562 0)"/>
      <use xlink:href="#DejaVuSans-65" transform="translate(1792.589844 0)"/>
      <use xlink:href="#DejaVuSans-65" transform="translate(1854.113281 0)"/>
      <use xlink:href="#DejaVuSans-5f" transform="translate(1915.636719 0)"/>
      <use xlink:href="#DejaVuSans-73" transform="translate(1965.636719 0)"/>
      <use xlink:href="#DejaVuSans-63" transform="translate(2017.736328 0)"/>
      <use xlink:href="#DejaVuSans-61" transform="translate(2072.716797 0)"/>
      <use xlink:href="#DejaVuSans-6e" transform="translate(2133.996094 0)"/>
     </g>
    </g>
    <g id="line2d_34">
     <path d="M 99 124.763437 
L 109 124.763437 
L 119 124.763437 
" style="fill: none; stroke: #9467bd; stroke-width: 1.5; stroke-linecap: square"/>
     <g>
      <use xlink:href="#mcfe9a20f22" x="109" y="124.763437" style="fill: #9467bd; stroke: #9467bd"/>
     </g>
    </g>
    <g id="text_19">
     <!-- binomial_tree_exclusive_scan -->
     <g transform="translate(127 128.263437) scale(0.1 -0.1)">
      <use xlink:href="#DejaVuSans-62"/>
      <use xlink:href="#DejaVuSans-69" transform="translate(63.476562 0)"/>
      <use xlink:href="#DejaVuSans-6e" transform="translate(91.259766 0)"/>
      <use xlink:href="#DejaVuSans-6f" transform="translate(154.638672 0)"/>
      <use xlink:href="#DejaVuSans-6d" transform="translate(215.820312 0)"/>
      <use xlink:href="#DejaVuSans-69" transform="translate(313.232422 0)"/>
      <use xlink:href="#DejaVuSans-61" transform="translate(341.015625 0)"/>
      <use xlink:href="#DejaVuSans-6c" transform="translate(402.294922 0)"/>
      <use xlink:href="#DejaVuSans-5f" transform="translate(430.078125 0)"/>
      <use xlink:href="#DejaVuSans-74" transform="translate(480.078125 0)"/>
      <use xlink:href="#DejaVuSans-72" transform="translate(519.287109 0)"/>
      <use xlink:href="#DejaVuSans-65" transform="translate(558.150391 0)"/>
      <use xlink:href="#DejaVuSans-65" transform="translate(619.673828 0)"/>
      <use xlink:href="#DejaVuSans-5f" transform="translate(681.197266 0)"/>
      <use xlink:href="#DejaVuSans-65" transform="translate(731.197266 0)"/>
      <use xlink:href="#DejaVuSans-78" transform="translate(790.970703 0)"/>
      <use xlink:href="#DejaVuSans-63" transform="translate(848.400391 0)"/>
      <use xlink:href="#DejaVuSans-6c" transform="translate(903.380859 0)"/>
      <use xlink:href="#DejaVuSans-75" transform="translate(931.164062 0)"/>
      <use xlink:href="#DejaVuSans-73" transform="translate(994.542969 0)"/>
      <use xlink:href="#DejaVuSans-69" transform="translate(1046.642578 0)"/>
      <use xlink:href="#DejaVuSans-76" transform="translate(1074.425781 0)"/>
      <use xlink:href="#DejaVuSans-65" transform="translate(1133.605469 0)"/>
      <use xlink:href="#DejaVuSans-5f" transform="translate(1195.128906 0)"/>
      <use xlink:href="#DejaVuSans-73" transform="translate(1245.128906 0)"/>
      <use xlink:href="#DejaVuSans-63" transform="translate(1297.228516 0)"/>
      <use xlink:href="#DejaVuSans-61" transform="translate(1352.208984 0)"/>
      <use xlink:href="#DejaVuSans-6e" transform="translate(1413.488281 0)"/>
     </g>
    </g>
    <g id="line2d_35">
     <path d="M 99 139.719687 
L 109 139.719687 
L 119 139.719687 
" style="fill: none; stroke: #8c564b; stroke-width: 1.5; stroke-linecap: square"/>
     <g>
      <use xlink:href="#m5b437f32be" x="109" y="139.719687" style="fill: #8c564b; stroke: #8c564b"/>
     </g>
    </g>
    <g id="text_20">
     <!-- Hypercube_Scan_exclusive -->
     <g transform="translate(127 143.219687) scale(0.1 -0.1)">
      <defs>
       <path id="DejaVuSans-48" d="M 628 4666 
L 1259 4666 
L 1259 2753 
L 3553 2753 
L 3553 4666 
L 4184 4666 
L 4184 0 
L 3553 0 
L 3553 2222 
L 1259 2222 
L 1259 0 
L 628 0 
L 628 4666 
z
" transform="scale(0.015625)"/>
       <path id="DejaVuSans-53" d="M 3425 4513 
L 3425 3897 
Q 3066 4069 2747 4153 
Q 2428 4238 2131 4238 
Q 1616 4238 1336 4038 
Q 1056 3838 1056 3469 
Q 1056 3159 1242 3001 
Q 1428 2844 1947 2747 
L 2328 2669 
Q 3034 2534 3370 2195 
Q 3706 1856 3706 1288 
Q 3706 609 3251 259 
Q 2797 -91 1919 -91 
Q 1588 -91 1214 -16 
Q 841 59 441 206 
L 441 856 
Q 825 641 1194 531 
Q 1563 422 1919 422 
Q 2459 422 2753 634 
Q 3047 847 3047 1241 
Q 3047 1584 2836 1778 
Q 2625 1972 2144 2069 
L 1759 2144 
Q 1053 2284 737 2584 
Q 422 2884 422 3419 
Q 422 4038 858 4394 
Q 1294 4750 2059 4750 
Q 2388 4750 2728 4690 
Q 3069 4631 3425 4513 
z
" transform="scale(0.015625)"/>
      </defs>
      <use xlink:href="#DejaVuSans-48"/>
      <use xlink:href="#DejaVuSans-79" transform="translate(75.195312 0)"/>
      <use xlink:href="#DejaVuSans-70" transform="translate(134.375 0)"/>
      <use xlink:href="#DejaVuSans-65" transform="translate(197.851562 0)"/>
      <use xlink:href="#DejaVuSans-72" transform="translate(259.375 0)"/>
      <use xlink:href="#DejaVuSans-63" transform="translate(298.238281 0)"/>
      <use xlink:href="#DejaVuSans-75" transform="translate(353.21875 0)"/>
      <use xlink:href="#DejaVuSans-62" transform="translate(416.597656 0)"/>
      <use xlink:href="#DejaVuSans-65" transform="translate(480.074219 0)"/>
      <use xlink:href="#DejaVuSans-5f" transform="translate(541.597656 0)"/>
      <use xlink:href="#DejaVuSans-53" transform="translate(591.597656 0)"/>
      <use xlink:href="#DejaVuSans-63" transform="translate(655.074219 0)"/>
      <use xlink:href="#DejaVuSans-61" transform="translate(710.054688 0)"/>
      <use xlink:href="#DejaVuSans-6e" transform="translate(771.333984 0)"/>
      <use xlink:href="#DejaVuSans-5f" transform="translate(834.712891 0)"/>
      <use xlink:href="#DejaVuSans-65" transform="translate(884.712891 0)"/>
      <use xlink:href="#DejaVuSans-78" transform="translate(944.486328 0)"/>
      <use xlink:href="#DejaVuSans-63" transform="translate(1001.916016 0)"/>
      <use xlink:href="#DejaVuSans-6c" transform="translate(1056.896484 0)"/>
      <use xlink:href="#DejaVuSans-75" transform="translate(1084.679688 0)"/>
      <use xlink:href="#DejaVuSans-73" transform="translate(1148.058594 0)"/>
      <use xlink:href="#DejaVuSans-69" transform="translate(1200.158203 0)"/>
      <use xlink:href="#DejaVuSans-76" transform="translate(1227.941406 0)"/>
      <use xlink:href="#DejaVuSans-65" transform="translate(1287.121094 0)"/>
     </g>
    </g>
    <g id="line2d_36">
     <path d="M 99 154.675937 
L 109 154.675937 
L 119 154.675937 
" style="fill: none; stroke: #e377c2; stroke-width: 1.5; stroke-linecap: square"/>
     <g>
      <use xlink:href="#mef6d294db1" x="109" y="154.675937" style="fill: #e377c2; stroke: #e377c2"/>
     </g>
    </g>
    <g id="text_21">
     <!-- ex_linear_scan -->
     <g transform="translate(127 158.175937) scale(0.1 -0.1)">
      <use xlink:href="#DejaVuSans-65"/>
      <use xlink:href="#DejaVuSans-78" transform="translate(59.773438 0)"/>
      <use xlink:href="#DejaVuSans-5f" transform="translate(118.953125 0)"/>
      <use xlink:href="#DejaVuSans-6c" transform="translate(168.953125 0)"/>
      <use xlink:href="#DejaVuSans-69" transform="translate(196.736328 0)"/>
      <use xlink:href="#DejaVuSans-6e" transform="translate(224.519531 0)"/>
      <use xlink:href="#DejaVuSans-65" transform="translate(287.898438 0)"/>
      <use xlink:href="#DejaVuSans-61" transform="translate(349.421875 0)"/>
      <use xlink:href="#DejaVuSans-72" transform="translate(410.701172 0)"/>
      <use xlink:href="#DejaVuSans-5f" transform="translate(451.814453 0)"/>
      <use xlink:href="#DejaVuSans-73" transform="translate(501.814453 0)"/>
      <use xlink:href="#DejaVuSans-63" transform="translate(553.914062 0)"/>
      <use xlink:href="#DejaVuSans-61" transform="translate(608.894531 0)"/>
      <use xlink:href="#DejaVuSans-6e" transform="translate(670.173828 0)"/>
     </g>
    </g>
   </g>
  </g>
 </g>
 <defs>
  <clipPath id="p2010993b08">
   <rect x="90" y="51.84" width="558" height="332.64"/>
  </clipPath>
 </defs>
</svg>
