<?xml version="1.0" encoding="utf-8" standalone="no"?>
<!DOCTYPE svg PUBLIC "-//W3C//DTD SVG 1.1//EN"
  "http://www.w3.org/Graphics/SVG/1.1/DTD/svg11.dtd">
<svg xmlns:xlink="http://www.w3.org/1999/xlink" width="720pt" height="432pt" viewBox="0 0 720 432" xmlns="http://www.w3.org/2000/svg" version="1.1">
 <metadata>
  <rdf:RDF xmlns:dc="http://purl.org/dc/elements/1.1/" xmlns:cc="http://creativecommons.org/ns#" xmlns:rdf="http://www.w3.org/1999/02/22-rdf-syntax-ns#">
   <cc:Work>
    <dc:type rdf:resource="http://purl.org/dc/dcmitype/StillImage"/>
    <dc:date>2025-07-28T13:45:40.144997</dc:date>
    <dc:format>image/svg+xml</dc:format>
    <dc:creator>
     <cc:Agent>
      <dc:title>Matplotlib v3.10.3, https://matplotlib.org/</dc:title>
     </cc:Agent>
    </dc:creator>
   </cc:Work>
  </rdf:RDF>
 </metadata>
 <defs>
  <style type="text/css">*{stroke-linejoin: round; stroke-linecap: butt}</style>
 </defs>
 <g id="figure_1">
  <g id="patch_1">
   <path d="M 0 432 
L 720 432 
L 720 0 
L 0 0 
z
" style="fill: #ffffff"/>
  </g>
  <g id="axes_1">
   <g id="patch_2">
    <path d="M 90 384.48 
L 648 384.48 
L 648 51.84 
L 90 51.84 
z
" style="fill: #ffffff"/>
   </g>
   <g id="matplotlib.axis_1">
    <g id="xtick_1">
     <g id="line2d_1">
      <path d="M 115.363636 384.48 
L 115.363636 51.84 
" clip-path="url(#pfe8960a6d9)" style="fill: none; stroke-dasharray: 1.85,0.8; stroke-dashoffset: 0; stroke: #b0b0b0; stroke-width: 0.5"/>
     </g>
     <g id="line2d_2">
      <defs>
       <path id="m0c5d486cc3" d="M 0 0 
L 0 3.5 
" style="stroke: #000000; stroke-width: 0.8"/>
      </defs>
      <g>
       <use xlink:href="#m0c5d486cc3" x="115.363636" y="384.48" style="stroke: #000000; stroke-width: 0.8"/>
      </g>
     </g>
     <g id="text_1">
      <!-- $\mathdefault{10^{0}}$ -->
      <g transform="translate(106.563636 399.078438) scale(0.1 -0.1)">
       <defs>
        <path id="DejaVuSans-31" d="M 794 531 
L 1825 531 
L 1825 4091 
L 703 3866 
L 703 4441 
L 1819 4666 
L 2450 4666 
L 2450 531 
L 3481 531 
L 3481 0 
L 794 0 
L 794 531 
z
" transform="scale(0.015625)"/>
        <path id="DejaVuSans-30" d="M 2034 4250 
Q 1547 4250 1301 3770 
Q 1056 3291 1056 2328 
Q 1056 1369 1301 889 
Q 1547 409 2034 409 
Q 2525 409 2770 889 
Q 3016 1369 3016 2328 
Q 3016 3291 2770 3770 
Q 2525 4250 2034 4250 
z
M 2034 4750 
Q 2819 4750 3233 4129 
Q 3647 3509 3647 2328 
Q 3647 1150 3233 529 
Q 2819 -91 2034 -91 
Q 1250 -91 836 529 
Q 422 1150 422 2328 
Q 422 3509 836 4129 
Q 1250 4750 2034 4750 
z
" transform="scale(0.015625)"/>
       </defs>
       <use xlink:href="#DejaVuSans-31" transform="translate(0 0.765625)"/>
       <use xlink:href="#DejaVuSans-30" transform="translate(63.623047 0.765625)"/>
       <use xlink:href="#DejaVuSans-30" transform="translate(128.203125 39.046875) scale(0.7)"/>
      </g>
     </g>
    </g>
    <g id="xtick_2">
     <g id="line2d_3">
      <path d="M 602.473575 384.48 
L 602.473575 51.84 
" clip-path="url(#pfe8960a6d9)" style="fill: none; stroke-dasharray: 1.85,0.8; stroke-dashoffset: 0; stroke: #b0b0b0; stroke-width: 0.5"/>
     </g>
     <g id="line2d_4">
      <g>
       <use xlink:href="#m0c5d486cc3" x="602.473575" y="384.48" style="stroke: #000000; stroke-width: 0.8"/>
      </g>
     </g>
     <g id="text_2">
      <!-- $\mathdefault{10^{1}}$ -->
      <g transform="translate(593.673575 399.078438) scale(0.1 -0.1)">
       <use xlink:href="#DejaVuSans-31" transform="translate(0 0.684375)"/>
       <use xlink:href="#DejaVuSans-30" transform="translate(63.623047 0.684375)"/>
       <use xlink:href="#DejaVuSans-31" transform="translate(128.203125 38.965625) scale(0.7)"/>
      </g>
     </g>
    </g>
    <g id="xtick_3">
     <g id="line2d_5">
      <path d="M 93.074708 384.48 
L 93.074708 51.84 
" clip-path="url(#pfe8960a6d9)" style="fill: none; stroke-dasharray: 1.85,0.8; stroke-dashoffset: 0; stroke: #b0b0b0; stroke-width: 0.5"/>
     </g>
     <g id="line2d_6">
      <defs>
       <path id="m2ef844ed45" d="M 0 0 
L 0 2 
" style="stroke: #000000; stroke-width: 0.6"/>
      </defs>
      <g>
       <use xlink:href="#m2ef844ed45" x="93.074708" y="384.48" style="stroke: #000000; stroke-width: 0.6"/>
      </g>
     </g>
    </g>
    <g id="xtick_4">
     <g id="line2d_7">
      <path d="M 261.998339 384.48 
L 261.998339 51.84 
" clip-path="url(#pfe8960a6d9)" style="fill: none; stroke-dasharray: 1.85,0.8; stroke-dashoffset: 0; stroke: #b0b0b0; stroke-width: 0.5"/>
     </g>
     <g id="line2d_8">
      <g>
       <use xlink:href="#m2ef844ed45" x="261.998339" y="384.48" style="stroke: #000000; stroke-width: 0.6"/>
      </g>
     </g>
    </g>
    <g id="xtick_5">
     <g id="line2d_9">
      <path d="M 347.774142 384.48 
L 347.774142 51.84 
" clip-path="url(#pfe8960a6d9)" style="fill: none; stroke-dasharray: 1.85,0.8; stroke-dashoffset: 0; stroke: #b0b0b0; stroke-width: 0.5"/>
     </g>
     <g id="line2d_10">
      <g>
       <use xlink:href="#m2ef844ed45" x="347.774142" y="384.48" style="stroke: #000000; stroke-width: 0.6"/>
      </g>
     </g>
    </g>
    <g id="xtick_6">
     <g id="line2d_11">
      <path d="M 408.633042 384.48 
L 408.633042 51.84 
" clip-path="url(#pfe8960a6d9)" style="fill: none; stroke-dasharray: 1.85,0.8; stroke-dashoffset: 0; stroke: #b0b0b0; stroke-width: 0.5"/>
     </g>
     <g id="line2d_12">
      <g>
       <use xlink:href="#m2ef844ed45" x="408.633042" y="384.48" style="stroke: #000000; stroke-width: 0.6"/>
      </g>
     </g>
    </g>
    <g id="xtick_7">
     <g id="line2d_13">
      <path d="M 455.838872 384.48 
L 455.838872 51.84 
" clip-path="url(#pfe8960a6d9)" style="fill: none; stroke-dasharray: 1.85,0.8; stroke-dashoffset: 0; stroke: #b0b0b0; stroke-width: 0.5"/>
     </g>
     <g id="line2d_14">
      <g>
       <use xlink:href="#m2ef844ed45" x="455.838872" y="384.48" style="stroke: #000000; stroke-width: 0.6"/>
      </g>
     </g>
    </g>
    <g id="xtick_8">
     <g id="line2d_15">
      <path d="M 494.408844 384.48 
L 494.408844 51.84 
" clip-path="url(#pfe8960a6d9)" style="fill: none; stroke-dasharray: 1.85,0.8; stroke-dashoffset: 0; stroke: #b0b0b0; stroke-width: 0.5"/>
     </g>
     <g id="line2d_16">
      <g>
       <use xlink:href="#m2ef844ed45" x="494.408844" y="384.48" style="stroke: #000000; stroke-width: 0.6"/>
      </g>
     </g>
    </g>
    <g id="xtick_9">
     <g id="line2d_17">
      <path d="M 527.019291 384.48 
L 527.019291 51.84 
" clip-path="url(#pfe8960a6d9)" style="fill: none; stroke-dasharray: 1.85,0.8; stroke-dashoffset: 0; stroke: #b0b0b0; stroke-width: 0.5"/>
     </g>
     <g id="line2d_18">
      <g>
       <use xlink:href="#m2ef844ed45" x="527.019291" y="384.48" style="stroke: #000000; stroke-width: 0.6"/>
      </g>
     </g>
    </g>
    <g id="xtick_10">
     <g id="line2d_19">
      <path d="M 555.267745 384.48 
L 555.267745 51.84 
" clip-path="url(#pfe8960a6d9)" style="fill: none; stroke-dasharray: 1.85,0.8; stroke-dashoffset: 0; stroke: #b0b0b0; stroke-width: 0.5"/>
     </g>
     <g id="line2d_20">
      <g>
       <use xlink:href="#m2ef844ed45" x="555.267745" y="384.48" style="stroke: #000000; stroke-width: 0.6"/>
      </g>
     </g>
    </g>
    <g id="xtick_11">
     <g id="line2d_21">
      <path d="M 580.184647 384.48 
L 580.184647 51.84 
" clip-path="url(#pfe8960a6d9)" style="fill: none; stroke-dasharray: 1.85,0.8; stroke-dashoffset: 0; stroke: #b0b0b0; stroke-width: 0.5"/>
     </g>
     <g id="line2d_22">
      <g>
       <use xlink:href="#m2ef844ed45" x="580.184647" y="384.48" style="stroke: #000000; stroke-width: 0.6"/>
      </g>
     </g>
    </g>
    <g id="text_3">
     <!-- MPI size -->
     <g transform="translate(348.9125 412.756563) scale(0.1 -0.1)">
      <defs>
       <path id="DejaVuSans-4d" d="M 628 4666 
L 1569 4666 
L 2759 1491 
L 3956 4666 
L 4897 4666 
L 4897 0 
L 4281 0 
L 4281 4097 
L 3078 897 
L 2444 897 
L 1241 4097 
L 1241 0 
L 628 0 
L 628 4666 
z
" transform="scale(0.015625)"/>
       <path id="DejaVuSans-50" d="M 1259 4147 
L 1259 2394 
L 2053 2394 
Q 2494 2394 2734 2622 
Q 2975 2850 2975 3272 
Q 2975 3691 2734 3919 
Q 2494 4147 2053 4147 
L 1259 4147 
z
M 628 4666 
L 2053 4666 
Q 2838 4666 3239 4311 
Q 3641 3956 3641 3272 
Q 3641 2581 3239 2228 
Q 2838 1875 2053 1875 
L 1259 1875 
L 1259 0 
L 628 0 
L 628 4666 
z
" transform="scale(0.015625)"/>
       <path id="DejaVuSans-49" d="M 628 4666 
L 1259 4666 
L 1259 0 
L 628 0 
L 628 4666 
z
" transform="scale(0.015625)"/>
       <path id="DejaVuSans-20" transform="scale(0.015625)"/>
       <path id="DejaVuSans-73" d="M 2834 3397 
L 2834 2853 
Q 2591 2978 2328 3040 
Q 2066 3103 1784 3103 
Q 1356 3103 1142 2972 
Q 928 2841 928 2578 
Q 928 2378 1081 2264 
Q 1234 2150 1697 2047 
L 1894 2003 
Q 2506 1872 2764 1633 
Q 3022 1394 3022 966 
Q 3022 478 2636 193 
Q 2250 -91 1575 -91 
Q 1294 -91 989 -36 
Q 684 19 347 128 
L 347 722 
Q 666 556 975 473 
Q 1284 391 1588 391 
Q 1994 391 2212 530 
Q 2431 669 2431 922 
Q 2431 1156 2273 1281 
Q 2116 1406 1581 1522 
L 1381 1569 
Q 847 1681 609 1914 
Q 372 2147 372 2553 
Q 372 3047 722 3315 
Q 1072 3584 1716 3584 
Q 2034 3584 2315 3537 
Q 2597 3491 2834 3397 
z
" transform="scale(0.015625)"/>
       <path id="DejaVuSans-69" d="M 603 3500 
L 1178 3500 
L 1178 0 
L 603 0 
L 603 3500 
z
M 603 4863 
L 1178 4863 
L 1178 4134 
L 603 4134 
L 603 4863 
z
" transform="scale(0.015625)"/>
       <path id="DejaVuSans-7a" d="M 353 3500 
L 3084 3500 
L 3084 2975 
L 922 459 
L 3084 459 
L 3084 0 
L 275 0 
L 275 525 
L 2438 3041 
L 353 3041 
L 353 3500 
z
" transform="scale(0.015625)"/>
       <path id="DejaVuSans-65" d="M 3597 1894 
L 3597 1613 
L 953 1613 
Q 991 1019 1311 708 
Q 1631 397 2203 397 
Q 2534 397 2845 478 
Q 3156 559 3463 722 
L 3463 178 
Q 3153 47 2828 -22 
Q 2503 -91 2169 -91 
Q 1331 -91 842 396 
Q 353 884 353 1716 
Q 353 2575 817 3079 
Q 1281 3584 2069 3584 
Q 2775 3584 3186 3129 
Q 3597 2675 3597 1894 
z
M 3022 2063 
Q 3016 2534 2758 2815 
Q 2500 3097 2075 3097 
Q 1594 3097 1305 2825 
Q 1016 2553 972 2059 
L 3022 2063 
z
" transform="scale(0.015625)"/>
      </defs>
      <use xlink:href="#DejaVuSans-4d"/>
      <use xlink:href="#DejaVuSans-50" transform="translate(86.279297 0)"/>
      <use xlink:href="#DejaVuSans-49" transform="translate(146.582031 0)"/>
      <use xlink:href="#DejaVuSans-20" transform="translate(176.074219 0)"/>
      <use xlink:href="#DejaVuSans-73" transform="translate(207.861328 0)"/>
      <use xlink:href="#DejaVuSans-69" transform="translate(259.960938 0)"/>
      <use xlink:href="#DejaVuSans-7a" transform="translate(287.744141 0)"/>
      <use xlink:href="#DejaVuSans-65" transform="translate(340.234375 0)"/>
     </g>
    </g>
   </g>
   <g id="matplotlib.axis_2">
    <g id="ytick_1">
     <g id="line2d_23">
      <path d="M 90 380.724998 
L 648 380.724998 
" clip-path="url(#pfe8960a6d9)" style="fill: none; stroke-dasharray: 1.85,0.8; stroke-dashoffset: 0; stroke: #b0b0b0; stroke-width: 0.5"/>
     </g>
     <g id="line2d_24">
      <defs>
       <path id="m5ae41e0112" d="M 0 0 
L -2 0 
" style="stroke: #000000; stroke-width: 0.6"/>
      </defs>
      <g>
       <use xlink:href="#m5ae41e0112" x="90" y="380.724998" style="stroke: #000000; stroke-width: 0.6"/>
      </g>
     </g>
     <g id="text_4">
      <!-- $\mathdefault{3.6\times10^{0}}$ -->
      <g transform="translate(38.8 384.524216) scale(0.1 -0.1)">
       <defs>
        <path id="DejaVuSans-33" d="M 2597 2516 
Q 3050 2419 3304 2112 
Q 3559 1806 3559 1356 
Q 3559 666 3084 287 
Q 2609 -91 1734 -91 
Q 1441 -91 1130 -33 
Q 819 25 488 141 
L 488 750 
Q 750 597 1062 519 
Q 1375 441 1716 441 
Q 2309 441 2620 675 
Q 2931 909 2931 1356 
Q 2931 1769 2642 2001 
Q 2353 2234 1838 2234 
L 1294 2234 
L 1294 2753 
L 1863 2753 
Q 2328 2753 2575 2939 
Q 2822 3125 2822 3475 
Q 2822 3834 2567 4026 
Q 2313 4219 1838 4219 
Q 1578 4219 1281 4162 
Q 984 4106 628 3988 
L 628 4550 
Q 988 4650 1302 4700 
Q 1616 4750 1894 4750 
Q 2613 4750 3031 4423 
Q 3450 4097 3450 3541 
Q 3450 3153 3228 2886 
Q 3006 2619 2597 2516 
z
" transform="scale(0.015625)"/>
        <path id="DejaVuSans-2e" d="M 684 794 
L 1344 794 
L 1344 0 
L 684 0 
L 684 794 
z
" transform="scale(0.015625)"/>
        <path id="DejaVuSans-36" d="M 2113 2584 
Q 1688 2584 1439 2293 
Q 1191 2003 1191 1497 
Q 1191 994 1439 701 
Q 1688 409 2113 409 
Q 2538 409 2786 701 
Q 3034 994 3034 1497 
Q 3034 2003 2786 2293 
Q 2538 2584 2113 2584 
z
M 3366 4563 
L 3366 3988 
Q 3128 4100 2886 4159 
Q 2644 4219 2406 4219 
Q 1781 4219 1451 3797 
Q 1122 3375 1075 2522 
Q 1259 2794 1537 2939 
Q 1816 3084 2150 3084 
Q 2853 3084 3261 2657 
Q 3669 2231 3669 1497 
Q 3669 778 3244 343 
Q 2819 -91 2113 -91 
Q 1303 -91 875 529 
Q 447 1150 447 2328 
Q 447 3434 972 4092 
Q 1497 4750 2381 4750 
Q 2619 4750 2861 4703 
Q 3103 4656 3366 4563 
z
" transform="scale(0.015625)"/>
        <path id="DejaVuSans-d7" d="M 4488 3438 
L 3059 2003 
L 4488 575 
L 4116 197 
L 2681 1631 
L 1247 197 
L 878 575 
L 2303 2003 
L 878 3438 
L 1247 3816 
L 2681 2381 
L 4116 3816 
L 4488 3438 
z
" transform="scale(0.015625)"/>
       </defs>
       <use xlink:href="#DejaVuSans-33" transform="translate(0 0.765625)"/>
       <use xlink:href="#DejaVuSans-2e" transform="translate(63.623047 0.765625)"/>
       <use xlink:href="#DejaVuSans-36" transform="translate(95.410156 0.765625)"/>
       <use xlink:href="#DejaVuSans-d7" transform="translate(178.515625 0.765625)"/>
       <use xlink:href="#DejaVuSans-31" transform="translate(281.787109 0.765625)"/>
       <use xlink:href="#DejaVuSans-30" transform="translate(345.410156 0.765625)"/>
       <use xlink:href="#DejaVuSans-30" transform="translate(409.990234 39.046875) scale(0.7)"/>
      </g>
     </g>
    </g>
    <g id="ytick_2">
     <g id="line2d_25">
      <path d="M 90 316.29483 
L 648 316.29483 
" clip-path="url(#pfe8960a6d9)" style="fill: none; stroke-dasharray: 1.85,0.8; stroke-dashoffset: 0; stroke: #b0b0b0; stroke-width: 0.5"/>
     </g>
     <g id="line2d_26">
      <g>
       <use xlink:href="#m5ae41e0112" x="90" y="316.29483" style="stroke: #000000; stroke-width: 0.6"/>
      </g>
     </g>
     <g id="text_5">
      <!-- $\mathdefault{3.8\times10^{0}}$ -->
      <g transform="translate(39.1 320.094049) scale(0.1 -0.1)">
       <defs>
        <path id="DejaVuSans-38" d="M 2034 2216 
Q 1584 2216 1326 1975 
Q 1069 1734 1069 1313 
Q 1069 891 1326 650 
Q 1584 409 2034 409 
Q 2484 409 2743 651 
Q 3003 894 3003 1313 
Q 3003 1734 2745 1975 
Q 2488 2216 2034 2216 
z
M 1403 2484 
Q 997 2584 770 2862 
Q 544 3141 544 3541 
Q 544 4100 942 4425 
Q 1341 4750 2034 4750 
Q 2731 4750 3128 4425 
Q 3525 4100 3525 3541 
Q 3525 3141 3298 2862 
Q 3072 2584 2669 2484 
Q 3125 2378 3379 2068 
Q 3634 1759 3634 1313 
Q 3634 634 3220 271 
Q 2806 -91 2034 -91 
Q 1263 -91 848 271 
Q 434 634 434 1313 
Q 434 1759 690 2068 
Q 947 2378 1403 2484 
z
M 1172 3481 
Q 1172 3119 1398 2916 
Q 1625 2713 2034 2713 
Q 2441 2713 2670 2916 
Q 2900 3119 2900 3481 
Q 2900 3844 2670 4047 
Q 2441 4250 2034 4250 
Q 1625 4250 1398 4047 
Q 1172 3844 1172 3481 
z
" transform="scale(0.015625)"/>
       </defs>
       <use xlink:href="#DejaVuSans-33" transform="translate(0 0.765625)"/>
       <use xlink:href="#DejaVuSans-2e" transform="translate(63.623047 0.765625)"/>
       <use xlink:href="#DejaVuSans-38" transform="translate(92.785156 0.765625)"/>
       <use xlink:href="#DejaVuSans-d7" transform="translate(175.890625 0.765625)"/>
       <use xlink:href="#DejaVuSans-31" transform="translate(279.162109 0.765625)"/>
       <use xlink:href="#DejaVuSans-30" transform="translate(342.785156 0.765625)"/>
       <use xlink:href="#DejaVuSans-30" transform="translate(407.365234 39.046875) scale(0.7)"/>
      </g>
     </g>
    </g>
    <g id="ytick_3">
     <g id="line2d_27">
      <path d="M 90 255.170262 
L 648 255.170262 
" clip-path="url(#pfe8960a6d9)" style="fill: none; stroke-dasharray: 1.85,0.8; stroke-dashoffset: 0; stroke: #b0b0b0; stroke-width: 0.5"/>
     </g>
     <g id="line2d_28">
      <g>
       <use xlink:href="#m5ae41e0112" x="90" y="255.170262" style="stroke: #000000; stroke-width: 0.6"/>
      </g>
     </g>
     <g id="text_6">
      <!-- $\mathdefault{4\times10^{0}}$ -->
      <g transform="translate(48.4 258.969481) scale(0.1 -0.1)">
       <defs>
        <path id="DejaVuSans-34" d="M 2419 4116 
L 825 1625 
L 2419 1625 
L 2419 4116 
z
M 2253 4666 
L 3047 4666 
L 3047 1625 
L 3713 1625 
L 3713 1100 
L 3047 1100 
L 3047 0 
L 2419 0 
L 2419 1100 
L 313 1100 
L 313 1709 
L 2253 4666 
z
" transform="scale(0.015625)"/>
       </defs>
       <use xlink:href="#DejaVuSans-34" transform="translate(0 0.765625)"/>
       <use xlink:href="#DejaVuSans-d7" transform="translate(83.105469 0.765625)"/>
       <use xlink:href="#DejaVuSans-31" transform="translate(186.376953 0.765625)"/>
       <use xlink:href="#DejaVuSans-30" transform="translate(250 0.765625)"/>
       <use xlink:href="#DejaVuSans-30" transform="translate(314.580078 39.046875) scale(0.7)"/>
      </g>
     </g>
    </g>
    <g id="ytick_4">
     <g id="line2d_29">
      <path d="M 90 197.028593 
L 648 197.028593 
" clip-path="url(#pfe8960a6d9)" style="fill: none; stroke-dasharray: 1.85,0.8; stroke-dashoffset: 0; stroke: #b0b0b0; stroke-width: 0.5"/>
     </g>
     <g id="line2d_30">
      <g>
       <use xlink:href="#m5ae41e0112" x="90" y="197.028593" style="stroke: #000000; stroke-width: 0.6"/>
      </g>
     </g>
     <g id="text_7">
      <!-- $\mathdefault{4.2\times10^{0}}$ -->
      <g transform="translate(39.4 200.827812) scale(0.1 -0.1)">
       <defs>
        <path id="DejaVuSans-32" d="M 1228 531 
L 3431 531 
L 3431 0 
L 469 0 
L 469 531 
Q 828 903 1448 1529 
Q 2069 2156 2228 2338 
Q 2531 2678 2651 2914 
Q 2772 3150 2772 3378 
Q 2772 3750 2511 3984 
Q 2250 4219 1831 4219 
Q 1534 4219 1204 4116 
Q 875 4013 500 3803 
L 500 4441 
Q 881 4594 1212 4672 
Q 1544 4750 1819 4750 
Q 2544 4750 2975 4387 
Q 3406 4025 3406 3419 
Q 3406 3131 3298 2873 
Q 3191 2616 2906 2266 
Q 2828 2175 2409 1742 
Q 1991 1309 1228 531 
z
" transform="scale(0.015625)"/>
       </defs>
       <use xlink:href="#DejaVuSans-34" transform="translate(0 0.765625)"/>
       <use xlink:href="#DejaVuSans-2e" transform="translate(63.623047 0.765625)"/>
       <use xlink:href="#DejaVuSans-32" transform="translate(89.910156 0.765625)"/>
       <use xlink:href="#DejaVuSans-d7" transform="translate(173.015625 0.765625)"/>
       <use xlink:href="#DejaVuSans-31" transform="translate(276.287109 0.765625)"/>
       <use xlink:href="#DejaVuSans-30" transform="translate(339.910156 0.765625)"/>
       <use xlink:href="#DejaVuSans-30" transform="translate(404.490234 39.046875) scale(0.7)"/>
      </g>
     </g>
    </g>
    <g id="ytick_5">
     <g id="line2d_31">
      <path d="M 90 141.592188 
L 648 141.592188 
" clip-path="url(#pfe8960a6d9)" style="fill: none; stroke-dasharray: 1.85,0.8; stroke-dashoffset: 0; stroke: #b0b0b0; stroke-width: 0.5"/>
     </g>
     <g id="line2d_32">
      <g>
       <use xlink:href="#m5ae41e0112" x="90" y="141.592188" style="stroke: #000000; stroke-width: 0.6"/>
      </g>
     </g>
     <g id="text_8">
      <!-- $\mathdefault{4.4\times10^{0}}$ -->
      <g transform="translate(38.8 145.391406) scale(0.1 -0.1)">
       <use xlink:href="#DejaVuSans-34" transform="translate(0 0.765625)"/>
       <use xlink:href="#DejaVuSans-2e" transform="translate(63.623047 0.765625)"/>
       <use xlink:href="#DejaVuSans-34" transform="translate(95.410156 0.765625)"/>
       <use xlink:href="#DejaVuSans-d7" transform="translate(178.515625 0.765625)"/>
       <use xlink:href="#DejaVuSans-31" transform="translate(281.787109 0.765625)"/>
       <use xlink:href="#DejaVuSans-30" transform="translate(345.410156 0.765625)"/>
       <use xlink:href="#DejaVuSans-30" transform="translate(409.990234 39.046875) scale(0.7)"/>
      </g>
     </g>
    </g>
    <g id="ytick_6">
     <g id="line2d_33">
      <path d="M 90 88.620453 
L 648 88.620453 
" clip-path="url(#pfe8960a6d9)" style="fill: none; stroke-dasharray: 1.85,0.8; stroke-dashoffset: 0; stroke: #b0b0b0; stroke-width: 0.5"/>
     </g>
     <g id="line2d_34">
      <g>
       <use xlink:href="#m5ae41e0112" x="90" y="88.620453" style="stroke: #000000; stroke-width: 0.6"/>
      </g>
     </g>
     <g id="text_9">
      <!-- $\mathdefault{4.6\times10^{0}}$ -->
      <g transform="translate(38.8 92.419671) scale(0.1 -0.1)">
       <use xlink:href="#DejaVuSans-34" transform="translate(0 0.765625)"/>
       <use xlink:href="#DejaVuSans-2e" transform="translate(63.623047 0.765625)"/>
       <use xlink:href="#DejaVuSans-36" transform="translate(95.410156 0.765625)"/>
       <use xlink:href="#DejaVuSans-d7" transform="translate(178.515625 0.765625)"/>
       <use xlink:href="#DejaVuSans-31" transform="translate(281.787109 0.765625)"/>
       <use xlink:href="#DejaVuSans-30" transform="translate(345.410156 0.765625)"/>
       <use xlink:href="#DejaVuSans-30" transform="translate(409.990234 39.046875) scale(0.7)"/>
      </g>
     </g>
    </g>
    <g id="text_10">
     <!-- Time (s) -->
     <g transform="translate(32.720312 238.488906) rotate(-90) scale(0.1 -0.1)">
      <defs>
       <path id="DejaVuSans-54" d="M -19 4666 
L 3928 4666 
L 3928 4134 
L 2272 4134 
L 2272 0 
L 1638 0 
L 1638 4134 
L -19 4134 
L -19 4666 
z
" transform="scale(0.015625)"/>
       <path id="DejaVuSans-6d" d="M 3328 2828 
Q 3544 3216 3844 3400 
Q 4144 3584 4550 3584 
Q 5097 3584 5394 3201 
Q 5691 2819 5691 2113 
L 5691 0 
L 5113 0 
L 5113 2094 
Q 5113 2597 4934 2840 
Q 4756 3084 4391 3084 
Q 3944 3084 3684 2787 
Q 3425 2491 3425 1978 
L 3425 0 
L 2847 0 
L 2847 2094 
Q 2847 2600 2669 2842 
Q 2491 3084 2119 3084 
Q 1678 3084 1418 2786 
Q 1159 2488 1159 1978 
L 1159 0 
L 581 0 
L 581 3500 
L 1159 3500 
L 1159 2956 
Q 1356 3278 1631 3431 
Q 1906 3584 2284 3584 
Q 2666 3584 2933 3390 
Q 3200 3197 3328 2828 
z
" transform="scale(0.015625)"/>
       <path id="DejaVuSans-28" d="M 1984 4856 
Q 1566 4138 1362 3434 
Q 1159 2731 1159 2009 
Q 1159 1288 1364 580 
Q 1569 -128 1984 -844 
L 1484 -844 
Q 1016 -109 783 600 
Q 550 1309 550 2009 
Q 550 2706 781 3412 
Q 1013 4119 1484 4856 
L 1984 4856 
z
" transform="scale(0.015625)"/>
       <path id="DejaVuSans-29" d="M 513 4856 
L 1013 4856 
Q 1481 4119 1714 3412 
Q 1947 2706 1947 2009 
Q 1947 1309 1714 600 
Q 1481 -109 1013 -844 
L 513 -844 
Q 928 -128 1133 580 
Q 1338 1288 1338 2009 
Q 1338 2731 1133 3434 
Q 928 4138 513 4856 
z
" transform="scale(0.015625)"/>
      </defs>
      <use xlink:href="#DejaVuSans-54"/>
      <use xlink:href="#DejaVuSans-69" transform="translate(57.958984 0)"/>
      <use xlink:href="#DejaVuSans-6d" transform="translate(85.742188 0)"/>
      <use xlink:href="#DejaVuSans-65" transform="translate(183.154297 0)"/>
      <use xlink:href="#DejaVuSans-20" transform="translate(244.677734 0)"/>
      <use xlink:href="#DejaVuSans-28" transform="translate(276.464844 0)"/>
      <use xlink:href="#DejaVuSans-73" transform="translate(315.478516 0)"/>
      <use xlink:href="#DejaVuSans-29" transform="translate(367.578125 0)"/>
     </g>
    </g>
   </g>
   <g id="line2d_35">
    <path d="M -1 238.837271 
L 115.363636 238.80969 
L 261.998339 237.434786 
L 347.774142 220.234671 
L 408.633042 204.671949 
L 455.838872 160.404588 
L 494.408844 154.532122 
L 527.019291 123.591204 
L 555.267745 115.933788 
L 580.184647 117.539906 
L 602.473575 115.441462 
L 622.636364 83.019702 
" clip-path="url(#pfe8960a6d9)" style="fill: none; stroke: #1f77b4; stroke-width: 1.5; stroke-linecap: square"/>
    <defs>
     <path id="m39cae5b86f" d="M 0 3 
C 0.795609 3 1.55874 2.683901 2.12132 2.12132 
C 2.683901 1.55874 3 0.795609 3 0 
C 3 -0.795609 2.683901 -1.55874 2.12132 -2.12132 
C 1.55874 -2.683901 0.795609 -3 0 -3 
C -0.795609 -3 -1.55874 -2.683901 -2.12132 -2.12132 
C -2.683901 -1.55874 -3 -0.795609 -3 0 
C -3 0.795609 -2.683901 1.55874 -2.12132 2.12132 
C -1.55874 2.683901 -0.795609 3 0 3 
z
" style="stroke: #1f77b4"/>
    </defs>
    <g clip-path="url(#pfe8960a6d9)">
     <use xlink:href="#m39cae5b86f" x="-1" y="238.837271" style="fill: #1f77b4; stroke: #1f77b4"/>
     <use xlink:href="#m39cae5b86f" x="115.363636" y="238.80969" style="fill: #1f77b4; stroke: #1f77b4"/>
     <use xlink:href="#m39cae5b86f" x="261.998339" y="237.434786" style="fill: #1f77b4; stroke: #1f77b4"/>
     <use xlink:href="#m39cae5b86f" x="347.774142" y="220.234671" style="fill: #1f77b4; stroke: #1f77b4"/>
     <use xlink:href="#m39cae5b86f" x="408.633042" y="204.671949" style="fill: #1f77b4; stroke: #1f77b4"/>
     <use xlink:href="#m39cae5b86f" x="455.838872" y="160.404588" style="fill: #1f77b4; stroke: #1f77b4"/>
     <use xlink:href="#m39cae5b86f" x="494.408844" y="154.532122" style="fill: #1f77b4; stroke: #1f77b4"/>
     <use xlink:href="#m39cae5b86f" x="527.019291" y="123.591204" style="fill: #1f77b4; stroke: #1f77b4"/>
     <use xlink:href="#m39cae5b86f" x="555.267745" y="115.933788" style="fill: #1f77b4; stroke: #1f77b4"/>
     <use xlink:href="#m39cae5b86f" x="580.184647" y="117.539906" style="fill: #1f77b4; stroke: #1f77b4"/>
     <use xlink:href="#m39cae5b86f" x="602.473575" y="115.441462" style="fill: #1f77b4; stroke: #1f77b4"/>
     <use xlink:href="#m39cae5b86f" x="622.636364" y="83.019702" style="fill: #1f77b4; stroke: #1f77b4"/>
    </g>
   </g>
   <g id="line2d_36">
    <path d="M 408.627949 433 
L 408.633042 203.222277 
L 455.838872 174.716581 
L 494.408844 156.647257 
L 527.019291 138.458944 
L 555.267745 130.124209 
L 580.184647 125.697314 
L 602.473575 111.997591 
L 622.636364 91.854364 
" clip-path="url(#pfe8960a6d9)" style="fill: none; stroke: #ff7f0e; stroke-width: 1.5; stroke-linecap: square"/>
    <defs>
     <path id="mf8deb80f9a" d="M 0 3 
C 0.795609 3 1.55874 2.683901 2.12132 2.12132 
C 2.683901 1.55874 3 0.795609 3 0 
C 3 -0.795609 2.683901 -1.55874 2.12132 -2.12132 
C 1.55874 -2.683901 0.795609 -3 0 -3 
C -0.795609 -3 -1.55874 -2.683901 -2.12132 -2.12132 
C -2.683901 -1.55874 -3 -0.795609 -3 0 
C -3 0.795609 -2.683901 1.55874 -2.12132 2.12132 
C -1.55874 2.683901 -0.795609 3 0 3 
z
" style="stroke: #ff7f0e"/>
    </defs>
    <g clip-path="url(#pfe8960a6d9)">
     <use xlink:href="#mf8deb80f9a" x="407.948079" y="31105" style="fill: #ff7f0e; stroke: #ff7f0e"/>
     <use xlink:href="#mf8deb80f9a" x="408.633042" y="203.222277" style="fill: #ff7f0e; stroke: #ff7f0e"/>
     <use xlink:href="#mf8deb80f9a" x="455.838872" y="174.716581" style="fill: #ff7f0e; stroke: #ff7f0e"/>
     <use xlink:href="#mf8deb80f9a" x="494.408844" y="156.647257" style="fill: #ff7f0e; stroke: #ff7f0e"/>
     <use xlink:href="#mf8deb80f9a" x="527.019291" y="138.458944" style="fill: #ff7f0e; stroke: #ff7f0e"/>
     <use xlink:href="#mf8deb80f9a" x="555.267745" y="130.124209" style="fill: #ff7f0e; stroke: #ff7f0e"/>
     <use xlink:href="#mf8deb80f9a" x="580.184647" y="125.697314" style="fill: #ff7f0e; stroke: #ff7f0e"/>
     <use xlink:href="#mf8deb80f9a" x="602.473575" y="111.997591" style="fill: #ff7f0e; stroke: #ff7f0e"/>
     <use xlink:href="#mf8deb80f9a" x="622.636364" y="91.854364" style="fill: #ff7f0e; stroke: #ff7f0e"/>
    </g>
   </g>
   <g id="line2d_37">
    <path d="M -1 261.818799 
L 115.363636 261.797636 
L 261.998339 233.026649 
L 347.774142 214.618139 
L 408.633042 195.301004 
L 455.838872 166.351302 
L 494.408844 156.605929 
L 527.019291 132.131404 
L 555.267745 116.80977 
L 580.184647 108.131179 
L 602.473575 91.647292 
L 622.636364 69.621174 
" clip-path="url(#pfe8960a6d9)" style="fill: none; stroke: #2ca02c; stroke-width: 1.5; stroke-linecap: square"/>
    <defs>
     <path id="me6c05c8026" d="M 0 3 
C 0.795609 3 1.55874 2.683901 2.12132 2.12132 
C 2.683901 1.55874 3 0.795609 3 0 
C 3 -0.795609 2.683901 -1.55874 2.12132 -2.12132 
C 1.55874 -2.683901 0.795609 -3 0 -3 
C -0.795609 -3 -1.55874 -2.683901 -2.12132 -2.12132 
C -2.683901 -1.55874 -3 -0.795609 -3 0 
C -3 0.795609 -2.683901 1.55874 -2.12132 2.12132 
C -1.55874 2.683901 -0.795609 3 0 3 
z
" style="stroke: #2ca02c"/>
    </defs>
    <g clip-path="url(#pfe8960a6d9)">
     <use xlink:href="#me6c05c8026" x="-1" y="261.818799" style="fill: #2ca02c; stroke: #2ca02c"/>
     <use xlink:href="#me6c05c8026" x="115.363636" y="261.797636" style="fill: #2ca02c; stroke: #2ca02c"/>
     <use xlink:href="#me6c05c8026" x="261.998339" y="233.026649" style="fill: #2ca02c; stroke: #2ca02c"/>
     <use xlink:href="#me6c05c8026" x="347.774142" y="214.618139" style="fill: #2ca02c; stroke: #2ca02c"/>
     <use xlink:href="#me6c05c8026" x="408.633042" y="195.301004" style="fill: #2ca02c; stroke: #2ca02c"/>
     <use xlink:href="#me6c05c8026" x="455.838872" y="166.351302" style="fill: #2ca02c; stroke: #2ca02c"/>
     <use xlink:href="#me6c05c8026" x="494.408844" y="156.605929" style="fill: #2ca02c; stroke: #2ca02c"/>
     <use xlink:href="#me6c05c8026" x="527.019291" y="132.131404" style="fill: #2ca02c; stroke: #2ca02c"/>
     <use xlink:href="#me6c05c8026" x="555.267745" y="116.80977" style="fill: #2ca02c; stroke: #2ca02c"/>
     <use xlink:href="#me6c05c8026" x="580.184647" y="108.131179" style="fill: #2ca02c; stroke: #2ca02c"/>
     <use xlink:href="#me6c05c8026" x="602.473575" y="91.647292" style="fill: #2ca02c; stroke: #2ca02c"/>
     <use xlink:href="#me6c05c8026" x="622.636364" y="69.621174" style="fill: #2ca02c; stroke: #2ca02c"/>
    </g>
   </g>
   <g id="line2d_38">
    <path d="M -1 262.303986 
L 115.363636 262.285102 
L 261.998339 232.286028 
L 347.774142 210.649873 
L 408.633042 190.495607 
L 455.838872 166.921319 
L 494.408844 150.586607 
L 527.019291 139.862706 
L 555.267745 118.381215 
L 580.184647 109.980258 
L 602.473575 98.508813 
L 622.636364 74.600189 
" clip-path="url(#pfe8960a6d9)" style="fill: none; stroke: #d62728; stroke-width: 1.5; stroke-linecap: square"/>
    <defs>
     <path id="md49f034510" d="M 0 3 
C 0.795609 3 1.55874 2.683901 2.12132 2.12132 
C 2.683901 1.55874 3 0.795609 3 0 
C 3 -0.795609 2.683901 -1.55874 2.12132 -2.12132 
C 1.55874 -2.683901 0.795609 -3 0 -3 
C -0.795609 -3 -1.55874 -2.683901 -2.12132 -2.12132 
C -2.683901 -1.55874 -3 -0.795609 -3 0 
C -3 0.795609 -2.683901 1.55874 -2.12132 2.12132 
C -1.55874 2.683901 -0.795609 3 0 3 
z
" style="stroke: #d62728"/>
    </defs>
    <g clip-path="url(#pfe8960a6d9)">
     <use xlink:href="#md49f034510" x="-1" y="262.303986" style="fill: #d62728; stroke: #d62728"/>
     <use xlink:href="#md49f034510" x="115.363636" y="262.285102" style="fill: #d62728; stroke: #d62728"/>
     <use xlink:href="#md49f034510" x="261.998339" y="232.286028" style="fill: #d62728; stroke: #d62728"/>
     <use xlink:href="#md49f034510" x="347.774142" y="210.649873" style="fill: #d62728; stroke: #d62728"/>
     <use xlink:href="#md49f034510" x="408.633042" y="190.495607" style="fill: #d62728; stroke: #d62728"/>
     <use xlink:href="#md49f034510" x="455.838872" y="166.921319" style="fill: #d62728; stroke: #d62728"/>
     <use xlink:href="#md49f034510" x="494.408844" y="150.586607" style="fill: #d62728; stroke: #d62728"/>
     <use xlink:href="#md49f034510" x="527.019291" y="139.862706" style="fill: #d62728; stroke: #d62728"/>
     <use xlink:href="#md49f034510" x="555.267745" y="118.381215" style="fill: #d62728; stroke: #d62728"/>
     <use xlink:href="#md49f034510" x="580.184647" y="109.980258" style="fill: #d62728; stroke: #d62728"/>
     <use xlink:href="#md49f034510" x="602.473575" y="98.508813" style="fill: #d62728; stroke: #d62728"/>
     <use xlink:href="#md49f034510" x="622.636364" y="74.600189" style="fill: #d62728; stroke: #d62728"/>
    </g>
   </g>
   <g id="line2d_39">
    <path d="M -1 254.937078 
L 115.363636 254.914466 
L 261.998339 226.912328 
L 347.774142 202.664239 
L 408.633042 191.756224 
L 455.838872 165.381503 
L 494.408844 155.244217 
L 527.019291 140.530909 
L 555.267745 127.519516 
L 580.184647 119.336902 
L 602.473575 107.569349 
L 622.636364 86.065328 
" clip-path="url(#pfe8960a6d9)" style="fill: none; stroke: #9467bd; stroke-width: 1.5; stroke-linecap: square"/>
    <defs>
     <path id="m16783a5a32" d="M 0 3 
C 0.795609 3 1.55874 2.683901 2.12132 2.12132 
C 2.683901 1.55874 3 0.795609 3 0 
C 3 -0.795609 2.683901 -1.55874 2.12132 -2.12132 
C 1.55874 -2.683901 0.795609 -3 0 -3 
C -0.795609 -3 -1.55874 -2.683901 -2.12132 -2.12132 
C -2.683901 -1.55874 -3 -0.795609 -3 0 
C -3 0.795609 -2.683901 1.55874 -2.12132 2.12132 
C -1.55874 2.683901 -0.795609 3 0 3 
z
" style="stroke: #9467bd"/>
    </defs>
    <g clip-path="url(#pfe8960a6d9)">
     <use xlink:href="#m16783a5a32" x="-1" y="254.937078" style="fill: #9467bd; stroke: #9467bd"/>
     <use xlink:href="#m16783a5a32" x="115.363636" y="254.914466" style="fill: #9467bd; stroke: #9467bd"/>
     <use xlink:href="#m16783a5a32" x="261.998339" y="226.912328" style="fill: #9467bd; stroke: #9467bd"/>
     <use xlink:href="#m16783a5a32" x="347.774142" y="202.664239" style="fill: #9467bd; stroke: #9467bd"/>
     <use xlink:href="#m16783a5a32" x="408.633042" y="191.756224" style="fill: #9467bd; stroke: #9467bd"/>
     <use xlink:href="#m16783a5a32" x="455.838872" y="165.381503" style="fill: #9467bd; stroke: #9467bd"/>
     <use xlink:href="#m16783a5a32" x="494.408844" y="155.244217" style="fill: #9467bd; stroke: #9467bd"/>
     <use xlink:href="#m16783a5a32" x="527.019291" y="140.530909" style="fill: #9467bd; stroke: #9467bd"/>
     <use xlink:href="#m16783a5a32" x="555.267745" y="127.519516" style="fill: #9467bd; stroke: #9467bd"/>
     <use xlink:href="#m16783a5a32" x="580.184647" y="119.336902" style="fill: #9467bd; stroke: #9467bd"/>
     <use xlink:href="#m16783a5a32" x="602.473575" y="107.569349" style="fill: #9467bd; stroke: #9467bd"/>
     <use xlink:href="#m16783a5a32" x="622.636364" y="86.065328" style="fill: #9467bd; stroke: #9467bd"/>
    </g>
   </g>
   <g id="line2d_40">
    <path d="M -1 252.895531 
L 115.363636 252.871956 
L 261.998339 224.29729 
L 347.774142 204.525803 
L 408.633042 183.856123 
L 455.838872 162.920813 
L 494.408844 151.545947 
L 527.019291 133.075672 
L 555.267745 114.604589 
L 580.184647 105.095479 
L 602.473575 91.002147 
L 622.636364 66.96 
" clip-path="url(#pfe8960a6d9)" style="fill: none; stroke: #8c564b; stroke-width: 1.5; stroke-linecap: square"/>
    <defs>
     <path id="m741c65da7c" d="M 0 3 
C 0.795609 3 1.55874 2.683901 2.12132 2.12132 
C 2.683901 1.55874 3 0.795609 3 0 
C 3 -0.795609 2.683901 -1.55874 2.12132 -2.12132 
C 1.55874 -2.683901 0.795609 -3 0 -3 
C -0.795609 -3 -1.55874 -2.683901 -2.12132 -2.12132 
C -2.683901 -1.55874 -3 -0.795609 -3 0 
C -3 0.795609 -2.683901 1.55874 -2.12132 2.12132 
C -1.55874 2.683901 -0.795609 3 0 3 
z
" style="stroke: #8c564b"/>
    </defs>
    <g clip-path="url(#pfe8960a6d9)">
     <use xlink:href="#m741c65da7c" x="-1" y="252.895531" style="fill: #8c564b; stroke: #8c564b"/>
     <use xlink:href="#m741c65da7c" x="115.363636" y="252.871956" style="fill: #8c564b; stroke: #8c564b"/>
     <use xlink:href="#m741c65da7c" x="261.998339" y="224.29729" style="fill: #8c564b; stroke: #8c564b"/>
     <use xlink:href="#m741c65da7c" x="347.774142" y="204.525803" style="fill: #8c564b; stroke: #8c564b"/>
     <use xlink:href="#m741c65da7c" x="408.633042" y="183.856123" style="fill: #8c564b; stroke: #8c564b"/>
     <use xlink:href="#m741c65da7c" x="455.838872" y="162.920813" style="fill: #8c564b; stroke: #8c564b"/>
     <use xlink:href="#m741c65da7c" x="494.408844" y="151.545947" style="fill: #8c564b; stroke: #8c564b"/>
     <use xlink:href="#m741c65da7c" x="527.019291" y="133.075672" style="fill: #8c564b; stroke: #8c564b"/>
     <use xlink:href="#m741c65da7c" x="555.267745" y="114.604589" style="fill: #8c564b; stroke: #8c564b"/>
     <use xlink:href="#m741c65da7c" x="580.184647" y="105.095479" style="fill: #8c564b; stroke: #8c564b"/>
     <use xlink:href="#m741c65da7c" x="602.473575" y="91.002147" style="fill: #8c564b; stroke: #8c564b"/>
     <use xlink:href="#m741c65da7c" x="622.636364" y="66.96" style="fill: #8c564b; stroke: #8c564b"/>
    </g>
   </g>
   <g id="line2d_41">
    <path d="M -1 253.973303 
L 115.363636 253.945732 
L 261.998339 225.295751 
L 347.774142 206.56551 
L 408.633042 186.443199 
L 455.838872 161.158454 
L 494.408844 154.685987 
L 527.019291 127.086688 
L 555.267745 121.102078 
L 580.184647 112.331763 
L 602.473575 99.025887 
L 622.636364 74.981143 
" clip-path="url(#pfe8960a6d9)" style="fill: none; stroke: #e377c2; stroke-width: 1.5; stroke-linecap: square"/>
    <defs>
     <path id="mc799cd4e78" d="M 0 3 
C 0.795609 3 1.55874 2.683901 2.12132 2.12132 
C 2.683901 1.55874 3 0.795609 3 0 
C 3 -0.795609 2.683901 -1.55874 2.12132 -2.12132 
C 1.55874 -2.683901 0.795609 -3 0 -3 
C -0.795609 -3 -1.55874 -2.683901 -2.12132 -2.12132 
C -2.683901 -1.55874 -3 -0.795609 -3 0 
C -3 0.795609 -2.683901 1.55874 -2.12132 2.12132 
C -1.55874 2.683901 -0.795609 3 0 3 
z
" style="stroke: #e377c2"/>
    </defs>
    <g clip-path="url(#pfe8960a6d9)">
     <use xlink:href="#mc799cd4e78" x="-1" y="253.973303" style="fill: #e377c2; stroke: #e377c2"/>
     <use xlink:href="#mc799cd4e78" x="115.363636" y="253.945732" style="fill: #e377c2; stroke: #e377c2"/>
     <use xlink:href="#mc799cd4e78" x="261.998339" y="225.295751" style="fill: #e377c2; stroke: #e377c2"/>
     <use xlink:href="#mc799cd4e78" x="347.774142" y="206.56551" style="fill: #e377c2; stroke: #e377c2"/>
     <use xlink:href="#mc799cd4e78" x="408.633042" y="186.443199" style="fill: #e377c2; stroke: #e377c2"/>
     <use xlink:href="#mc799cd4e78" x="455.838872" y="161.158454" style="fill: #e377c2; stroke: #e377c2"/>
     <use xlink:href="#mc799cd4e78" x="494.408844" y="154.685987" style="fill: #e377c2; stroke: #e377c2"/>
     <use xlink:href="#mc799cd4e78" x="527.019291" y="127.086688" style="fill: #e377c2; stroke: #e377c2"/>
     <use xlink:href="#mc799cd4e78" x="555.267745" y="121.102078" style="fill: #e377c2; stroke: #e377c2"/>
     <use xlink:href="#mc799cd4e78" x="580.184647" y="112.331763" style="fill: #e377c2; stroke: #e377c2"/>
     <use xlink:href="#mc799cd4e78" x="602.473575" y="99.025887" style="fill: #e377c2; stroke: #e377c2"/>
     <use xlink:href="#mc799cd4e78" x="622.636364" y="74.981143" style="fill: #e377c2; stroke: #e377c2"/>
    </g>
   </g>
   <g id="patch_3">
    <path d="M 90 384.48 
L 90 51.84 
" style="fill: none; stroke: #000000; stroke-width: 0.8; stroke-linejoin: miter; stroke-linecap: square"/>
   </g>
   <g id="patch_4">
    <path d="M 648 384.48 
L 648 51.84 
" style="fill: none; stroke: #000000; stroke-width: 0.8; stroke-linejoin: miter; stroke-linecap: square"/>
   </g>
   <g id="patch_5">
    <path d="M 90 384.48 
L 648 384.48 
" style="fill: none; stroke: #000000; stroke-width: 0.8; stroke-linejoin: miter; stroke-linecap: square"/>
   </g>
   <g id="patch_6">
    <path d="M 90 51.84 
L 648 51.84 
" style="fill: none; stroke: #000000; stroke-width: 0.8; stroke-linejoin: miter; stroke-linecap: square"/>
   </g>
   <g id="text_11">
    <!-- Case 1: Varying MPI size -->
    <g transform="translate(296.039062 45.84) scale(0.12 -0.12)">
     <defs>
      <path id="DejaVuSans-43" d="M 4122 4306 
L 4122 3641 
Q 3803 3938 3442 4084 
Q 3081 4231 2675 4231 
Q 1875 4231 1450 3742 
Q 1025 3253 1025 2328 
Q 1025 1406 1450 917 
Q 1875 428 2675 428 
Q 3081 428 3442 575 
Q 3803 722 4122 1019 
L 4122 359 
Q 3791 134 3420 21 
Q 3050 -91 2638 -91 
Q 1578 -91 968 557 
Q 359 1206 359 2328 
Q 359 3453 968 4101 
Q 1578 4750 2638 4750 
Q 3056 4750 3426 4639 
Q 3797 4528 4122 4306 
z
" transform="scale(0.015625)"/>
      <path id="DejaVuSans-61" d="M 2194 1759 
Q 1497 1759 1228 1600 
Q 959 1441 959 1056 
Q 959 750 1161 570 
Q 1363 391 1709 391 
Q 2188 391 2477 730 
Q 2766 1069 2766 1631 
L 2766 1759 
L 2194 1759 
z
M 3341 1997 
L 3341 0 
L 2766 0 
L 2766 531 
Q 2569 213 2275 61 
Q 1981 -91 1556 -91 
Q 1019 -91 701 211 
Q 384 513 384 1019 
Q 384 1609 779 1909 
Q 1175 2209 1959 2209 
L 2766 2209 
L 2766 2266 
Q 2766 2663 2505 2880 
Q 2244 3097 1772 3097 
Q 1472 3097 1187 3025 
Q 903 2953 641 2809 
L 641 3341 
Q 956 3463 1253 3523 
Q 1550 3584 1831 3584 
Q 2591 3584 2966 3190 
Q 3341 2797 3341 1997 
z
" transform="scale(0.015625)"/>
      <path id="DejaVuSans-3a" d="M 750 794 
L 1409 794 
L 1409 0 
L 750 0 
L 750 794 
z
M 750 3309 
L 1409 3309 
L 1409 2516 
L 750 2516 
L 750 3309 
z
" transform="scale(0.015625)"/>
      <path id="DejaVuSans-56" d="M 1831 0 
L 50 4666 
L 709 4666 
L 2188 738 
L 3669 4666 
L 4325 4666 
L 2547 0 
L 1831 0 
z
" transform="scale(0.015625)"/>
      <path id="DejaVuSans-72" d="M 2631 2963 
Q 2534 3019 2420 3045 
Q 2306 3072 2169 3072 
Q 1681 3072 1420 2755 
Q 1159 2438 1159 1844 
L 1159 0 
L 581 0 
L 581 3500 
L 1159 3500 
L 1159 2956 
Q 1341 3275 1631 3429 
Q 1922 3584 2338 3584 
Q 2397 3584 2469 3576 
Q 2541 3569 2628 3553 
L 2631 2963 
z
" transform="scale(0.015625)"/>
      <path id="DejaVuSans-79" d="M 2059 -325 
Q 1816 -950 1584 -1140 
Q 1353 -1331 966 -1331 
L 506 -1331 
L 506 -850 
L 844 -850 
Q 1081 -850 1212 -737 
Q 1344 -625 1503 -206 
L 1606 56 
L 191 3500 
L 800 3500 
L 1894 763 
L 2988 3500 
L 3597 3500 
L 2059 -325 
z
" transform="scale(0.015625)"/>
      <path id="DejaVuSans-6e" d="M 3513 2113 
L 3513 0 
L 2938 0 
L 2938 2094 
Q 2938 2591 2744 2837 
Q 2550 3084 2163 3084 
Q 1697 3084 1428 2787 
Q 1159 2491 1159 1978 
L 1159 0 
L 581 0 
L 581 3500 
L 1159 3500 
L 1159 2956 
Q 1366 3272 1645 3428 
Q 1925 3584 2291 3584 
Q 2894 3584 3203 3211 
Q 3513 2838 3513 2113 
z
" transform="scale(0.015625)"/>
      <path id="DejaVuSans-67" d="M 2906 1791 
Q 2906 2416 2648 2759 
Q 2391 3103 1925 3103 
Q 1463 3103 1205 2759 
Q 947 2416 947 1791 
Q 947 1169 1205 825 
Q 1463 481 1925 481 
Q 2391 481 2648 825 
Q 2906 1169 2906 1791 
z
M 3481 434 
Q 3481 -459 3084 -895 
Q 2688 -1331 1869 -1331 
Q 1566 -1331 1297 -1286 
Q 1028 -1241 775 -1147 
L 775 -588 
Q 1028 -725 1275 -790 
Q 1522 -856 1778 -856 
Q 2344 -856 2625 -561 
Q 2906 -266 2906 331 
L 2906 616 
Q 2728 306 2450 153 
Q 2172 0 1784 0 
Q 1141 0 747 490 
Q 353 981 353 1791 
Q 353 2603 747 3093 
Q 1141 3584 1784 3584 
Q 2172 3584 2450 3431 
Q 2728 3278 2906 2969 
L 2906 3500 
L 3481 3500 
L 3481 434 
z
" transform="scale(0.015625)"/>
     </defs>
     <use xlink:href="#DejaVuSans-43"/>
     <use xlink:href="#DejaVuSans-61" transform="translate(69.824219 0)"/>
     <use xlink:href="#DejaVuSans-73" transform="translate(131.103516 0)"/>
     <use xlink:href="#DejaVuSans-65" transform="translate(183.203125 0)"/>
     <use xlink:href="#DejaVuSans-20" transform="translate(244.726562 0)"/>
     <use xlink:href="#DejaVuSans-31" transform="translate(276.513672 0)"/>
     <use xlink:href="#DejaVuSans-3a" transform="translate(340.136719 0)"/>
     <use xlink:href="#DejaVuSans-20" transform="translate(373.828125 0)"/>
     <use xlink:href="#DejaVuSans-56" transform="translate(405.615234 0)"/>
     <use xlink:href="#DejaVuSans-61" transform="translate(466.273438 0)"/>
     <use xlink:href="#DejaVuSans-72" transform="translate(527.552734 0)"/>
     <use xlink:href="#DejaVuSans-79" transform="translate(568.666016 0)"/>
     <use xlink:href="#DejaVuSans-69" transform="translate(627.845703 0)"/>
     <use xlink:href="#DejaVuSans-6e" transform="translate(655.628906 0)"/>
     <use xlink:href="#DejaVuSans-67" transform="translate(719.007812 0)"/>
     <use xlink:href="#DejaVuSans-20" transform="translate(782.484375 0)"/>
     <use xlink:href="#DejaVuSans-4d" transform="translate(814.271484 0)"/>
     <use xlink:href="#DejaVuSans-50" transform="translate(900.550781 0)"/>
     <use xlink:href="#DejaVuSans-49" transform="translate(960.853516 0)"/>
     <use xlink:href="#DejaVuSans-20" transform="translate(990.345703 0)"/>
     <use xlink:href="#DejaVuSans-73" transform="translate(1022.132812 0)"/>
     <use xlink:href="#DejaVuSans-69" transform="translate(1074.232422 0)"/>
     <use xlink:href="#DejaVuSans-7a" transform="translate(1102.015625 0)"/>
     <use xlink:href="#DejaVuSans-65" transform="translate(1154.505859 0)"/>
    </g>
   </g>
   <g id="legend_1">
    <g id="patch_7">
     <path d="M 97 164.53375 
L 348.7375 164.53375 
Q 350.7375 164.53375 350.7375 162.53375 
L 350.7375 58.84 
Q 350.7375 56.84 348.7375 56.84 
L 97 56.84 
Q 95 56.84 95 58.84 
L 95 162.53375 
Q 95 164.53375 97 164.53375 
z
" style="fill: #ffffff; opacity: 0.8; stroke: #cccccc; stroke-linejoin: miter"/>
    </g>
    <g id="line2d_42">
     <path d="M 99 64.938437 
L 109 64.938437 
L 119 64.938437 
" style="fill: none; stroke: #1f77b4; stroke-width: 1.5; stroke-linecap: square"/>
     <g>
      <use xlink:href="#m39cae5b86f" x="109" y="64.938437" style="fill: #1f77b4; stroke: #1f77b4"/>
     </g>
    </g>
    <g id="text_12">
     <!-- excluive_pipelined_binary_tree_scan -->
     <g transform="translate(127 68.438437) scale(0.1 -0.1)">
      <defs>
       <path id="DejaVuSans-78" d="M 3513 3500 
L 2247 1797 
L 3578 0 
L 2900 0 
L 1881 1375 
L 863 0 
L 184 0 
L 1544 1831 
L 300 3500 
L 978 3500 
L 1906 2253 
L 2834 3500 
L 3513 3500 
z
" transform="scale(0.015625)"/>
       <path id="DejaVuSans-63" d="M 3122 3366 
L 3122 2828 
Q 2878 2963 2633 3030 
Q 2388 3097 2138 3097 
Q 1578 3097 1268 2742 
Q 959 2388 959 1747 
Q 959 1106 1268 751 
Q 1578 397 2138 397 
Q 2388 397 2633 464 
Q 2878 531 3122 666 
L 3122 134 
Q 2881 22 2623 -34 
Q 2366 -91 2075 -91 
Q 1284 -91 818 406 
Q 353 903 353 1747 
Q 353 2603 823 3093 
Q 1294 3584 2113 3584 
Q 2378 3584 2631 3529 
Q 2884 3475 3122 3366 
z
" transform="scale(0.015625)"/>
       <path id="DejaVuSans-6c" d="M 603 4863 
L 1178 4863 
L 1178 0 
L 603 0 
L 603 4863 
z
" transform="scale(0.015625)"/>
       <path id="DejaVuSans-75" d="M 544 1381 
L 544 3500 
L 1119 3500 
L 1119 1403 
Q 1119 906 1312 657 
Q 1506 409 1894 409 
Q 2359 409 2629 706 
Q 2900 1003 2900 1516 
L 2900 3500 
L 3475 3500 
L 3475 0 
L 2900 0 
L 2900 538 
Q 2691 219 2414 64 
Q 2138 -91 1772 -91 
Q 1169 -91 856 284 
Q 544 659 544 1381 
z
M 1991 3584 
L 1991 3584 
z
" transform="scale(0.015625)"/>
       <path id="DejaVuSans-76" d="M 191 3500 
L 800 3500 
L 1894 563 
L 2988 3500 
L 3597 3500 
L 2284 0 
L 1503 0 
L 191 3500 
z
" transform="scale(0.015625)"/>
       <path id="DejaVuSans-5f" d="M 3263 -1063 
L 3263 -1509 
L -63 -1509 
L -63 -1063 
L 3263 -1063 
z
" transform="scale(0.015625)"/>
       <path id="DejaVuSans-70" d="M 1159 525 
L 1159 -1331 
L 581 -1331 
L 581 3500 
L 1159 3500 
L 1159 2969 
Q 1341 3281 1617 3432 
Q 1894 3584 2278 3584 
Q 2916 3584 3314 3078 
Q 3713 2572 3713 1747 
Q 3713 922 3314 415 
Q 2916 -91 2278 -91 
Q 1894 -91 1617 61 
Q 1341 213 1159 525 
z
M 3116 1747 
Q 3116 2381 2855 2742 
Q 2594 3103 2138 3103 
Q 1681 3103 1420 2742 
Q 1159 2381 1159 1747 
Q 1159 1113 1420 752 
Q 1681 391 2138 391 
Q 2594 391 2855 752 
Q 3116 1113 3116 1747 
z
" transform="scale(0.015625)"/>
       <path id="DejaVuSans-64" d="M 2906 2969 
L 2906 4863 
L 3481 4863 
L 3481 0 
L 2906 0 
L 2906 525 
Q 2725 213 2448 61 
Q 2172 -91 1784 -91 
Q 1150 -91 751 415 
Q 353 922 353 1747 
Q 353 2572 751 3078 
Q 1150 3584 1784 3584 
Q 2172 3584 2448 3432 
Q 2725 3281 2906 2969 
z
M 947 1747 
Q 947 1113 1208 752 
Q 1469 391 1925 391 
Q 2381 391 2643 752 
Q 2906 1113 2906 1747 
Q 2906 2381 2643 2742 
Q 2381 3103 1925 3103 
Q 1469 3103 1208 2742 
Q 947 2381 947 1747 
z
" transform="scale(0.015625)"/>
       <path id="DejaVuSans-62" d="M 3116 1747 
Q 3116 2381 2855 2742 
Q 2594 3103 2138 3103 
Q 1681 3103 1420 2742 
Q 1159 2381 1159 1747 
Q 1159 1113 1420 752 
Q 1681 391 2138 391 
Q 2594 391 2855 752 
Q 3116 1113 3116 1747 
z
M 1159 2969 
Q 1341 3281 1617 3432 
Q 1894 3584 2278 3584 
Q 2916 3584 3314 3078 
Q 3713 2572 3713 1747 
Q 3713 922 3314 415 
Q 2916 -91 2278 -91 
Q 1894 -91 1617 61 
Q 1341 213 1159 525 
L 1159 0 
L 581 0 
L 581 4863 
L 1159 4863 
L 1159 2969 
z
" transform="scale(0.015625)"/>
       <path id="DejaVuSans-74" d="M 1172 4494 
L 1172 3500 
L 2356 3500 
L 2356 3053 
L 1172 3053 
L 1172 1153 
Q 1172 725 1289 603 
Q 1406 481 1766 481 
L 2356 481 
L 2356 0 
L 1766 0 
Q 1100 0 847 248 
Q 594 497 594 1153 
L 594 3053 
L 172 3053 
L 172 3500 
L 594 3500 
L 594 4494 
L 1172 4494 
z
" transform="scale(0.015625)"/>
      </defs>
      <use xlink:href="#DejaVuSans-65"/>
      <use xlink:href="#DejaVuSans-78" transform="translate(59.773438 0)"/>
      <use xlink:href="#DejaVuSans-63" transform="translate(117.203125 0)"/>
      <use xlink:href="#DejaVuSans-6c" transform="translate(172.183594 0)"/>
      <use xlink:href="#DejaVuSans-75" transform="translate(199.966797 0)"/>
      <use xlink:href="#DejaVuSans-69" transform="translate(263.345703 0)"/>
      <use xlink:href="#DejaVuSans-76" transform="translate(291.128906 0)"/>
      <use xlink:href="#DejaVuSans-65" transform="translate(350.308594 0)"/>
      <use xlink:href="#DejaVuSans-5f" transform="translate(411.832031 0)"/>
      <use xlink:href="#DejaVuSans-70" transform="translate(461.832031 0)"/>
      <use xlink:href="#DejaVuSans-69" transform="translate(525.308594 0)"/>
      <use xlink:href="#DejaVuSans-70" transform="translate(553.091797 0)"/>
      <use xlink:href="#DejaVuSans-65" transform="translate(616.568359 0)"/>
      <use xlink:href="#DejaVuSans-6c" transform="translate(678.091797 0)"/>
      <use xlink:href="#DejaVuSans-69" transform="translate(705.875 0)"/>
      <use xlink:href="#DejaVuSans-6e" transform="translate(733.658203 0)"/>
      <use xlink:href="#DejaVuSans-65" transform="translate(797.037109 0)"/>
      <use xlink:href="#DejaVuSans-64" transform="translate(858.560547 0)"/>
      <use xlink:href="#DejaVuSans-5f" transform="translate(922.037109 0)"/>
      <use xlink:href="#DejaVuSans-62" transform="translate(972.037109 0)"/>
      <use xlink:href="#DejaVuSans-69" transform="translate(1035.513672 0)"/>
      <use xlink:href="#DejaVuSans-6e" transform="translate(1063.296875 0)"/>
      <use xlink:href="#DejaVuSans-61" transform="translate(1126.675781 0)"/>
      <use xlink:href="#DejaVuSans-72" transform="translate(1187.955078 0)"/>
      <use xlink:href="#DejaVuSans-79" transform="translate(1229.068359 0)"/>
      <use xlink:href="#DejaVuSans-5f" transform="translate(1288.248047 0)"/>
      <use xlink:href="#DejaVuSans-74" transform="translate(1338.248047 0)"/>
      <use xlink:href="#DejaVuSans-72" transform="translate(1377.457031 0)"/>
      <use xlink:href="#DejaVuSans-65" transform="translate(1416.320312 0)"/>
      <use xlink:href="#DejaVuSans-65" transform="translate(1477.84375 0)"/>
      <use xlink:href="#DejaVuSans-5f" transform="translate(1539.367188 0)"/>
      <use xlink:href="#DejaVuSans-73" transform="translate(1589.367188 0)"/>
      <use xlink:href="#DejaVuSans-63" transform="translate(1641.466797 0)"/>
      <use xlink:href="#DejaVuSans-61" transform="translate(1696.447266 0)"/>
      <use xlink:href="#DejaVuSans-6e" transform="translate(1757.726562 0)"/>
     </g>
    </g>
    <g id="line2d_43">
     <path d="M 99 79.894687 
L 109 79.894687 
L 119 79.894687 
" style="fill: none; stroke: #ff7f0e; stroke-width: 1.5; stroke-linecap: square"/>
     <g>
      <use xlink:href="#mf8deb80f9a" x="109" y="79.894687" style="fill: #ff7f0e; stroke: #ff7f0e"/>
     </g>
    </g>
    <g id="text_13">
     <!-- exclusive_LLN -->
     <g transform="translate(127 83.394687) scale(0.1 -0.1)">
      <defs>
       <path id="DejaVuSans-4c" d="M 628 4666 
L 1259 4666 
L 1259 531 
L 3531 531 
L 3531 0 
L 628 0 
L 628 4666 
z
" transform="scale(0.015625)"/>
       <path id="DejaVuSans-4e" d="M 628 4666 
L 1478 4666 
L 3547 763 
L 3547 4666 
L 4159 4666 
L 4159 0 
L 3309 0 
L 1241 3903 
L 1241 0 
L 628 0 
L 628 4666 
z
" transform="scale(0.015625)"/>
      </defs>
      <use xlink:href="#DejaVuSans-65"/>
      <use xlink:href="#DejaVuSans-78" transform="translate(59.773438 0)"/>
      <use xlink:href="#DejaVuSans-63" transform="translate(117.203125 0)"/>
      <use xlink:href="#DejaVuSans-6c" transform="translate(172.183594 0)"/>
      <use xlink:href="#DejaVuSans-75" transform="translate(199.966797 0)"/>
      <use xlink:href="#DejaVuSans-73" transform="translate(263.345703 0)"/>
      <use xlink:href="#DejaVuSans-69" transform="translate(315.445312 0)"/>
      <use xlink:href="#DejaVuSans-76" transform="translate(343.228516 0)"/>
      <use xlink:href="#DejaVuSans-65" transform="translate(402.408203 0)"/>
      <use xlink:href="#DejaVuSans-5f" transform="translate(463.931641 0)"/>
      <use xlink:href="#DejaVuSans-4c" transform="translate(513.931641 0)"/>
      <use xlink:href="#DejaVuSans-4c" transform="translate(569.644531 0)"/>
      <use xlink:href="#DejaVuSans-4e" transform="translate(625.357422 0)"/>
     </g>
    </g>
    <g id="line2d_44">
     <path d="M 99 94.850937 
L 109 94.850937 
L 119 94.850937 
" style="fill: none; stroke: #2ca02c; stroke-width: 1.5; stroke-linecap: square"/>
     <g>
      <use xlink:href="#me6c05c8026" x="109" y="94.850937" style="fill: #2ca02c; stroke: #2ca02c"/>
     </g>
    </g>
    <g id="text_14">
     <!-- MPI_exscan -->
     <g transform="translate(127 98.350937) scale(0.1 -0.1)">
      <use xlink:href="#DejaVuSans-4d"/>
      <use xlink:href="#DejaVuSans-50" transform="translate(86.279297 0)"/>
      <use xlink:href="#DejaVuSans-49" transform="translate(146.582031 0)"/>
      <use xlink:href="#DejaVuSans-5f" transform="translate(176.074219 0)"/>
      <use xlink:href="#DejaVuSans-65" transform="translate(226.074219 0)"/>
      <use xlink:href="#DejaVuSans-78" transform="translate(285.847656 0)"/>
      <use xlink:href="#DejaVuSans-73" transform="translate(345.027344 0)"/>
      <use xlink:href="#DejaVuSans-63" transform="translate(397.126953 0)"/>
      <use xlink:href="#DejaVuSans-61" transform="translate(452.107422 0)"/>
      <use xlink:href="#DejaVuSans-6e" transform="translate(513.386719 0)"/>
     </g>
    </g>
    <g id="line2d_45">
     <path d="M 99 109.807187 
L 109 109.807187 
L 119 109.807187 
" style="fill: none; stroke: #d62728; stroke-width: 1.5; stroke-linecap: square"/>
     <g>
      <use xlink:href="#md49f034510" x="109" y="109.807187" style="fill: #d62728; stroke: #d62728"/>
     </g>
    </g>
    <g id="text_15">
     <!-- exclusive_simultaneous_binomial_tree_scan -->
     <g transform="translate(127 113.307187) scale(0.1 -0.1)">
      <defs>
       <path id="DejaVuSans-6f" d="M 1959 3097 
Q 1497 3097 1228 2736 
Q 959 2375 959 1747 
Q 959 1119 1226 758 
Q 1494 397 1959 397 
Q 2419 397 2687 759 
Q 2956 1122 2956 1747 
Q 2956 2369 2687 2733 
Q 2419 3097 1959 3097 
z
M 1959 3584 
Q 2709 3584 3137 3096 
Q 3566 2609 3566 1747 
Q 3566 888 3137 398 
Q 2709 -91 1959 -91 
Q 1206 -91 779 398 
Q 353 888 353 1747 
Q 353 2609 779 3096 
Q 1206 3584 1959 3584 
z
" transform="scale(0.015625)"/>
      </defs>
      <use xlink:href="#DejaVuSans-65"/>
      <use xlink:href="#DejaVuSans-78" transform="translate(59.773438 0)"/>
      <use xlink:href="#DejaVuSans-63" transform="translate(117.203125 0)"/>
      <use xlink:href="#DejaVuSans-6c" transform="translate(172.183594 0)"/>
      <use xlink:href="#DejaVuSans-75" transform="translate(199.966797 0)"/>
      <use xlink:href="#DejaVuSans-73" transform="translate(263.345703 0)"/>
      <use xlink:href="#DejaVuSans-69" transform="translate(315.445312 0)"/>
      <use xlink:href="#DejaVuSans-76" transform="translate(343.228516 0)"/>
      <use xlink:href="#DejaVuSans-65" transform="translate(402.408203 0)"/>
      <use xlink:href="#DejaVuSans-5f" transform="translate(463.931641 0)"/>
      <use xlink:href="#DejaVuSans-73" transform="translate(513.931641 0)"/>
      <use xlink:href="#DejaVuSans-69" transform="translate(566.03125 0)"/>
      <use xlink:href="#DejaVuSans-6d" transform="translate(593.814453 0)"/>
      <use xlink:href="#DejaVuSans-75" transform="translate(691.226562 0)"/>
      <use xlink:href="#DejaVuSans-6c" transform="translate(754.605469 0)"/>
      <use xlink:href="#DejaVuSans-74" transform="translate(782.388672 0)"/>
      <use xlink:href="#DejaVuSans-61" transform="translate(821.597656 0)"/>
      <use xlink:href="#DejaVuSans-6e" transform="translate(882.876953 0)"/>
      <use xlink:href="#DejaVuSans-65" transform="translate(946.255859 0)"/>
      <use xlink:href="#DejaVuSans-6f" transform="translate(1007.779297 0)"/>
      <use xlink:href="#DejaVuSans-75" transform="translate(1068.960938 0)"/>
      <use xlink:href="#DejaVuSans-73" transform="translate(1132.339844 0)"/>
      <use xlink:href="#DejaVuSans-5f" transform="translate(1184.439453 0)"/>
      <use xlink:href="#DejaVuSans-62" transform="translate(1234.439453 0)"/>
      <use xlink:href="#DejaVuSans-69" transform="translate(1297.916016 0)"/>
      <use xlink:href="#DejaVuSans-6e" transform="translate(1325.699219 0)"/>
      <use xlink:href="#DejaVuSans-6f" transform="translate(1389.078125 0)"/>
      <use xlink:href="#DejaVuSans-6d" transform="translate(1450.259766 0)"/>
      <use xlink:href="#DejaVuSans-69" transform="translate(1547.671875 0)"/>
      <use xlink:href="#DejaVuSans-61" transform="translate(1575.455078 0)"/>
      <use xlink:href="#DejaVuSans-6c" transform="translate(1636.734375 0)"/>
      <use xlink:href="#DejaVuSans-5f" transform="translate(1664.517578 0)"/>
      <use xlink:href="#DejaVuSans-74" transform="translate(1714.517578 0)"/>
      <use xlink:href="#DejaVuSans-72" transform="translate(1753.726562 0)"/>
      <use xlink:href="#DejaVuSans-65" transform="translate(1792.589844 0)"/>
      <use xlink:href="#DejaVuSans-65" transform="translate(1854.113281 0)"/>
      <use xlink:href="#DejaVuSans-5f" transform="translate(1915.636719 0)"/>
      <use xlink:href="#DejaVuSans-73" transform="translate(1965.636719 0)"/>
      <use xlink:href="#DejaVuSans-63" transform="translate(2017.736328 0)"/>
      <use xlink:href="#DejaVuSans-61" transform="translate(2072.716797 0)"/>
      <use xlink:href="#DejaVuSans-6e" transform="translate(2133.996094 0)"/>
     </g>
    </g>
    <g id="line2d_46">
     <path d="M 99 124.763437 
L 109 124.763437 
L 119 124.763437 
" style="fill: none; stroke: #9467bd; stroke-width: 1.5; stroke-linecap: square"/>
     <g>
      <use xlink:href="#m16783a5a32" x="109" y="124.763437" style="fill: #9467bd; stroke: #9467bd"/>
     </g>
    </g>
    <g id="text_16">
     <!-- binomial_tree_exclusive_scan -->
     <g transform="translate(127 128.263437) scale(0.1 -0.1)">
      <use xlink:href="#DejaVuSans-62"/>
      <use xlink:href="#DejaVuSans-69" transform="translate(63.476562 0)"/>
      <use xlink:href="#DejaVuSans-6e" transform="translate(91.259766 0)"/>
      <use xlink:href="#DejaVuSans-6f" transform="translate(154.638672 0)"/>
      <use xlink:href="#DejaVuSans-6d" transform="translate(215.820312 0)"/>
      <use xlink:href="#DejaVuSans-69" transform="translate(313.232422 0)"/>
      <use xlink:href="#DejaVuSans-61" transform="translate(341.015625 0)"/>
      <use xlink:href="#DejaVuSans-6c" transform="translate(402.294922 0)"/>
      <use xlink:href="#DejaVuSans-5f" transform="translate(430.078125 0)"/>
      <use xlink:href="#DejaVuSans-74" transform="translate(480.078125 0)"/>
      <use xlink:href="#DejaVuSans-72" transform="translate(519.287109 0)"/>
      <use xlink:href="#DejaVuSans-65" transform="translate(558.150391 0)"/>
      <use xlink:href="#DejaVuSans-65" transform="translate(619.673828 0)"/>
      <use xlink:href="#DejaVuSans-5f" transform="translate(681.197266 0)"/>
      <use xlink:href="#DejaVuSans-65" transform="translate(731.197266 0)"/>
      <use xlink:href="#DejaVuSans-78" transform="translate(790.970703 0)"/>
      <use xlink:href="#DejaVuSans-63" transform="translate(848.400391 0)"/>
      <use xlink:href="#DejaVuSans-6c" transform="translate(903.380859 0)"/>
      <use xlink:href="#DejaVuSans-75" transform="translate(931.164062 0)"/>
      <use xlink:href="#DejaVuSans-73" transform="translate(994.542969 0)"/>
      <use xlink:href="#DejaVuSans-69" transform="translate(1046.642578 0)"/>
      <use xlink:href="#DejaVuSans-76" transform="translate(1074.425781 0)"/>
      <use xlink:href="#DejaVuSans-65" transform="translate(1133.605469 0)"/>
      <use xlink:href="#DejaVuSans-5f" transform="translate(1195.128906 0)"/>
      <use xlink:href="#DejaVuSans-73" transform="translate(1245.128906 0)"/>
      <use xlink:href="#DejaVuSans-63" transform="translate(1297.228516 0)"/>
      <use xlink:href="#DejaVuSans-61" transform="translate(1352.208984 0)"/>
      <use xlink:href="#DejaVuSans-6e" transform="translate(1413.488281 0)"/>
     </g>
    </g>
    <g id="line2d_47">
     <path d="M 99 139.719687 
L 109 139.719687 
L 119 139.719687 
" style="fill: none; stroke: #8c564b; stroke-width: 1.5; stroke-linecap: square"/>
     <g>
      <use xlink:href="#m741c65da7c" x="109" y="139.719687" style="fill: #8c564b; stroke: #8c564b"/>
     </g>
    </g>
    <g id="text_17">
     <!-- Hypercube_Scan_exclusive -->
     <g transform="translate(127 143.219687) scale(0.1 -0.1)">
      <defs>
       <path id="DejaVuSans-48" d="M 628 4666 
L 1259 4666 
L 1259 2753 
L 3553 2753 
L 3553 4666 
L 4184 4666 
L 4184 0 
L 3553 0 
L 3553 2222 
L 1259 2222 
L 1259 0 
L 628 0 
L 628 4666 
z
" transform="scale(0.015625)"/>
       <path id="DejaVuSans-53" d="M 3425 4513 
L 3425 3897 
Q 3066 4069 2747 4153 
Q 2428 4238 2131 4238 
Q 1616 4238 1336 4038 
Q 1056 3838 1056 3469 
Q 1056 3159 1242 3001 
Q 1428 2844 1947 2747 
L 2328 2669 
Q 3034 2534 3370 2195 
Q 3706 1856 3706 1288 
Q 3706 609 3251 259 
Q 2797 -91 1919 -91 
Q 1588 -91 1214 -16 
Q 841 59 441 206 
L 441 856 
Q 825 641 1194 531 
Q 1563 422 1919 422 
Q 2459 422 2753 634 
Q 3047 847 3047 1241 
Q 3047 1584 2836 1778 
Q 2625 1972 2144 2069 
L 1759 2144 
Q 1053 2284 737 2584 
Q 422 2884 422 3419 
Q 422 4038 858 4394 
Q 1294 4750 2059 4750 
Q 2388 4750 2728 4690 
Q 3069 4631 3425 4513 
z
" transform="scale(0.015625)"/>
      </defs>
      <use xlink:href="#DejaVuSans-48"/>
      <use xlink:href="#DejaVuSans-79" transform="translate(75.195312 0)"/>
      <use xlink:href="#DejaVuSans-70" transform="translate(134.375 0)"/>
      <use xlink:href="#DejaVuSans-65" transform="translate(197.851562 0)"/>
      <use xlink:href="#DejaVuSans-72" transform="translate(259.375 0)"/>
      <use xlink:href="#DejaVuSans-63" transform="translate(298.238281 0)"/>
      <use xlink:href="#DejaVuSans-75" transform="translate(353.21875 0)"/>
      <use xlink:href="#DejaVuSans-62" transform="translate(416.597656 0)"/>
      <use xlink:href="#DejaVuSans-65" transform="translate(480.074219 0)"/>
      <use xlink:href="#DejaVuSans-5f" transform="translate(541.597656 0)"/>
      <use xlink:href="#DejaVuSans-53" transform="translate(591.597656 0)"/>
      <use xlink:href="#DejaVuSans-63" transform="translate(655.074219 0)"/>
      <use xlink:href="#DejaVuSans-61" transform="translate(710.054688 0)"/>
      <use xlink:href="#DejaVuSans-6e" transform="translate(771.333984 0)"/>
      <use xlink:href="#DejaVuSans-5f" transform="translate(834.712891 0)"/>
      <use xlink:href="#DejaVuSans-65" transform="translate(884.712891 0)"/>
      <use xlink:href="#DejaVuSans-78" transform="translate(944.486328 0)"/>
      <use xlink:href="#DejaVuSans-63" transform="translate(1001.916016 0)"/>
      <use xlink:href="#DejaVuSans-6c" transform="translate(1056.896484 0)"/>
      <use xlink:href="#DejaVuSans-75" transform="translate(1084.679688 0)"/>
      <use xlink:href="#DejaVuSans-73" transform="translate(1148.058594 0)"/>
      <use xlink:href="#DejaVuSans-69" transform="translate(1200.158203 0)"/>
      <use xlink:href="#DejaVuSans-76" transform="translate(1227.941406 0)"/>
      <use xlink:href="#DejaVuSans-65" transform="translate(1287.121094 0)"/>
     </g>
    </g>
    <g id="line2d_48">
     <path d="M 99 154.675937 
L 109 154.675937 
L 119 154.675937 
" style="fill: none; stroke: #e377c2; stroke-width: 1.5; stroke-linecap: square"/>
     <g>
      <use xlink:href="#mc799cd4e78" x="109" y="154.675937" style="fill: #e377c2; stroke: #e377c2"/>
     </g>
    </g>
    <g id="text_18">
     <!-- ex_linear_scan -->
     <g transform="translate(127 158.175937) scale(0.1 -0.1)">
      <use xlink:href="#DejaVuSans-65"/>
      <use xlink:href="#DejaVuSans-78" transform="translate(59.773438 0)"/>
      <use xlink:href="#DejaVuSans-5f" transform="translate(118.953125 0)"/>
      <use xlink:href="#DejaVuSans-6c" transform="translate(168.953125 0)"/>
      <use xlink:href="#DejaVuSans-69" transform="translate(196.736328 0)"/>
      <use xlink:href="#DejaVuSans-6e" transform="translate(224.519531 0)"/>
      <use xlink:href="#DejaVuSans-65" transform="translate(287.898438 0)"/>
      <use xlink:href="#DejaVuSans-61" transform="translate(349.421875 0)"/>
      <use xlink:href="#DejaVuSans-72" transform="translate(410.701172 0)"/>
      <use xlink:href="#DejaVuSans-5f" transform="translate(451.814453 0)"/>
      <use xlink:href="#DejaVuSans-73" transform="translate(501.814453 0)"/>
      <use xlink:href="#DejaVuSans-63" transform="translate(553.914062 0)"/>
      <use xlink:href="#DejaVuSans-61" transform="translate(608.894531 0)"/>
      <use xlink:href="#DejaVuSans-6e" transform="translate(670.173828 0)"/>
     </g>
    </g>
   </g>
  </g>
 </g>
 <defs>
  <clipPath id="pfe8960a6d9">
   <rect x="90" y="51.84" width="558" height="332.64"/>
  </clipPath>
 </defs>
</svg>
