<?xml version="1.0" encoding="utf-8" standalone="no"?>
<!DOCTYPE svg PUBLIC "-//W3C//DTD SVG 1.1//EN"
  "http://www.w3.org/Graphics/SVG/1.1/DTD/svg11.dtd">
<!-- Created with matplotlib (https://matplotlib.org/) -->
<svg height="432pt" version="1.1" viewBox="0 0 720 432" width="720pt" xmlns="http://www.w3.org/2000/svg" xmlns:xlink="http://www.w3.org/1999/xlink">
 <metadata>
  <rdf:RDF xmlns:cc="http://creativecommons.org/ns#" xmlns:dc="http://purl.org/dc/elements/1.1/" xmlns:rdf="http://www.w3.org/1999/02/22-rdf-syntax-ns#">
   <cc:Work>
    <dc:type rdf:resource="http://purl.org/dc/dcmitype/StillImage"/>
    <dc:date>2025-07-28T16:47:57.994442</dc:date>
    <dc:format>image/svg+xml</dc:format>
    <dc:creator>
     <cc:Agent>
      <dc:title>Matplotlib v3.3.4, https://matplotlib.org/</dc:title>
     </cc:Agent>
    </dc:creator>
   </cc:Work>
  </rdf:RDF>
 </metadata>
 <defs>
  <style type="text/css">*{stroke-linecap:butt;stroke-linejoin:round;}</style>
 </defs>
 <g id="figure_1">
  <g id="patch_1">
   <path d="M 0 432 
L 720 432 
L 720 0 
L 0 0 
z
" style="fill:#ffffff;"/>
  </g>
  <g id="axes_1">
   <g id="patch_2">
    <path d="M 90 384.48 
L 648 384.48 
L 648 51.84 
L 90 51.84 
z
" style="fill:#ffffff;"/>
   </g>
   <g id="matplotlib.axis_1">
    <g id="xtick_1">
     <g id="line2d_1">
      <defs>
       <path d="M 0 0 
L 0 3.5 
" id="m5b4849f52b" style="stroke:#000000;stroke-width:0.8;"/>
      </defs>
      <g>
       <use style="stroke:#000000;stroke-width:0.8;" x="115.363636" xlink:href="#m5b4849f52b" y="384.48"/>
      </g>
     </g>
     <g id="text_1">
      <!-- 0 -->
      <g transform="translate(112.182386 399.078438)scale(0.1 -0.1)">
       <defs>
        <path d="M 31.78125 66.40625 
Q 24.171875 66.40625 20.328125 58.90625 
Q 16.5 51.421875 16.5 36.375 
Q 16.5 21.390625 20.328125 13.890625 
Q 24.171875 6.390625 31.78125 6.390625 
Q 39.453125 6.390625 43.28125 13.890625 
Q 47.125 21.390625 47.125 36.375 
Q 47.125 51.421875 43.28125 58.90625 
Q 39.453125 66.40625 31.78125 66.40625 
z
M 31.78125 74.21875 
Q 44.046875 74.21875 50.515625 64.515625 
Q 56.984375 54.828125 56.984375 36.375 
Q 56.984375 17.96875 50.515625 8.265625 
Q 44.046875 -1.421875 31.78125 -1.421875 
Q 19.53125 -1.421875 13.0625 8.265625 
Q 6.59375 17.96875 6.59375 36.375 
Q 6.59375 54.828125 13.0625 64.515625 
Q 19.53125 74.21875 31.78125 74.21875 
z
" id="DejaVuSans-48"/>
       </defs>
       <use xlink:href="#DejaVuSans-48"/>
      </g>
     </g>
    </g>
    <g id="xtick_2">
     <g id="line2d_2">
      <g>
       <use style="stroke:#000000;stroke-width:0.8;" x="183" xlink:href="#m5b4849f52b" y="384.48"/>
      </g>
     </g>
     <g id="text_2">
      <!-- 2 -->
      <g transform="translate(179.81875 399.078438)scale(0.1 -0.1)">
       <defs>
        <path d="M 19.1875 8.296875 
L 53.609375 8.296875 
L 53.609375 0 
L 7.328125 0 
L 7.328125 8.296875 
Q 12.9375 14.109375 22.625 23.890625 
Q 32.328125 33.6875 34.8125 36.53125 
Q 39.546875 41.84375 41.421875 45.53125 
Q 43.3125 49.21875 43.3125 52.78125 
Q 43.3125 58.59375 39.234375 62.25 
Q 35.15625 65.921875 28.609375 65.921875 
Q 23.96875 65.921875 18.8125 64.3125 
Q 13.671875 62.703125 7.8125 59.421875 
L 7.8125 69.390625 
Q 13.765625 71.78125 18.9375 73 
Q 24.125 74.21875 28.421875 74.21875 
Q 39.75 74.21875 46.484375 68.546875 
Q 53.21875 62.890625 53.21875 53.421875 
Q 53.21875 48.921875 51.53125 44.890625 
Q 49.859375 40.875 45.40625 35.40625 
Q 44.1875 33.984375 37.640625 27.21875 
Q 31.109375 20.453125 19.1875 8.296875 
z
" id="DejaVuSans-50"/>
       </defs>
       <use xlink:href="#DejaVuSans-50"/>
      </g>
     </g>
    </g>
    <g id="xtick_3">
     <g id="line2d_3">
      <g>
       <use style="stroke:#000000;stroke-width:0.8;" x="250.636364" xlink:href="#m5b4849f52b" y="384.48"/>
      </g>
     </g>
     <g id="text_3">
      <!-- 4 -->
      <g transform="translate(247.455114 399.078438)scale(0.1 -0.1)">
       <defs>
        <path d="M 37.796875 64.3125 
L 12.890625 25.390625 
L 37.796875 25.390625 
z
M 35.203125 72.90625 
L 47.609375 72.90625 
L 47.609375 25.390625 
L 58.015625 25.390625 
L 58.015625 17.1875 
L 47.609375 17.1875 
L 47.609375 0 
L 37.796875 0 
L 37.796875 17.1875 
L 4.890625 17.1875 
L 4.890625 26.703125 
z
" id="DejaVuSans-52"/>
       </defs>
       <use xlink:href="#DejaVuSans-52"/>
      </g>
     </g>
    </g>
    <g id="xtick_4">
     <g id="line2d_4">
      <g>
       <use style="stroke:#000000;stroke-width:0.8;" x="318.272727" xlink:href="#m5b4849f52b" y="384.48"/>
      </g>
     </g>
     <g id="text_4">
      <!-- 6 -->
      <g transform="translate(315.091477 399.078438)scale(0.1 -0.1)">
       <defs>
        <path d="M 33.015625 40.375 
Q 26.375 40.375 22.484375 35.828125 
Q 18.609375 31.296875 18.609375 23.390625 
Q 18.609375 15.53125 22.484375 10.953125 
Q 26.375 6.390625 33.015625 6.390625 
Q 39.65625 6.390625 43.53125 10.953125 
Q 47.40625 15.53125 47.40625 23.390625 
Q 47.40625 31.296875 43.53125 35.828125 
Q 39.65625 40.375 33.015625 40.375 
z
M 52.59375 71.296875 
L 52.59375 62.3125 
Q 48.875 64.0625 45.09375 64.984375 
Q 41.3125 65.921875 37.59375 65.921875 
Q 27.828125 65.921875 22.671875 59.328125 
Q 17.53125 52.734375 16.796875 39.40625 
Q 19.671875 43.65625 24.015625 45.921875 
Q 28.375 48.1875 33.59375 48.1875 
Q 44.578125 48.1875 50.953125 41.515625 
Q 57.328125 34.859375 57.328125 23.390625 
Q 57.328125 12.15625 50.6875 5.359375 
Q 44.046875 -1.421875 33.015625 -1.421875 
Q 20.359375 -1.421875 13.671875 8.265625 
Q 6.984375 17.96875 6.984375 36.375 
Q 6.984375 53.65625 15.1875 63.9375 
Q 23.390625 74.21875 37.203125 74.21875 
Q 40.921875 74.21875 44.703125 73.484375 
Q 48.484375 72.75 52.59375 71.296875 
z
" id="DejaVuSans-54"/>
       </defs>
       <use xlink:href="#DejaVuSans-54"/>
      </g>
     </g>
    </g>
    <g id="xtick_5">
     <g id="line2d_5">
      <g>
       <use style="stroke:#000000;stroke-width:0.8;" x="385.909091" xlink:href="#m5b4849f52b" y="384.48"/>
      </g>
     </g>
     <g id="text_5">
      <!-- 8 -->
      <g transform="translate(382.727841 399.078438)scale(0.1 -0.1)">
       <defs>
        <path d="M 31.78125 34.625 
Q 24.75 34.625 20.71875 30.859375 
Q 16.703125 27.09375 16.703125 20.515625 
Q 16.703125 13.921875 20.71875 10.15625 
Q 24.75 6.390625 31.78125 6.390625 
Q 38.8125 6.390625 42.859375 10.171875 
Q 46.921875 13.96875 46.921875 20.515625 
Q 46.921875 27.09375 42.890625 30.859375 
Q 38.875 34.625 31.78125 34.625 
z
M 21.921875 38.8125 
Q 15.578125 40.375 12.03125 44.71875 
Q 8.5 49.078125 8.5 55.328125 
Q 8.5 64.0625 14.71875 69.140625 
Q 20.953125 74.21875 31.78125 74.21875 
Q 42.671875 74.21875 48.875 69.140625 
Q 55.078125 64.0625 55.078125 55.328125 
Q 55.078125 49.078125 51.53125 44.71875 
Q 48 40.375 41.703125 38.8125 
Q 48.828125 37.15625 52.796875 32.3125 
Q 56.78125 27.484375 56.78125 20.515625 
Q 56.78125 9.90625 50.3125 4.234375 
Q 43.84375 -1.421875 31.78125 -1.421875 
Q 19.734375 -1.421875 13.25 4.234375 
Q 6.78125 9.90625 6.78125 20.515625 
Q 6.78125 27.484375 10.78125 32.3125 
Q 14.796875 37.15625 21.921875 38.8125 
z
M 18.3125 54.390625 
Q 18.3125 48.734375 21.84375 45.5625 
Q 25.390625 42.390625 31.78125 42.390625 
Q 38.140625 42.390625 41.71875 45.5625 
Q 45.3125 48.734375 45.3125 54.390625 
Q 45.3125 60.0625 41.71875 63.234375 
Q 38.140625 66.40625 31.78125 66.40625 
Q 25.390625 66.40625 21.84375 63.234375 
Q 18.3125 60.0625 18.3125 54.390625 
z
" id="DejaVuSans-56"/>
       </defs>
       <use xlink:href="#DejaVuSans-56"/>
      </g>
     </g>
    </g>
    <g id="xtick_6">
     <g id="line2d_6">
      <g>
       <use style="stroke:#000000;stroke-width:0.8;" x="453.545455" xlink:href="#m5b4849f52b" y="384.48"/>
      </g>
     </g>
     <g id="text_6">
      <!-- 10 -->
      <g transform="translate(447.182955 399.078438)scale(0.1 -0.1)">
       <defs>
        <path d="M 12.40625 8.296875 
L 28.515625 8.296875 
L 28.515625 63.921875 
L 10.984375 60.40625 
L 10.984375 69.390625 
L 28.421875 72.90625 
L 38.28125 72.90625 
L 38.28125 8.296875 
L 54.390625 8.296875 
L 54.390625 0 
L 12.40625 0 
z
" id="DejaVuSans-49"/>
       </defs>
       <use xlink:href="#DejaVuSans-49"/>
       <use x="63.623047" xlink:href="#DejaVuSans-48"/>
      </g>
     </g>
    </g>
    <g id="xtick_7">
     <g id="line2d_7">
      <g>
       <use style="stroke:#000000;stroke-width:0.8;" x="521.181818" xlink:href="#m5b4849f52b" y="384.48"/>
      </g>
     </g>
     <g id="text_7">
      <!-- 12 -->
      <g transform="translate(514.819318 399.078438)scale(0.1 -0.1)">
       <use xlink:href="#DejaVuSans-49"/>
       <use x="63.623047" xlink:href="#DejaVuSans-50"/>
      </g>
     </g>
    </g>
    <g id="xtick_8">
     <g id="line2d_8">
      <g>
       <use style="stroke:#000000;stroke-width:0.8;" x="588.818182" xlink:href="#m5b4849f52b" y="384.48"/>
      </g>
     </g>
     <g id="text_8">
      <!-- 14 -->
      <g transform="translate(582.455682 399.078438)scale(0.1 -0.1)">
       <use xlink:href="#DejaVuSans-49"/>
       <use x="63.623047" xlink:href="#DejaVuSans-52"/>
      </g>
     </g>
    </g>
    <g id="text_9">
     <!-- MPI size -->
     <g transform="translate(348.9125 412.756563)scale(0.1 -0.1)">
      <defs>
       <path d="M 9.8125 72.90625 
L 24.515625 72.90625 
L 43.109375 23.296875 
L 61.8125 72.90625 
L 76.515625 72.90625 
L 76.515625 0 
L 66.890625 0 
L 66.890625 64.015625 
L 48.09375 14.015625 
L 38.1875 14.015625 
L 19.390625 64.015625 
L 19.390625 0 
L 9.8125 0 
z
" id="DejaVuSans-77"/>
       <path d="M 19.671875 64.796875 
L 19.671875 37.40625 
L 32.078125 37.40625 
Q 38.96875 37.40625 42.71875 40.96875 
Q 46.484375 44.53125 46.484375 51.125 
Q 46.484375 57.671875 42.71875 61.234375 
Q 38.96875 64.796875 32.078125 64.796875 
z
M 9.8125 72.90625 
L 32.078125 72.90625 
Q 44.34375 72.90625 50.609375 67.359375 
Q 56.890625 61.8125 56.890625 51.125 
Q 56.890625 40.328125 50.609375 34.8125 
Q 44.34375 29.296875 32.078125 29.296875 
L 19.671875 29.296875 
L 19.671875 0 
L 9.8125 0 
z
" id="DejaVuSans-80"/>
       <path d="M 9.8125 72.90625 
L 19.671875 72.90625 
L 19.671875 0 
L 9.8125 0 
z
" id="DejaVuSans-73"/>
       <path id="DejaVuSans-32"/>
       <path d="M 44.28125 53.078125 
L 44.28125 44.578125 
Q 40.484375 46.53125 36.375 47.5 
Q 32.28125 48.484375 27.875 48.484375 
Q 21.1875 48.484375 17.84375 46.4375 
Q 14.5 44.390625 14.5 40.28125 
Q 14.5 37.15625 16.890625 35.375 
Q 19.28125 33.59375 26.515625 31.984375 
L 29.59375 31.296875 
Q 39.15625 29.25 43.1875 25.515625 
Q 47.21875 21.78125 47.21875 15.09375 
Q 47.21875 7.46875 41.1875 3.015625 
Q 35.15625 -1.421875 24.609375 -1.421875 
Q 20.21875 -1.421875 15.453125 -0.5625 
Q 10.6875 0.296875 5.421875 2 
L 5.421875 11.28125 
Q 10.40625 8.6875 15.234375 7.390625 
Q 20.0625 6.109375 24.8125 6.109375 
Q 31.15625 6.109375 34.5625 8.28125 
Q 37.984375 10.453125 37.984375 14.40625 
Q 37.984375 18.0625 35.515625 20.015625 
Q 33.0625 21.96875 24.703125 23.78125 
L 21.578125 24.515625 
Q 13.234375 26.265625 9.515625 29.90625 
Q 5.8125 33.546875 5.8125 39.890625 
Q 5.8125 47.609375 11.28125 51.796875 
Q 16.75 56 26.8125 56 
Q 31.78125 56 36.171875 55.265625 
Q 40.578125 54.546875 44.28125 53.078125 
z
" id="DejaVuSans-115"/>
       <path d="M 9.421875 54.6875 
L 18.40625 54.6875 
L 18.40625 0 
L 9.421875 0 
z
M 9.421875 75.984375 
L 18.40625 75.984375 
L 18.40625 64.59375 
L 9.421875 64.59375 
z
" id="DejaVuSans-105"/>
       <path d="M 5.515625 54.6875 
L 48.1875 54.6875 
L 48.1875 46.484375 
L 14.40625 7.171875 
L 48.1875 7.171875 
L 48.1875 0 
L 4.296875 0 
L 4.296875 8.203125 
L 38.09375 47.515625 
L 5.515625 47.515625 
z
" id="DejaVuSans-122"/>
       <path d="M 56.203125 29.59375 
L 56.203125 25.203125 
L 14.890625 25.203125 
Q 15.484375 15.921875 20.484375 11.0625 
Q 25.484375 6.203125 34.421875 6.203125 
Q 39.59375 6.203125 44.453125 7.46875 
Q 49.3125 8.734375 54.109375 11.28125 
L 54.109375 2.78125 
Q 49.265625 0.734375 44.1875 -0.34375 
Q 39.109375 -1.421875 33.890625 -1.421875 
Q 20.796875 -1.421875 13.15625 6.1875 
Q 5.515625 13.8125 5.515625 26.8125 
Q 5.515625 40.234375 12.765625 48.109375 
Q 20.015625 56 32.328125 56 
Q 43.359375 56 49.78125 48.890625 
Q 56.203125 41.796875 56.203125 29.59375 
z
M 47.21875 32.234375 
Q 47.125 39.59375 43.09375 43.984375 
Q 39.0625 48.390625 32.421875 48.390625 
Q 24.90625 48.390625 20.390625 44.140625 
Q 15.875 39.890625 15.1875 32.171875 
z
" id="DejaVuSans-101"/>
      </defs>
      <use xlink:href="#DejaVuSans-77"/>
      <use x="86.279297" xlink:href="#DejaVuSans-80"/>
      <use x="146.582031" xlink:href="#DejaVuSans-73"/>
      <use x="176.074219" xlink:href="#DejaVuSans-32"/>
      <use x="207.861328" xlink:href="#DejaVuSans-115"/>
      <use x="259.960938" xlink:href="#DejaVuSans-105"/>
      <use x="287.744141" xlink:href="#DejaVuSans-122"/>
      <use x="340.234375" xlink:href="#DejaVuSans-101"/>
     </g>
    </g>
   </g>
   <g id="matplotlib.axis_2">
    <g id="ytick_1">
     <g id="line2d_9">
      <defs>
       <path d="M 0 0 
L -3.5 0 
" id="mc5cee0c405" style="stroke:#000000;stroke-width:0.8;"/>
      </defs>
      <g>
       <use style="stroke:#000000;stroke-width:0.8;" x="90" xlink:href="#mc5cee0c405" y="369.36"/>
      </g>
     </g>
     <g id="text_10">
      <!-- 0.0 -->
      <g transform="translate(67.096875 373.159219)scale(0.1 -0.1)">
       <defs>
        <path d="M 10.6875 12.40625 
L 21 12.40625 
L 21 0 
L 10.6875 0 
z
" id="DejaVuSans-46"/>
       </defs>
       <use xlink:href="#DejaVuSans-48"/>
       <use x="63.623047" xlink:href="#DejaVuSans-46"/>
       <use x="95.410156" xlink:href="#DejaVuSans-48"/>
      </g>
     </g>
    </g>
    <g id="ytick_2">
     <g id="line2d_10">
      <g>
       <use style="stroke:#000000;stroke-width:0.8;" x="90" xlink:href="#mc5cee0c405" y="323.666437"/>
      </g>
     </g>
     <g id="text_11">
      <!-- 0.5 -->
      <g transform="translate(67.096875 327.465655)scale(0.1 -0.1)">
       <defs>
        <path d="M 10.796875 72.90625 
L 49.515625 72.90625 
L 49.515625 64.59375 
L 19.828125 64.59375 
L 19.828125 46.734375 
Q 21.96875 47.46875 24.109375 47.828125 
Q 26.265625 48.1875 28.421875 48.1875 
Q 40.625 48.1875 47.75 41.5 
Q 54.890625 34.8125 54.890625 23.390625 
Q 54.890625 11.625 47.5625 5.09375 
Q 40.234375 -1.421875 26.90625 -1.421875 
Q 22.3125 -1.421875 17.546875 -0.640625 
Q 12.796875 0.140625 7.71875 1.703125 
L 7.71875 11.625 
Q 12.109375 9.234375 16.796875 8.0625 
Q 21.484375 6.890625 26.703125 6.890625 
Q 35.15625 6.890625 40.078125 11.328125 
Q 45.015625 15.765625 45.015625 23.390625 
Q 45.015625 31 40.078125 35.4375 
Q 35.15625 39.890625 26.703125 39.890625 
Q 22.75 39.890625 18.8125 39.015625 
Q 14.890625 38.140625 10.796875 36.28125 
z
" id="DejaVuSans-53"/>
       </defs>
       <use xlink:href="#DejaVuSans-48"/>
       <use x="63.623047" xlink:href="#DejaVuSans-46"/>
       <use x="95.410156" xlink:href="#DejaVuSans-53"/>
      </g>
     </g>
    </g>
    <g id="ytick_3">
     <g id="line2d_11">
      <g>
       <use style="stroke:#000000;stroke-width:0.8;" x="90" xlink:href="#mc5cee0c405" y="277.972873"/>
      </g>
     </g>
     <g id="text_12">
      <!-- 1.0 -->
      <g transform="translate(67.096875 281.772092)scale(0.1 -0.1)">
       <use xlink:href="#DejaVuSans-49"/>
       <use x="63.623047" xlink:href="#DejaVuSans-46"/>
       <use x="95.410156" xlink:href="#DejaVuSans-48"/>
      </g>
     </g>
    </g>
    <g id="ytick_4">
     <g id="line2d_12">
      <g>
       <use style="stroke:#000000;stroke-width:0.8;" x="90" xlink:href="#mc5cee0c405" y="232.27931"/>
      </g>
     </g>
     <g id="text_13">
      <!-- 1.5 -->
      <g transform="translate(67.096875 236.078529)scale(0.1 -0.1)">
       <use xlink:href="#DejaVuSans-49"/>
       <use x="63.623047" xlink:href="#DejaVuSans-46"/>
       <use x="95.410156" xlink:href="#DejaVuSans-53"/>
      </g>
     </g>
    </g>
    <g id="ytick_5">
     <g id="line2d_13">
      <g>
       <use style="stroke:#000000;stroke-width:0.8;" x="90" xlink:href="#mc5cee0c405" y="186.585746"/>
      </g>
     </g>
     <g id="text_14">
      <!-- 2.0 -->
      <g transform="translate(67.096875 190.384965)scale(0.1 -0.1)">
       <use xlink:href="#DejaVuSans-50"/>
       <use x="63.623047" xlink:href="#DejaVuSans-46"/>
       <use x="95.410156" xlink:href="#DejaVuSans-48"/>
      </g>
     </g>
    </g>
    <g id="ytick_6">
     <g id="line2d_14">
      <g>
       <use style="stroke:#000000;stroke-width:0.8;" x="90" xlink:href="#mc5cee0c405" y="140.892183"/>
      </g>
     </g>
     <g id="text_15">
      <!-- 2.5 -->
      <g transform="translate(67.096875 144.691402)scale(0.1 -0.1)">
       <use xlink:href="#DejaVuSans-50"/>
       <use x="63.623047" xlink:href="#DejaVuSans-46"/>
       <use x="95.410156" xlink:href="#DejaVuSans-53"/>
      </g>
     </g>
    </g>
    <g id="ytick_7">
     <g id="line2d_15">
      <g>
       <use style="stroke:#000000;stroke-width:0.8;" x="90" xlink:href="#mc5cee0c405" y="95.19862"/>
      </g>
     </g>
     <g id="text_16">
      <!-- 3.0 -->
      <g transform="translate(67.096875 98.997838)scale(0.1 -0.1)">
       <defs>
        <path d="M 40.578125 39.3125 
Q 47.65625 37.796875 51.625 33 
Q 55.609375 28.21875 55.609375 21.1875 
Q 55.609375 10.40625 48.1875 4.484375 
Q 40.765625 -1.421875 27.09375 -1.421875 
Q 22.515625 -1.421875 17.65625 -0.515625 
Q 12.796875 0.390625 7.625 2.203125 
L 7.625 11.71875 
Q 11.71875 9.328125 16.59375 8.109375 
Q 21.484375 6.890625 26.8125 6.890625 
Q 36.078125 6.890625 40.9375 10.546875 
Q 45.796875 14.203125 45.796875 21.1875 
Q 45.796875 27.640625 41.28125 31.265625 
Q 36.765625 34.90625 28.71875 34.90625 
L 20.21875 34.90625 
L 20.21875 43.015625 
L 29.109375 43.015625 
Q 36.375 43.015625 40.234375 45.921875 
Q 44.09375 48.828125 44.09375 54.296875 
Q 44.09375 59.90625 40.109375 62.90625 
Q 36.140625 65.921875 28.71875 65.921875 
Q 24.65625 65.921875 20.015625 65.03125 
Q 15.375 64.15625 9.8125 62.3125 
L 9.8125 71.09375 
Q 15.4375 72.65625 20.34375 73.4375 
Q 25.25 74.21875 29.59375 74.21875 
Q 40.828125 74.21875 47.359375 69.109375 
Q 53.90625 64.015625 53.90625 55.328125 
Q 53.90625 49.265625 50.4375 45.09375 
Q 46.96875 40.921875 40.578125 39.3125 
z
" id="DejaVuSans-51"/>
       </defs>
       <use xlink:href="#DejaVuSans-51"/>
       <use x="63.623047" xlink:href="#DejaVuSans-46"/>
       <use x="95.410156" xlink:href="#DejaVuSans-48"/>
      </g>
     </g>
    </g>
    <g id="text_17">
     <!-- Time (s) -->
     <g transform="translate(61.017187 238.488906)rotate(-90)scale(0.1 -0.1)">
      <defs>
       <path d="M -0.296875 72.90625 
L 61.375 72.90625 
L 61.375 64.59375 
L 35.5 64.59375 
L 35.5 0 
L 25.59375 0 
L 25.59375 64.59375 
L -0.296875 64.59375 
z
" id="DejaVuSans-84"/>
       <path d="M 52 44.1875 
Q 55.375 50.25 60.0625 53.125 
Q 64.75 56 71.09375 56 
Q 79.640625 56 84.28125 50.015625 
Q 88.921875 44.046875 88.921875 33.015625 
L 88.921875 0 
L 79.890625 0 
L 79.890625 32.71875 
Q 79.890625 40.578125 77.09375 44.375 
Q 74.3125 48.1875 68.609375 48.1875 
Q 61.625 48.1875 57.5625 43.546875 
Q 53.515625 38.921875 53.515625 30.90625 
L 53.515625 0 
L 44.484375 0 
L 44.484375 32.71875 
Q 44.484375 40.625 41.703125 44.40625 
Q 38.921875 48.1875 33.109375 48.1875 
Q 26.21875 48.1875 22.15625 43.53125 
Q 18.109375 38.875 18.109375 30.90625 
L 18.109375 0 
L 9.078125 0 
L 9.078125 54.6875 
L 18.109375 54.6875 
L 18.109375 46.1875 
Q 21.1875 51.21875 25.484375 53.609375 
Q 29.78125 56 35.6875 56 
Q 41.65625 56 45.828125 52.96875 
Q 50 49.953125 52 44.1875 
z
" id="DejaVuSans-109"/>
       <path d="M 31 75.875 
Q 24.46875 64.65625 21.28125 53.65625 
Q 18.109375 42.671875 18.109375 31.390625 
Q 18.109375 20.125 21.3125 9.0625 
Q 24.515625 -2 31 -13.1875 
L 23.1875 -13.1875 
Q 15.875 -1.703125 12.234375 9.375 
Q 8.59375 20.453125 8.59375 31.390625 
Q 8.59375 42.28125 12.203125 53.3125 
Q 15.828125 64.359375 23.1875 75.875 
z
" id="DejaVuSans-40"/>
       <path d="M 8.015625 75.875 
L 15.828125 75.875 
Q 23.140625 64.359375 26.78125 53.3125 
Q 30.421875 42.28125 30.421875 31.390625 
Q 30.421875 20.453125 26.78125 9.375 
Q 23.140625 -1.703125 15.828125 -13.1875 
L 8.015625 -13.1875 
Q 14.5 -2 17.703125 9.0625 
Q 20.90625 20.125 20.90625 31.390625 
Q 20.90625 42.671875 17.703125 53.65625 
Q 14.5 64.65625 8.015625 75.875 
z
" id="DejaVuSans-41"/>
      </defs>
      <use xlink:href="#DejaVuSans-84"/>
      <use x="57.958984" xlink:href="#DejaVuSans-105"/>
      <use x="85.742188" xlink:href="#DejaVuSans-109"/>
      <use x="183.154297" xlink:href="#DejaVuSans-101"/>
      <use x="244.677734" xlink:href="#DejaVuSans-32"/>
      <use x="276.464844" xlink:href="#DejaVuSans-40"/>
      <use x="315.478516" xlink:href="#DejaVuSans-115"/>
      <use x="367.578125" xlink:href="#DejaVuSans-41"/>
     </g>
    </g>
   </g>
   <g id="line2d_16">
    <path clip-path="url(#p27b34ff9da)" d="M 115.363636 71.027966 
L 149.181818 250.086371 
L 183 257.895618 
L 216.818182 264.193741 
L 250.636364 264.115759 
L 284.454545 263.956255 
L 318.272727 262.217053 
L 352.090909 262.61349 
L 385.909091 246.827461 
L 419.727273 252.694817 
L 453.545455 248.95489 
L 487.363636 251.613564 
L 521.181818 250.391878 
L 555 251.083031 
L 588.818182 249.551511 
L 622.636364 245.884512 
" style="fill:none;stroke:#1f77b4;stroke-linecap:square;stroke-width:1.5;"/>
    <defs>
     <path d="M 0 3 
C 0.795609 3 1.55874 2.683901 2.12132 2.12132 
C 2.683901 1.55874 3 0.795609 3 0 
C 3 -0.795609 2.683901 -1.55874 2.12132 -2.12132 
C 1.55874 -2.683901 0.795609 -3 0 -3 
C -0.795609 -3 -1.55874 -2.683901 -2.12132 -2.12132 
C -2.683901 -1.55874 -3 -0.795609 -3 0 
C -3 0.795609 -2.683901 1.55874 -2.12132 2.12132 
C -1.55874 2.683901 -0.795609 3 0 3 
z
" id="m629b9c976b" style="stroke:#1f77b4;"/>
    </defs>
    <g clip-path="url(#p27b34ff9da)">
     <use style="fill:#1f77b4;stroke:#1f77b4;" x="115.363636" xlink:href="#m629b9c976b" y="71.027966"/>
     <use style="fill:#1f77b4;stroke:#1f77b4;" x="149.181818" xlink:href="#m629b9c976b" y="250.086371"/>
     <use style="fill:#1f77b4;stroke:#1f77b4;" x="183" xlink:href="#m629b9c976b" y="257.895618"/>
     <use style="fill:#1f77b4;stroke:#1f77b4;" x="216.818182" xlink:href="#m629b9c976b" y="264.193741"/>
     <use style="fill:#1f77b4;stroke:#1f77b4;" x="250.636364" xlink:href="#m629b9c976b" y="264.115759"/>
     <use style="fill:#1f77b4;stroke:#1f77b4;" x="284.454545" xlink:href="#m629b9c976b" y="263.956255"/>
     <use style="fill:#1f77b4;stroke:#1f77b4;" x="318.272727" xlink:href="#m629b9c976b" y="262.217053"/>
     <use style="fill:#1f77b4;stroke:#1f77b4;" x="352.090909" xlink:href="#m629b9c976b" y="262.61349"/>
     <use style="fill:#1f77b4;stroke:#1f77b4;" x="385.909091" xlink:href="#m629b9c976b" y="246.827461"/>
     <use style="fill:#1f77b4;stroke:#1f77b4;" x="419.727273" xlink:href="#m629b9c976b" y="252.694817"/>
     <use style="fill:#1f77b4;stroke:#1f77b4;" x="453.545455" xlink:href="#m629b9c976b" y="248.95489"/>
     <use style="fill:#1f77b4;stroke:#1f77b4;" x="487.363636" xlink:href="#m629b9c976b" y="251.613564"/>
     <use style="fill:#1f77b4;stroke:#1f77b4;" x="521.181818" xlink:href="#m629b9c976b" y="250.391878"/>
     <use style="fill:#1f77b4;stroke:#1f77b4;" x="555" xlink:href="#m629b9c976b" y="251.083031"/>
     <use style="fill:#1f77b4;stroke:#1f77b4;" x="588.818182" xlink:href="#m629b9c976b" y="249.551511"/>
     <use style="fill:#1f77b4;stroke:#1f77b4;" x="622.636364" xlink:href="#m629b9c976b" y="245.884512"/>
    </g>
   </g>
   <g id="line2d_17">
    <path clip-path="url(#p27b34ff9da)" d="M 115.363636 369.36 
L 149.181818 369.36 
L 183 369.36 
L 216.818182 369.36 
L 250.636364 265.46909 
L 284.454545 263.955096 
L 318.272727 262.430384 
L 352.090909 263.748167 
L 385.909091 245.233851 
L 419.727273 252.753478 
L 453.545455 248.258367 
L 487.363636 248.576253 
L 521.181818 247.720023 
L 555 248.649503 
L 588.818182 251.756346 
L 622.636364 252.620808 
" style="fill:none;stroke:#ff7f0e;stroke-linecap:square;stroke-width:1.5;"/>
    <defs>
     <path d="M 0 3 
C 0.795609 3 1.55874 2.683901 2.12132 2.12132 
C 2.683901 1.55874 3 0.795609 3 0 
C 3 -0.795609 2.683901 -1.55874 2.12132 -2.12132 
C 1.55874 -2.683901 0.795609 -3 0 -3 
C -0.795609 -3 -1.55874 -2.683901 -2.12132 -2.12132 
C -2.683901 -1.55874 -3 -0.795609 -3 0 
C -3 0.795609 -2.683901 1.55874 -2.12132 2.12132 
C -1.55874 2.683901 -0.795609 3 0 3 
z
" id="mf30a531453" style="stroke:#ff7f0e;"/>
    </defs>
    <g clip-path="url(#p27b34ff9da)">
     <use style="fill:#ff7f0e;stroke:#ff7f0e;" x="115.363636" xlink:href="#mf30a531453" y="369.36"/>
     <use style="fill:#ff7f0e;stroke:#ff7f0e;" x="149.181818" xlink:href="#mf30a531453" y="369.36"/>
     <use style="fill:#ff7f0e;stroke:#ff7f0e;" x="183" xlink:href="#mf30a531453" y="369.36"/>
     <use style="fill:#ff7f0e;stroke:#ff7f0e;" x="216.818182" xlink:href="#mf30a531453" y="369.36"/>
     <use style="fill:#ff7f0e;stroke:#ff7f0e;" x="250.636364" xlink:href="#mf30a531453" y="265.46909"/>
     <use style="fill:#ff7f0e;stroke:#ff7f0e;" x="284.454545" xlink:href="#mf30a531453" y="263.955096"/>
     <use style="fill:#ff7f0e;stroke:#ff7f0e;" x="318.272727" xlink:href="#mf30a531453" y="262.430384"/>
     <use style="fill:#ff7f0e;stroke:#ff7f0e;" x="352.090909" xlink:href="#mf30a531453" y="263.748167"/>
     <use style="fill:#ff7f0e;stroke:#ff7f0e;" x="385.909091" xlink:href="#mf30a531453" y="245.233851"/>
     <use style="fill:#ff7f0e;stroke:#ff7f0e;" x="419.727273" xlink:href="#mf30a531453" y="252.753478"/>
     <use style="fill:#ff7f0e;stroke:#ff7f0e;" x="453.545455" xlink:href="#mf30a531453" y="248.258367"/>
     <use style="fill:#ff7f0e;stroke:#ff7f0e;" x="487.363636" xlink:href="#mf30a531453" y="248.576253"/>
     <use style="fill:#ff7f0e;stroke:#ff7f0e;" x="521.181818" xlink:href="#mf30a531453" y="247.720023"/>
     <use style="fill:#ff7f0e;stroke:#ff7f0e;" x="555" xlink:href="#mf30a531453" y="248.649503"/>
     <use style="fill:#ff7f0e;stroke:#ff7f0e;" x="588.818182" xlink:href="#mf30a531453" y="251.756346"/>
     <use style="fill:#ff7f0e;stroke:#ff7f0e;" x="622.636364" xlink:href="#mf30a531453" y="252.620808"/>
    </g>
   </g>
   <g id="line2d_18">
    <path clip-path="url(#p27b34ff9da)" d="M 115.363636 66.96 
L 149.181818 245.97681 
L 183 258.312375 
L 216.818182 264.554391 
L 250.636364 265.65796 
L 284.454545 261.25106 
L 318.272727 262.943367 
L 352.090909 263.324218 
L 385.909091 249.559591 
L 419.727273 245.712157 
L 453.545455 245.628404 
L 487.363636 249.316257 
L 521.181818 248.609492 
L 555 250.309547 
L 588.818182 254.276941 
L 622.636364 249.627587 
" style="fill:none;stroke:#2ca02c;stroke-linecap:square;stroke-width:1.5;"/>
    <defs>
     <path d="M 0 3 
C 0.795609 3 1.55874 2.683901 2.12132 2.12132 
C 2.683901 1.55874 3 0.795609 3 0 
C 3 -0.795609 2.683901 -1.55874 2.12132 -2.12132 
C 1.55874 -2.683901 0.795609 -3 0 -3 
C -0.795609 -3 -1.55874 -2.683901 -2.12132 -2.12132 
C -2.683901 -1.55874 -3 -0.795609 -3 0 
C -3 0.795609 -2.683901 1.55874 -2.12132 2.12132 
C -1.55874 2.683901 -0.795609 3 0 3 
z
" id="m43924dfa4c" style="stroke:#2ca02c;"/>
    </defs>
    <g clip-path="url(#p27b34ff9da)">
     <use style="fill:#2ca02c;stroke:#2ca02c;" x="115.363636" xlink:href="#m43924dfa4c" y="66.96"/>
     <use style="fill:#2ca02c;stroke:#2ca02c;" x="149.181818" xlink:href="#m43924dfa4c" y="245.97681"/>
     <use style="fill:#2ca02c;stroke:#2ca02c;" x="183" xlink:href="#m43924dfa4c" y="258.312375"/>
     <use style="fill:#2ca02c;stroke:#2ca02c;" x="216.818182" xlink:href="#m43924dfa4c" y="264.554391"/>
     <use style="fill:#2ca02c;stroke:#2ca02c;" x="250.636364" xlink:href="#m43924dfa4c" y="265.65796"/>
     <use style="fill:#2ca02c;stroke:#2ca02c;" x="284.454545" xlink:href="#m43924dfa4c" y="261.25106"/>
     <use style="fill:#2ca02c;stroke:#2ca02c;" x="318.272727" xlink:href="#m43924dfa4c" y="262.943367"/>
     <use style="fill:#2ca02c;stroke:#2ca02c;" x="352.090909" xlink:href="#m43924dfa4c" y="263.324218"/>
     <use style="fill:#2ca02c;stroke:#2ca02c;" x="385.909091" xlink:href="#m43924dfa4c" y="249.559591"/>
     <use style="fill:#2ca02c;stroke:#2ca02c;" x="419.727273" xlink:href="#m43924dfa4c" y="245.712157"/>
     <use style="fill:#2ca02c;stroke:#2ca02c;" x="453.545455" xlink:href="#m43924dfa4c" y="245.628404"/>
     <use style="fill:#2ca02c;stroke:#2ca02c;" x="487.363636" xlink:href="#m43924dfa4c" y="249.316257"/>
     <use style="fill:#2ca02c;stroke:#2ca02c;" x="521.181818" xlink:href="#m43924dfa4c" y="248.609492"/>
     <use style="fill:#2ca02c;stroke:#2ca02c;" x="555" xlink:href="#m43924dfa4c" y="250.309547"/>
     <use style="fill:#2ca02c;stroke:#2ca02c;" x="588.818182" xlink:href="#m43924dfa4c" y="254.276941"/>
     <use style="fill:#2ca02c;stroke:#2ca02c;" x="622.636364" xlink:href="#m43924dfa4c" y="249.627587"/>
    </g>
   </g>
   <g id="line2d_19">
    <path clip-path="url(#p27b34ff9da)" d="M 115.363636 70.178472 
L 149.181818 248.26648 
L 183 259.150604 
L 216.818182 264.253069 
L 250.636364 266.470216 
L 284.454545 264.673057 
L 318.272727 261.0158 
L 352.090909 263.905811 
L 385.909091 252.420064 
L 419.727273 246.313175 
L 453.545455 248.459981 
L 487.363636 248.133973 
L 521.181818 248.482506 
L 555 250.196984 
L 588.818182 254.590666 
L 622.636364 253.632852 
" style="fill:none;stroke:#d62728;stroke-linecap:square;stroke-width:1.5;"/>
    <defs>
     <path d="M 0 3 
C 0.795609 3 1.55874 2.683901 2.12132 2.12132 
C 2.683901 1.55874 3 0.795609 3 0 
C 3 -0.795609 2.683901 -1.55874 2.12132 -2.12132 
C 1.55874 -2.683901 0.795609 -3 0 -3 
C -0.795609 -3 -1.55874 -2.683901 -2.12132 -2.12132 
C -2.683901 -1.55874 -3 -0.795609 -3 0 
C -3 0.795609 -2.683901 1.55874 -2.12132 2.12132 
C -1.55874 2.683901 -0.795609 3 0 3 
z
" id="m21460ca1a3" style="stroke:#d62728;"/>
    </defs>
    <g clip-path="url(#p27b34ff9da)">
     <use style="fill:#d62728;stroke:#d62728;" x="115.363636" xlink:href="#m21460ca1a3" y="70.178472"/>
     <use style="fill:#d62728;stroke:#d62728;" x="149.181818" xlink:href="#m21460ca1a3" y="248.26648"/>
     <use style="fill:#d62728;stroke:#d62728;" x="183" xlink:href="#m21460ca1a3" y="259.150604"/>
     <use style="fill:#d62728;stroke:#d62728;" x="216.818182" xlink:href="#m21460ca1a3" y="264.253069"/>
     <use style="fill:#d62728;stroke:#d62728;" x="250.636364" xlink:href="#m21460ca1a3" y="266.470216"/>
     <use style="fill:#d62728;stroke:#d62728;" x="284.454545" xlink:href="#m21460ca1a3" y="264.673057"/>
     <use style="fill:#d62728;stroke:#d62728;" x="318.272727" xlink:href="#m21460ca1a3" y="261.0158"/>
     <use style="fill:#d62728;stroke:#d62728;" x="352.090909" xlink:href="#m21460ca1a3" y="263.905811"/>
     <use style="fill:#d62728;stroke:#d62728;" x="385.909091" xlink:href="#m21460ca1a3" y="252.420064"/>
     <use style="fill:#d62728;stroke:#d62728;" x="419.727273" xlink:href="#m21460ca1a3" y="246.313175"/>
     <use style="fill:#d62728;stroke:#d62728;" x="453.545455" xlink:href="#m21460ca1a3" y="248.459981"/>
     <use style="fill:#d62728;stroke:#d62728;" x="487.363636" xlink:href="#m21460ca1a3" y="248.133973"/>
     <use style="fill:#d62728;stroke:#d62728;" x="521.181818" xlink:href="#m21460ca1a3" y="248.482506"/>
     <use style="fill:#d62728;stroke:#d62728;" x="555" xlink:href="#m21460ca1a3" y="250.196984"/>
     <use style="fill:#d62728;stroke:#d62728;" x="588.818182" xlink:href="#m21460ca1a3" y="254.590666"/>
     <use style="fill:#d62728;stroke:#d62728;" x="622.636364" xlink:href="#m21460ca1a3" y="253.632852"/>
    </g>
   </g>
   <g id="line2d_20">
    <path clip-path="url(#p27b34ff9da)" d="M 115.363636 71.001451 
L 149.181818 247.489942 
L 183 257.359944 
L 216.818182 265.374171 
L 250.636364 266.754939 
L 284.454545 260.283209 
L 318.272727 253.250734 
L 352.090909 262.702066 
L 385.909091 247.525539 
L 419.727273 250.502989 
L 453.545455 247.365016 
L 487.363636 247.3164 
L 521.181818 250.097974 
L 555 247.402927 
L 588.818182 252.390002 
L 622.636364 258.219067 
" style="fill:none;stroke:#9467bd;stroke-linecap:square;stroke-width:1.5;"/>
    <defs>
     <path d="M 0 3 
C 0.795609 3 1.55874 2.683901 2.12132 2.12132 
C 2.683901 1.55874 3 0.795609 3 0 
C 3 -0.795609 2.683901 -1.55874 2.12132 -2.12132 
C 1.55874 -2.683901 0.795609 -3 0 -3 
C -0.795609 -3 -1.55874 -2.683901 -2.12132 -2.12132 
C -2.683901 -1.55874 -3 -0.795609 -3 0 
C -3 0.795609 -2.683901 1.55874 -2.12132 2.12132 
C -1.55874 2.683901 -0.795609 3 0 3 
z
" id="m1ceffb72f7" style="stroke:#9467bd;"/>
    </defs>
    <g clip-path="url(#p27b34ff9da)">
     <use style="fill:#9467bd;stroke:#9467bd;" x="115.363636" xlink:href="#m1ceffb72f7" y="71.001451"/>
     <use style="fill:#9467bd;stroke:#9467bd;" x="149.181818" xlink:href="#m1ceffb72f7" y="247.489942"/>
     <use style="fill:#9467bd;stroke:#9467bd;" x="183" xlink:href="#m1ceffb72f7" y="257.359944"/>
     <use style="fill:#9467bd;stroke:#9467bd;" x="216.818182" xlink:href="#m1ceffb72f7" y="265.374171"/>
     <use style="fill:#9467bd;stroke:#9467bd;" x="250.636364" xlink:href="#m1ceffb72f7" y="266.754939"/>
     <use style="fill:#9467bd;stroke:#9467bd;" x="284.454545" xlink:href="#m1ceffb72f7" y="260.283209"/>
     <use style="fill:#9467bd;stroke:#9467bd;" x="318.272727" xlink:href="#m1ceffb72f7" y="253.250734"/>
     <use style="fill:#9467bd;stroke:#9467bd;" x="352.090909" xlink:href="#m1ceffb72f7" y="262.702066"/>
     <use style="fill:#9467bd;stroke:#9467bd;" x="385.909091" xlink:href="#m1ceffb72f7" y="247.525539"/>
     <use style="fill:#9467bd;stroke:#9467bd;" x="419.727273" xlink:href="#m1ceffb72f7" y="250.502989"/>
     <use style="fill:#9467bd;stroke:#9467bd;" x="453.545455" xlink:href="#m1ceffb72f7" y="247.365016"/>
     <use style="fill:#9467bd;stroke:#9467bd;" x="487.363636" xlink:href="#m1ceffb72f7" y="247.3164"/>
     <use style="fill:#9467bd;stroke:#9467bd;" x="521.181818" xlink:href="#m1ceffb72f7" y="250.097974"/>
     <use style="fill:#9467bd;stroke:#9467bd;" x="555" xlink:href="#m1ceffb72f7" y="247.402927"/>
     <use style="fill:#9467bd;stroke:#9467bd;" x="588.818182" xlink:href="#m1ceffb72f7" y="252.390002"/>
     <use style="fill:#9467bd;stroke:#9467bd;" x="622.636364" xlink:href="#m1ceffb72f7" y="258.219067"/>
    </g>
   </g>
   <g id="line2d_21">
    <path clip-path="url(#p27b34ff9da)" d="M 115.363636 75.355555 
L 149.181818 246.218436 
L 183 258.228006 
L 216.818182 265.487211 
L 250.636364 266.931333 
L 284.454545 261.52339 
L 318.272727 261.168497 
L 352.090909 260.680627 
L 385.909091 247.568706 
L 419.727273 248.520689 
L 453.545455 248.209572 
L 487.363636 248.265045 
L 521.181818 250.86314 
L 555 250.837662 
L 588.818182 251.488067 
L 622.636364 257.110814 
" style="fill:none;stroke:#8c564b;stroke-linecap:square;stroke-width:1.5;"/>
    <defs>
     <path d="M 0 3 
C 0.795609 3 1.55874 2.683901 2.12132 2.12132 
C 2.683901 1.55874 3 0.795609 3 0 
C 3 -0.795609 2.683901 -1.55874 2.12132 -2.12132 
C 1.55874 -2.683901 0.795609 -3 0 -3 
C -0.795609 -3 -1.55874 -2.683901 -2.12132 -2.12132 
C -2.683901 -1.55874 -3 -0.795609 -3 0 
C -3 0.795609 -2.683901 1.55874 -2.12132 2.12132 
C -1.55874 2.683901 -0.795609 3 0 3 
z
" id="m940de78cbc" style="stroke:#8c564b;"/>
    </defs>
    <g clip-path="url(#p27b34ff9da)">
     <use style="fill:#8c564b;stroke:#8c564b;" x="115.363636" xlink:href="#m940de78cbc" y="75.355555"/>
     <use style="fill:#8c564b;stroke:#8c564b;" x="149.181818" xlink:href="#m940de78cbc" y="246.218436"/>
     <use style="fill:#8c564b;stroke:#8c564b;" x="183" xlink:href="#m940de78cbc" y="258.228006"/>
     <use style="fill:#8c564b;stroke:#8c564b;" x="216.818182" xlink:href="#m940de78cbc" y="265.487211"/>
     <use style="fill:#8c564b;stroke:#8c564b;" x="250.636364" xlink:href="#m940de78cbc" y="266.931333"/>
     <use style="fill:#8c564b;stroke:#8c564b;" x="284.454545" xlink:href="#m940de78cbc" y="261.52339"/>
     <use style="fill:#8c564b;stroke:#8c564b;" x="318.272727" xlink:href="#m940de78cbc" y="261.168497"/>
     <use style="fill:#8c564b;stroke:#8c564b;" x="352.090909" xlink:href="#m940de78cbc" y="260.680627"/>
     <use style="fill:#8c564b;stroke:#8c564b;" x="385.909091" xlink:href="#m940de78cbc" y="247.568706"/>
     <use style="fill:#8c564b;stroke:#8c564b;" x="419.727273" xlink:href="#m940de78cbc" y="248.520689"/>
     <use style="fill:#8c564b;stroke:#8c564b;" x="453.545455" xlink:href="#m940de78cbc" y="248.209572"/>
     <use style="fill:#8c564b;stroke:#8c564b;" x="487.363636" xlink:href="#m940de78cbc" y="248.265045"/>
     <use style="fill:#8c564b;stroke:#8c564b;" x="521.181818" xlink:href="#m940de78cbc" y="250.86314"/>
     <use style="fill:#8c564b;stroke:#8c564b;" x="555" xlink:href="#m940de78cbc" y="250.837662"/>
     <use style="fill:#8c564b;stroke:#8c564b;" x="588.818182" xlink:href="#m940de78cbc" y="251.488067"/>
     <use style="fill:#8c564b;stroke:#8c564b;" x="622.636364" xlink:href="#m940de78cbc" y="257.110814"/>
    </g>
   </g>
   <g id="line2d_22">
    <path clip-path="url(#p27b34ff9da)" d="M 115.363636 74.635851 
L 149.181818 247.027307 
L 183 258.652543 
L 216.818182 265.613103 
L 250.636364 264.831317 
L 284.454545 261.388663 
L 318.272727 262.49238 
L 352.090909 258.10091 
L 385.909091 246.917116 
L 419.727273 245.064166 
L 453.545455 246.352026 
L 487.363636 246.122689 
L 521.181818 247.374991 
L 555 243.90597 
L 588.818182 249.18049 
L 622.636364 244.363678 
" style="fill:none;stroke:#e377c2;stroke-linecap:square;stroke-width:1.5;"/>
    <defs>
     <path d="M 0 3 
C 0.795609 3 1.55874 2.683901 2.12132 2.12132 
C 2.683901 1.55874 3 0.795609 3 0 
C 3 -0.795609 2.683901 -1.55874 2.12132 -2.12132 
C 1.55874 -2.683901 0.795609 -3 0 -3 
C -0.795609 -3 -1.55874 -2.683901 -2.12132 -2.12132 
C -2.683901 -1.55874 -3 -0.795609 -3 0 
C -3 0.795609 -2.683901 1.55874 -2.12132 2.12132 
C -1.55874 2.683901 -0.795609 3 0 3 
z
" id="mf57476c4f9" style="stroke:#e377c2;"/>
    </defs>
    <g clip-path="url(#p27b34ff9da)">
     <use style="fill:#e377c2;stroke:#e377c2;" x="115.363636" xlink:href="#mf57476c4f9" y="74.635851"/>
     <use style="fill:#e377c2;stroke:#e377c2;" x="149.181818" xlink:href="#mf57476c4f9" y="247.027307"/>
     <use style="fill:#e377c2;stroke:#e377c2;" x="183" xlink:href="#mf57476c4f9" y="258.652543"/>
     <use style="fill:#e377c2;stroke:#e377c2;" x="216.818182" xlink:href="#mf57476c4f9" y="265.613103"/>
     <use style="fill:#e377c2;stroke:#e377c2;" x="250.636364" xlink:href="#mf57476c4f9" y="264.831317"/>
     <use style="fill:#e377c2;stroke:#e377c2;" x="284.454545" xlink:href="#mf57476c4f9" y="261.388663"/>
     <use style="fill:#e377c2;stroke:#e377c2;" x="318.272727" xlink:href="#mf57476c4f9" y="262.49238"/>
     <use style="fill:#e377c2;stroke:#e377c2;" x="352.090909" xlink:href="#mf57476c4f9" y="258.10091"/>
     <use style="fill:#e377c2;stroke:#e377c2;" x="385.909091" xlink:href="#mf57476c4f9" y="246.917116"/>
     <use style="fill:#e377c2;stroke:#e377c2;" x="419.727273" xlink:href="#mf57476c4f9" y="245.064166"/>
     <use style="fill:#e377c2;stroke:#e377c2;" x="453.545455" xlink:href="#mf57476c4f9" y="246.352026"/>
     <use style="fill:#e377c2;stroke:#e377c2;" x="487.363636" xlink:href="#mf57476c4f9" y="246.122689"/>
     <use style="fill:#e377c2;stroke:#e377c2;" x="521.181818" xlink:href="#mf57476c4f9" y="247.374991"/>
     <use style="fill:#e377c2;stroke:#e377c2;" x="555" xlink:href="#mf57476c4f9" y="243.90597"/>
     <use style="fill:#e377c2;stroke:#e377c2;" x="588.818182" xlink:href="#mf57476c4f9" y="249.18049"/>
     <use style="fill:#e377c2;stroke:#e377c2;" x="622.636364" xlink:href="#mf57476c4f9" y="244.363678"/>
    </g>
   </g>
   <g id="patch_3">
    <path d="M 90 384.48 
L 90 51.84 
" style="fill:none;stroke:#000000;stroke-linecap:square;stroke-linejoin:miter;stroke-width:0.8;"/>
   </g>
   <g id="patch_4">
    <path d="M 648 384.48 
L 648 51.84 
" style="fill:none;stroke:#000000;stroke-linecap:square;stroke-linejoin:miter;stroke-width:0.8;"/>
   </g>
   <g id="patch_5">
    <path d="M 90 384.48 
L 648 384.48 
" style="fill:none;stroke:#000000;stroke-linecap:square;stroke-linejoin:miter;stroke-width:0.8;"/>
   </g>
   <g id="patch_6">
    <path d="M 90 51.84 
L 648 51.84 
" style="fill:none;stroke:#000000;stroke-linecap:square;stroke-linejoin:miter;stroke-width:0.8;"/>
   </g>
   <g id="text_18">
    <!-- Case 1: Varying MPI size -->
    <g transform="translate(296.039062 45.84)scale(0.12 -0.12)">
     <defs>
      <path d="M 64.40625 67.28125 
L 64.40625 56.890625 
Q 59.421875 61.53125 53.78125 63.8125 
Q 48.140625 66.109375 41.796875 66.109375 
Q 29.296875 66.109375 22.65625 58.46875 
Q 16.015625 50.828125 16.015625 36.375 
Q 16.015625 21.96875 22.65625 14.328125 
Q 29.296875 6.6875 41.796875 6.6875 
Q 48.140625 6.6875 53.78125 8.984375 
Q 59.421875 11.28125 64.40625 15.921875 
L 64.40625 5.609375 
Q 59.234375 2.09375 53.4375 0.328125 
Q 47.65625 -1.421875 41.21875 -1.421875 
Q 24.65625 -1.421875 15.125 8.703125 
Q 5.609375 18.84375 5.609375 36.375 
Q 5.609375 53.953125 15.125 64.078125 
Q 24.65625 74.21875 41.21875 74.21875 
Q 47.75 74.21875 53.53125 72.484375 
Q 59.328125 70.75 64.40625 67.28125 
z
" id="DejaVuSans-67"/>
      <path d="M 34.28125 27.484375 
Q 23.390625 27.484375 19.1875 25 
Q 14.984375 22.515625 14.984375 16.5 
Q 14.984375 11.71875 18.140625 8.90625 
Q 21.296875 6.109375 26.703125 6.109375 
Q 34.1875 6.109375 38.703125 11.40625 
Q 43.21875 16.703125 43.21875 25.484375 
L 43.21875 27.484375 
z
M 52.203125 31.203125 
L 52.203125 0 
L 43.21875 0 
L 43.21875 8.296875 
Q 40.140625 3.328125 35.546875 0.953125 
Q 30.953125 -1.421875 24.3125 -1.421875 
Q 15.921875 -1.421875 10.953125 3.296875 
Q 6 8.015625 6 15.921875 
Q 6 25.140625 12.171875 29.828125 
Q 18.359375 34.515625 30.609375 34.515625 
L 43.21875 34.515625 
L 43.21875 35.40625 
Q 43.21875 41.609375 39.140625 45 
Q 35.0625 48.390625 27.6875 48.390625 
Q 23 48.390625 18.546875 47.265625 
Q 14.109375 46.140625 10.015625 43.890625 
L 10.015625 52.203125 
Q 14.9375 54.109375 19.578125 55.046875 
Q 24.21875 56 28.609375 56 
Q 40.484375 56 46.34375 49.84375 
Q 52.203125 43.703125 52.203125 31.203125 
z
" id="DejaVuSans-97"/>
      <path d="M 11.71875 12.40625 
L 22.015625 12.40625 
L 22.015625 0 
L 11.71875 0 
z
M 11.71875 51.703125 
L 22.015625 51.703125 
L 22.015625 39.3125 
L 11.71875 39.3125 
z
" id="DejaVuSans-58"/>
      <path d="M 28.609375 0 
L 0.78125 72.90625 
L 11.078125 72.90625 
L 34.1875 11.53125 
L 57.328125 72.90625 
L 67.578125 72.90625 
L 39.796875 0 
z
" id="DejaVuSans-86"/>
      <path d="M 41.109375 46.296875 
Q 39.59375 47.171875 37.8125 47.578125 
Q 36.03125 48 33.890625 48 
Q 26.265625 48 22.1875 43.046875 
Q 18.109375 38.09375 18.109375 28.8125 
L 18.109375 0 
L 9.078125 0 
L 9.078125 54.6875 
L 18.109375 54.6875 
L 18.109375 46.1875 
Q 20.953125 51.171875 25.484375 53.578125 
Q 30.03125 56 36.53125 56 
Q 37.453125 56 38.578125 55.875 
Q 39.703125 55.765625 41.0625 55.515625 
z
" id="DejaVuSans-114"/>
      <path d="M 32.171875 -5.078125 
Q 28.375 -14.84375 24.75 -17.8125 
Q 21.140625 -20.796875 15.09375 -20.796875 
L 7.90625 -20.796875 
L 7.90625 -13.28125 
L 13.1875 -13.28125 
Q 16.890625 -13.28125 18.9375 -11.515625 
Q 21 -9.765625 23.484375 -3.21875 
L 25.09375 0.875 
L 2.984375 54.6875 
L 12.5 54.6875 
L 29.59375 11.921875 
L 46.6875 54.6875 
L 56.203125 54.6875 
z
" id="DejaVuSans-121"/>
      <path d="M 54.890625 33.015625 
L 54.890625 0 
L 45.90625 0 
L 45.90625 32.71875 
Q 45.90625 40.484375 42.875 44.328125 
Q 39.84375 48.1875 33.796875 48.1875 
Q 26.515625 48.1875 22.3125 43.546875 
Q 18.109375 38.921875 18.109375 30.90625 
L 18.109375 0 
L 9.078125 0 
L 9.078125 54.6875 
L 18.109375 54.6875 
L 18.109375 46.1875 
Q 21.34375 51.125 25.703125 53.5625 
Q 30.078125 56 35.796875 56 
Q 45.21875 56 50.046875 50.171875 
Q 54.890625 44.34375 54.890625 33.015625 
z
" id="DejaVuSans-110"/>
      <path d="M 45.40625 27.984375 
Q 45.40625 37.75 41.375 43.109375 
Q 37.359375 48.484375 30.078125 48.484375 
Q 22.859375 48.484375 18.828125 43.109375 
Q 14.796875 37.75 14.796875 27.984375 
Q 14.796875 18.265625 18.828125 12.890625 
Q 22.859375 7.515625 30.078125 7.515625 
Q 37.359375 7.515625 41.375 12.890625 
Q 45.40625 18.265625 45.40625 27.984375 
z
M 54.390625 6.78125 
Q 54.390625 -7.171875 48.1875 -13.984375 
Q 42 -20.796875 29.203125 -20.796875 
Q 24.46875 -20.796875 20.265625 -20.09375 
Q 16.0625 -19.390625 12.109375 -17.921875 
L 12.109375 -9.1875 
Q 16.0625 -11.328125 19.921875 -12.34375 
Q 23.78125 -13.375 27.78125 -13.375 
Q 36.625 -13.375 41.015625 -8.765625 
Q 45.40625 -4.15625 45.40625 5.171875 
L 45.40625 9.625 
Q 42.625 4.78125 38.28125 2.390625 
Q 33.9375 0 27.875 0 
Q 17.828125 0 11.671875 7.65625 
Q 5.515625 15.328125 5.515625 27.984375 
Q 5.515625 40.671875 11.671875 48.328125 
Q 17.828125 56 27.875 56 
Q 33.9375 56 38.28125 53.609375 
Q 42.625 51.21875 45.40625 46.390625 
L 45.40625 54.6875 
L 54.390625 54.6875 
z
" id="DejaVuSans-103"/>
     </defs>
     <use xlink:href="#DejaVuSans-67"/>
     <use x="69.824219" xlink:href="#DejaVuSans-97"/>
     <use x="131.103516" xlink:href="#DejaVuSans-115"/>
     <use x="183.203125" xlink:href="#DejaVuSans-101"/>
     <use x="244.726562" xlink:href="#DejaVuSans-32"/>
     <use x="276.513672" xlink:href="#DejaVuSans-49"/>
     <use x="340.136719" xlink:href="#DejaVuSans-58"/>
     <use x="373.828125" xlink:href="#DejaVuSans-32"/>
     <use x="405.615234" xlink:href="#DejaVuSans-86"/>
     <use x="466.273438" xlink:href="#DejaVuSans-97"/>
     <use x="527.552734" xlink:href="#DejaVuSans-114"/>
     <use x="568.666016" xlink:href="#DejaVuSans-121"/>
     <use x="627.845703" xlink:href="#DejaVuSans-105"/>
     <use x="655.628906" xlink:href="#DejaVuSans-110"/>
     <use x="719.007812" xlink:href="#DejaVuSans-103"/>
     <use x="782.484375" xlink:href="#DejaVuSans-32"/>
     <use x="814.271484" xlink:href="#DejaVuSans-77"/>
     <use x="900.550781" xlink:href="#DejaVuSans-80"/>
     <use x="960.853516" xlink:href="#DejaVuSans-73"/>
     <use x="990.345703" xlink:href="#DejaVuSans-32"/>
     <use x="1022.132812" xlink:href="#DejaVuSans-115"/>
     <use x="1074.232422" xlink:href="#DejaVuSans-105"/>
     <use x="1102.015625" xlink:href="#DejaVuSans-122"/>
     <use x="1154.505859" xlink:href="#DejaVuSans-101"/>
    </g>
   </g>
   <g id="legend_1">
    <g id="patch_7">
     <path d="M 389.2625 164.53375 
L 641 164.53375 
Q 643 164.53375 643 162.53375 
L 643 58.84 
Q 643 56.84 641 56.84 
L 389.2625 56.84 
Q 387.2625 56.84 387.2625 58.84 
L 387.2625 162.53375 
Q 387.2625 164.53375 389.2625 164.53375 
z
" style="fill:#ffffff;opacity:0.8;stroke:#cccccc;stroke-linejoin:miter;"/>
    </g>
    <g id="line2d_23">
     <path d="M 391.2625 64.938437 
L 411.2625 64.938437 
" style="fill:none;stroke:#1f77b4;stroke-linecap:square;stroke-width:1.5;"/>
    </g>
    <g id="line2d_24">
     <g>
      <use style="fill:#1f77b4;stroke:#1f77b4;" x="401.2625" xlink:href="#m629b9c976b" y="64.938437"/>
     </g>
    </g>
    <g id="text_19">
     <!-- excluive_pipelined_binary_tree_scan -->
     <g transform="translate(419.2625 68.438437)scale(0.1 -0.1)">
      <defs>
       <path d="M 54.890625 54.6875 
L 35.109375 28.078125 
L 55.90625 0 
L 45.3125 0 
L 29.390625 21.484375 
L 13.484375 0 
L 2.875 0 
L 24.125 28.609375 
L 4.6875 54.6875 
L 15.28125 54.6875 
L 29.78125 35.203125 
L 44.28125 54.6875 
z
" id="DejaVuSans-120"/>
       <path d="M 48.78125 52.59375 
L 48.78125 44.1875 
Q 44.96875 46.296875 41.140625 47.34375 
Q 37.3125 48.390625 33.40625 48.390625 
Q 24.65625 48.390625 19.8125 42.84375 
Q 14.984375 37.3125 14.984375 27.296875 
Q 14.984375 17.28125 19.8125 11.734375 
Q 24.65625 6.203125 33.40625 6.203125 
Q 37.3125 6.203125 41.140625 7.25 
Q 44.96875 8.296875 48.78125 10.40625 
L 48.78125 2.09375 
Q 45.015625 0.34375 40.984375 -0.53125 
Q 36.96875 -1.421875 32.421875 -1.421875 
Q 20.0625 -1.421875 12.78125 6.34375 
Q 5.515625 14.109375 5.515625 27.296875 
Q 5.515625 40.671875 12.859375 48.328125 
Q 20.21875 56 33.015625 56 
Q 37.15625 56 41.109375 55.140625 
Q 45.0625 54.296875 48.78125 52.59375 
z
" id="DejaVuSans-99"/>
       <path d="M 9.421875 75.984375 
L 18.40625 75.984375 
L 18.40625 0 
L 9.421875 0 
z
" id="DejaVuSans-108"/>
       <path d="M 8.5 21.578125 
L 8.5 54.6875 
L 17.484375 54.6875 
L 17.484375 21.921875 
Q 17.484375 14.15625 20.5 10.265625 
Q 23.53125 6.390625 29.59375 6.390625 
Q 36.859375 6.390625 41.078125 11.03125 
Q 45.3125 15.671875 45.3125 23.6875 
L 45.3125 54.6875 
L 54.296875 54.6875 
L 54.296875 0 
L 45.3125 0 
L 45.3125 8.40625 
Q 42.046875 3.421875 37.71875 1 
Q 33.40625 -1.421875 27.6875 -1.421875 
Q 18.265625 -1.421875 13.375 4.4375 
Q 8.5 10.296875 8.5 21.578125 
z
M 31.109375 56 
z
" id="DejaVuSans-117"/>
       <path d="M 2.984375 54.6875 
L 12.5 54.6875 
L 29.59375 8.796875 
L 46.6875 54.6875 
L 56.203125 54.6875 
L 35.6875 0 
L 23.484375 0 
z
" id="DejaVuSans-118"/>
       <path d="M 50.984375 -16.609375 
L 50.984375 -23.578125 
L -0.984375 -23.578125 
L -0.984375 -16.609375 
z
" id="DejaVuSans-95"/>
       <path d="M 18.109375 8.203125 
L 18.109375 -20.796875 
L 9.078125 -20.796875 
L 9.078125 54.6875 
L 18.109375 54.6875 
L 18.109375 46.390625 
Q 20.953125 51.265625 25.265625 53.625 
Q 29.59375 56 35.59375 56 
Q 45.5625 56 51.78125 48.09375 
Q 58.015625 40.1875 58.015625 27.296875 
Q 58.015625 14.40625 51.78125 6.484375 
Q 45.5625 -1.421875 35.59375 -1.421875 
Q 29.59375 -1.421875 25.265625 0.953125 
Q 20.953125 3.328125 18.109375 8.203125 
z
M 48.6875 27.296875 
Q 48.6875 37.203125 44.609375 42.84375 
Q 40.53125 48.484375 33.40625 48.484375 
Q 26.265625 48.484375 22.1875 42.84375 
Q 18.109375 37.203125 18.109375 27.296875 
Q 18.109375 17.390625 22.1875 11.75 
Q 26.265625 6.109375 33.40625 6.109375 
Q 40.53125 6.109375 44.609375 11.75 
Q 48.6875 17.390625 48.6875 27.296875 
z
" id="DejaVuSans-112"/>
       <path d="M 45.40625 46.390625 
L 45.40625 75.984375 
L 54.390625 75.984375 
L 54.390625 0 
L 45.40625 0 
L 45.40625 8.203125 
Q 42.578125 3.328125 38.25 0.953125 
Q 33.9375 -1.421875 27.875 -1.421875 
Q 17.96875 -1.421875 11.734375 6.484375 
Q 5.515625 14.40625 5.515625 27.296875 
Q 5.515625 40.1875 11.734375 48.09375 
Q 17.96875 56 27.875 56 
Q 33.9375 56 38.25 53.625 
Q 42.578125 51.265625 45.40625 46.390625 
z
M 14.796875 27.296875 
Q 14.796875 17.390625 18.875 11.75 
Q 22.953125 6.109375 30.078125 6.109375 
Q 37.203125 6.109375 41.296875 11.75 
Q 45.40625 17.390625 45.40625 27.296875 
Q 45.40625 37.203125 41.296875 42.84375 
Q 37.203125 48.484375 30.078125 48.484375 
Q 22.953125 48.484375 18.875 42.84375 
Q 14.796875 37.203125 14.796875 27.296875 
z
" id="DejaVuSans-100"/>
       <path d="M 48.6875 27.296875 
Q 48.6875 37.203125 44.609375 42.84375 
Q 40.53125 48.484375 33.40625 48.484375 
Q 26.265625 48.484375 22.1875 42.84375 
Q 18.109375 37.203125 18.109375 27.296875 
Q 18.109375 17.390625 22.1875 11.75 
Q 26.265625 6.109375 33.40625 6.109375 
Q 40.53125 6.109375 44.609375 11.75 
Q 48.6875 17.390625 48.6875 27.296875 
z
M 18.109375 46.390625 
Q 20.953125 51.265625 25.265625 53.625 
Q 29.59375 56 35.59375 56 
Q 45.5625 56 51.78125 48.09375 
Q 58.015625 40.1875 58.015625 27.296875 
Q 58.015625 14.40625 51.78125 6.484375 
Q 45.5625 -1.421875 35.59375 -1.421875 
Q 29.59375 -1.421875 25.265625 0.953125 
Q 20.953125 3.328125 18.109375 8.203125 
L 18.109375 0 
L 9.078125 0 
L 9.078125 75.984375 
L 18.109375 75.984375 
z
" id="DejaVuSans-98"/>
       <path d="M 18.3125 70.21875 
L 18.3125 54.6875 
L 36.8125 54.6875 
L 36.8125 47.703125 
L 18.3125 47.703125 
L 18.3125 18.015625 
Q 18.3125 11.328125 20.140625 9.421875 
Q 21.96875 7.515625 27.59375 7.515625 
L 36.8125 7.515625 
L 36.8125 0 
L 27.59375 0 
Q 17.1875 0 13.234375 3.875 
Q 9.28125 7.765625 9.28125 18.015625 
L 9.28125 47.703125 
L 2.6875 47.703125 
L 2.6875 54.6875 
L 9.28125 54.6875 
L 9.28125 70.21875 
z
" id="DejaVuSans-116"/>
      </defs>
      <use xlink:href="#DejaVuSans-101"/>
      <use x="59.773438" xlink:href="#DejaVuSans-120"/>
      <use x="117.203125" xlink:href="#DejaVuSans-99"/>
      <use x="172.183594" xlink:href="#DejaVuSans-108"/>
      <use x="199.966797" xlink:href="#DejaVuSans-117"/>
      <use x="263.345703" xlink:href="#DejaVuSans-105"/>
      <use x="291.128906" xlink:href="#DejaVuSans-118"/>
      <use x="350.308594" xlink:href="#DejaVuSans-101"/>
      <use x="411.832031" xlink:href="#DejaVuSans-95"/>
      <use x="461.832031" xlink:href="#DejaVuSans-112"/>
      <use x="525.308594" xlink:href="#DejaVuSans-105"/>
      <use x="553.091797" xlink:href="#DejaVuSans-112"/>
      <use x="616.568359" xlink:href="#DejaVuSans-101"/>
      <use x="678.091797" xlink:href="#DejaVuSans-108"/>
      <use x="705.875" xlink:href="#DejaVuSans-105"/>
      <use x="733.658203" xlink:href="#DejaVuSans-110"/>
      <use x="797.037109" xlink:href="#DejaVuSans-101"/>
      <use x="858.560547" xlink:href="#DejaVuSans-100"/>
      <use x="922.037109" xlink:href="#DejaVuSans-95"/>
      <use x="972.037109" xlink:href="#DejaVuSans-98"/>
      <use x="1035.513672" xlink:href="#DejaVuSans-105"/>
      <use x="1063.296875" xlink:href="#DejaVuSans-110"/>
      <use x="1126.675781" xlink:href="#DejaVuSans-97"/>
      <use x="1187.955078" xlink:href="#DejaVuSans-114"/>
      <use x="1229.068359" xlink:href="#DejaVuSans-121"/>
      <use x="1288.248047" xlink:href="#DejaVuSans-95"/>
      <use x="1338.248047" xlink:href="#DejaVuSans-116"/>
      <use x="1377.457031" xlink:href="#DejaVuSans-114"/>
      <use x="1416.320312" xlink:href="#DejaVuSans-101"/>
      <use x="1477.84375" xlink:href="#DejaVuSans-101"/>
      <use x="1539.367188" xlink:href="#DejaVuSans-95"/>
      <use x="1589.367188" xlink:href="#DejaVuSans-115"/>
      <use x="1641.466797" xlink:href="#DejaVuSans-99"/>
      <use x="1696.447266" xlink:href="#DejaVuSans-97"/>
      <use x="1757.726562" xlink:href="#DejaVuSans-110"/>
     </g>
    </g>
    <g id="line2d_25">
     <path d="M 391.2625 79.894687 
L 411.2625 79.894687 
" style="fill:none;stroke:#ff7f0e;stroke-linecap:square;stroke-width:1.5;"/>
    </g>
    <g id="line2d_26">
     <g>
      <use style="fill:#ff7f0e;stroke:#ff7f0e;" x="401.2625" xlink:href="#mf30a531453" y="79.894687"/>
     </g>
    </g>
    <g id="text_20">
     <!-- exclusive_LLN -->
     <g transform="translate(419.2625 83.394687)scale(0.1 -0.1)">
      <defs>
       <path d="M 9.8125 72.90625 
L 19.671875 72.90625 
L 19.671875 8.296875 
L 55.171875 8.296875 
L 55.171875 0 
L 9.8125 0 
z
" id="DejaVuSans-76"/>
       <path d="M 9.8125 72.90625 
L 23.09375 72.90625 
L 55.421875 11.921875 
L 55.421875 72.90625 
L 64.984375 72.90625 
L 64.984375 0 
L 51.703125 0 
L 19.390625 60.984375 
L 19.390625 0 
L 9.8125 0 
z
" id="DejaVuSans-78"/>
      </defs>
      <use xlink:href="#DejaVuSans-101"/>
      <use x="59.773438" xlink:href="#DejaVuSans-120"/>
      <use x="117.203125" xlink:href="#DejaVuSans-99"/>
      <use x="172.183594" xlink:href="#DejaVuSans-108"/>
      <use x="199.966797" xlink:href="#DejaVuSans-117"/>
      <use x="263.345703" xlink:href="#DejaVuSans-115"/>
      <use x="315.445312" xlink:href="#DejaVuSans-105"/>
      <use x="343.228516" xlink:href="#DejaVuSans-118"/>
      <use x="402.408203" xlink:href="#DejaVuSans-101"/>
      <use x="463.931641" xlink:href="#DejaVuSans-95"/>
      <use x="513.931641" xlink:href="#DejaVuSans-76"/>
      <use x="569.644531" xlink:href="#DejaVuSans-76"/>
      <use x="625.357422" xlink:href="#DejaVuSans-78"/>
     </g>
    </g>
    <g id="line2d_27">
     <path d="M 391.2625 94.850937 
L 411.2625 94.850937 
" style="fill:none;stroke:#2ca02c;stroke-linecap:square;stroke-width:1.5;"/>
    </g>
    <g id="line2d_28">
     <g>
      <use style="fill:#2ca02c;stroke:#2ca02c;" x="401.2625" xlink:href="#m43924dfa4c" y="94.850937"/>
     </g>
    </g>
    <g id="text_21">
     <!-- MPI_exscan -->
     <g transform="translate(419.2625 98.350937)scale(0.1 -0.1)">
      <use xlink:href="#DejaVuSans-77"/>
      <use x="86.279297" xlink:href="#DejaVuSans-80"/>
      <use x="146.582031" xlink:href="#DejaVuSans-73"/>
      <use x="176.074219" xlink:href="#DejaVuSans-95"/>
      <use x="226.074219" xlink:href="#DejaVuSans-101"/>
      <use x="285.847656" xlink:href="#DejaVuSans-120"/>
      <use x="345.027344" xlink:href="#DejaVuSans-115"/>
      <use x="397.126953" xlink:href="#DejaVuSans-99"/>
      <use x="452.107422" xlink:href="#DejaVuSans-97"/>
      <use x="513.386719" xlink:href="#DejaVuSans-110"/>
     </g>
    </g>
    <g id="line2d_29">
     <path d="M 391.2625 109.807187 
L 411.2625 109.807187 
" style="fill:none;stroke:#d62728;stroke-linecap:square;stroke-width:1.5;"/>
    </g>
    <g id="line2d_30">
     <g>
      <use style="fill:#d62728;stroke:#d62728;" x="401.2625" xlink:href="#m21460ca1a3" y="109.807187"/>
     </g>
    </g>
    <g id="text_22">
     <!-- exclusive_simultaneous_binomial_tree_scan -->
     <g transform="translate(419.2625 113.307187)scale(0.1 -0.1)">
      <defs>
       <path d="M 30.609375 48.390625 
Q 23.390625 48.390625 19.1875 42.75 
Q 14.984375 37.109375 14.984375 27.296875 
Q 14.984375 17.484375 19.15625 11.84375 
Q 23.34375 6.203125 30.609375 6.203125 
Q 37.796875 6.203125 41.984375 11.859375 
Q 46.1875 17.53125 46.1875 27.296875 
Q 46.1875 37.015625 41.984375 42.703125 
Q 37.796875 48.390625 30.609375 48.390625 
z
M 30.609375 56 
Q 42.328125 56 49.015625 48.375 
Q 55.71875 40.765625 55.71875 27.296875 
Q 55.71875 13.875 49.015625 6.21875 
Q 42.328125 -1.421875 30.609375 -1.421875 
Q 18.84375 -1.421875 12.171875 6.21875 
Q 5.515625 13.875 5.515625 27.296875 
Q 5.515625 40.765625 12.171875 48.375 
Q 18.84375 56 30.609375 56 
z
" id="DejaVuSans-111"/>
      </defs>
      <use xlink:href="#DejaVuSans-101"/>
      <use x="59.773438" xlink:href="#DejaVuSans-120"/>
      <use x="117.203125" xlink:href="#DejaVuSans-99"/>
      <use x="172.183594" xlink:href="#DejaVuSans-108"/>
      <use x="199.966797" xlink:href="#DejaVuSans-117"/>
      <use x="263.345703" xlink:href="#DejaVuSans-115"/>
      <use x="315.445312" xlink:href="#DejaVuSans-105"/>
      <use x="343.228516" xlink:href="#DejaVuSans-118"/>
      <use x="402.408203" xlink:href="#DejaVuSans-101"/>
      <use x="463.931641" xlink:href="#DejaVuSans-95"/>
      <use x="513.931641" xlink:href="#DejaVuSans-115"/>
      <use x="566.03125" xlink:href="#DejaVuSans-105"/>
      <use x="593.814453" xlink:href="#DejaVuSans-109"/>
      <use x="691.226562" xlink:href="#DejaVuSans-117"/>
      <use x="754.605469" xlink:href="#DejaVuSans-108"/>
      <use x="782.388672" xlink:href="#DejaVuSans-116"/>
      <use x="821.597656" xlink:href="#DejaVuSans-97"/>
      <use x="882.876953" xlink:href="#DejaVuSans-110"/>
      <use x="946.255859" xlink:href="#DejaVuSans-101"/>
      <use x="1007.779297" xlink:href="#DejaVuSans-111"/>
      <use x="1068.960938" xlink:href="#DejaVuSans-117"/>
      <use x="1132.339844" xlink:href="#DejaVuSans-115"/>
      <use x="1184.439453" xlink:href="#DejaVuSans-95"/>
      <use x="1234.439453" xlink:href="#DejaVuSans-98"/>
      <use x="1297.916016" xlink:href="#DejaVuSans-105"/>
      <use x="1325.699219" xlink:href="#DejaVuSans-110"/>
      <use x="1389.078125" xlink:href="#DejaVuSans-111"/>
      <use x="1450.259766" xlink:href="#DejaVuSans-109"/>
      <use x="1547.671875" xlink:href="#DejaVuSans-105"/>
      <use x="1575.455078" xlink:href="#DejaVuSans-97"/>
      <use x="1636.734375" xlink:href="#DejaVuSans-108"/>
      <use x="1664.517578" xlink:href="#DejaVuSans-95"/>
      <use x="1714.517578" xlink:href="#DejaVuSans-116"/>
      <use x="1753.726562" xlink:href="#DejaVuSans-114"/>
      <use x="1792.589844" xlink:href="#DejaVuSans-101"/>
      <use x="1854.113281" xlink:href="#DejaVuSans-101"/>
      <use x="1915.636719" xlink:href="#DejaVuSans-95"/>
      <use x="1965.636719" xlink:href="#DejaVuSans-115"/>
      <use x="2017.736328" xlink:href="#DejaVuSans-99"/>
      <use x="2072.716797" xlink:href="#DejaVuSans-97"/>
      <use x="2133.996094" xlink:href="#DejaVuSans-110"/>
     </g>
    </g>
    <g id="line2d_31">
     <path d="M 391.2625 124.763437 
L 411.2625 124.763437 
" style="fill:none;stroke:#9467bd;stroke-linecap:square;stroke-width:1.5;"/>
    </g>
    <g id="line2d_32">
     <g>
      <use style="fill:#9467bd;stroke:#9467bd;" x="401.2625" xlink:href="#m1ceffb72f7" y="124.763437"/>
     </g>
    </g>
    <g id="text_23">
     <!-- binomial_tree_exclusive_scan -->
     <g transform="translate(419.2625 128.263437)scale(0.1 -0.1)">
      <use xlink:href="#DejaVuSans-98"/>
      <use x="63.476562" xlink:href="#DejaVuSans-105"/>
      <use x="91.259766" xlink:href="#DejaVuSans-110"/>
      <use x="154.638672" xlink:href="#DejaVuSans-111"/>
      <use x="215.820312" xlink:href="#DejaVuSans-109"/>
      <use x="313.232422" xlink:href="#DejaVuSans-105"/>
      <use x="341.015625" xlink:href="#DejaVuSans-97"/>
      <use x="402.294922" xlink:href="#DejaVuSans-108"/>
      <use x="430.078125" xlink:href="#DejaVuSans-95"/>
      <use x="480.078125" xlink:href="#DejaVuSans-116"/>
      <use x="519.287109" xlink:href="#DejaVuSans-114"/>
      <use x="558.150391" xlink:href="#DejaVuSans-101"/>
      <use x="619.673828" xlink:href="#DejaVuSans-101"/>
      <use x="681.197266" xlink:href="#DejaVuSans-95"/>
      <use x="731.197266" xlink:href="#DejaVuSans-101"/>
      <use x="790.970703" xlink:href="#DejaVuSans-120"/>
      <use x="848.400391" xlink:href="#DejaVuSans-99"/>
      <use x="903.380859" xlink:href="#DejaVuSans-108"/>
      <use x="931.164062" xlink:href="#DejaVuSans-117"/>
      <use x="994.542969" xlink:href="#DejaVuSans-115"/>
      <use x="1046.642578" xlink:href="#DejaVuSans-105"/>
      <use x="1074.425781" xlink:href="#DejaVuSans-118"/>
      <use x="1133.605469" xlink:href="#DejaVuSans-101"/>
      <use x="1195.128906" xlink:href="#DejaVuSans-95"/>
      <use x="1245.128906" xlink:href="#DejaVuSans-115"/>
      <use x="1297.228516" xlink:href="#DejaVuSans-99"/>
      <use x="1352.208984" xlink:href="#DejaVuSans-97"/>
      <use x="1413.488281" xlink:href="#DejaVuSans-110"/>
     </g>
    </g>
    <g id="line2d_33">
     <path d="M 391.2625 139.719687 
L 411.2625 139.719687 
" style="fill:none;stroke:#8c564b;stroke-linecap:square;stroke-width:1.5;"/>
    </g>
    <g id="line2d_34">
     <g>
      <use style="fill:#8c564b;stroke:#8c564b;" x="401.2625" xlink:href="#m940de78cbc" y="139.719687"/>
     </g>
    </g>
    <g id="text_24">
     <!-- Hypercube_Scan_exclusive -->
     <g transform="translate(419.2625 143.219687)scale(0.1 -0.1)">
      <defs>
       <path d="M 9.8125 72.90625 
L 19.671875 72.90625 
L 19.671875 43.015625 
L 55.515625 43.015625 
L 55.515625 72.90625 
L 65.375 72.90625 
L 65.375 0 
L 55.515625 0 
L 55.515625 34.71875 
L 19.671875 34.71875 
L 19.671875 0 
L 9.8125 0 
z
" id="DejaVuSans-72"/>
       <path d="M 53.515625 70.515625 
L 53.515625 60.890625 
Q 47.90625 63.578125 42.921875 64.890625 
Q 37.9375 66.21875 33.296875 66.21875 
Q 25.25 66.21875 20.875 63.09375 
Q 16.5 59.96875 16.5 54.203125 
Q 16.5 49.359375 19.40625 46.890625 
Q 22.3125 44.4375 30.421875 42.921875 
L 36.375 41.703125 
Q 47.40625 39.59375 52.65625 34.296875 
Q 57.90625 29 57.90625 20.125 
Q 57.90625 9.515625 50.796875 4.046875 
Q 43.703125 -1.421875 29.984375 -1.421875 
Q 24.8125 -1.421875 18.96875 -0.25 
Q 13.140625 0.921875 6.890625 3.21875 
L 6.890625 13.375 
Q 12.890625 10.015625 18.65625 8.296875 
Q 24.421875 6.59375 29.984375 6.59375 
Q 38.421875 6.59375 43.015625 9.90625 
Q 47.609375 13.234375 47.609375 19.390625 
Q 47.609375 24.75 44.3125 27.78125 
Q 41.015625 30.8125 33.5 32.328125 
L 27.484375 33.5 
Q 16.453125 35.6875 11.515625 40.375 
Q 6.59375 45.0625 6.59375 53.421875 
Q 6.59375 63.09375 13.40625 68.65625 
Q 20.21875 74.21875 32.171875 74.21875 
Q 37.3125 74.21875 42.625 73.28125 
Q 47.953125 72.359375 53.515625 70.515625 
z
" id="DejaVuSans-83"/>
      </defs>
      <use xlink:href="#DejaVuSans-72"/>
      <use x="75.195312" xlink:href="#DejaVuSans-121"/>
      <use x="134.375" xlink:href="#DejaVuSans-112"/>
      <use x="197.851562" xlink:href="#DejaVuSans-101"/>
      <use x="259.375" xlink:href="#DejaVuSans-114"/>
      <use x="298.238281" xlink:href="#DejaVuSans-99"/>
      <use x="353.21875" xlink:href="#DejaVuSans-117"/>
      <use x="416.597656" xlink:href="#DejaVuSans-98"/>
      <use x="480.074219" xlink:href="#DejaVuSans-101"/>
      <use x="541.597656" xlink:href="#DejaVuSans-95"/>
      <use x="591.597656" xlink:href="#DejaVuSans-83"/>
      <use x="655.074219" xlink:href="#DejaVuSans-99"/>
      <use x="710.054688" xlink:href="#DejaVuSans-97"/>
      <use x="771.333984" xlink:href="#DejaVuSans-110"/>
      <use x="834.712891" xlink:href="#DejaVuSans-95"/>
      <use x="884.712891" xlink:href="#DejaVuSans-101"/>
      <use x="944.486328" xlink:href="#DejaVuSans-120"/>
      <use x="1001.916016" xlink:href="#DejaVuSans-99"/>
      <use x="1056.896484" xlink:href="#DejaVuSans-108"/>
      <use x="1084.679688" xlink:href="#DejaVuSans-117"/>
      <use x="1148.058594" xlink:href="#DejaVuSans-115"/>
      <use x="1200.158203" xlink:href="#DejaVuSans-105"/>
      <use x="1227.941406" xlink:href="#DejaVuSans-118"/>
      <use x="1287.121094" xlink:href="#DejaVuSans-101"/>
     </g>
    </g>
    <g id="line2d_35">
     <path d="M 391.2625 154.675937 
L 411.2625 154.675937 
" style="fill:none;stroke:#e377c2;stroke-linecap:square;stroke-width:1.5;"/>
    </g>
    <g id="line2d_36">
     <g>
      <use style="fill:#e377c2;stroke:#e377c2;" x="401.2625" xlink:href="#mf57476c4f9" y="154.675937"/>
     </g>
    </g>
    <g id="text_25">
     <!-- ex_linear_scan -->
     <g transform="translate(419.2625 158.175937)scale(0.1 -0.1)">
      <use xlink:href="#DejaVuSans-101"/>
      <use x="59.773438" xlink:href="#DejaVuSans-120"/>
      <use x="118.953125" xlink:href="#DejaVuSans-95"/>
      <use x="168.953125" xlink:href="#DejaVuSans-108"/>
      <use x="196.736328" xlink:href="#DejaVuSans-105"/>
      <use x="224.519531" xlink:href="#DejaVuSans-110"/>
      <use x="287.898438" xlink:href="#DejaVuSans-101"/>
      <use x="349.421875" xlink:href="#DejaVuSans-97"/>
      <use x="410.701172" xlink:href="#DejaVuSans-114"/>
      <use x="451.814453" xlink:href="#DejaVuSans-95"/>
      <use x="501.814453" xlink:href="#DejaVuSans-115"/>
      <use x="553.914062" xlink:href="#DejaVuSans-99"/>
      <use x="608.894531" xlink:href="#DejaVuSans-97"/>
      <use x="670.173828" xlink:href="#DejaVuSans-110"/>
     </g>
    </g>
   </g>
  </g>
 </g>
 <defs>
  <clipPath id="p27b34ff9da">
   <rect height="332.64" width="558" x="90" y="51.84"/>
  </clipPath>
 </defs>
</svg>
