<?xml version="1.0" encoding="utf-8" standalone="no"?>
<!DOCTYPE svg PUBLIC "-//W3C//DTD SVG 1.1//EN"
  "http://www.w3.org/Graphics/SVG/1.1/DTD/svg11.dtd">
<!-- Created with matplotlib (https://matplotlib.org/) -->
<svg height="432pt" version="1.1" viewBox="0 0 720 432" width="720pt" xmlns="http://www.w3.org/2000/svg" xmlns:xlink="http://www.w3.org/1999/xlink">
 <metadata>
  <rdf:RDF xmlns:cc="http://creativecommons.org/ns#" xmlns:dc="http://purl.org/dc/elements/1.1/" xmlns:rdf="http://www.w3.org/1999/02/22-rdf-syntax-ns#">
   <cc:Work>
    <dc:type rdf:resource="http://purl.org/dc/dcmitype/StillImage"/>
    <dc:date>2025-07-28T16:19:47.546469</dc:date>
    <dc:format>image/svg+xml</dc:format>
    <dc:creator>
     <cc:Agent>
      <dc:title>Matplotlib v3.3.4, https://matplotlib.org/</dc:title>
     </cc:Agent>
    </dc:creator>
   </cc:Work>
  </rdf:RDF>
 </metadata>
 <defs>
  <style type="text/css">*{stroke-linecap:butt;stroke-linejoin:round;}</style>
 </defs>
 <g id="figure_1">
  <g id="patch_1">
   <path d="M 0 432 
L 720 432 
L 720 0 
L 0 0 
z
" style="fill:#ffffff;"/>
  </g>
  <g id="axes_1">
   <g id="patch_2">
    <path d="M 90 384.48 
L 648 384.48 
L 648 51.84 
L 90 51.84 
z
" style="fill:#ffffff;"/>
   </g>
   <g id="matplotlib.axis_1">
    <g id="xtick_1">
     <g id="line2d_1">
      <defs>
       <path d="M 0 0 
L 0 3.5 
" id="m64ca9d7114" style="stroke:#000000;stroke-width:0.8;"/>
      </defs>
      <g>
       <use style="stroke:#000000;stroke-width:0.8;" x="115.363636" xlink:href="#m64ca9d7114" y="384.48"/>
      </g>
     </g>
     <g id="text_1">
      <!-- $\mathdefault{10^{0}}$ -->
      <g transform="translate(106.563636 399.078438)scale(0.1 -0.1)">
       <defs>
        <path d="M 12.40625 8.296875 
L 28.515625 8.296875 
L 28.515625 63.921875 
L 10.984375 60.40625 
L 10.984375 69.390625 
L 28.421875 72.90625 
L 38.28125 72.90625 
L 38.28125 8.296875 
L 54.390625 8.296875 
L 54.390625 0 
L 12.40625 0 
z
" id="DejaVuSans-49"/>
        <path d="M 31.78125 66.40625 
Q 24.171875 66.40625 20.328125 58.90625 
Q 16.5 51.421875 16.5 36.375 
Q 16.5 21.390625 20.328125 13.890625 
Q 24.171875 6.390625 31.78125 6.390625 
Q 39.453125 6.390625 43.28125 13.890625 
Q 47.125 21.390625 47.125 36.375 
Q 47.125 51.421875 43.28125 58.90625 
Q 39.453125 66.40625 31.78125 66.40625 
z
M 31.78125 74.21875 
Q 44.046875 74.21875 50.515625 64.515625 
Q 56.984375 54.828125 56.984375 36.375 
Q 56.984375 17.96875 50.515625 8.265625 
Q 44.046875 -1.421875 31.78125 -1.421875 
Q 19.53125 -1.421875 13.0625 8.265625 
Q 6.59375 17.96875 6.59375 36.375 
Q 6.59375 54.828125 13.0625 64.515625 
Q 19.53125 74.21875 31.78125 74.21875 
z
" id="DejaVuSans-48"/>
       </defs>
       <use transform="translate(0 0.765625)" xlink:href="#DejaVuSans-49"/>
       <use transform="translate(63.623047 0.765625)" xlink:href="#DejaVuSans-48"/>
       <use transform="translate(128.203125 39.046875)scale(0.7)" xlink:href="#DejaVuSans-48"/>
      </g>
     </g>
    </g>
    <g id="xtick_2">
     <g id="line2d_2">
      <g>
       <use style="stroke:#000000;stroke-width:0.8;" x="546.684525" xlink:href="#m64ca9d7114" y="384.48"/>
      </g>
     </g>
     <g id="text_2">
      <!-- $\mathdefault{10^{1}}$ -->
      <g transform="translate(537.884525 399.078438)scale(0.1 -0.1)">
       <use transform="translate(0 0.684375)" xlink:href="#DejaVuSans-49"/>
       <use transform="translate(63.623047 0.684375)" xlink:href="#DejaVuSans-48"/>
       <use transform="translate(128.203125 38.965625)scale(0.7)" xlink:href="#DejaVuSans-49"/>
      </g>
     </g>
    </g>
    <g id="xtick_3">
     <g id="line2d_3">
      <path clip-path="url(#p1171ac41ea)" d="M 95.627475 384.48 
L 95.627475 51.84 
" style="fill:none;stroke:#b0b0b0;stroke-dasharray:1.85,0.8;stroke-dashoffset:0;stroke-width:0.5;"/>
     </g>
     <g id="line2d_4">
      <defs>
       <path d="M 0 0 
L 0 2 
" id="m2f9e1b86bc" style="stroke:#000000;stroke-width:0.6;"/>
      </defs>
      <g>
       <use style="stroke:#000000;stroke-width:0.6;" x="95.627475" xlink:href="#m2f9e1b86bc" y="384.48"/>
      </g>
     </g>
    </g>
    <g id="xtick_4">
     <g id="line2d_5">
      <path clip-path="url(#p1171ac41ea)" d="M 245.204162 384.48 
L 245.204162 51.84 
" style="fill:none;stroke:#b0b0b0;stroke-dasharray:1.85,0.8;stroke-dashoffset:0;stroke-width:0.5;"/>
     </g>
     <g id="line2d_6">
      <g>
       <use style="stroke:#000000;stroke-width:0.6;" x="245.204162" xlink:href="#m2f9e1b86bc" y="384.48"/>
      </g>
     </g>
    </g>
    <g id="xtick_5">
     <g id="line2d_7">
      <path clip-path="url(#p1171ac41ea)" d="M 321.156 384.48 
L 321.156 51.84 
" style="fill:none;stroke:#b0b0b0;stroke-dasharray:1.85,0.8;stroke-dashoffset:0;stroke-width:0.5;"/>
     </g>
     <g id="line2d_8">
      <g>
       <use style="stroke:#000000;stroke-width:0.6;" x="321.156" xlink:href="#m2f9e1b86bc" y="384.48"/>
      </g>
     </g>
    </g>
    <g id="xtick_6">
     <g id="line2d_9">
      <path clip-path="url(#p1171ac41ea)" d="M 375.044687 384.48 
L 375.044687 51.84 
" style="fill:none;stroke:#b0b0b0;stroke-dasharray:1.85,0.8;stroke-dashoffset:0;stroke-width:0.5;"/>
     </g>
     <g id="line2d_10">
      <g>
       <use style="stroke:#000000;stroke-width:0.6;" x="375.044687" xlink:href="#m2f9e1b86bc" y="384.48"/>
      </g>
     </g>
    </g>
    <g id="xtick_7">
     <g id="line2d_11">
      <path clip-path="url(#p1171ac41ea)" d="M 416.844 384.48 
L 416.844 51.84 
" style="fill:none;stroke:#b0b0b0;stroke-dasharray:1.85,0.8;stroke-dashoffset:0;stroke-width:0.5;"/>
     </g>
     <g id="line2d_12">
      <g>
       <use style="stroke:#000000;stroke-width:0.6;" x="416.844" xlink:href="#m2f9e1b86bc" y="384.48"/>
      </g>
     </g>
    </g>
    <g id="xtick_8">
     <g id="line2d_13">
      <path clip-path="url(#p1171ac41ea)" d="M 450.996525 384.48 
L 450.996525 51.84 
" style="fill:none;stroke:#b0b0b0;stroke-dasharray:1.85,0.8;stroke-dashoffset:0;stroke-width:0.5;"/>
     </g>
     <g id="line2d_14">
      <g>
       <use style="stroke:#000000;stroke-width:0.6;" x="450.996525" xlink:href="#m2f9e1b86bc" y="384.48"/>
      </g>
     </g>
    </g>
    <g id="xtick_9">
     <g id="line2d_15">
      <path clip-path="url(#p1171ac41ea)" d="M 479.872074 384.48 
L 479.872074 51.84 
" style="fill:none;stroke:#b0b0b0;stroke-dasharray:1.85,0.8;stroke-dashoffset:0;stroke-width:0.5;"/>
     </g>
     <g id="line2d_16">
      <g>
       <use style="stroke:#000000;stroke-width:0.6;" x="479.872074" xlink:href="#m2f9e1b86bc" y="384.48"/>
      </g>
     </g>
    </g>
    <g id="xtick_10">
     <g id="line2d_17">
      <path clip-path="url(#p1171ac41ea)" d="M 504.885212 384.48 
L 504.885212 51.84 
" style="fill:none;stroke:#b0b0b0;stroke-dasharray:1.85,0.8;stroke-dashoffset:0;stroke-width:0.5;"/>
     </g>
     <g id="line2d_18">
      <g>
       <use style="stroke:#000000;stroke-width:0.6;" x="504.885212" xlink:href="#m2f9e1b86bc" y="384.48"/>
      </g>
     </g>
    </g>
    <g id="xtick_11">
     <g id="line2d_19">
      <path clip-path="url(#p1171ac41ea)" d="M 526.948364 384.48 
L 526.948364 51.84 
" style="fill:none;stroke:#b0b0b0;stroke-dasharray:1.85,0.8;stroke-dashoffset:0;stroke-width:0.5;"/>
     </g>
     <g id="line2d_20">
      <g>
       <use style="stroke:#000000;stroke-width:0.6;" x="526.948364" xlink:href="#m2f9e1b86bc" y="384.48"/>
      </g>
     </g>
    </g>
    <g id="text_3">
     <!-- MPI size -->
     <g transform="translate(348.9125 412.756563)scale(0.1 -0.1)">
      <defs>
       <path d="M 9.8125 72.90625 
L 24.515625 72.90625 
L 43.109375 23.296875 
L 61.8125 72.90625 
L 76.515625 72.90625 
L 76.515625 0 
L 66.890625 0 
L 66.890625 64.015625 
L 48.09375 14.015625 
L 38.1875 14.015625 
L 19.390625 64.015625 
L 19.390625 0 
L 9.8125 0 
z
" id="DejaVuSans-77"/>
       <path d="M 19.671875 64.796875 
L 19.671875 37.40625 
L 32.078125 37.40625 
Q 38.96875 37.40625 42.71875 40.96875 
Q 46.484375 44.53125 46.484375 51.125 
Q 46.484375 57.671875 42.71875 61.234375 
Q 38.96875 64.796875 32.078125 64.796875 
z
M 9.8125 72.90625 
L 32.078125 72.90625 
Q 44.34375 72.90625 50.609375 67.359375 
Q 56.890625 61.8125 56.890625 51.125 
Q 56.890625 40.328125 50.609375 34.8125 
Q 44.34375 29.296875 32.078125 29.296875 
L 19.671875 29.296875 
L 19.671875 0 
L 9.8125 0 
z
" id="DejaVuSans-80"/>
       <path d="M 9.8125 72.90625 
L 19.671875 72.90625 
L 19.671875 0 
L 9.8125 0 
z
" id="DejaVuSans-73"/>
       <path id="DejaVuSans-32"/>
       <path d="M 44.28125 53.078125 
L 44.28125 44.578125 
Q 40.484375 46.53125 36.375 47.5 
Q 32.28125 48.484375 27.875 48.484375 
Q 21.1875 48.484375 17.84375 46.4375 
Q 14.5 44.390625 14.5 40.28125 
Q 14.5 37.15625 16.890625 35.375 
Q 19.28125 33.59375 26.515625 31.984375 
L 29.59375 31.296875 
Q 39.15625 29.25 43.1875 25.515625 
Q 47.21875 21.78125 47.21875 15.09375 
Q 47.21875 7.46875 41.1875 3.015625 
Q 35.15625 -1.421875 24.609375 -1.421875 
Q 20.21875 -1.421875 15.453125 -0.5625 
Q 10.6875 0.296875 5.421875 2 
L 5.421875 11.28125 
Q 10.40625 8.6875 15.234375 7.390625 
Q 20.0625 6.109375 24.8125 6.109375 
Q 31.15625 6.109375 34.5625 8.28125 
Q 37.984375 10.453125 37.984375 14.40625 
Q 37.984375 18.0625 35.515625 20.015625 
Q 33.0625 21.96875 24.703125 23.78125 
L 21.578125 24.515625 
Q 13.234375 26.265625 9.515625 29.90625 
Q 5.8125 33.546875 5.8125 39.890625 
Q 5.8125 47.609375 11.28125 51.796875 
Q 16.75 56 26.8125 56 
Q 31.78125 56 36.171875 55.265625 
Q 40.578125 54.546875 44.28125 53.078125 
z
" id="DejaVuSans-115"/>
       <path d="M 9.421875 54.6875 
L 18.40625 54.6875 
L 18.40625 0 
L 9.421875 0 
z
M 9.421875 75.984375 
L 18.40625 75.984375 
L 18.40625 64.59375 
L 9.421875 64.59375 
z
" id="DejaVuSans-105"/>
       <path d="M 5.515625 54.6875 
L 48.1875 54.6875 
L 48.1875 46.484375 
L 14.40625 7.171875 
L 48.1875 7.171875 
L 48.1875 0 
L 4.296875 0 
L 4.296875 8.203125 
L 38.09375 47.515625 
L 5.515625 47.515625 
z
" id="DejaVuSans-122"/>
       <path d="M 56.203125 29.59375 
L 56.203125 25.203125 
L 14.890625 25.203125 
Q 15.484375 15.921875 20.484375 11.0625 
Q 25.484375 6.203125 34.421875 6.203125 
Q 39.59375 6.203125 44.453125 7.46875 
Q 49.3125 8.734375 54.109375 11.28125 
L 54.109375 2.78125 
Q 49.265625 0.734375 44.1875 -0.34375 
Q 39.109375 -1.421875 33.890625 -1.421875 
Q 20.796875 -1.421875 13.15625 6.1875 
Q 5.515625 13.8125 5.515625 26.8125 
Q 5.515625 40.234375 12.765625 48.109375 
Q 20.015625 56 32.328125 56 
Q 43.359375 56 49.78125 48.890625 
Q 56.203125 41.796875 56.203125 29.59375 
z
M 47.21875 32.234375 
Q 47.125 39.59375 43.09375 43.984375 
Q 39.0625 48.390625 32.421875 48.390625 
Q 24.90625 48.390625 20.390625 44.140625 
Q 15.875 39.890625 15.1875 32.171875 
z
" id="DejaVuSans-101"/>
      </defs>
      <use xlink:href="#DejaVuSans-77"/>
      <use x="86.279297" xlink:href="#DejaVuSans-80"/>
      <use x="146.582031" xlink:href="#DejaVuSans-73"/>
      <use x="176.074219" xlink:href="#DejaVuSans-32"/>
      <use x="207.861328" xlink:href="#DejaVuSans-115"/>
      <use x="259.960938" xlink:href="#DejaVuSans-105"/>
      <use x="287.744141" xlink:href="#DejaVuSans-122"/>
      <use x="340.234375" xlink:href="#DejaVuSans-101"/>
     </g>
    </g>
   </g>
   <g id="matplotlib.axis_2">
    <g id="ytick_1">
     <g id="line2d_21">
      <path clip-path="url(#p1171ac41ea)" d="M 90 222.662906 
L 648 222.662906 
" style="fill:none;stroke:#b0b0b0;stroke-dasharray:1.85,0.8;stroke-dashoffset:0;stroke-width:0.5;"/>
     </g>
     <g id="line2d_22">
      <defs>
       <path d="M 0 0 
L -2 0 
" id="m849ba498ad" style="stroke:#000000;stroke-width:0.6;"/>
      </defs>
      <g>
       <use style="stroke:#000000;stroke-width:0.6;" x="90" xlink:href="#m849ba498ad" y="222.662906"/>
      </g>
     </g>
     <g id="text_4">
      <!-- $\mathdefault{2\times10^{0}}$ -->
      <g transform="translate(48.4 226.462124)scale(0.1 -0.1)">
       <defs>
        <path d="M 19.1875 8.296875 
L 53.609375 8.296875 
L 53.609375 0 
L 7.328125 0 
L 7.328125 8.296875 
Q 12.9375 14.109375 22.625 23.890625 
Q 32.328125 33.6875 34.8125 36.53125 
Q 39.546875 41.84375 41.421875 45.53125 
Q 43.3125 49.21875 43.3125 52.78125 
Q 43.3125 58.59375 39.234375 62.25 
Q 35.15625 65.921875 28.609375 65.921875 
Q 23.96875 65.921875 18.8125 64.3125 
Q 13.671875 62.703125 7.8125 59.421875 
L 7.8125 69.390625 
Q 13.765625 71.78125 18.9375 73 
Q 24.125 74.21875 28.421875 74.21875 
Q 39.75 74.21875 46.484375 68.546875 
Q 53.21875 62.890625 53.21875 53.421875 
Q 53.21875 48.921875 51.53125 44.890625 
Q 49.859375 40.875 45.40625 35.40625 
Q 44.1875 33.984375 37.640625 27.21875 
Q 31.109375 20.453125 19.1875 8.296875 
z
" id="DejaVuSans-50"/>
        <path d="M 70.125 53.71875 
L 47.796875 31.296875 
L 70.125 8.984375 
L 64.3125 3.078125 
L 41.890625 25.484375 
L 19.484375 3.078125 
L 13.71875 8.984375 
L 35.984375 31.296875 
L 13.71875 53.71875 
L 19.484375 59.625 
L 41.890625 37.203125 
L 64.3125 59.625 
z
" id="DejaVuSans-215"/>
       </defs>
       <use transform="translate(0 0.765625)" xlink:href="#DejaVuSans-50"/>
       <use transform="translate(83.105469 0.765625)" xlink:href="#DejaVuSans-215"/>
       <use transform="translate(186.376953 0.765625)" xlink:href="#DejaVuSans-49"/>
       <use transform="translate(250 0.765625)" xlink:href="#DejaVuSans-48"/>
       <use transform="translate(314.580078 39.046875)scale(0.7)" xlink:href="#DejaVuSans-48"/>
      </g>
     </g>
    </g>
    <g id="ytick_2">
     <g id="line2d_23">
      <path clip-path="url(#p1171ac41ea)" d="M 90 111.641799 
L 648 111.641799 
" style="fill:none;stroke:#b0b0b0;stroke-dasharray:1.85,0.8;stroke-dashoffset:0;stroke-width:0.5;"/>
     </g>
     <g id="line2d_24">
      <g>
       <use style="stroke:#000000;stroke-width:0.6;" x="90" xlink:href="#m849ba498ad" y="111.641799"/>
      </g>
     </g>
     <g id="text_5">
      <!-- $\mathdefault{3\times10^{0}}$ -->
      <g transform="translate(48.4 115.441018)scale(0.1 -0.1)">
       <defs>
        <path d="M 40.578125 39.3125 
Q 47.65625 37.796875 51.625 33 
Q 55.609375 28.21875 55.609375 21.1875 
Q 55.609375 10.40625 48.1875 4.484375 
Q 40.765625 -1.421875 27.09375 -1.421875 
Q 22.515625 -1.421875 17.65625 -0.515625 
Q 12.796875 0.390625 7.625 2.203125 
L 7.625 11.71875 
Q 11.71875 9.328125 16.59375 8.109375 
Q 21.484375 6.890625 26.8125 6.890625 
Q 36.078125 6.890625 40.9375 10.546875 
Q 45.796875 14.203125 45.796875 21.1875 
Q 45.796875 27.640625 41.28125 31.265625 
Q 36.765625 34.90625 28.71875 34.90625 
L 20.21875 34.90625 
L 20.21875 43.015625 
L 29.109375 43.015625 
Q 36.375 43.015625 40.234375 45.921875 
Q 44.09375 48.828125 44.09375 54.296875 
Q 44.09375 59.90625 40.109375 62.90625 
Q 36.140625 65.921875 28.71875 65.921875 
Q 24.65625 65.921875 20.015625 65.03125 
Q 15.375 64.15625 9.8125 62.3125 
L 9.8125 71.09375 
Q 15.4375 72.65625 20.34375 73.4375 
Q 25.25 74.21875 29.59375 74.21875 
Q 40.828125 74.21875 47.359375 69.109375 
Q 53.90625 64.015625 53.90625 55.328125 
Q 53.90625 49.265625 50.4375 45.09375 
Q 46.96875 40.921875 40.578125 39.3125 
z
" id="DejaVuSans-51"/>
       </defs>
       <use transform="translate(0 0.765625)" xlink:href="#DejaVuSans-51"/>
       <use transform="translate(83.105469 0.765625)" xlink:href="#DejaVuSans-215"/>
       <use transform="translate(186.376953 0.765625)" xlink:href="#DejaVuSans-49"/>
       <use transform="translate(250 0.765625)" xlink:href="#DejaVuSans-48"/>
       <use transform="translate(314.580078 39.046875)scale(0.7)" xlink:href="#DejaVuSans-48"/>
      </g>
     </g>
    </g>
    <g id="text_6">
     <!-- Time (s) -->
     <g transform="translate(42.320312 238.488906)rotate(-90)scale(0.1 -0.1)">
      <defs>
       <path d="M -0.296875 72.90625 
L 61.375 72.90625 
L 61.375 64.59375 
L 35.5 64.59375 
L 35.5 0 
L 25.59375 0 
L 25.59375 64.59375 
L -0.296875 64.59375 
z
" id="DejaVuSans-84"/>
       <path d="M 52 44.1875 
Q 55.375 50.25 60.0625 53.125 
Q 64.75 56 71.09375 56 
Q 79.640625 56 84.28125 50.015625 
Q 88.921875 44.046875 88.921875 33.015625 
L 88.921875 0 
L 79.890625 0 
L 79.890625 32.71875 
Q 79.890625 40.578125 77.09375 44.375 
Q 74.3125 48.1875 68.609375 48.1875 
Q 61.625 48.1875 57.5625 43.546875 
Q 53.515625 38.921875 53.515625 30.90625 
L 53.515625 0 
L 44.484375 0 
L 44.484375 32.71875 
Q 44.484375 40.625 41.703125 44.40625 
Q 38.921875 48.1875 33.109375 48.1875 
Q 26.21875 48.1875 22.15625 43.53125 
Q 18.109375 38.875 18.109375 30.90625 
L 18.109375 0 
L 9.078125 0 
L 9.078125 54.6875 
L 18.109375 54.6875 
L 18.109375 46.1875 
Q 21.1875 51.21875 25.484375 53.609375 
Q 29.78125 56 35.6875 56 
Q 41.65625 56 45.828125 52.96875 
Q 50 49.953125 52 44.1875 
z
" id="DejaVuSans-109"/>
       <path d="M 31 75.875 
Q 24.46875 64.65625 21.28125 53.65625 
Q 18.109375 42.671875 18.109375 31.390625 
Q 18.109375 20.125 21.3125 9.0625 
Q 24.515625 -2 31 -13.1875 
L 23.1875 -13.1875 
Q 15.875 -1.703125 12.234375 9.375 
Q 8.59375 20.453125 8.59375 31.390625 
Q 8.59375 42.28125 12.203125 53.3125 
Q 15.828125 64.359375 23.1875 75.875 
z
" id="DejaVuSans-40"/>
       <path d="M 8.015625 75.875 
L 15.828125 75.875 
Q 23.140625 64.359375 26.78125 53.3125 
Q 30.421875 42.28125 30.421875 31.390625 
Q 30.421875 20.453125 26.78125 9.375 
Q 23.140625 -1.703125 15.828125 -13.1875 
L 8.015625 -13.1875 
Q 14.5 -2 17.703125 9.0625 
Q 20.90625 20.125 20.90625 31.390625 
Q 20.90625 42.671875 17.703125 53.65625 
Q 14.5 64.65625 8.015625 75.875 
z
" id="DejaVuSans-41"/>
      </defs>
      <use xlink:href="#DejaVuSans-84"/>
      <use x="57.958984" xlink:href="#DejaVuSans-105"/>
      <use x="85.742188" xlink:href="#DejaVuSans-109"/>
      <use x="183.154297" xlink:href="#DejaVuSans-101"/>
      <use x="244.677734" xlink:href="#DejaVuSans-32"/>
      <use x="276.464844" xlink:href="#DejaVuSans-40"/>
      <use x="315.478516" xlink:href="#DejaVuSans-115"/>
      <use x="367.578125" xlink:href="#DejaVuSans-41"/>
     </g>
    </g>
   </g>
   <g id="line2d_25">
    <path clip-path="url(#p1171ac41ea)" d="M -1 331.415849 
L 115.363636 331.486647 
L 245.204162 349.327482 
L 321.156 365.90494 
L 375.044687 362.848 
L 416.844 354.59644 
L 450.996525 359.994341 
L 479.872074 355.022879 
L 504.885212 330.167531 
L 526.948364 326.670252 
L 546.684525 321.821259 
L 564.538055 324.390901 
L 580.837051 326.333799 
L 595.830673 331.25775 
L 609.712599 318.462895 
L 622.636364 309.284918 
" style="fill:none;stroke:#1f77b4;stroke-linecap:square;stroke-width:1.5;"/>
    <defs>
     <path d="M 0 3 
C 0.795609 3 1.55874 2.683901 2.12132 2.12132 
C 2.683901 1.55874 3 0.795609 3 0 
C 3 -0.795609 2.683901 -1.55874 2.12132 -2.12132 
C 1.55874 -2.683901 0.795609 -3 0 -3 
C -0.795609 -3 -1.55874 -2.683901 -2.12132 -2.12132 
C -2.683901 -1.55874 -3 -0.795609 -3 0 
C -3 0.795609 -2.683901 1.55874 -2.12132 2.12132 
C -1.55874 2.683901 -0.795609 3 0 3 
z
" id="md55eaa5f55" style="stroke:#1f77b4;"/>
    </defs>
    <g clip-path="url(#p1171ac41ea)">
     <use style="fill:#1f77b4;stroke:#1f77b4;" x="-1" xlink:href="#md55eaa5f55" y="331.415849"/>
     <use style="fill:#1f77b4;stroke:#1f77b4;" x="115.363636" xlink:href="#md55eaa5f55" y="331.486647"/>
     <use style="fill:#1f77b4;stroke:#1f77b4;" x="245.204162" xlink:href="#md55eaa5f55" y="349.327482"/>
     <use style="fill:#1f77b4;stroke:#1f77b4;" x="321.156" xlink:href="#md55eaa5f55" y="365.90494"/>
     <use style="fill:#1f77b4;stroke:#1f77b4;" x="375.044687" xlink:href="#md55eaa5f55" y="362.848"/>
     <use style="fill:#1f77b4;stroke:#1f77b4;" x="416.844" xlink:href="#md55eaa5f55" y="354.59644"/>
     <use style="fill:#1f77b4;stroke:#1f77b4;" x="450.996525" xlink:href="#md55eaa5f55" y="359.994341"/>
     <use style="fill:#1f77b4;stroke:#1f77b4;" x="479.872074" xlink:href="#md55eaa5f55" y="355.022879"/>
     <use style="fill:#1f77b4;stroke:#1f77b4;" x="504.885212" xlink:href="#md55eaa5f55" y="330.167531"/>
     <use style="fill:#1f77b4;stroke:#1f77b4;" x="526.948364" xlink:href="#md55eaa5f55" y="326.670252"/>
     <use style="fill:#1f77b4;stroke:#1f77b4;" x="546.684525" xlink:href="#md55eaa5f55" y="321.821259"/>
     <use style="fill:#1f77b4;stroke:#1f77b4;" x="564.538055" xlink:href="#md55eaa5f55" y="324.390901"/>
     <use style="fill:#1f77b4;stroke:#1f77b4;" x="580.837051" xlink:href="#md55eaa5f55" y="326.333799"/>
     <use style="fill:#1f77b4;stroke:#1f77b4;" x="595.830673" xlink:href="#md55eaa5f55" y="331.25775"/>
     <use style="fill:#1f77b4;stroke:#1f77b4;" x="609.712599" xlink:href="#md55eaa5f55" y="318.462895"/>
     <use style="fill:#1f77b4;stroke:#1f77b4;" x="622.636364" xlink:href="#md55eaa5f55" y="309.284918"/>
    </g>
   </g>
   <g id="line2d_26">
    <path clip-path="url(#p1171ac41ea)" d="M 375.038631 433 
L 375.044687 362.138131 
L 416.844 351.194438 
L 450.996525 357.696021 
L 479.872074 354.3664 
L 504.885212 320.469553 
L 526.948364 325.26322 
L 546.684525 328.099919 
L 564.538055 326.266958 
L 580.837051 332.245696 
L 595.830673 334.209538 
L 609.712599 319.665612 
L 622.636364 321.422317 
" style="fill:none;stroke:#ff7f0e;stroke-linecap:square;stroke-width:1.5;"/>
    <defs>
     <path d="M 0 3 
C 0.795609 3 1.55874 2.683901 2.12132 2.12132 
C 2.683901 1.55874 3 0.795609 3 0 
C 3 -0.795609 2.683901 -1.55874 2.12132 -2.12132 
C 1.55874 -2.683901 0.795609 -3 0 -3 
C -0.795609 -3 -1.55874 -2.683901 -2.12132 -2.12132 
C -2.683901 -1.55874 -3 -0.795609 -3 0 
C -3 0.795609 -2.683901 1.55874 -2.12132 2.12132 
C -1.55874 2.683901 -0.795609 3 0 3 
z
" id="md168c748b3" style="stroke:#ff7f0e;"/>
    </defs>
    <g clip-path="url(#p1171ac41ea)">
     <use style="fill:#ff7f0e;stroke:#ff7f0e;" x="372.417207" xlink:href="#md168c748b3" y="31105"/>
     <use style="fill:#ff7f0e;stroke:#ff7f0e;" x="375.044687" xlink:href="#md168c748b3" y="362.138131"/>
     <use style="fill:#ff7f0e;stroke:#ff7f0e;" x="416.844" xlink:href="#md168c748b3" y="351.194438"/>
     <use style="fill:#ff7f0e;stroke:#ff7f0e;" x="450.996525" xlink:href="#md168c748b3" y="357.696021"/>
     <use style="fill:#ff7f0e;stroke:#ff7f0e;" x="479.872074" xlink:href="#md168c748b3" y="354.3664"/>
     <use style="fill:#ff7f0e;stroke:#ff7f0e;" x="504.885212" xlink:href="#md168c748b3" y="320.469553"/>
     <use style="fill:#ff7f0e;stroke:#ff7f0e;" x="526.948364" xlink:href="#md168c748b3" y="325.26322"/>
     <use style="fill:#ff7f0e;stroke:#ff7f0e;" x="546.684525" xlink:href="#md168c748b3" y="328.099919"/>
     <use style="fill:#ff7f0e;stroke:#ff7f0e;" x="564.538055" xlink:href="#md168c748b3" y="326.266958"/>
     <use style="fill:#ff7f0e;stroke:#ff7f0e;" x="580.837051" xlink:href="#md168c748b3" y="332.245696"/>
     <use style="fill:#ff7f0e;stroke:#ff7f0e;" x="595.830673" xlink:href="#md168c748b3" y="334.209538"/>
     <use style="fill:#ff7f0e;stroke:#ff7f0e;" x="609.712599" xlink:href="#md168c748b3" y="319.665612"/>
     <use style="fill:#ff7f0e;stroke:#ff7f0e;" x="622.636364" xlink:href="#md168c748b3" y="321.422317"/>
    </g>
   </g>
   <g id="line2d_27">
    <path clip-path="url(#p1171ac41ea)" d="M -1 331.858533 
L 115.363636 331.930018 
L 245.204162 350.525746 
L 321.156 361.355657 
L 375.044687 366.518017 
L 416.844 358.376208 
L 450.996525 356.31189 
L 479.872074 352.892021 
L 504.885212 328.834214 
L 526.948364 322.6712 
L 546.684525 323.955517 
L 564.538055 328.897589 
L 580.837051 325.036738 
L 595.830673 333.574295 
L 609.712599 337.303513 
L 622.636364 328.863588 
" style="fill:none;stroke:#2ca02c;stroke-linecap:square;stroke-width:1.5;"/>
    <defs>
     <path d="M 0 3 
C 0.795609 3 1.55874 2.683901 2.12132 2.12132 
C 2.683901 1.55874 3 0.795609 3 0 
C 3 -0.795609 2.683901 -1.55874 2.12132 -2.12132 
C 1.55874 -2.683901 0.795609 -3 0 -3 
C -0.795609 -3 -1.55874 -2.683901 -2.12132 -2.12132 
C -2.683901 -1.55874 -3 -0.795609 -3 0 
C -3 0.795609 -2.683901 1.55874 -2.12132 2.12132 
C -1.55874 2.683901 -0.795609 3 0 3 
z
" id="m838b0d6854" style="stroke:#2ca02c;"/>
    </defs>
    <g clip-path="url(#p1171ac41ea)">
     <use style="fill:#2ca02c;stroke:#2ca02c;" x="-1" xlink:href="#m838b0d6854" y="331.858533"/>
     <use style="fill:#2ca02c;stroke:#2ca02c;" x="115.363636" xlink:href="#m838b0d6854" y="331.930018"/>
     <use style="fill:#2ca02c;stroke:#2ca02c;" x="245.204162" xlink:href="#m838b0d6854" y="350.525746"/>
     <use style="fill:#2ca02c;stroke:#2ca02c;" x="321.156" xlink:href="#m838b0d6854" y="361.355657"/>
     <use style="fill:#2ca02c;stroke:#2ca02c;" x="375.044687" xlink:href="#m838b0d6854" y="366.518017"/>
     <use style="fill:#2ca02c;stroke:#2ca02c;" x="416.844" xlink:href="#m838b0d6854" y="358.376208"/>
     <use style="fill:#2ca02c;stroke:#2ca02c;" x="450.996525" xlink:href="#m838b0d6854" y="356.31189"/>
     <use style="fill:#2ca02c;stroke:#2ca02c;" x="479.872074" xlink:href="#m838b0d6854" y="352.892021"/>
     <use style="fill:#2ca02c;stroke:#2ca02c;" x="504.885212" xlink:href="#m838b0d6854" y="328.834214"/>
     <use style="fill:#2ca02c;stroke:#2ca02c;" x="526.948364" xlink:href="#m838b0d6854" y="322.6712"/>
     <use style="fill:#2ca02c;stroke:#2ca02c;" x="546.684525" xlink:href="#m838b0d6854" y="323.955517"/>
     <use style="fill:#2ca02c;stroke:#2ca02c;" x="564.538055" xlink:href="#m838b0d6854" y="328.897589"/>
     <use style="fill:#2ca02c;stroke:#2ca02c;" x="580.837051" xlink:href="#m838b0d6854" y="325.036738"/>
     <use style="fill:#2ca02c;stroke:#2ca02c;" x="595.830673" xlink:href="#m838b0d6854" y="333.574295"/>
     <use style="fill:#2ca02c;stroke:#2ca02c;" x="609.712599" xlink:href="#m838b0d6854" y="337.303513"/>
     <use style="fill:#2ca02c;stroke:#2ca02c;" x="622.636364" xlink:href="#m838b0d6854" y="328.863588"/>
    </g>
   </g>
   <g id="line2d_28">
    <path clip-path="url(#p1171ac41ea)" d="M -1 331.081765 
L 115.363636 331.152121 
L 245.204162 352.953133 
L 321.156 366.384941 
L 375.044687 368.628622 
L 416.844 349.110944 
L 450.996525 356.331154 
L 479.872074 346.500978 
L 504.885212 331.75123 
L 526.948364 329.027375 
L 546.684525 325.886316 
L 564.538055 329.289944 
L 580.837051 321.356654 
L 595.830673 327.351553 
L 609.712599 327.022669 
L 622.636364 322.000417 
" style="fill:none;stroke:#d62728;stroke-linecap:square;stroke-width:1.5;"/>
    <defs>
     <path d="M 0 3 
C 0.795609 3 1.55874 2.683901 2.12132 2.12132 
C 2.683901 1.55874 3 0.795609 3 0 
C 3 -0.795609 2.683901 -1.55874 2.12132 -2.12132 
C 1.55874 -2.683901 0.795609 -3 0 -3 
C -0.795609 -3 -1.55874 -2.683901 -2.12132 -2.12132 
C -2.683901 -1.55874 -3 -0.795609 -3 0 
C -3 0.795609 -2.683901 1.55874 -2.12132 2.12132 
C -1.55874 2.683901 -0.795609 3 0 3 
z
" id="m0c5e4ba356" style="stroke:#d62728;"/>
    </defs>
    <g clip-path="url(#p1171ac41ea)">
     <use style="fill:#d62728;stroke:#d62728;" x="-1" xlink:href="#m0c5e4ba356" y="331.081765"/>
     <use style="fill:#d62728;stroke:#d62728;" x="115.363636" xlink:href="#m0c5e4ba356" y="331.152121"/>
     <use style="fill:#d62728;stroke:#d62728;" x="245.204162" xlink:href="#m0c5e4ba356" y="352.953133"/>
     <use style="fill:#d62728;stroke:#d62728;" x="321.156" xlink:href="#m0c5e4ba356" y="366.384941"/>
     <use style="fill:#d62728;stroke:#d62728;" x="375.044687" xlink:href="#m0c5e4ba356" y="368.628622"/>
     <use style="fill:#d62728;stroke:#d62728;" x="416.844" xlink:href="#m0c5e4ba356" y="349.110944"/>
     <use style="fill:#d62728;stroke:#d62728;" x="450.996525" xlink:href="#m0c5e4ba356" y="356.331154"/>
     <use style="fill:#d62728;stroke:#d62728;" x="479.872074" xlink:href="#m0c5e4ba356" y="346.500978"/>
     <use style="fill:#d62728;stroke:#d62728;" x="504.885212" xlink:href="#m0c5e4ba356" y="331.75123"/>
     <use style="fill:#d62728;stroke:#d62728;" x="526.948364" xlink:href="#m0c5e4ba356" y="329.027375"/>
     <use style="fill:#d62728;stroke:#d62728;" x="546.684525" xlink:href="#m0c5e4ba356" y="325.886316"/>
     <use style="fill:#d62728;stroke:#d62728;" x="564.538055" xlink:href="#m0c5e4ba356" y="329.289944"/>
     <use style="fill:#d62728;stroke:#d62728;" x="580.837051" xlink:href="#m0c5e4ba356" y="321.356654"/>
     <use style="fill:#d62728;stroke:#d62728;" x="595.830673" xlink:href="#m0c5e4ba356" y="327.351553"/>
     <use style="fill:#d62728;stroke:#d62728;" x="609.712599" xlink:href="#m0c5e4ba356" y="327.022669"/>
     <use style="fill:#d62728;stroke:#d62728;" x="622.636364" xlink:href="#m0c5e4ba356" y="322.000417"/>
    </g>
   </g>
   <g id="line2d_29">
    <path clip-path="url(#p1171ac41ea)" d="M -1 317.908421 
L 115.363636 317.975742 
L 245.204162 350.632023 
L 321.156 363.43245 
L 375.044687 367.640076 
L 416.844 356.967251 
L 450.996525 351.565351 
L 479.872074 354.795736 
L 504.885212 326.805056 
L 526.948364 318.828435 
L 546.684525 327.215841 
L 564.538055 321.711663 
L 580.837051 331.013169 
L 595.830673 330.412413 
L 609.712599 332.788578 
L 622.636364 322.415555 
" style="fill:none;stroke:#9467bd;stroke-linecap:square;stroke-width:1.5;"/>
    <defs>
     <path d="M 0 3 
C 0.795609 3 1.55874 2.683901 2.12132 2.12132 
C 2.683901 1.55874 3 0.795609 3 0 
C 3 -0.795609 2.683901 -1.55874 2.12132 -2.12132 
C 1.55874 -2.683901 0.795609 -3 0 -3 
C -0.795609 -3 -1.55874 -2.683901 -2.12132 -2.12132 
C -2.683901 -1.55874 -3 -0.795609 -3 0 
C -3 0.795609 -2.683901 1.55874 -2.12132 2.12132 
C -1.55874 2.683901 -0.795609 3 0 3 
z
" id="md7a94c922b" style="stroke:#9467bd;"/>
    </defs>
    <g clip-path="url(#p1171ac41ea)">
     <use style="fill:#9467bd;stroke:#9467bd;" x="-1" xlink:href="#md7a94c922b" y="317.908421"/>
     <use style="fill:#9467bd;stroke:#9467bd;" x="115.363636" xlink:href="#md7a94c922b" y="317.975742"/>
     <use style="fill:#9467bd;stroke:#9467bd;" x="245.204162" xlink:href="#md7a94c922b" y="350.632023"/>
     <use style="fill:#9467bd;stroke:#9467bd;" x="321.156" xlink:href="#md7a94c922b" y="363.43245"/>
     <use style="fill:#9467bd;stroke:#9467bd;" x="375.044687" xlink:href="#md7a94c922b" y="367.640076"/>
     <use style="fill:#9467bd;stroke:#9467bd;" x="416.844" xlink:href="#md7a94c922b" y="356.967251"/>
     <use style="fill:#9467bd;stroke:#9467bd;" x="450.996525" xlink:href="#md7a94c922b" y="351.565351"/>
     <use style="fill:#9467bd;stroke:#9467bd;" x="479.872074" xlink:href="#md7a94c922b" y="354.795736"/>
     <use style="fill:#9467bd;stroke:#9467bd;" x="504.885212" xlink:href="#md7a94c922b" y="326.805056"/>
     <use style="fill:#9467bd;stroke:#9467bd;" x="526.948364" xlink:href="#md7a94c922b" y="318.828435"/>
     <use style="fill:#9467bd;stroke:#9467bd;" x="546.684525" xlink:href="#md7a94c922b" y="327.215841"/>
     <use style="fill:#9467bd;stroke:#9467bd;" x="564.538055" xlink:href="#md7a94c922b" y="321.711663"/>
     <use style="fill:#9467bd;stroke:#9467bd;" x="580.837051" xlink:href="#md7a94c922b" y="331.013169"/>
     <use style="fill:#9467bd;stroke:#9467bd;" x="595.830673" xlink:href="#md7a94c922b" y="330.412413"/>
     <use style="fill:#9467bd;stroke:#9467bd;" x="609.712599" xlink:href="#md7a94c922b" y="332.788578"/>
     <use style="fill:#9467bd;stroke:#9467bd;" x="622.636364" xlink:href="#md7a94c922b" y="322.415555"/>
    </g>
   </g>
   <g id="line2d_30">
    <path clip-path="url(#p1171ac41ea)" d="M -1 320.687709 
L 115.363636 320.752926 
L 245.204162 348.096444 
L 321.156 367.248438 
L 375.044687 369.36 
L 416.844 362.363158 
L 450.996525 347.645713 
L 479.872074 353.314858 
L 504.885212 317.712686 
L 526.948364 329.937453 
L 546.684525 324.317405 
L 564.538055 317.030074 
L 580.837051 330.683081 
L 595.830673 336.592208 
L 609.712599 335.667503 
L 622.636364 327.282074 
" style="fill:none;stroke:#8c564b;stroke-linecap:square;stroke-width:1.5;"/>
    <defs>
     <path d="M 0 3 
C 0.795609 3 1.55874 2.683901 2.12132 2.12132 
C 2.683901 1.55874 3 0.795609 3 0 
C 3 -0.795609 2.683901 -1.55874 2.12132 -2.12132 
C 1.55874 -2.683901 0.795609 -3 0 -3 
C -0.795609 -3 -1.55874 -2.683901 -2.12132 -2.12132 
C -2.683901 -1.55874 -3 -0.795609 -3 0 
C -3 0.795609 -2.683901 1.55874 -2.12132 2.12132 
C -1.55874 2.683901 -0.795609 3 0 3 
z
" id="m4d0a17cff7" style="stroke:#8c564b;"/>
    </defs>
    <g clip-path="url(#p1171ac41ea)">
     <use style="fill:#8c564b;stroke:#8c564b;" x="-1" xlink:href="#m4d0a17cff7" y="320.687709"/>
     <use style="fill:#8c564b;stroke:#8c564b;" x="115.363636" xlink:href="#m4d0a17cff7" y="320.752926"/>
     <use style="fill:#8c564b;stroke:#8c564b;" x="245.204162" xlink:href="#m4d0a17cff7" y="348.096444"/>
     <use style="fill:#8c564b;stroke:#8c564b;" x="321.156" xlink:href="#m4d0a17cff7" y="367.248438"/>
     <use style="fill:#8c564b;stroke:#8c564b;" x="375.044687" xlink:href="#m4d0a17cff7" y="369.36"/>
     <use style="fill:#8c564b;stroke:#8c564b;" x="416.844" xlink:href="#m4d0a17cff7" y="362.363158"/>
     <use style="fill:#8c564b;stroke:#8c564b;" x="450.996525" xlink:href="#m4d0a17cff7" y="347.645713"/>
     <use style="fill:#8c564b;stroke:#8c564b;" x="479.872074" xlink:href="#m4d0a17cff7" y="353.314858"/>
     <use style="fill:#8c564b;stroke:#8c564b;" x="504.885212" xlink:href="#m4d0a17cff7" y="317.712686"/>
     <use style="fill:#8c564b;stroke:#8c564b;" x="526.948364" xlink:href="#m4d0a17cff7" y="329.937453"/>
     <use style="fill:#8c564b;stroke:#8c564b;" x="546.684525" xlink:href="#m4d0a17cff7" y="324.317405"/>
     <use style="fill:#8c564b;stroke:#8c564b;" x="564.538055" xlink:href="#m4d0a17cff7" y="317.030074"/>
     <use style="fill:#8c564b;stroke:#8c564b;" x="580.837051" xlink:href="#m4d0a17cff7" y="330.683081"/>
     <use style="fill:#8c564b;stroke:#8c564b;" x="595.830673" xlink:href="#m4d0a17cff7" y="336.592208"/>
     <use style="fill:#8c564b;stroke:#8c564b;" x="609.712599" xlink:href="#m4d0a17cff7" y="335.667503"/>
     <use style="fill:#8c564b;stroke:#8c564b;" x="622.636364" xlink:href="#m4d0a17cff7" y="327.282074"/>
    </g>
   </g>
   <g id="line2d_31">
    <path clip-path="url(#p1171ac41ea)" d="M -1 324.045705 
L 115.363636 324.113205 
L 245.204162 348.474556 
L 321.156 365.465764 
L 375.044687 366.032145 
L 416.844 355.657395 
L 450.996525 348.609447 
L 479.872074 343.987709 
L 504.885212 326.63684 
L 526.948364 331.005684 
L 546.684525 322.050527 
L 564.538055 320.178877 
L 580.837051 319.594564 
L 595.830673 329.768028 
L 609.712599 325.115883 
L 622.636364 315.561514 
" style="fill:none;stroke:#e377c2;stroke-linecap:square;stroke-width:1.5;"/>
    <defs>
     <path d="M 0 3 
C 0.795609 3 1.55874 2.683901 2.12132 2.12132 
C 2.683901 1.55874 3 0.795609 3 0 
C 3 -0.795609 2.683901 -1.55874 2.12132 -2.12132 
C 1.55874 -2.683901 0.795609 -3 0 -3 
C -0.795609 -3 -1.55874 -2.683901 -2.12132 -2.12132 
C -2.683901 -1.55874 -3 -0.795609 -3 0 
C -3 0.795609 -2.683901 1.55874 -2.12132 2.12132 
C -1.55874 2.683901 -0.795609 3 0 3 
z
" id="m42538cda72" style="stroke:#e377c2;"/>
    </defs>
    <g clip-path="url(#p1171ac41ea)">
     <use style="fill:#e377c2;stroke:#e377c2;" x="-1" xlink:href="#m42538cda72" y="324.045705"/>
     <use style="fill:#e377c2;stroke:#e377c2;" x="115.363636" xlink:href="#m42538cda72" y="324.113205"/>
     <use style="fill:#e377c2;stroke:#e377c2;" x="245.204162" xlink:href="#m42538cda72" y="348.474556"/>
     <use style="fill:#e377c2;stroke:#e377c2;" x="321.156" xlink:href="#m42538cda72" y="365.465764"/>
     <use style="fill:#e377c2;stroke:#e377c2;" x="375.044687" xlink:href="#m42538cda72" y="366.032145"/>
     <use style="fill:#e377c2;stroke:#e377c2;" x="416.844" xlink:href="#m42538cda72" y="355.657395"/>
     <use style="fill:#e377c2;stroke:#e377c2;" x="450.996525" xlink:href="#m42538cda72" y="348.609447"/>
     <use style="fill:#e377c2;stroke:#e377c2;" x="479.872074" xlink:href="#m42538cda72" y="343.987709"/>
     <use style="fill:#e377c2;stroke:#e377c2;" x="504.885212" xlink:href="#m42538cda72" y="326.63684"/>
     <use style="fill:#e377c2;stroke:#e377c2;" x="526.948364" xlink:href="#m42538cda72" y="331.005684"/>
     <use style="fill:#e377c2;stroke:#e377c2;" x="546.684525" xlink:href="#m42538cda72" y="322.050527"/>
     <use style="fill:#e377c2;stroke:#e377c2;" x="564.538055" xlink:href="#m42538cda72" y="320.178877"/>
     <use style="fill:#e377c2;stroke:#e377c2;" x="580.837051" xlink:href="#m42538cda72" y="319.594564"/>
     <use style="fill:#e377c2;stroke:#e377c2;" x="595.830673" xlink:href="#m42538cda72" y="329.768028"/>
     <use style="fill:#e377c2;stroke:#e377c2;" x="609.712599" xlink:href="#m42538cda72" y="325.115883"/>
     <use style="fill:#e377c2;stroke:#e377c2;" x="622.636364" xlink:href="#m42538cda72" y="315.561514"/>
    </g>
   </g>
   <g id="patch_3">
    <path d="M 90 384.48 
L 90 51.84 
" style="fill:none;stroke:#000000;stroke-linecap:square;stroke-linejoin:miter;stroke-width:0.8;"/>
   </g>
   <g id="patch_4">
    <path d="M 648 384.48 
L 648 51.84 
" style="fill:none;stroke:#000000;stroke-linecap:square;stroke-linejoin:miter;stroke-width:0.8;"/>
   </g>
   <g id="patch_5">
    <path d="M 90 384.48 
L 648 384.48 
" style="fill:none;stroke:#000000;stroke-linecap:square;stroke-linejoin:miter;stroke-width:0.8;"/>
   </g>
   <g id="patch_6">
    <path d="M 90 51.84 
L 648 51.84 
" style="fill:none;stroke:#000000;stroke-linecap:square;stroke-linejoin:miter;stroke-width:0.8;"/>
   </g>
   <g id="text_7">
    <!-- Case 1: Varying MPI size -->
    <g transform="translate(296.039062 45.84)scale(0.12 -0.12)">
     <defs>
      <path d="M 64.40625 67.28125 
L 64.40625 56.890625 
Q 59.421875 61.53125 53.78125 63.8125 
Q 48.140625 66.109375 41.796875 66.109375 
Q 29.296875 66.109375 22.65625 58.46875 
Q 16.015625 50.828125 16.015625 36.375 
Q 16.015625 21.96875 22.65625 14.328125 
Q 29.296875 6.6875 41.796875 6.6875 
Q 48.140625 6.6875 53.78125 8.984375 
Q 59.421875 11.28125 64.40625 15.921875 
L 64.40625 5.609375 
Q 59.234375 2.09375 53.4375 0.328125 
Q 47.65625 -1.421875 41.21875 -1.421875 
Q 24.65625 -1.421875 15.125 8.703125 
Q 5.609375 18.84375 5.609375 36.375 
Q 5.609375 53.953125 15.125 64.078125 
Q 24.65625 74.21875 41.21875 74.21875 
Q 47.75 74.21875 53.53125 72.484375 
Q 59.328125 70.75 64.40625 67.28125 
z
" id="DejaVuSans-67"/>
      <path d="M 34.28125 27.484375 
Q 23.390625 27.484375 19.1875 25 
Q 14.984375 22.515625 14.984375 16.5 
Q 14.984375 11.71875 18.140625 8.90625 
Q 21.296875 6.109375 26.703125 6.109375 
Q 34.1875 6.109375 38.703125 11.40625 
Q 43.21875 16.703125 43.21875 25.484375 
L 43.21875 27.484375 
z
M 52.203125 31.203125 
L 52.203125 0 
L 43.21875 0 
L 43.21875 8.296875 
Q 40.140625 3.328125 35.546875 0.953125 
Q 30.953125 -1.421875 24.3125 -1.421875 
Q 15.921875 -1.421875 10.953125 3.296875 
Q 6 8.015625 6 15.921875 
Q 6 25.140625 12.171875 29.828125 
Q 18.359375 34.515625 30.609375 34.515625 
L 43.21875 34.515625 
L 43.21875 35.40625 
Q 43.21875 41.609375 39.140625 45 
Q 35.0625 48.390625 27.6875 48.390625 
Q 23 48.390625 18.546875 47.265625 
Q 14.109375 46.140625 10.015625 43.890625 
L 10.015625 52.203125 
Q 14.9375 54.109375 19.578125 55.046875 
Q 24.21875 56 28.609375 56 
Q 40.484375 56 46.34375 49.84375 
Q 52.203125 43.703125 52.203125 31.203125 
z
" id="DejaVuSans-97"/>
      <path d="M 11.71875 12.40625 
L 22.015625 12.40625 
L 22.015625 0 
L 11.71875 0 
z
M 11.71875 51.703125 
L 22.015625 51.703125 
L 22.015625 39.3125 
L 11.71875 39.3125 
z
" id="DejaVuSans-58"/>
      <path d="M 28.609375 0 
L 0.78125 72.90625 
L 11.078125 72.90625 
L 34.1875 11.53125 
L 57.328125 72.90625 
L 67.578125 72.90625 
L 39.796875 0 
z
" id="DejaVuSans-86"/>
      <path d="M 41.109375 46.296875 
Q 39.59375 47.171875 37.8125 47.578125 
Q 36.03125 48 33.890625 48 
Q 26.265625 48 22.1875 43.046875 
Q 18.109375 38.09375 18.109375 28.8125 
L 18.109375 0 
L 9.078125 0 
L 9.078125 54.6875 
L 18.109375 54.6875 
L 18.109375 46.1875 
Q 20.953125 51.171875 25.484375 53.578125 
Q 30.03125 56 36.53125 56 
Q 37.453125 56 38.578125 55.875 
Q 39.703125 55.765625 41.0625 55.515625 
z
" id="DejaVuSans-114"/>
      <path d="M 32.171875 -5.078125 
Q 28.375 -14.84375 24.75 -17.8125 
Q 21.140625 -20.796875 15.09375 -20.796875 
L 7.90625 -20.796875 
L 7.90625 -13.28125 
L 13.1875 -13.28125 
Q 16.890625 -13.28125 18.9375 -11.515625 
Q 21 -9.765625 23.484375 -3.21875 
L 25.09375 0.875 
L 2.984375 54.6875 
L 12.5 54.6875 
L 29.59375 11.921875 
L 46.6875 54.6875 
L 56.203125 54.6875 
z
" id="DejaVuSans-121"/>
      <path d="M 54.890625 33.015625 
L 54.890625 0 
L 45.90625 0 
L 45.90625 32.71875 
Q 45.90625 40.484375 42.875 44.328125 
Q 39.84375 48.1875 33.796875 48.1875 
Q 26.515625 48.1875 22.3125 43.546875 
Q 18.109375 38.921875 18.109375 30.90625 
L 18.109375 0 
L 9.078125 0 
L 9.078125 54.6875 
L 18.109375 54.6875 
L 18.109375 46.1875 
Q 21.34375 51.125 25.703125 53.5625 
Q 30.078125 56 35.796875 56 
Q 45.21875 56 50.046875 50.171875 
Q 54.890625 44.34375 54.890625 33.015625 
z
" id="DejaVuSans-110"/>
      <path d="M 45.40625 27.984375 
Q 45.40625 37.75 41.375 43.109375 
Q 37.359375 48.484375 30.078125 48.484375 
Q 22.859375 48.484375 18.828125 43.109375 
Q 14.796875 37.75 14.796875 27.984375 
Q 14.796875 18.265625 18.828125 12.890625 
Q 22.859375 7.515625 30.078125 7.515625 
Q 37.359375 7.515625 41.375 12.890625 
Q 45.40625 18.265625 45.40625 27.984375 
z
M 54.390625 6.78125 
Q 54.390625 -7.171875 48.1875 -13.984375 
Q 42 -20.796875 29.203125 -20.796875 
Q 24.46875 -20.796875 20.265625 -20.09375 
Q 16.0625 -19.390625 12.109375 -17.921875 
L 12.109375 -9.1875 
Q 16.0625 -11.328125 19.921875 -12.34375 
Q 23.78125 -13.375 27.78125 -13.375 
Q 36.625 -13.375 41.015625 -8.765625 
Q 45.40625 -4.15625 45.40625 5.171875 
L 45.40625 9.625 
Q 42.625 4.78125 38.28125 2.390625 
Q 33.9375 0 27.875 0 
Q 17.828125 0 11.671875 7.65625 
Q 5.515625 15.328125 5.515625 27.984375 
Q 5.515625 40.671875 11.671875 48.328125 
Q 17.828125 56 27.875 56 
Q 33.9375 56 38.28125 53.609375 
Q 42.625 51.21875 45.40625 46.390625 
L 45.40625 54.6875 
L 54.390625 54.6875 
z
" id="DejaVuSans-103"/>
     </defs>
     <use xlink:href="#DejaVuSans-67"/>
     <use x="69.824219" xlink:href="#DejaVuSans-97"/>
     <use x="131.103516" xlink:href="#DejaVuSans-115"/>
     <use x="183.203125" xlink:href="#DejaVuSans-101"/>
     <use x="244.726562" xlink:href="#DejaVuSans-32"/>
     <use x="276.513672" xlink:href="#DejaVuSans-49"/>
     <use x="340.136719" xlink:href="#DejaVuSans-58"/>
     <use x="373.828125" xlink:href="#DejaVuSans-32"/>
     <use x="405.615234" xlink:href="#DejaVuSans-86"/>
     <use x="466.273438" xlink:href="#DejaVuSans-97"/>
     <use x="527.552734" xlink:href="#DejaVuSans-114"/>
     <use x="568.666016" xlink:href="#DejaVuSans-121"/>
     <use x="627.845703" xlink:href="#DejaVuSans-105"/>
     <use x="655.628906" xlink:href="#DejaVuSans-110"/>
     <use x="719.007812" xlink:href="#DejaVuSans-103"/>
     <use x="782.484375" xlink:href="#DejaVuSans-32"/>
     <use x="814.271484" xlink:href="#DejaVuSans-77"/>
     <use x="900.550781" xlink:href="#DejaVuSans-80"/>
     <use x="960.853516" xlink:href="#DejaVuSans-73"/>
     <use x="990.345703" xlink:href="#DejaVuSans-32"/>
     <use x="1022.132812" xlink:href="#DejaVuSans-115"/>
     <use x="1074.232422" xlink:href="#DejaVuSans-105"/>
     <use x="1102.015625" xlink:href="#DejaVuSans-122"/>
     <use x="1154.505859" xlink:href="#DejaVuSans-101"/>
    </g>
   </g>
   <g id="legend_1">
    <g id="patch_7">
     <path d="M 389.2625 164.53375 
L 641 164.53375 
Q 643 164.53375 643 162.53375 
L 643 58.84 
Q 643 56.84 641 56.84 
L 389.2625 56.84 
Q 387.2625 56.84 387.2625 58.84 
L 387.2625 162.53375 
Q 387.2625 164.53375 389.2625 164.53375 
z
" style="fill:#ffffff;opacity:0.8;stroke:#cccccc;stroke-linejoin:miter;"/>
    </g>
    <g id="line2d_32">
     <path d="M 391.2625 64.938437 
L 411.2625 64.938437 
" style="fill:none;stroke:#1f77b4;stroke-linecap:square;stroke-width:1.5;"/>
    </g>
    <g id="line2d_33">
     <g>
      <use style="fill:#1f77b4;stroke:#1f77b4;" x="401.2625" xlink:href="#md55eaa5f55" y="64.938437"/>
     </g>
    </g>
    <g id="text_8">
     <!-- excluive_pipelined_binary_tree_scan -->
     <g transform="translate(419.2625 68.438437)scale(0.1 -0.1)">
      <defs>
       <path d="M 54.890625 54.6875 
L 35.109375 28.078125 
L 55.90625 0 
L 45.3125 0 
L 29.390625 21.484375 
L 13.484375 0 
L 2.875 0 
L 24.125 28.609375 
L 4.6875 54.6875 
L 15.28125 54.6875 
L 29.78125 35.203125 
L 44.28125 54.6875 
z
" id="DejaVuSans-120"/>
       <path d="M 48.78125 52.59375 
L 48.78125 44.1875 
Q 44.96875 46.296875 41.140625 47.34375 
Q 37.3125 48.390625 33.40625 48.390625 
Q 24.65625 48.390625 19.8125 42.84375 
Q 14.984375 37.3125 14.984375 27.296875 
Q 14.984375 17.28125 19.8125 11.734375 
Q 24.65625 6.203125 33.40625 6.203125 
Q 37.3125 6.203125 41.140625 7.25 
Q 44.96875 8.296875 48.78125 10.40625 
L 48.78125 2.09375 
Q 45.015625 0.34375 40.984375 -0.53125 
Q 36.96875 -1.421875 32.421875 -1.421875 
Q 20.0625 -1.421875 12.78125 6.34375 
Q 5.515625 14.109375 5.515625 27.296875 
Q 5.515625 40.671875 12.859375 48.328125 
Q 20.21875 56 33.015625 56 
Q 37.15625 56 41.109375 55.140625 
Q 45.0625 54.296875 48.78125 52.59375 
z
" id="DejaVuSans-99"/>
       <path d="M 9.421875 75.984375 
L 18.40625 75.984375 
L 18.40625 0 
L 9.421875 0 
z
" id="DejaVuSans-108"/>
       <path d="M 8.5 21.578125 
L 8.5 54.6875 
L 17.484375 54.6875 
L 17.484375 21.921875 
Q 17.484375 14.15625 20.5 10.265625 
Q 23.53125 6.390625 29.59375 6.390625 
Q 36.859375 6.390625 41.078125 11.03125 
Q 45.3125 15.671875 45.3125 23.6875 
L 45.3125 54.6875 
L 54.296875 54.6875 
L 54.296875 0 
L 45.3125 0 
L 45.3125 8.40625 
Q 42.046875 3.421875 37.71875 1 
Q 33.40625 -1.421875 27.6875 -1.421875 
Q 18.265625 -1.421875 13.375 4.4375 
Q 8.5 10.296875 8.5 21.578125 
z
M 31.109375 56 
z
" id="DejaVuSans-117"/>
       <path d="M 2.984375 54.6875 
L 12.5 54.6875 
L 29.59375 8.796875 
L 46.6875 54.6875 
L 56.203125 54.6875 
L 35.6875 0 
L 23.484375 0 
z
" id="DejaVuSans-118"/>
       <path d="M 50.984375 -16.609375 
L 50.984375 -23.578125 
L -0.984375 -23.578125 
L -0.984375 -16.609375 
z
" id="DejaVuSans-95"/>
       <path d="M 18.109375 8.203125 
L 18.109375 -20.796875 
L 9.078125 -20.796875 
L 9.078125 54.6875 
L 18.109375 54.6875 
L 18.109375 46.390625 
Q 20.953125 51.265625 25.265625 53.625 
Q 29.59375 56 35.59375 56 
Q 45.5625 56 51.78125 48.09375 
Q 58.015625 40.1875 58.015625 27.296875 
Q 58.015625 14.40625 51.78125 6.484375 
Q 45.5625 -1.421875 35.59375 -1.421875 
Q 29.59375 -1.421875 25.265625 0.953125 
Q 20.953125 3.328125 18.109375 8.203125 
z
M 48.6875 27.296875 
Q 48.6875 37.203125 44.609375 42.84375 
Q 40.53125 48.484375 33.40625 48.484375 
Q 26.265625 48.484375 22.1875 42.84375 
Q 18.109375 37.203125 18.109375 27.296875 
Q 18.109375 17.390625 22.1875 11.75 
Q 26.265625 6.109375 33.40625 6.109375 
Q 40.53125 6.109375 44.609375 11.75 
Q 48.6875 17.390625 48.6875 27.296875 
z
" id="DejaVuSans-112"/>
       <path d="M 45.40625 46.390625 
L 45.40625 75.984375 
L 54.390625 75.984375 
L 54.390625 0 
L 45.40625 0 
L 45.40625 8.203125 
Q 42.578125 3.328125 38.25 0.953125 
Q 33.9375 -1.421875 27.875 -1.421875 
Q 17.96875 -1.421875 11.734375 6.484375 
Q 5.515625 14.40625 5.515625 27.296875 
Q 5.515625 40.1875 11.734375 48.09375 
Q 17.96875 56 27.875 56 
Q 33.9375 56 38.25 53.625 
Q 42.578125 51.265625 45.40625 46.390625 
z
M 14.796875 27.296875 
Q 14.796875 17.390625 18.875 11.75 
Q 22.953125 6.109375 30.078125 6.109375 
Q 37.203125 6.109375 41.296875 11.75 
Q 45.40625 17.390625 45.40625 27.296875 
Q 45.40625 37.203125 41.296875 42.84375 
Q 37.203125 48.484375 30.078125 48.484375 
Q 22.953125 48.484375 18.875 42.84375 
Q 14.796875 37.203125 14.796875 27.296875 
z
" id="DejaVuSans-100"/>
       <path d="M 48.6875 27.296875 
Q 48.6875 37.203125 44.609375 42.84375 
Q 40.53125 48.484375 33.40625 48.484375 
Q 26.265625 48.484375 22.1875 42.84375 
Q 18.109375 37.203125 18.109375 27.296875 
Q 18.109375 17.390625 22.1875 11.75 
Q 26.265625 6.109375 33.40625 6.109375 
Q 40.53125 6.109375 44.609375 11.75 
Q 48.6875 17.390625 48.6875 27.296875 
z
M 18.109375 46.390625 
Q 20.953125 51.265625 25.265625 53.625 
Q 29.59375 56 35.59375 56 
Q 45.5625 56 51.78125 48.09375 
Q 58.015625 40.1875 58.015625 27.296875 
Q 58.015625 14.40625 51.78125 6.484375 
Q 45.5625 -1.421875 35.59375 -1.421875 
Q 29.59375 -1.421875 25.265625 0.953125 
Q 20.953125 3.328125 18.109375 8.203125 
L 18.109375 0 
L 9.078125 0 
L 9.078125 75.984375 
L 18.109375 75.984375 
z
" id="DejaVuSans-98"/>
       <path d="M 18.3125 70.21875 
L 18.3125 54.6875 
L 36.8125 54.6875 
L 36.8125 47.703125 
L 18.3125 47.703125 
L 18.3125 18.015625 
Q 18.3125 11.328125 20.140625 9.421875 
Q 21.96875 7.515625 27.59375 7.515625 
L 36.8125 7.515625 
L 36.8125 0 
L 27.59375 0 
Q 17.1875 0 13.234375 3.875 
Q 9.28125 7.765625 9.28125 18.015625 
L 9.28125 47.703125 
L 2.6875 47.703125 
L 2.6875 54.6875 
L 9.28125 54.6875 
L 9.28125 70.21875 
z
" id="DejaVuSans-116"/>
      </defs>
      <use xlink:href="#DejaVuSans-101"/>
      <use x="59.773438" xlink:href="#DejaVuSans-120"/>
      <use x="117.203125" xlink:href="#DejaVuSans-99"/>
      <use x="172.183594" xlink:href="#DejaVuSans-108"/>
      <use x="199.966797" xlink:href="#DejaVuSans-117"/>
      <use x="263.345703" xlink:href="#DejaVuSans-105"/>
      <use x="291.128906" xlink:href="#DejaVuSans-118"/>
      <use x="350.308594" xlink:href="#DejaVuSans-101"/>
      <use x="411.832031" xlink:href="#DejaVuSans-95"/>
      <use x="461.832031" xlink:href="#DejaVuSans-112"/>
      <use x="525.308594" xlink:href="#DejaVuSans-105"/>
      <use x="553.091797" xlink:href="#DejaVuSans-112"/>
      <use x="616.568359" xlink:href="#DejaVuSans-101"/>
      <use x="678.091797" xlink:href="#DejaVuSans-108"/>
      <use x="705.875" xlink:href="#DejaVuSans-105"/>
      <use x="733.658203" xlink:href="#DejaVuSans-110"/>
      <use x="797.037109" xlink:href="#DejaVuSans-101"/>
      <use x="858.560547" xlink:href="#DejaVuSans-100"/>
      <use x="922.037109" xlink:href="#DejaVuSans-95"/>
      <use x="972.037109" xlink:href="#DejaVuSans-98"/>
      <use x="1035.513672" xlink:href="#DejaVuSans-105"/>
      <use x="1063.296875" xlink:href="#DejaVuSans-110"/>
      <use x="1126.675781" xlink:href="#DejaVuSans-97"/>
      <use x="1187.955078" xlink:href="#DejaVuSans-114"/>
      <use x="1229.068359" xlink:href="#DejaVuSans-121"/>
      <use x="1288.248047" xlink:href="#DejaVuSans-95"/>
      <use x="1338.248047" xlink:href="#DejaVuSans-116"/>
      <use x="1377.457031" xlink:href="#DejaVuSans-114"/>
      <use x="1416.320312" xlink:href="#DejaVuSans-101"/>
      <use x="1477.84375" xlink:href="#DejaVuSans-101"/>
      <use x="1539.367188" xlink:href="#DejaVuSans-95"/>
      <use x="1589.367188" xlink:href="#DejaVuSans-115"/>
      <use x="1641.466797" xlink:href="#DejaVuSans-99"/>
      <use x="1696.447266" xlink:href="#DejaVuSans-97"/>
      <use x="1757.726562" xlink:href="#DejaVuSans-110"/>
     </g>
    </g>
    <g id="line2d_34">
     <path d="M 391.2625 79.894687 
L 411.2625 79.894687 
" style="fill:none;stroke:#ff7f0e;stroke-linecap:square;stroke-width:1.5;"/>
    </g>
    <g id="line2d_35">
     <g>
      <use style="fill:#ff7f0e;stroke:#ff7f0e;" x="401.2625" xlink:href="#md168c748b3" y="79.894687"/>
     </g>
    </g>
    <g id="text_9">
     <!-- exclusive_LLN -->
     <g transform="translate(419.2625 83.394687)scale(0.1 -0.1)">
      <defs>
       <path d="M 9.8125 72.90625 
L 19.671875 72.90625 
L 19.671875 8.296875 
L 55.171875 8.296875 
L 55.171875 0 
L 9.8125 0 
z
" id="DejaVuSans-76"/>
       <path d="M 9.8125 72.90625 
L 23.09375 72.90625 
L 55.421875 11.921875 
L 55.421875 72.90625 
L 64.984375 72.90625 
L 64.984375 0 
L 51.703125 0 
L 19.390625 60.984375 
L 19.390625 0 
L 9.8125 0 
z
" id="DejaVuSans-78"/>
      </defs>
      <use xlink:href="#DejaVuSans-101"/>
      <use x="59.773438" xlink:href="#DejaVuSans-120"/>
      <use x="117.203125" xlink:href="#DejaVuSans-99"/>
      <use x="172.183594" xlink:href="#DejaVuSans-108"/>
      <use x="199.966797" xlink:href="#DejaVuSans-117"/>
      <use x="263.345703" xlink:href="#DejaVuSans-115"/>
      <use x="315.445312" xlink:href="#DejaVuSans-105"/>
      <use x="343.228516" xlink:href="#DejaVuSans-118"/>
      <use x="402.408203" xlink:href="#DejaVuSans-101"/>
      <use x="463.931641" xlink:href="#DejaVuSans-95"/>
      <use x="513.931641" xlink:href="#DejaVuSans-76"/>
      <use x="569.644531" xlink:href="#DejaVuSans-76"/>
      <use x="625.357422" xlink:href="#DejaVuSans-78"/>
     </g>
    </g>
    <g id="line2d_36">
     <path d="M 391.2625 94.850937 
L 411.2625 94.850937 
" style="fill:none;stroke:#2ca02c;stroke-linecap:square;stroke-width:1.5;"/>
    </g>
    <g id="line2d_37">
     <g>
      <use style="fill:#2ca02c;stroke:#2ca02c;" x="401.2625" xlink:href="#m838b0d6854" y="94.850937"/>
     </g>
    </g>
    <g id="text_10">
     <!-- MPI_exscan -->
     <g transform="translate(419.2625 98.350937)scale(0.1 -0.1)">
      <use xlink:href="#DejaVuSans-77"/>
      <use x="86.279297" xlink:href="#DejaVuSans-80"/>
      <use x="146.582031" xlink:href="#DejaVuSans-73"/>
      <use x="176.074219" xlink:href="#DejaVuSans-95"/>
      <use x="226.074219" xlink:href="#DejaVuSans-101"/>
      <use x="285.847656" xlink:href="#DejaVuSans-120"/>
      <use x="345.027344" xlink:href="#DejaVuSans-115"/>
      <use x="397.126953" xlink:href="#DejaVuSans-99"/>
      <use x="452.107422" xlink:href="#DejaVuSans-97"/>
      <use x="513.386719" xlink:href="#DejaVuSans-110"/>
     </g>
    </g>
    <g id="line2d_38">
     <path d="M 391.2625 109.807187 
L 411.2625 109.807187 
" style="fill:none;stroke:#d62728;stroke-linecap:square;stroke-width:1.5;"/>
    </g>
    <g id="line2d_39">
     <g>
      <use style="fill:#d62728;stroke:#d62728;" x="401.2625" xlink:href="#m0c5e4ba356" y="109.807187"/>
     </g>
    </g>
    <g id="text_11">
     <!-- exclusive_simultaneous_binomial_tree_scan -->
     <g transform="translate(419.2625 113.307187)scale(0.1 -0.1)">
      <defs>
       <path d="M 30.609375 48.390625 
Q 23.390625 48.390625 19.1875 42.75 
Q 14.984375 37.109375 14.984375 27.296875 
Q 14.984375 17.484375 19.15625 11.84375 
Q 23.34375 6.203125 30.609375 6.203125 
Q 37.796875 6.203125 41.984375 11.859375 
Q 46.1875 17.53125 46.1875 27.296875 
Q 46.1875 37.015625 41.984375 42.703125 
Q 37.796875 48.390625 30.609375 48.390625 
z
M 30.609375 56 
Q 42.328125 56 49.015625 48.375 
Q 55.71875 40.765625 55.71875 27.296875 
Q 55.71875 13.875 49.015625 6.21875 
Q 42.328125 -1.421875 30.609375 -1.421875 
Q 18.84375 -1.421875 12.171875 6.21875 
Q 5.515625 13.875 5.515625 27.296875 
Q 5.515625 40.765625 12.171875 48.375 
Q 18.84375 56 30.609375 56 
z
" id="DejaVuSans-111"/>
      </defs>
      <use xlink:href="#DejaVuSans-101"/>
      <use x="59.773438" xlink:href="#DejaVuSans-120"/>
      <use x="117.203125" xlink:href="#DejaVuSans-99"/>
      <use x="172.183594" xlink:href="#DejaVuSans-108"/>
      <use x="199.966797" xlink:href="#DejaVuSans-117"/>
      <use x="263.345703" xlink:href="#DejaVuSans-115"/>
      <use x="315.445312" xlink:href="#DejaVuSans-105"/>
      <use x="343.228516" xlink:href="#DejaVuSans-118"/>
      <use x="402.408203" xlink:href="#DejaVuSans-101"/>
      <use x="463.931641" xlink:href="#DejaVuSans-95"/>
      <use x="513.931641" xlink:href="#DejaVuSans-115"/>
      <use x="566.03125" xlink:href="#DejaVuSans-105"/>
      <use x="593.814453" xlink:href="#DejaVuSans-109"/>
      <use x="691.226562" xlink:href="#DejaVuSans-117"/>
      <use x="754.605469" xlink:href="#DejaVuSans-108"/>
      <use x="782.388672" xlink:href="#DejaVuSans-116"/>
      <use x="821.597656" xlink:href="#DejaVuSans-97"/>
      <use x="882.876953" xlink:href="#DejaVuSans-110"/>
      <use x="946.255859" xlink:href="#DejaVuSans-101"/>
      <use x="1007.779297" xlink:href="#DejaVuSans-111"/>
      <use x="1068.960938" xlink:href="#DejaVuSans-117"/>
      <use x="1132.339844" xlink:href="#DejaVuSans-115"/>
      <use x="1184.439453" xlink:href="#DejaVuSans-95"/>
      <use x="1234.439453" xlink:href="#DejaVuSans-98"/>
      <use x="1297.916016" xlink:href="#DejaVuSans-105"/>
      <use x="1325.699219" xlink:href="#DejaVuSans-110"/>
      <use x="1389.078125" xlink:href="#DejaVuSans-111"/>
      <use x="1450.259766" xlink:href="#DejaVuSans-109"/>
      <use x="1547.671875" xlink:href="#DejaVuSans-105"/>
      <use x="1575.455078" xlink:href="#DejaVuSans-97"/>
      <use x="1636.734375" xlink:href="#DejaVuSans-108"/>
      <use x="1664.517578" xlink:href="#DejaVuSans-95"/>
      <use x="1714.517578" xlink:href="#DejaVuSans-116"/>
      <use x="1753.726562" xlink:href="#DejaVuSans-114"/>
      <use x="1792.589844" xlink:href="#DejaVuSans-101"/>
      <use x="1854.113281" xlink:href="#DejaVuSans-101"/>
      <use x="1915.636719" xlink:href="#DejaVuSans-95"/>
      <use x="1965.636719" xlink:href="#DejaVuSans-115"/>
      <use x="2017.736328" xlink:href="#DejaVuSans-99"/>
      <use x="2072.716797" xlink:href="#DejaVuSans-97"/>
      <use x="2133.996094" xlink:href="#DejaVuSans-110"/>
     </g>
    </g>
    <g id="line2d_40">
     <path d="M 391.2625 124.763437 
L 411.2625 124.763437 
" style="fill:none;stroke:#9467bd;stroke-linecap:square;stroke-width:1.5;"/>
    </g>
    <g id="line2d_41">
     <g>
      <use style="fill:#9467bd;stroke:#9467bd;" x="401.2625" xlink:href="#md7a94c922b" y="124.763437"/>
     </g>
    </g>
    <g id="text_12">
     <!-- binomial_tree_exclusive_scan -->
     <g transform="translate(419.2625 128.263437)scale(0.1 -0.1)">
      <use xlink:href="#DejaVuSans-98"/>
      <use x="63.476562" xlink:href="#DejaVuSans-105"/>
      <use x="91.259766" xlink:href="#DejaVuSans-110"/>
      <use x="154.638672" xlink:href="#DejaVuSans-111"/>
      <use x="215.820312" xlink:href="#DejaVuSans-109"/>
      <use x="313.232422" xlink:href="#DejaVuSans-105"/>
      <use x="341.015625" xlink:href="#DejaVuSans-97"/>
      <use x="402.294922" xlink:href="#DejaVuSans-108"/>
      <use x="430.078125" xlink:href="#DejaVuSans-95"/>
      <use x="480.078125" xlink:href="#DejaVuSans-116"/>
      <use x="519.287109" xlink:href="#DejaVuSans-114"/>
      <use x="558.150391" xlink:href="#DejaVuSans-101"/>
      <use x="619.673828" xlink:href="#DejaVuSans-101"/>
      <use x="681.197266" xlink:href="#DejaVuSans-95"/>
      <use x="731.197266" xlink:href="#DejaVuSans-101"/>
      <use x="790.970703" xlink:href="#DejaVuSans-120"/>
      <use x="848.400391" xlink:href="#DejaVuSans-99"/>
      <use x="903.380859" xlink:href="#DejaVuSans-108"/>
      <use x="931.164062" xlink:href="#DejaVuSans-117"/>
      <use x="994.542969" xlink:href="#DejaVuSans-115"/>
      <use x="1046.642578" xlink:href="#DejaVuSans-105"/>
      <use x="1074.425781" xlink:href="#DejaVuSans-118"/>
      <use x="1133.605469" xlink:href="#DejaVuSans-101"/>
      <use x="1195.128906" xlink:href="#DejaVuSans-95"/>
      <use x="1245.128906" xlink:href="#DejaVuSans-115"/>
      <use x="1297.228516" xlink:href="#DejaVuSans-99"/>
      <use x="1352.208984" xlink:href="#DejaVuSans-97"/>
      <use x="1413.488281" xlink:href="#DejaVuSans-110"/>
     </g>
    </g>
    <g id="line2d_42">
     <path d="M 391.2625 139.719687 
L 411.2625 139.719687 
" style="fill:none;stroke:#8c564b;stroke-linecap:square;stroke-width:1.5;"/>
    </g>
    <g id="line2d_43">
     <g>
      <use style="fill:#8c564b;stroke:#8c564b;" x="401.2625" xlink:href="#m4d0a17cff7" y="139.719687"/>
     </g>
    </g>
    <g id="text_13">
     <!-- Hypercube_Scan_exclusive -->
     <g transform="translate(419.2625 143.219687)scale(0.1 -0.1)">
      <defs>
       <path d="M 9.8125 72.90625 
L 19.671875 72.90625 
L 19.671875 43.015625 
L 55.515625 43.015625 
L 55.515625 72.90625 
L 65.375 72.90625 
L 65.375 0 
L 55.515625 0 
L 55.515625 34.71875 
L 19.671875 34.71875 
L 19.671875 0 
L 9.8125 0 
z
" id="DejaVuSans-72"/>
       <path d="M 53.515625 70.515625 
L 53.515625 60.890625 
Q 47.90625 63.578125 42.921875 64.890625 
Q 37.9375 66.21875 33.296875 66.21875 
Q 25.25 66.21875 20.875 63.09375 
Q 16.5 59.96875 16.5 54.203125 
Q 16.5 49.359375 19.40625 46.890625 
Q 22.3125 44.4375 30.421875 42.921875 
L 36.375 41.703125 
Q 47.40625 39.59375 52.65625 34.296875 
Q 57.90625 29 57.90625 20.125 
Q 57.90625 9.515625 50.796875 4.046875 
Q 43.703125 -1.421875 29.984375 -1.421875 
Q 24.8125 -1.421875 18.96875 -0.25 
Q 13.140625 0.921875 6.890625 3.21875 
L 6.890625 13.375 
Q 12.890625 10.015625 18.65625 8.296875 
Q 24.421875 6.59375 29.984375 6.59375 
Q 38.421875 6.59375 43.015625 9.90625 
Q 47.609375 13.234375 47.609375 19.390625 
Q 47.609375 24.75 44.3125 27.78125 
Q 41.015625 30.8125 33.5 32.328125 
L 27.484375 33.5 
Q 16.453125 35.6875 11.515625 40.375 
Q 6.59375 45.0625 6.59375 53.421875 
Q 6.59375 63.09375 13.40625 68.65625 
Q 20.21875 74.21875 32.171875 74.21875 
Q 37.3125 74.21875 42.625 73.28125 
Q 47.953125 72.359375 53.515625 70.515625 
z
" id="DejaVuSans-83"/>
      </defs>
      <use xlink:href="#DejaVuSans-72"/>
      <use x="75.195312" xlink:href="#DejaVuSans-121"/>
      <use x="134.375" xlink:href="#DejaVuSans-112"/>
      <use x="197.851562" xlink:href="#DejaVuSans-101"/>
      <use x="259.375" xlink:href="#DejaVuSans-114"/>
      <use x="298.238281" xlink:href="#DejaVuSans-99"/>
      <use x="353.21875" xlink:href="#DejaVuSans-117"/>
      <use x="416.597656" xlink:href="#DejaVuSans-98"/>
      <use x="480.074219" xlink:href="#DejaVuSans-101"/>
      <use x="541.597656" xlink:href="#DejaVuSans-95"/>
      <use x="591.597656" xlink:href="#DejaVuSans-83"/>
      <use x="655.074219" xlink:href="#DejaVuSans-99"/>
      <use x="710.054688" xlink:href="#DejaVuSans-97"/>
      <use x="771.333984" xlink:href="#DejaVuSans-110"/>
      <use x="834.712891" xlink:href="#DejaVuSans-95"/>
      <use x="884.712891" xlink:href="#DejaVuSans-101"/>
      <use x="944.486328" xlink:href="#DejaVuSans-120"/>
      <use x="1001.916016" xlink:href="#DejaVuSans-99"/>
      <use x="1056.896484" xlink:href="#DejaVuSans-108"/>
      <use x="1084.679688" xlink:href="#DejaVuSans-117"/>
      <use x="1148.058594" xlink:href="#DejaVuSans-115"/>
      <use x="1200.158203" xlink:href="#DejaVuSans-105"/>
      <use x="1227.941406" xlink:href="#DejaVuSans-118"/>
      <use x="1287.121094" xlink:href="#DejaVuSans-101"/>
     </g>
    </g>
    <g id="line2d_44">
     <path d="M 391.2625 154.675937 
L 411.2625 154.675937 
" style="fill:none;stroke:#e377c2;stroke-linecap:square;stroke-width:1.5;"/>
    </g>
    <g id="line2d_45">
     <g>
      <use style="fill:#e377c2;stroke:#e377c2;" x="401.2625" xlink:href="#m42538cda72" y="154.675937"/>
     </g>
    </g>
    <g id="text_14">
     <!-- ex_linear_scan -->
     <g transform="translate(419.2625 158.175937)scale(0.1 -0.1)">
      <use xlink:href="#DejaVuSans-101"/>
      <use x="59.773438" xlink:href="#DejaVuSans-120"/>
      <use x="118.953125" xlink:href="#DejaVuSans-95"/>
      <use x="168.953125" xlink:href="#DejaVuSans-108"/>
      <use x="196.736328" xlink:href="#DejaVuSans-105"/>
      <use x="224.519531" xlink:href="#DejaVuSans-110"/>
      <use x="287.898438" xlink:href="#DejaVuSans-101"/>
      <use x="349.421875" xlink:href="#DejaVuSans-97"/>
      <use x="410.701172" xlink:href="#DejaVuSans-114"/>
      <use x="451.814453" xlink:href="#DejaVuSans-95"/>
      <use x="501.814453" xlink:href="#DejaVuSans-115"/>
      <use x="553.914062" xlink:href="#DejaVuSans-99"/>
      <use x="608.894531" xlink:href="#DejaVuSans-97"/>
      <use x="670.173828" xlink:href="#DejaVuSans-110"/>
     </g>
    </g>
   </g>
  </g>
 </g>
 <defs>
  <clipPath id="p1171ac41ea">
   <rect height="332.64" width="558" x="90" y="51.84"/>
  </clipPath>
 </defs>
</svg>
